<svg width="64" height="64" viewBox="0 0 64 64" fill="none" xmlns="http://www.w3.org/2000/svg">
<g clip-path="url(#clip0_739_1069)">
<path d="M30.707 -0.250061L31.1729 -0.245178C33.4994 -0.19348 35.7977 0.289173 37.9502 1.1806C40.2464 2.13157 42.3319 3.52826 44.085 5.28998H44.084L53.374 14.5849C55.1368 16.3369 56.5348 18.4218 57.4863 20.7177C58.4377 23.0133 58.9236 25.475 58.917 27.9599V50.6669L58.9131 51.0038C58.8228 54.4826 57.4012 57.7997 54.9346 60.2665C52.3882 62.8129 48.9351 64.2456 45.334 64.2499H18.667C15.0659 64.2456 11.6138 62.8129 9.06738 60.2665C6.52102 57.7202 5.0883 54.268 5.08398 50.6669V13.3329L5.08887 12.996C5.17918 9.51712 6.60055 6.20017 9.06738 3.73334C11.6138 1.18698 15.0659 -0.24574 18.667 -0.250061H30.707ZM18.667 5.58295C16.6117 5.58303 14.6408 6.40014 13.1875 7.85345C11.7342 9.30677 10.9171 11.2777 10.917 13.3329V50.6669C10.9171 52.7222 11.7342 54.6931 13.1875 56.1464C14.6408 57.5998 16.6117 58.4168 18.667 58.4169H45.334C47.3894 58.4169 49.361 57.5998 50.8145 56.1464C52.2676 54.6931 53.0839 52.7221 53.084 50.6669V27.9599C53.084 27.7554 53.064 27.552 53.0381 27.3408C53.0214 27.2052 53.0047 27.0617 52.9873 26.9169H40.001C37.8129 26.9169 35.7142 26.0471 34.167 24.4999C32.62 22.9528 31.751 20.8548 31.751 18.6669V5.67963C31.6057 5.66218 31.4612 5.64553 31.3252 5.62885C31.1136 5.6029 30.9101 5.58295 30.707 5.58295H18.667ZM32.001 31.7499C32.7744 31.75 33.5166 32.0575 34.0635 32.6044C34.6103 33.1514 34.917 33.8935 34.917 34.6669V39.7499H40.001C40.7744 39.75 41.5166 40.0575 42.0635 40.6044C42.6103 41.1514 42.917 41.8935 42.917 42.6669C42.9169 43.4404 42.6104 44.1825 42.0635 44.7294C41.5166 45.2763 40.7744 45.5829 40.001 45.5829H34.917V50.6669C34.9169 51.4404 34.6104 52.1825 34.0635 52.7294C33.5166 53.2763 32.7744 53.5829 32.001 53.5829C31.2276 53.5829 30.4854 53.2762 29.9385 52.7294C29.3916 52.1825 29.0841 51.4404 29.084 50.6669V45.5829H24.001C23.2276 45.5829 22.4854 45.2762 21.9385 44.7294C21.3916 44.1825 21.0841 43.4404 21.084 42.6669C21.084 41.8934 21.3915 41.1514 21.9385 40.6044C22.4855 40.0575 23.2274 39.7499 24.001 39.7499H29.084V34.6669C29.084 33.8934 29.3915 33.1514 29.9385 32.6044C30.4855 32.0575 31.2274 31.7499 32.001 31.7499ZM37.584 18.6669C37.5841 19.3078 37.8388 19.9228 38.292 20.3759C38.7452 20.8289 39.3602 21.0829 40.001 21.0829H51.0762C50.5604 20.224 49.947 19.4271 49.248 18.7079V18.707L39.9629 9.41693L39.6494 9.12299C39.0128 8.54556 38.3211 8.03179 37.584 7.58978V18.6669Z" fill="#AFF500" stroke="#AFF500" stroke-width="0.5"/>
</g>
<defs>
<clipPath id="clip0_739_1069">
<rect width="64" height="64" fill="white"/>
</clipPath>
</defs>
</svg>
