<svg width="64" height="64" viewBox="0 0 64 64" fill="none" xmlns="http://www.w3.org/2000/svg">
<g clip-path="url(#clip0_739_1070)">
<path d="M50.667 2.41626L51.0039 2.42114C54.4828 2.51144 57.7997 3.93281 60.2666 6.39966C62.813 8.94603 64.2457 12.3982 64.25 15.9993V48.0002C64.2456 51.6012 62.8129 55.0536 60.2666 57.5999C57.7202 60.1461 54.268 61.5789 50.667 61.5833H13.333C9.73197 61.5789 6.27976 60.1461 3.7334 57.5999C1.1871 55.0536 -0.245594 51.6012 -0.25 48.0002V15.9993C-0.245679 12.3982 1.18703 8.94603 3.7334 6.39966C6.27977 3.85329 9.7319 2.42058 13.333 2.41626H50.667ZM41.6064 37.4036H41.6055C39.0556 39.9468 35.6013 41.3752 32 41.3752C28.3987 41.3752 24.9444 39.9468 22.3945 37.4036H22.3936L5.58301 20.6018V47.9993C5.58301 50.0547 6.40011 52.0263 7.85352 53.4797C9.30683 54.933 11.2778 55.7492 13.333 55.7493H50.667C52.7222 55.7492 54.6932 54.933 56.1465 53.4797C57.5999 52.0263 58.417 50.0547 58.417 47.9993V20.6018L41.6064 37.4036ZM13.0439 8.25513C11.5988 8.31205 10.1959 8.77276 8.99609 9.58716C7.76159 10.4252 6.79667 11.6014 6.21484 12.9729L26.5186 33.2786H26.5176C27.9736 34.7287 29.945 35.5432 32 35.5432C34.0548 35.5432 36.0255 34.7285 37.4814 33.2786L57.7842 12.9729C57.2023 11.6016 56.2383 10.4251 55.0039 9.58716C53.724 8.71841 52.2129 8.25231 50.666 8.24927H13.334L13.0439 8.25513Z" fill="#AFF500" stroke="#AFF500" stroke-width="0.5"/>
</g>
<defs>
<clipPath id="clip0_739_1070">
<rect width="64" height="64" fill="white"/>
</clipPath>
</defs>
</svg>
