<svg width="64" height="64" viewBox="0 0 64 64" fill="none" xmlns="http://www.w3.org/2000/svg">
<path d="M54.531 54.5323H45.0482V39.6813C45.0482 36.14 44.985 31.5812 40.1162 31.5812C35.1773 31.5812 34.4216 35.4396 34.4216 39.4235V54.5313H24.9387V23.9917H34.0422V28.1653H34.1697C35.0807 26.6075 36.3972 25.326 37.9789 24.4573C39.5606 23.5886 41.3484 23.1651 43.1517 23.2321C52.7629 23.2321 54.535 29.5542 54.535 37.7788L54.531 54.5323ZM14.239 19.8172C13.1506 19.8174 12.0866 19.4948 11.1815 18.8903C10.2764 18.2857 9.57101 17.4264 9.15432 16.4209C8.73763 15.4154 8.62843 14.3089 8.84057 13.2413C9.05271 12.1738 9.57667 11.1931 10.3461 10.4234C11.1156 9.65359 12.0961 9.12929 13.1635 8.91676C14.2309 8.70422 15.3374 8.81301 16.343 9.22935C17.3486 9.64569 18.2082 10.3509 18.813 11.2558C19.4179 12.1607 19.7408 13.2246 19.741 14.313C19.7411 15.0357 19.5989 15.7513 19.3225 16.4191C19.046 17.0868 18.6409 17.6935 18.1299 18.2046C17.619 18.7157 17.0124 19.1212 16.3448 19.3979C15.6772 19.6746 14.9617 19.817 14.239 19.8172ZM18.9804 54.5323H9.48773V23.9917H18.9804V54.5323ZM59.2586 0.00436042H4.72264C3.48483 -0.00960876 2.29205 0.468436 1.40651 1.33345C0.520966 2.19846 0.0151068 3.37966 0 4.6175V59.3815C0.0145898 60.62 0.520152 61.802 1.40566 62.6679C2.29117 63.5338 3.48421 64.0128 4.72264 63.9996H59.2586C60.4995 64.0152 61.6959 63.5376 62.5849 62.6717C63.4739 61.8058 63.9828 60.6225 64 59.3815V4.61355C63.9823 3.37326 63.473 2.19071 62.584 1.32572C61.6949 0.460728 60.4989 -0.0159505 59.2586 0.000407525" fill="#AFF500"/>
</svg>
