<svg width="64" height="64" viewBox="0 0 64 64" fill="none" xmlns="http://www.w3.org/2000/svg">
<path fill-rule="evenodd" clip-rule="evenodd" d="M15.8956 14L15.8261 13.1305H48.1739L48.1044 14H15.8956ZM15.8956 14H1V57.6087C1 60.5862 3.41377 63 6.3913 63H57.6087C60.5862 63 63 60.5862 63 57.6087V14H48.1044L45.4783 46.8261L32 50.8696L18.5217 46.8261L15.8956 14ZM36.7174 32.674H23.2391L22.5652 27.9566L33.3478 24.587H22.5652L21.8913 20.5435H42.7826L42.1087 25.2609L33.3478 28.6305H41.4348L40.087 41.4348L32 44.1305L23.913 41.4348L23.2391 34.6957H27.2826L27.9565 38.0653L32 39.4131L36.0435 38.0653L36.7174 32.674Z" fill="#1172B8"/>
<path d="M15.8261 13.1304V12.1304H14.7429L14.8293 13.2102L15.8261 13.1304ZM18.5217 46.8261L17.5249 46.9058L17.5794 47.5874L18.2344 47.7839L18.5217 46.8261ZM48.1739 13.1304L49.1707 13.2102L49.2571 12.1304H48.1739V13.1304ZM45.4783 46.8261L45.7656 47.7839L46.4205 47.5874L46.4751 46.9058L45.4783 46.8261ZM32 50.8696L31.7126 51.8274L32 51.9136L32.2873 51.8274L32 50.8696ZM23.2391 32.6739L22.2492 32.8153L22.3718 33.6739H23.2391V32.6739ZM36.7174 32.6739L37.7097 32.7979L37.8502 31.6739H36.7174V32.6739ZM22.5652 27.9565L22.2669 27.002L21.455 27.2558L21.5753 28.0979L22.5652 27.9565ZM33.3478 24.587L33.6461 25.5414L33.3478 23.587V24.587ZM22.5652 24.587L21.5788 24.7514L21.7181 25.587H22.5652V24.587ZM21.8913 20.5435V19.5435H20.7108L20.9049 20.7079L21.8913 20.5435ZM42.7826 20.5435L43.7726 20.6849L43.9356 19.5435H42.7826V20.5435ZM42.1087 25.2609L42.4677 26.1942L43.0156 25.9835L43.0986 25.4023L42.1087 25.2609ZM33.3478 28.6304L32.9888 27.6971L33.3478 29.6304V28.6304ZM41.4348 28.6304L42.4293 28.7351L42.5456 27.6304H41.4348V28.6304ZM40.087 41.4348L40.4032 42.3835L41.014 42.1798L41.0815 41.5395L40.087 41.4348ZM32 44.1304L31.6838 45.0791L32 45.1845L32.3162 45.0791L32 44.1304ZM23.913 41.4348L22.918 41.5343L22.9824 42.1787L23.5968 42.3835L23.913 41.4348ZM23.2391 34.6957V33.6957H22.1341L22.2441 34.7952L23.2391 34.6957ZM27.2826 34.6957L28.2632 34.4995L28.1024 33.6957H27.2826V34.6957ZM27.9565 38.0652L26.9759 38.2613L27.0898 38.8304L27.6403 39.0139L27.9565 38.0652ZM32 39.413L31.6838 40.3617L32 40.4671L32.3162 40.3617L32 39.413ZM36.0435 38.0652L36.3597 39.0139L36.9576 38.8146L37.0358 38.1893L36.0435 38.0652ZM2 6.3913C2 3.96605 3.96605 2 6.3913 2V0C2.86148 0 0 2.86148 0 6.3913H2ZM2 57.6087V6.3913H0V57.6087H2ZM6.3913 62C3.96605 62 2 60.0339 2 57.6087H0C0 61.1385 2.86148 64 6.3913 64V62ZM57.6087 62H6.3913V64H57.6087V62ZM62 57.6087C62 60.0339 60.0339 62 57.6087 62V64C61.1385 64 64 61.1385 64 57.6087H62ZM62 6.3913V57.6087H64V6.3913H62ZM57.6087 2C60.0339 2 62 3.96605 62 6.3913H64C64 2.86148 61.1385 0 57.6087 0V2ZM6.3913 2H57.6087V0H6.3913V2ZM14.8293 13.2102L17.5249 46.9058L19.5186 46.7463L16.8229 13.0507L14.8293 13.2102ZM48.1739 12.1304H15.8261V14.1304H48.1739V12.1304ZM46.4751 46.9058L49.1707 13.2102L47.1771 13.0507L44.4814 46.7463L46.4751 46.9058ZM32.2873 51.8274L45.7656 47.7839L45.1909 45.8683L31.7126 49.9117L32.2873 51.8274ZM18.2344 47.7839L31.7126 51.8274L32.2873 49.9117L18.8091 45.8683L18.2344 47.7839ZM23.2391 33.6739H36.7174V31.6739H23.2391V33.6739ZM21.5753 28.0979L22.2492 32.8153L24.2291 32.5325L23.5552 27.8151L21.5753 28.0979ZM33.0495 23.6325L22.2669 27.002L22.8635 28.911L33.6461 25.5414L33.0495 23.6325ZM22.5652 25.587H33.3478V23.587H22.5652V25.587ZM20.9049 20.7079L21.5788 24.7514L23.5516 24.4226L22.8777 20.3791L20.9049 20.7079ZM42.7826 19.5435H21.8913V21.5435H42.7826V19.5435ZM43.0986 25.4023L43.7726 20.6849L41.7927 20.4021L41.1187 25.1194L43.0986 25.4023ZM33.7068 29.5638L42.4677 26.1942L41.7497 24.3275L32.9888 27.6971L33.7068 29.5638ZM41.4348 27.6304H33.3478V29.6304H41.4348V27.6304ZM41.0815 41.5395L42.4293 28.7351L40.4403 28.5257L39.0924 41.3301L41.0815 41.5395ZM32.3162 45.0791L40.4032 42.3835L39.7707 40.4861L31.6838 43.1817L32.3162 45.0791ZM23.5968 42.3835L31.6838 45.0791L32.3162 43.1817L24.2293 40.4861L23.5968 42.3835ZM22.2441 34.7952L22.918 41.5343L24.9081 41.3353L24.2342 34.5961L22.2441 34.7952ZM27.2826 33.6957H23.2391V35.6957H27.2826V33.6957ZM28.9371 37.8691L28.2632 34.4995L26.302 34.8918L26.9759 38.2613L28.9371 37.8691ZM32.3162 38.4644L28.2727 37.1165L27.6403 39.0139L31.6838 40.3617L32.3162 38.4644ZM35.7272 37.1165L31.6838 38.4644L32.3162 40.3617L36.3597 39.0139L35.7272 37.1165ZM35.7251 32.5499L35.0512 37.9412L37.0358 38.1893L37.7097 32.7979L35.7251 32.5499Z" fill="white"/>
</svg>
