<svg width="283" height="3489" viewBox="0 0 283 3489" fill="none" xmlns="http://www.w3.org/2000/svg">
<path fill-rule="evenodd" clip-rule="evenodd" d="M194.733 0C187.066 19.7544 170.333 73.9943 164.733 132.919C157.733 159.446 141.633 219.104 133.233 245.519C130.059 255.498 126.018 269.963 121.592 285.805C111.374 322.378 99.1057 366.288 90.7326 379.284C82.9772 391.322 71.7888 390.218 62.8787 389.34C58.0021 388.859 53.808 388.445 51.2326 390.29C38.2326 399.603 30.2326 452.093 28.7326 519.823C30.5659 536.19 43.2326 569.773 79.2326 573.159C110.304 576.082 129.695 587.078 144.154 595.277C150.635 598.952 156.126 602.065 161.233 603.638C174.433 607.701 189.066 599.687 194.733 595.171C198.066 594.607 207.133 579.763 216.733 524.902C226.333 470.042 238.733 438.265 243.733 429.235C247.566 419.922 260.533 403.497 281.733 412.302V354.732C264.733 355.297 225.833 380.3 206.233 475.799C186.821 570.377 175.257 567.701 160.1 564.193C156.126 563.273 151.906 562.297 147.233 563C124.733 566.386 66.7326 542.681 70.7326 512.203C73.3971 491.901 78.7239 480.99 87.8953 462.205C92.4922 452.789 98.055 441.395 104.733 425.848C115.171 401.545 122.477 377.473 129.493 354.354C135.921 333.177 142.105 312.799 150.233 293.776C152.731 287.928 155.759 280.927 159.123 273.151C178.643 228.018 209.467 156.751 213.733 132.919C215.212 124.652 216.604 114.235 218.09 103.116L218.09 103.116L218.09 103.116V103.116C221.625 76.6587 225.692 46.2272 232.733 31.3248C240.733 14.3925 245.399 3.38647 246.733 0H194.733ZM281.733 136.305C250.399 196.697 187.333 328.318 185.733 371.665C184.133 415.011 195.399 406.658 201.233 397.063C214.566 375.616 245.533 330.18 262.733 320.021C276.52 311.877 280.948 312.619 281.733 314.833V316.635C281.898 316.019 281.927 315.381 281.733 314.833V136.305ZM73.7326 626.496C38.2326 614.644 3.73258 595.171 2.23258 587.552V667.134C15.7326 655.281 79.2326 663.747 96.7326 667.134C104.75 668.685 116.545 675.567 126.733 681.512C138.784 688.543 148.587 694.263 147.233 688.299C144.733 677.293 109.233 638.349 73.7326 626.496ZM2.23258 868.629C14.2326 862.138 36.2326 848.31 28.2326 844.923C20.2326 841.537 7.56592 839.561 2.23258 838.997V868.629ZM177.733 967.683C215.733 928.4 262.899 989.695 281.733 1025.25V1142.09C244.933 1057.42 224.733 1059.4 219.233 1070.97C200.033 1082.48 198.566 1222.51 200.233 1291.09C199.233 1324.95 196.533 1387.94 193.733 1368.98C190.933 1350.01 172.899 1244.81 164.233 1194.58C152.899 1135.31 139.733 1006.97 177.733 967.683ZM281.733 1185.26C277.566 1179.05 267.733 1166.13 261.733 1164.1C258.77 1163.09 257.524 1158.26 256.084 1152.68C253.877 1144.12 251.216 1133.8 241.233 1132.77C228.033 1131.42 220.733 1199.37 218.733 1233.52C217.899 1298.99 215.833 1435.02 214.233 1455.33C213.884 1459.76 213.066 1467.59 212.016 1477.65L212.016 1477.65L212.015 1477.66L212.015 1477.66L212.015 1477.66L212.015 1477.66L212.014 1477.67L212.014 1477.67C207.031 1525.39 196.823 1623.16 206.733 1644.13C212.448 1656.23 215.611 1659.92 217.236 1660.04C202.767 1689.73 166.507 1729.35 119.233 1698.31C104.233 1688.46 110.733 1651.75 129.733 1636.51C137.399 1626.35 154.333 1597.57 160.733 1563.7C168.733 1521.37 173.233 1479.89 172.233 1450.25C171.233 1420.62 167.233 1317.34 136.733 1258.92C130.736 1247.43 127.504 1225.91 124.422 1205.38C120.689 1180.51 117.176 1157.1 109.233 1154.79C103.233 1151.4 88.8326 1169.69 79.2326 1269.92L78.947 1272.91C72.1085 1344.3 70.1598 1364.65 72.6104 1384.45C73.587 1392.34 75.2623 1400.14 77.6051 1411.06C79.4189 1419.51 81.6329 1429.82 84.2326 1443.48C95.8326 1504.44 85.7326 1530.4 79.2326 1535.76C67.3855 1547.8 56.6473 1543.17 43.6607 1537.57C31.9831 1532.54 18.4874 1526.72 0.732582 1531.53V1563.92C0.506058 1566.64 0.552244 1569.26 0.732582 1571.32V1563.92C1.34346 1556.57 3.93764 1548.46 11.2326 1548.46C23.7326 1548.46 33.2326 1549.31 43.7326 1554.39C54.2326 1559.47 74.7326 1568.78 88.2326 1554.39C101.733 1540 108.733 1526.45 109.233 1497.66C109.59 1477.11 106.121 1438.84 103.927 1414.64C103.049 1404.95 102.375 1397.52 102.233 1394.38C101.733 1383.37 98.7326 1291.09 115.233 1286.01C128.433 1281.95 147.399 1328.91 155.233 1352.89C159.566 1371.52 168.133 1418.08 167.733 1455.33C167.233 1501.9 158.733 1550.15 152.733 1571.32C146.733 1592.49 136.233 1615.34 119.233 1631.43C102.233 1647.52 92.2326 1680.53 99.2326 1693.23C100.288 1695.15 101.32 1697.2 102.38 1699.3C108.348 1711.14 115.172 1724.69 131.733 1725.4C147.566 1727.94 185.333 1725.07 209.733 1693.23C227.566 1671.5 266.233 1618.56 278.233 1580.63C275.627 1573.01 272.504 1572.19 268.749 1571.21C264.578 1570.12 259.626 1568.82 253.733 1557.77C242.533 1536.78 242.733 1514.6 244.233 1506.13C244.233 1495.97 249.533 1470.57 270.733 1450.25C272.672 1448.4 274.333 1446.81 275.744 1445.47L271.233 1451.1C279.107 1443.15 289.759 1432.18 275.744 1445.47L280.733 1439.25L281.733 1185.26ZM96.7326 1725.4C162.233 1790.59 246.733 1678.84 280.733 1602.65V1593.33L249.233 1650.06C237.399 1666.14 208.533 1702.55 187.733 1719.48C161.733 1740.64 129.733 1737.26 115.733 1731.33C101.733 1725.4 93.2326 1709.32 88.2326 1698.31C83.2326 1687.31 86.7326 1656.83 97.2326 1648.36C105.633 1641.59 129.399 1608.29 140.233 1592.49C157.96 1548.89 158.941 1538.48 160.922 1517.44C161.288 1513.56 161.687 1509.32 162.233 1504.44C165.733 1473.11 163.733 1383.37 145.233 1347.81C128.283 1315.24 126.443 1316.06 121.255 1318.38C120.78 1318.59 120.277 1318.82 119.733 1319.03C113.233 1321.57 109.233 1352.89 109.233 1383.37C109.233 1395.65 110.045 1403.4 111.014 1412.65C112.451 1426.35 114.233 1443.34 114.233 1483.27C114.233 1547.1 100.572 1556.18 88.4601 1564.24C88.1156 1564.47 87.7724 1564.7 87.4307 1564.92C87.1972 1565.08 86.9645 1565.24 86.7326 1565.39C78.0675 1571.26 71.3246 1569 59.675 1565.08C54.5193 1563.34 48.4024 1561.29 40.7326 1559.47C19.075 1554.33 16.1794 1557.46 11.2413 1562.79C10.4792 1563.61 9.66846 1564.49 8.7326 1565.39C1.7326 1572.17 0.732596 1608.57 1.7326 1624.66C2.7326 1640.74 10.7326 1680.53 22.2326 1717.79C31.6686 1748.35 38.7482 1758.4 49.8242 1774.11C52.2469 1777.55 54.8609 1781.26 57.7326 1785.51C73.7326 1809.22 100.733 1824.46 124.233 1826.15C146.337 1827.74 169.769 1807.61 178.299 1800.29C178.838 1799.82 179.317 1799.41 179.733 1799.06C186.733 1793.13 217.233 1757.58 224.233 1748.26C228.882 1742.08 236.399 1729.54 243.707 1717.36L243.709 1717.35C247.403 1711.19 251.043 1705.12 254.233 1700.01C261.833 1687.81 275.066 1659.93 280.733 1647.52V1639.05C274.233 1652.6 258.933 1683.75 249.733 1700.01C240.533 1716.26 220.899 1744.03 212.233 1755.88C195.233 1779.13 154.333 1816.5 136.733 1818.53C114.733 1821.07 92.2326 1811.76 74.2326 1797.37C59.8326 1785.85 41.5659 1754.75 34.2326 1740.64C28.8993 1726.53 16.3326 1687.65 8.7326 1644.98C1.1326 1602.31 8.89926 1579.79 13.7326 1573.86C19.3326 1561.67 45.7326 1570.47 58.2326 1576.4C89.2326 1584.02 101.733 1563.7 110.733 1545.08C122.742 1511.42 120.448 1483.57 117.801 1451.43C117.252 1444.76 116.688 1437.91 116.233 1430.78C114.233 1399.46 115.233 1339.38 127.733 1345.27C149.905 1355.73 155.139 1400.48 157.782 1423.07C158.133 1426.08 158.439 1428.69 158.733 1430.78C161.233 1448.56 160.733 1501.9 153.733 1540C148.133 1570.47 132.733 1596.15 125.733 1605.19C112.463 1623.84 105.588 1629.12 100.209 1633.25C94.8463 1637.37 90.972 1640.34 83.7326 1654.29C67.3022 1685.95 85.7326 1713.55 96.7326 1725.4ZM280.733 1656.83C268.233 1679.97 240.133 1730.65 227.733 1748.26C212.233 1770.28 183.233 1806.68 157.733 1821.92C144.203 1829.56 136.575 1829.83 129.417 1830.09C127.687 1830.16 125.984 1830.22 124.233 1830.39C108.733 1829.26 72.4326 1818.7 51.2326 1785.51C24.7326 1744.03 12.7326 1709.32 6.2326 1677.15C3.55171 1663.88 2.26182 1655.74 1.7326 1650.97V1644.98C1.40963 1644.98 1.23531 1646.49 1.7326 1650.97V1680.53C5.06593 1694.64 13.8326 1726.93 22.2326 1743.18C23.3183 1745.28 24.4053 1747.41 25.5013 1749.55L25.5036 1749.55C35.0066 1768.11 45.1951 1788.01 61.2326 1806.68C69.2326 1815.99 85.7326 1829.54 108.733 1835.46C109.258 1835.53 109.819 1835.6 110.415 1835.67C120.4 1836.91 139.775 1839.32 152.233 1832.92C168.733 1824.46 188.233 1807.53 209.733 1780.43C231.233 1753.34 244.233 1733.02 254.233 1714.4C262.233 1699.5 275.233 1675.45 280.733 1665.29V1656.83ZM276.271 1700.96L276.272 1700.96L276.278 1700.95L276.35 1700.79L276.386 1700.71C278.039 1697.01 279.655 1693.39 281.233 1689.85C281.233 1757.86 281.133 1896.08 280.733 1904.89C280.233 1915.89 265.733 1938.75 254.233 1938.75C246.572 1938.75 241.963 1935.12 236.086 1930.5C230.838 1926.37 224.579 1921.44 214.233 1917.59C203.156 1913.46 192.964 1911.99 182.828 1910.53L182.826 1910.53C170.085 1908.7 157.434 1906.88 143.233 1899.81C164.399 1893.03 208.077 1870.85 218.733 1841.39C240.883 1780.16 260.309 1736.68 276.271 1700.96ZM0.732596 1806.68C13.7326 1827 46.0326 1871.36 71.2326 1886.26C102.733 1904.89 117.233 1911.66 174.233 1925.21C219.833 1936.04 264.233 2016.08 280.733 2054.74V2108.92C263.566 2060.1 218.233 1958.73 174.233 1943.83C130.233 1928.93 78.2326 1899.24 57.7326 1886.26C44.5659 1873.28 14.7326 1841.56 0.732596 1818.53V1806.68ZM0.732596 1845.62V1830.39C10.3993 1843.08 35.7326 1874.24 59.7326 1897.27C71.5894 1908.64 84.4616 1914.47 99.1517 1921.11C121.63 1931.28 148.365 1943.37 182.233 1980.24C227.033 2029 247.233 2111.18 251.733 2146.17C261.135 2195.93 251.198 2211.89 244.291 2222.99C242.383 2226.06 240.707 2228.75 239.733 2231.68C235.233 2245.23 180.733 2260.47 171.733 2260.47C162.733 2260.47 137.233 2309.57 123.233 2344.28C116.839 2360.13 117.093 2381.34 117.373 2404.65C117.583 2422.18 117.807 2440.89 115.233 2459.42C101.733 2504.29 86.7326 2533.08 66.2326 2533.08C39.8783 2533.08 30.8792 2343.87 28.607 2296.1L28.6066 2296.09L28.6064 2296.09C28.4517 2292.84 28.3282 2290.24 28.2326 2288.4C27.0326 2265.38 9.39926 2167.62 0.732596 2121.62V1981.93C0.732596 1978.83 4.5326 1985.82 19.7326 2038.65C34.9326 2091.48 55.0659 2132.34 63.2326 2146.17C67.8993 2150.97 77.5326 2154.81 78.7326 2131.78C79.9326 2108.75 27.2326 1993.5 0.732596 1938.75V1917.59C8.56593 1931.13 24.5326 1957.55 25.7326 1954.84C26.9326 1952.13 9.56593 1917.02 0.732596 1899.81V1868.48C7.7326 1880.62 25.2326 1908.95 39.2326 1925.21C42.9615 1929.54 48.7563 1936.33 55.6931 1944.45C81.3107 1974.47 122.503 2022.73 132.733 2032.73C145.733 2045.43 163.233 2104.69 163.733 2131.78C164.133 2153.45 143.233 2160 132.733 2160.57C123.614 2172.67 122.327 2187.24 121.063 2201.54C119.762 2216.25 118.487 2230.68 108.733 2241.84C74.2475 2281.31 46.6778 2186.19 37.9194 2155.98C34.5928 2144.5 33.9799 2142.39 36.7326 2160.57C46.7326 2226.6 60.7326 2251.15 89.2326 2260.47C105.485 2265.78 110.844 2254.29 118.104 2238.73C123.575 2227.01 130.126 2212.96 143.233 2202.05C159.952 2188.13 171.563 2192.01 179.713 2194.74C186.43 2196.99 190.796 2198.45 193.733 2188.5C198.73 2171.58 202.84 2165.67 206.519 2160.37C207.625 2158.78 208.692 2157.25 209.733 2155.49C214.233 2147.87 212.233 2108.92 193.733 2054.74C175.233 2000.55 120.733 1953.14 89.2326 1938.75C64.0326 1927.24 19.7326 1871.87 0.732596 1845.62ZM280.233 2268.09C269.399 2282.76 240.133 2315.33 209.733 2328.2C183.927 2339.12 185.792 2370.74 187.61 2401.57C188.469 2416.14 189.318 2430.53 187.233 2442.49C185.835 2450.5 183.998 2458.98 182.12 2467.65C175.262 2499.31 167.85 2533.52 179.233 2556.78C193.733 2586.41 208.233 2616.89 193.733 2646.52L192.697 2648.64C179.083 2676.46 175.978 2682.8 165.733 2711.71C160.573 2726.27 150.342 2732.04 141.626 2736.96C132.605 2742.05 125.207 2746.22 126.733 2758.28C127.934 2767.77 146.283 2777.8 168.307 2789.84C201.298 2807.88 242.535 2830.43 246.733 2862.41C252.333 2905.08 204.066 2951.31 179.233 2969.08C186.399 2958.36 193.733 2936.4 165.733 2934.37C150.002 2933.23 139.422 2934.48 130.044 2935.59C118.557 2936.96 108.873 2938.1 93.7326 2934.37C66.2326 2927.6 24.2326 2915.75 10.2326 2875.11C4.65257 2858.91 1.90225 2845.55 0.732596 2835.41V2815C-0.0200787 2818.26 -0.445431 2825.19 0.732596 2835.41V2899.66C8.2326 2910.95 26.9326 2935.39 41.7326 2942.84C56.5326 2950.29 76.5659 2963.44 84.7326 2969.08C87.2326 2970.78 90.7326 2974.16 84.7326 2974.16C77.2326 2974.16 49.7326 2973.32 39.2326 2965.7C28.7326 2958.08 8.23259 2940.3 0.732596 2928.45V2997.87C34.2326 3014.8 108.533 3046.3 137.733 3036.81C154.847 3031.26 174.489 3026.82 193.051 3022.62L193.059 3022.62C214.083 3017.86 233.722 3013.42 246.733 3008.03C271.233 2997.87 189.733 3061.37 165.733 3070.68C141.733 3079.99 123.233 3088.46 123.233 3103.7C123.233 3118.94 136.233 3141.79 154.233 3151.11L155.764 3151.9L155.766 3151.9C174.898 3161.82 222.793 3186.66 278.733 3186.66C280.566 3180.17 283.133 3167.19 278.733 3167.19C275.865 3167.19 237.651 3165.81 201.733 3158.01C200.595 3154.71 190.881 3144.44 183.085 3136.19C177.177 3129.94 172.37 3124.86 173.233 3124.86C173.399 3118.09 177.433 3101.16 192.233 3087.61C210.733 3070.68 148.783 3091 147.733 3113.01C146.893 3130.62 183.383 3150.35 201.733 3158.01C168.766 3150.85 137.733 3138.27 137.733 3116.4C137.733 3092.59 155.349 3086.23 177.602 3078.2C198.093 3070.8 222.515 3061.98 240.733 3036.81C271.133 2994.82 278.733 2977.55 278.733 2974.16L249.733 2978.4C259.399 2973.88 278.733 2962.65 278.733 2953.85V2899.66V2505.14C268.899 2502.6 249.733 2489.9 251.733 2459.42C253.733 2428.94 270.566 2391.41 278.733 2376.45L280.233 2268.09ZM206.733 3129.94C203.933 3100.14 253.566 3060.52 278.733 3044.43V3151.11C255.899 3156.47 209.533 3159.74 206.733 3129.94ZM278.733 3024.96V3036.81C252.566 3056.29 200.533 3096.92 201.733 3103.7C203.233 3112.16 186.233 3104.54 206.733 3087.61C223.133 3074.06 261.566 3040.2 278.733 3024.96ZM19.7326 2515.3C21.676 2452.78 8.56593 2286.71 0.732596 2211.36V2288.4C2.2326 2309.85 6.2326 2357.49 10.2326 2376.45C15.2326 2400.16 13.7326 2583.87 10.2326 2634.67C7.88553 2668.73 4.77179 2750.66 5.2326 2787.91C-4.10575 2835.32 24.0083 2871.44 39.2326 2883.58C54.3993 2888.94 84.7326 2894.75 84.7326 2875.11C84.7326 2859.26 68.4784 2844.11 52.2482 2828.99C43.3379 2820.69 34.4349 2812.4 28.2326 2803.99C11.3804 2781.17 16.7843 2609.17 19.44 2524.64C19.542 2521.4 19.6401 2518.28 19.7326 2515.3ZM109.733 3070.68C104.399 3078.58 95.0326 3098.79 100.233 3116.4C105.433 3134.01 144.733 3160.42 163.733 3171.43C144.399 3166.35 106.133 3160.08 107.733 3175.66C109.333 3191.24 160.066 3210.93 185.233 3218.84L278.733 3235.77V3287.41C218.899 3264.27 92.5326 3210.71 65.7326 3181.58C38.9326 3152.46 11.2326 3106.8 0.732596 3087.61V3030.04C27.7326 3032.58 87.3326 3044.26 109.733 3070.68ZM278.733 3218.84V3197.67C265.478 3197.67 248.634 3196.43 232.572 3195.26C202.586 3193.06 175.325 3191.06 179.233 3197.67C191.633 3218.67 250.733 3220.53 278.733 3218.84ZM0.732596 3113.01C14.0659 3134.17 46.4326 3180.74 69.2326 3197.67C92.0326 3214.6 129.399 3238.59 145.233 3248.47C121.733 3239.72 68.6326 3216.47 44.2326 3193.44C19.8326 3170.41 5.06593 3152.8 0.732596 3146.87V3113.01ZM173.233 3313.66C204.833 3334.65 256.733 3412.15 278.733 3448.27V3488.91C265.234 3492.08 216.021 3413.36 189.722 3371.29C180.954 3357.26 174.733 3347.31 173.233 3345.83C168.433 3341.09 56.2326 3250.16 0.732596 3205.29V3175.66C45.0659 3212.91 141.633 3292.66 173.233 3313.66ZM0.732596 3248.47C26.5659 3268.79 81.7326 3320.09 95.7326 3362.76C105.549 3392.68 120.242 3398.62 141.047 3407.04C157.333 3413.63 177.364 3421.73 201.733 3444.04C246.133 3484.67 247.566 3486.93 242.733 3482.98C241.471 3482.98 236.827 3480.62 230.573 3477.45L230.57 3477.44C216.996 3470.55 195.843 3459.81 185.233 3460.97C169.733 3462.66 138.233 3466.89 113.233 3477.9C93.2326 3486.71 29.8993 3488.91 0.732596 3488.91V3477.9C30.0659 3480.16 93.6326 3479.93 113.233 3460.97C128.13 3446.55 104.576 3441.84 79.1025 3436.75C62.6819 3433.47 45.4636 3430.02 37.2326 3423.72C20.4326 3410.85 5.89927 3395.78 0.732596 3389.85V3248.47ZM177.733 0C177.399 3.10426 175.733 12.1913 171.733 23.7053C167.733 35.2193 161.066 63.4962 158.233 76.1955C155.899 85.5083 150.933 107.52 149.733 121.066C148.233 137.999 141.233 176.096 138.233 186.256C135.233 196.415 111.233 273.457 108.233 281.923C107.645 283.583 106.653 287.355 105.338 292.363C99.941 312.904 89.0868 354.218 78.2326 355.579C70.4728 356.552 62.0522 343.819 54.775 332.815C49.3918 324.675 44.6342 317.481 41.2326 317.481C35.7099 317.481 26.2326 330.18 20.7326 366.585L8.73261 436.008L2.73261 496.117V563C6.73261 574.006 19.7326 596.695 39.7326 599.405C59.7326 602.114 99.3993 620.852 116.733 629.883C137.733 651.33 184.033 697.951 201.233 712.851C207.664 718.423 213.38 722.934 218.327 726.838L218.329 726.84L218.33 726.841C229.916 735.985 237.28 741.796 239.733 750.102C243.233 761.955 242.733 768.728 239.733 774.654C236.733 780.581 220.733 783.12 209.733 778.887C188.899 767.317 141.133 736.726 116.733 706.925C92.3326 677.124 30.2326 687.735 2.23261 696.766V812.752C12.2326 813.599 39.3326 810.212 67.7326 789.893C90.2326 773.796 136.566 802.875 153.233 822.065C138.233 812.47 103.733 795.65 85.7326 805.132C65.2412 815.927 48.0674 847.788 39.8769 862.983C39.074 864.472 38.3575 865.802 37.7326 866.935C36.8356 868.563 35.9467 870.204 35.063 871.836L35.0596 871.843L35.0562 871.849C29.0459 882.948 23.269 893.616 16.7326 896.567C10.7326 899.276 4.56594 902.211 2.23261 903.34V975.302C5.23261 969.658 12.3326 957.354 16.7326 953.29C22.2326 948.211 34.2326 932.971 45.7326 903.34C54.9326 879.635 68.2326 861.291 73.7326 855.083C62.7326 878.224 39.5326 928.23 34.7326 943.131C28.7326 961.756 24.7326 974.456 20.7326 990.541C20.3256 992.178 19.9185 993.771 19.5167 995.344L19.5162 995.346C15.97 1009.22 12.8344 1021.5 13.7326 1048.11C14.1619 1060.83 17.5406 1073.24 21.2173 1086.75C26.1043 1104.7 31.5179 1124.58 31.2326 1149.71C32.2326 1172.85 30.4326 1226.92 15.2326 1258.07C0.03261 1289.23 -0.100723 1291.37 1.73261 1288.55V1332.57C7.89928 1325.8 20.9326 1310.56 23.7326 1303.79C27.2326 1295.32 11.2326 1345.27 1.73261 1357.97V1499.36C3.39928 1497.66 8.4326 1495.29 15.2326 1499.36C17.2063 1500.54 19.7192 1502.54 22.5584 1504.8C31.9466 1512.28 44.9029 1522.59 53.7326 1515.44C65.2326 1506.13 70.2326 1496.82 69.7326 1482.43C69.4428 1474.08 66.298 1455.51 62.7314 1434.44C60.1441 1419.15 57.3348 1402.55 55.2326 1387.6C50.2326 1352.05 55.2326 1310.56 59.2326 1294.48C63.2326 1278.39 72.7326 1219.97 72.7326 1198.81C72.7326 1193.47 72.6373 1183.41 72.5188 1170.89C72.1671 1133.72 71.6106 1074.93 72.7326 1054.04C74.2326 1026.1 82.7326 954.137 105.233 916.039C123.233 885.561 137.399 875.119 142.233 873.708C151.066 871.733 176.633 874.216 208.233 899.953C239.833 925.691 270.399 947.928 281.733 955.83V911.806C244.399 884.432 166.433 825.79 153.233 810.212C136.733 790.74 107.233 766.188 77.2326 763.648C69.0403 762.955 59.8786 762.514 50.9489 762.084C27.1783 760.939 5.05183 759.874 7.2326 754.335C10.2326 746.716 19.2326 736.556 37.7326 732.323C40.1427 731.772 42.3406 731.249 44.3783 730.765C57.9826 727.529 64.4473 725.992 79.2326 728.937C96.2326 732.323 118.233 743.329 145.233 770.421C172.233 797.513 201.733 822.911 213.233 831.378C224.733 839.844 267.733 866.935 281.733 866.089V646.815C271.566 610.693 254.236 553.843 243.733 560.46C233.452 566.937 230.945 581.158 228.395 595.624C225.613 611.41 222.778 627.489 209.733 634.116C189.733 644.275 164.733 629.883 154.733 621.417C136.233 609.282 94.9326 585.181 77.7326 585.859C56.2326 586.705 29.2326 572.313 22.2326 553.687C21.8223 552.595 21.4188 551.536 21.024 550.499L21.0156 550.477L21.0111 550.465C14.6786 533.833 10.5882 523.09 16.2326 480.878C17.7745 469.348 19.3493 456.643 20.9148 444.014L20.9149 444.013L20.9149 444.013C25.4413 407.498 29.889 371.617 33.2326 366.585C34.7581 364.289 35.7664 361.409 36.7251 358.672C38.5945 353.333 40.275 348.533 45.2326 349.653C49.5454 350.626 55.0156 356.919 59.9317 362.575C63.5648 366.754 66.8953 370.585 69.2326 371.665C74.7326 374.205 87.7326 369.125 94.2326 349.653C99.4326 334.075 117.399 273.739 125.733 245.519L152.733 155.777C154.566 140.538 158.633 108.198 160.233 100.747C162.233 91.4346 171.733 47.4105 173.733 42.3308C175.333 38.2671 181.733 12.417 184.733 0H177.733ZM3.73267 182.023C6.73267 177.225 19.7327 173.557 34.2327 175.25C51.9459 177.319 64.7327 198.109 64.7327 207.422C64.7327 216.734 64.7327 219.274 61.7327 219.274C59.8878 219.274 57.969 216.744 55.5649 213.574C52.069 208.964 47.5467 203 40.7327 201.495C34.081 200.026 24.3728 207.151 19.294 210.878L19.291 210.881L19.2768 210.891C18.9024 211.166 18.5533 211.422 18.2327 211.655C13.566 215.041 3.73267 236.207 3.73267 236.207V182.023ZM30.7327 107.52C13.2327 99.9007 3.89933 105.545 2.73267 111.753V134.612C6.21127 130.931 13.8495 134.293 21.0434 137.459C22.1216 137.934 23.1899 138.404 24.2327 138.845C32.2327 142.232 57.2327 150.698 67.7327 138.845C76.1327 129.363 78.566 107.803 78.7327 98.2075C78.566 84.3794 79.0327 56.2153 82.2327 54.1835C86.2327 51.6436 94.7327 76.1955 95.7327 93.1278C96.7327 110.06 95.7327 157.471 94.7327 171.863C93.9327 183.377 88.066 215.041 85.2327 229.433C83.8993 241.85 78.3327 265.16 66.7327 259.065C60.6268 255.856 57.5354 250.546 54.4717 245.283C50.2598 238.048 46.1003 230.903 34.2327 229.433C17.8327 227.401 6.39933 253.421 2.73267 266.684V447.86C4.39933 432.057 7.83267 399.942 8.23267 397.91C8.28696 397.634 8.44629 396.513 8.70115 394.719C10.3238 383.299 15.8186 344.627 22.7327 323.408C27.3993 311.555 37.6327 290.897 47.2327 303.089C51.823 308.918 55.675 316.482 59.3002 323.6C65.1519 335.09 70.4124 345.42 77.2327 345.42C80.7327 345.42 84.2327 342.033 85.2327 337.8C86.8327 335.768 99.2327 295.187 105.233 275.15L125.733 206.574C130.566 187.667 140.533 147.65 141.733 138.845C142.933 130.04 151.233 90.588 155.233 71.9624C157.066 60.9564 161.833 36.4045 166.233 26.2451C170.633 16.0857 172.733 4.51529 173.233 0H155.233C155.899 1.12882 156.833 4.57173 155.233 9.31278C153.633 14.0538 146.233 39.5088 142.733 51.6436C140.066 67.4471 134.733 102.949 134.733 118.526C134.733 136.082 128.23 159.832 122.919 179.227C122.339 181.344 121.774 183.409 121.233 185.409C116.833 201.664 111.066 223.225 108.733 231.973C104.899 242.979 96.9327 264.652 95.7327 263.298C94.2327 261.605 105.233 211.654 108.733 196.415C111.533 184.224 121.233 132.072 125.733 107.52C127.066 91.999 128.033 55.7074 121.233 34.7113C114.224 13.0712 99.3971 11.0009 92.1674 9.99146C90.6289 9.77665 89.4345 9.60988 88.7327 9.31278C85.5327 7.9582 86.066 2.53985 86.7327 0H47.7327C47.7327 0.766954 47.7532 1.47311 47.7803 2.40565C47.8728 5.5907 48.0421 11.4165 47.7327 31.3248C47.6279 38.0654 47.9262 45.8075 48.2316 53.7348L48.2316 53.7351C49.3838 83.6433 50.6375 116.187 30.7327 107.52Z" fill="url(#paint0_linear_313_47)" fill-opacity="0.5"/>
<defs>
<linearGradient id="paint0_linear_313_47" x1="141.286" y1="0" x2="141.286" y2="3489" gradientUnits="userSpaceOnUse">
<stop stop-color="#00D8F5"/>
<stop offset="0.494792" stop-color="#784EF4"/>
<stop offset="1" stop-color="#AFF500"/>
</linearGradient>
</defs>
</svg>
