<svg width="240" height="2115" viewBox="0 0 240 2115" fill="none" xmlns="http://www.w3.org/2000/svg">
<path d="M0.62207 1925.06C38.2762 1947.64 120.295 1995.98 147.134 2008.71C173.973 2021.44 218.054 2068.41 236.739 2090.31V2114.94C221.451 2117.51 152.231 2031.81 147.134 2028.21C143.057 2025.34 47.7605 1970.22 0.62207 1943.02V1925.06ZM0.62207 1969.19C22.5634 1981.51 69.4188 2012.61 81.3096 2038.48C96.1731 2070.81 124.202 2056.95 171.34 2087.74C209.049 2112.38 210.268 2113.75 206.163 2111.35C202.766 2111.35 170.49 2096.98 157.325 2098.01C144.16 2099.03 117.406 2101.6 96.1729 2108.27C79.1858 2113.61 25.3944 2114.94 0.62207 2114.94V2108.27C25.5359 2109.64 79.5254 2109.5 96.1729 2098.01C116.982 2083.64 49.4594 2085.18 31.623 2075.43C17.3543 2067.63 5.01047 2058.49 0.62207 2054.9V1969.19ZM0.62207 1836.78C23.5542 1838.32 74.1748 1845.4 93.2002 1861.42C88.6704 1866.21 80.7153 1878.46 85.1318 1889.13C89.5488 1899.81 122.927 1915.82 139.064 1922.49C122.644 1919.41 90.143 1915.61 91.502 1925.06C92.8617 1934.5 135.95 1946.44 157.325 1951.23L236.739 1961.49V1992.8C185.92 1978.77 78.5914 1946.3 55.8291 1928.65C33.0669 1910.99 9.54015 1883.31 0.62207 1871.68V1836.78ZM0.62207 1887.08C11.9467 1899.91 39.4368 1928.14 58.8018 1938.4C78.1665 1948.66 109.903 1963.2 123.352 1969.19C103.392 1963.89 58.2921 1949.79 37.5684 1935.83C16.8446 1921.87 4.3026 1911.2 0.62207 1907.61V1887.08ZM152.229 1938.4C147.133 1932.24 204.464 1938.4 236.739 1938.4V1951.23C212.958 1952.26 162.762 1951.13 152.229 1938.4ZM236.739 1440.58C229.803 1449.65 215.505 1472.4 213.807 1490.88C212.108 1509.35 228.387 1517.05 236.739 1518.59V1790.59C236.739 1795.93 220.319 1802.74 212.108 1805.48L236.739 1802.91C236.739 1804.96 230.284 1815.43 204.464 1840.89C172.189 1872.71 116.982 1861.42 116.982 1889.13C116.983 1902.39 143.34 1910.01 171.34 1914.36C155.755 1909.71 124.763 1897.75 125.476 1887.08C126.367 1873.73 178.984 1861.42 163.271 1871.68C150.701 1879.89 147.275 1890.16 147.134 1894.26C145.435 1894.26 169.64 1910.84 171.34 1914.36C201.847 1919.09 234.303 1919.92 236.739 1919.92C240.476 1919.92 238.296 1927.79 236.739 1931.73C187.902 1931.73 146.284 1915.82 130.996 1910.17C115.708 1904.53 104.667 1890.67 104.667 1881.43C104.667 1872.19 120.38 1867.06 140.764 1861.42C161.148 1855.77 230.368 1817.28 209.561 1823.44C188.752 1829.6 147.983 1833.7 116.982 1840.89C92.1817 1846.64 29.075 1827.55 0.62207 1817.28V1775.2C6.99227 1782.38 24.4043 1793.16 33.3223 1797.78C42.2406 1802.4 65.5967 1802.91 71.9668 1802.91C77.0628 1802.91 74.0901 1800.86 71.9668 1799.83C65.0305 1796.41 48.0155 1788.44 35.4453 1783.92C22.8752 1779.41 6.99225 1764.59 0.62207 1757.75V1718.8C1.61553 1724.94 3.95212 1733.05 8.69141 1742.87C20.5822 1767.5 56.2545 1774.68 79.6113 1778.79C102.968 1782.9 111.037 1777.25 140.764 1778.79C164.545 1780.02 158.316 1793.33 152.229 1799.83C173.321 1789.05 214.317 1761.03 209.561 1735.17C203.615 1702.83 110.188 1686.41 107.64 1672.04C105.092 1657.67 131.846 1661.78 140.764 1643.82C149.465 1626.29 152.102 1622.44 163.666 1605.58L164.545 1604.3C176.86 1586.34 164.545 1567.86 152.229 1549.9C139.914 1531.94 153.504 1503.2 159.024 1480.61C164.545 1458.03 145.86 1421.08 178.135 1411.33C203.955 1403.53 228.812 1383.79 238.013 1374.89L236.739 1440.58ZM236.739 1910.17C217.346 1913.42 177.965 1915.41 175.587 1897.34C173.209 1879.28 215.364 1855.26 236.739 1845.51V1910.17ZM236.739 1840.89C214.515 1852.69 170.321 1877.33 171.34 1881.43C172.614 1886.56 158.176 1881.95 175.587 1871.68C189.516 1863.47 222.159 1842.94 236.739 1833.7V1840.89ZM0.62207 1340.51C7.27524 1386.18 18.4104 1486.85 16.7598 1524.75C14.6364 1573.51 9.11605 1685.39 23.9795 1699.76C38.8431 1714.13 71.9666 1727.98 71.9668 1742.87C71.9668 1754.77 46.2041 1751.25 33.3223 1748C20.3917 1740.64 -3.48694 1718.74 4.44434 1690C4.05295 1667.42 6.69794 1617.76 8.69141 1597.11C11.6641 1566.32 12.9381 1454.95 8.69141 1440.58C5.29405 1429.09 1.89608 1400.21 0.62207 1387.21V1340.51ZM0.62207 1109.56C8.83237 1117.26 30.3492 1136.15 50.7334 1150.11C76.2136 1167.56 107.214 1163.45 154.777 1200.4C192.828 1229.96 209.985 1279.78 213.807 1300.99C223.999 1339.48 207.437 1344.61 203.615 1352.83C199.793 1361.04 153.503 1370.27 145.859 1370.27C138.215 1370.27 116.558 1400.04 104.667 1421.08C95.1544 1437.92 102.968 1464.71 97.8721 1490.88C86.406 1518.08 73.6654 1535.53 56.2539 1535.53C32.3439 1535.53 25.2535 1404.66 23.9795 1387.21C22.9603 1373.25 7.98303 1313.99 0.62207 1286.11V1201.43C0.62207 1199.55 3.84984 1203.79 16.7598 1235.81C29.6697 1267.84 46.7697 1292.61 53.7061 1300.99C57.6696 1303.9 65.8519 1306.22 66.8711 1292.27C67.8897 1278.31 23.1295 1208.44 0.62207 1175.25V1162.42C7.275 1170.63 20.8352 1186.65 21.8555 1185C22.8747 1183.36 8.12464 1162.08 0.62207 1151.65V1132.66C6.56746 1140.01 21.4315 1157.19 33.3223 1167.04C48.1858 1179.36 101.694 1224.52 112.735 1232.22C123.777 1239.92 138.64 1275.84 139.064 1292.27C139.404 1305.4 121.653 1309.37 112.735 1309.71C97.0225 1324.6 108.687 1345.64 92.3506 1358.98C51.9366 1391.99 22.705 1269.69 31.1982 1309.71C39.6917 1349.75 51.5828 1364.63 75.7891 1370.27C99.995 1375.92 95.7485 1350.26 121.653 1334.86C147.558 1319.47 159.024 1339.99 164.545 1326.65C170.066 1313.31 174.313 1311.25 178.135 1306.64C181.957 1302.02 180.258 1278.41 164.545 1245.56C148.832 1212.72 102.543 1183.98 75.7891 1175.25C54.3857 1168.27 16.7596 1134.71 0.62207 1118.8V1109.56ZM0.62207 1095.19C11.6635 1107.51 39.0976 1134.4 60.501 1143.43C87.255 1154.73 99.5705 1158.83 147.982 1167.04C186.712 1173.61 224.423 1222.13 238.438 1245.56V1278.41C223.857 1248.81 185.353 1187.37 147.982 1178.33C110.612 1169.3 66.4456 1151.3 49.0342 1143.43C37.851 1135.57 12.5127 1116.34 0.62207 1102.38V1095.19ZM238.862 1024.37C238.862 1065.6 238.777 1149.39 238.438 1154.73C238.013 1161.4 225.698 1175.25 215.931 1175.25C203.615 1175.25 200.588 1167.38 181.957 1162.42C160.724 1156.78 143.311 1159.34 121.653 1151.65C139.631 1147.54 176.728 1134.09 185.778 1116.23C206.587 1075.18 224.565 1047.29 238.862 1024.37ZM1.47168 1000.8C1.9212 1003.69 3.01702 1008.63 5.29395 1016.67C10.8147 1036.17 21.0065 1057.22 43.5137 1082.36C61.5196 1102.48 92.3507 1108.88 105.516 1109.56C113.16 1109.05 119.7 1110.18 133.969 1104.43C155.627 1095.19 180.258 1073.12 193.423 1059.78C203.955 1049.11 227.821 1018.38 238.438 1004.35V1009.49C233.766 1015.64 222.725 1030.22 215.931 1039.25C207.437 1050.54 196.396 1062.86 178.135 1079.28C159.874 1095.71 143.312 1105.97 129.298 1111.1C118.087 1115.21 100.278 1113.33 92.3506 1112.64C72.8161 1109.05 58.8025 1100.84 52.0078 1095.19C36.8144 1082.57 27.8009 1069.02 18.8828 1056.7C11.7484 1046.85 4.30289 1027.28 1.47168 1018.72V1000.8ZM101.693 799.583C107.214 798.043 107.639 795.478 123.352 817.032C139.064 838.587 140.764 892.988 137.791 911.977C134.818 930.965 136.942 934.045 119.105 965.351C109.904 974.931 89.7185 995.117 82.584 999.223C73.6659 1004.35 70.6927 1022.83 74.9395 1029.5C79.1862 1036.17 86.4062 1045.92 98.2969 1049.52C110.188 1053.11 137.367 1055.16 159.449 1042.33C177.115 1032.07 201.633 1010 211.684 1000.25L238.438 965.863V971.509C209.56 1017.7 137.791 1085.44 82.1592 1045.92C72.8164 1038.74 57.1622 1022.01 71.1172 1002.81C83.4326 985.879 84.2826 995.63 106.79 973.049C112.735 967.575 125.815 952.007 130.571 933.531C136.517 910.437 136.942 878.105 134.818 867.327C132.695 856.55 129.827 822.678 108.488 815.493C97.8716 811.919 97.022 848.338 98.7207 867.327C100.97 892.474 106.365 911.976 94.0498 936.61C86.4057 947.901 75.7886 960.219 49.459 955.6C38.8423 952.007 16.4207 946.67 11.6641 954.06C7.55891 957.652 0.961999 971.304 7.41699 997.17C13.872 1023.04 24.5454 1046.61 29.0752 1055.16C35.3037 1063.72 50.8183 1082.57 63.0488 1089.55C78.3369 1098.27 97.4474 1103.92 116.133 1102.38C131.081 1101.15 165.819 1078.49 180.258 1064.4C187.619 1057.22 204.294 1040.38 212.108 1030.53C219.922 1020.67 232.917 1001.79 238.438 993.577V998.709C233.625 1006.24 222.386 1023.14 215.931 1030.53C207.862 1039.77 196.396 1054.14 190.45 1059.78C184.505 1065.43 158.6 1086.98 152.654 1090.57C146.709 1094.17 125.475 1108.02 105.516 1107C85.5562 1105.97 62.6236 1096.73 49.0342 1082.36C35.445 1067.99 28.6502 1063.89 18.8828 1041.31C9.11545 1018.72 2.32107 994.604 1.47168 984.853C0.62234 975.102 1.47163 953.033 7.41699 948.928C13.3624 944.822 13.3624 941.742 34.5957 945.335C55.8292 948.927 63.0493 954.06 73.666 948.928C84.2827 943.796 97.0224 939.689 97.0225 899.146C97.0225 858.603 92.7754 857.063 92.7754 838.587C92.7754 820.112 96.1729 801.123 101.693 799.583ZM204.889 686.677C218.902 687.703 215.93 704.125 222.3 705.665C227.396 706.897 235.748 714.733 239.287 718.496L238.438 872.459L234.2 876.232C233.002 877.044 231.591 878.004 229.944 879.131C211.938 891.448 207.437 906.844 207.437 913.003C206.163 918.135 205.993 931.581 215.506 944.309C225.018 957.036 231.643 948.414 236.314 958.165C226.122 981.157 193.281 1013.25 178.135 1026.42C157.411 1045.72 125.334 1047.46 111.886 1045.92C95.3238 1045.41 90.2275 1034.12 84.2822 1026.42C78.3368 1018.72 86.8307 998.709 101.27 988.958C115.708 979.207 124.626 965.351 129.722 952.521C134.818 939.69 142.037 910.437 142.462 882.21C142.802 859.629 135.526 831.402 131.846 820.111C125.193 805.57 109.083 777.105 97.8721 779.568C83.858 782.648 86.4054 838.586 86.8301 845.259C87.2547 851.931 93.2001 890.422 92.7754 907.871C92.3506 925.32 86.4055 933.531 74.9395 942.256C63.4733 950.98 46.0616 945.335 37.1436 942.256C28.2256 939.177 20.1567 938.663 9.54004 938.663C3.34434 938.663 1.14091 943.58 0.62207 948.032V952.521C0.468906 951.271 0.429693 949.683 0.62207 948.032V928.399C32.4724 922.241 48.1857 944.822 67.2959 930.965C72.8166 927.714 81.394 911.975 71.542 875.025C59.2266 828.836 57.1039 845.772 67.2959 769.817C75.4495 709.054 87.6793 697.968 92.7754 700.021C105.091 702.587 104.87 747.749 116.133 763.146C142.037 798.557 145.435 861.169 146.284 879.131C147.134 897.093 143.311 922.241 136.517 947.901C131.081 968.429 116.699 985.878 110.188 992.037C94.05 1001.27 88.5294 1023.53 101.27 1029.5C141.421 1048.32 172.218 1024.3 184.507 1006.3C183.127 1006.23 180.441 1003.99 175.587 996.656C165.395 981.26 180.257 897.606 181.956 882.21C183.315 869.892 185.071 787.437 185.778 747.749C187.477 727.05 193.677 685.856 204.889 686.677ZM156.9 0C154.352 7.52701 148.917 23.1963 147.558 25.6602C145.859 28.7394 137.79 55.4269 136.092 61.0723C134.733 65.5888 131.279 85.1929 129.722 94.4307L106.79 148.831C99.7122 165.938 84.4518 202.513 80.0352 211.956C74.5144 223.76 63.4731 226.839 58.8018 225.3C54.1304 223.76 44.788 212.983 38.418 211.956C32.0479 210.93 32.0476 218.115 28.2256 222.221C24.4036 226.327 18.8831 264.304 13.7871 291.504C8.69106 318.704 12.9374 324.35 18.8828 335.641C24.8285 346.931 47.7608 355.656 66.0215 355.143C80.6303 354.732 115.708 369.341 131.421 376.697C139.915 381.829 161.148 390.554 178.135 384.396C199.368 376.697 188.751 347.958 207.012 339.746C215.933 335.735 230.652 370.197 239.287 392.094V525.016C227.396 525.529 190.875 509.106 181.107 503.974C171.34 498.842 146.284 483.445 123.352 467.022C100.419 450.6 81.7337 443.928 67.2949 441.875C52.8565 439.822 47.7604 441.362 32.0479 443.928C16.335 446.494 8.6906 452.653 6.14258 457.271C3.59618 461.89 40.117 461.377 65.5967 462.917C91.0769 464.457 116.132 479.34 130.146 491.144C141.358 500.587 207.579 536.135 239.287 552.729V579.416C229.661 574.626 203.699 561.146 176.86 545.544C150.021 529.942 128.306 528.436 120.804 529.634C116.699 530.489 104.666 536.819 89.3779 555.295C70.268 578.39 63.0484 622.012 61.7744 638.948C60.5004 655.884 61.7744 713.877 61.7744 726.707C61.7744 739.537 53.706 774.949 50.3086 784.7C46.9112 794.451 42.6644 819.599 46.9111 841.153C51.1578 862.708 58.8019 889.908 59.2266 898.633C59.6512 907.357 55.4041 913.003 45.6367 918.648C35.8693 924.293 20.1569 911.977 12.9375 908.897C7.16202 906.434 2.88728 907.871 1.47168 908.897V823.19C9.54047 815.492 23.1299 785.214 20.1572 790.346C17.7789 794.451 6.70923 803.689 1.47168 807.795V781.107C-0.0854458 782.818 0.0275142 781.518 12.9375 762.632C25.8475 743.746 27.3767 710.968 26.5273 696.94C26.9519 670.254 12.5124 653.318 11.6631 635.355C10.8138 617.393 14.211 610.208 17.6084 600.457C21.0057 590.706 24.404 583.008 29.5 571.718C33.5768 562.685 53.2812 532.372 62.624 518.344C57.9526 522.107 46.6566 533.227 38.8428 547.597C29.0755 565.559 18.8834 574.797 14.2119 577.876C10.4748 580.339 4.44451 587.798 1.89648 591.22V547.597C3.87851 546.912 9.11613 545.133 14.2119 543.491C20.5819 541.438 26.1025 533.226 32.0479 525.528C37.9933 517.83 53.7063 495.248 72.8164 488.063C88.1047 482.316 117.406 492.512 130.146 498.328C115.991 486.695 76.6386 469.068 57.5283 478.826C33.4074 491.143 10.3902 493.196 1.89648 492.683V422.373C25.6782 416.899 78.4216 410.466 99.1455 428.531C119.869 446.596 160.44 465.14 178.135 472.154C187.478 474.72 201.066 473.18 203.614 469.588C206.162 465.995 206.587 461.89 203.614 454.705C200.641 447.52 189.176 443.415 170.915 432.124C156.306 423.092 116.982 394.83 99.1455 381.829C84.4235 376.355 50.7329 364.996 33.7461 363.354C16.7594 361.711 5.71766 347.957 2.32031 341.285V300.742L7.41699 264.304L17.6084 222.221C22.2798 200.153 30.3299 192.454 35.0205 192.454C41.8153 192.454 54.9803 216.575 66.4463 215.549C77.9121 214.522 89.3776 176.032 91.9258 170.899C94.4738 165.767 114.858 119.065 117.406 112.906C119.954 106.748 125.9 83.654 127.174 73.3896C128.193 65.1784 132.412 51.8349 134.394 46.1895C136.8 38.4913 142.462 21.3499 145.859 14.3701C149.257 7.3905 150.672 1.88182 150.955 0H156.9ZM150.956 586.601C183.231 562.788 223.291 599.944 239.287 621.499V692.322C208.032 641.002 190.875 642.198 186.203 649.212C169.896 656.192 168.65 741.077 170.065 782.647C169.216 803.176 166.923 841.358 164.545 829.862C162.167 818.365 146.85 754.591 139.489 724.141C129.863 688.216 118.681 610.413 150.956 586.601ZM1.89648 508.593C6.42648 508.935 17.1849 510.132 23.9795 512.185C30.7733 514.238 12.0885 522.62 1.89648 526.555V508.593ZM1.89648 356.169C3.172 360.788 32.4733 372.592 62.624 379.776C92.7756 386.961 122.927 410.569 125.051 417.241C127.173 423.912 97.0224 406.463 82.1592 404.41C67.2959 402.357 13.3633 397.225 1.89648 404.41V356.169ZM209.561 0C208.428 2.05285 204.464 8.72503 197.669 18.9893C189.176 31.8199 185.779 63.6385 181.532 80.5742C177.286 97.5101 142.038 153.963 127.599 178.084C113.16 202.205 105.941 229.919 88.9541 258.146C71.9673 286.372 63.4735 292.018 60.0762 310.493C56.6795 328.969 105.941 343.338 125.051 341.285C144.161 339.232 154.353 360.787 175.162 288.425C191.809 230.535 224.848 215.377 239.287 215.035V249.934C221.281 244.596 210.268 254.553 207.012 260.198C202.765 265.673 192.234 284.936 184.08 318.191C175.927 351.446 168.226 360.445 165.395 360.787C160.582 363.524 148.153 368.383 136.941 365.92C122.927 362.841 105.516 350.01 67.2959 347.444C36.7196 345.391 25.9604 325.033 24.4033 315.111C25.6773 274.055 32.4725 242.237 43.5137 236.591C49.6976 233.429 66.8704 241.209 77.0625 229.919C87.2546 218.628 104.242 168.846 113.16 148.831C120.295 132.819 133.969 96.6548 139.914 80.5742C144.67 44.8547 158.883 11.9749 165.395 0H209.561ZM71.3447 0C70.7785 1.53958 70.3254 4.82422 73.043 5.64551C76.4403 6.67193 93.4271 5.13244 100.646 21.042C106.422 33.7696 105.601 55.7688 104.469 65.1777C100.647 80.0609 92.4084 111.675 90.0303 119.065C87.0578 128.303 77.7168 158.576 78.9883 159.608C80.0075 160.43 86.7744 147.292 90.0303 140.62C92.012 135.317 96.9094 122.247 100.646 112.394C105.318 100.076 112.113 83.6535 112.113 71.8496C112.113 62.4065 116.643 40.8856 118.908 31.3057C121.881 23.9497 128.165 8.51994 129.524 5.64551C130.883 2.77152 130.091 0.684282 129.524 0H144.812C144.388 2.73711 142.604 9.75072 138.867 15.9092C135.13 22.0677 131.082 36.9513 129.524 43.623C126.127 54.9137 119.078 78.8296 118.059 84.167C117.039 89.505 108.574 113.762 104.469 125.224L87.0576 166.794C81.9615 178.94 71.4292 203.54 70.0703 204.771C69.2209 207.337 66.2488 209.39 63.2764 209.391C53.8951 209.391 47.988 192.967 37.7959 183.729C29.6423 176.339 20.9509 188.862 16.9873 196.047C10.1929 210.929 5.01111 239.974 4.6709 241.209C4.33116 242.441 1.41557 261.909 0 271.489V161.661C3.11438 153.621 12.8251 137.849 26.7539 139.08C44.1653 140.62 42.0423 152.424 54.3574 157.043C64.2098 160.738 68.9379 146.607 70.0703 139.08C72.4768 130.355 77.4602 111.161 78.1396 104.182C78.989 95.4567 79.8376 66.7172 78.9883 56.4531C78.1389 46.1889 70.9198 31.3061 67.5225 32.8457C64.8048 34.0781 64.4083 51.1499 64.5498 59.5322C64.4082 65.3486 62.3415 78.419 55.207 84.167C46.2888 91.3516 25.0554 86.2198 18.2607 84.167C11.466 82.1141 3.39737 79.0345 0 81.6006V67.7441C0.990891 63.9806 8.91798 60.5589 23.7812 65.1777C45.1682 71.8239 37.7962 38.4913 38.2207 18.9893C38.5604 3.38763 38.2207 2.05285 38.2207 0H71.3447ZM239.287 190.849C238.62 189.507 234.86 189.057 223.149 193.994C208.541 200.153 182.24 227.695 170.915 240.696C165.961 246.513 156.391 251.576 157.75 225.3C159.109 199.023 212.674 119.236 239.287 82.627V190.849ZM3.16992 110.341C5.71795 107.433 16.7597 105.209 29.0752 106.235C44.1195 107.49 54.9795 120.092 54.9795 125.737C54.9795 131.382 54.9796 132.922 52.4316 132.922C48.5861 132.922 44.363 123.684 34.5957 122.145C28.5225 121.187 19.449 126.25 15.4854 128.303C11.5218 130.356 3.16992 143.187 3.16992 143.187V110.341Z" fill="url(#paint0_linear_685_5449)" fill-opacity="0.7"/>
<defs>
<linearGradient id="paint0_linear_685_5449" x1="119.644" y1="0" x2="119.644" y2="2115" gradientUnits="userSpaceOnUse">
<stop stop-color="#00D8F5"/>
<stop offset="0.494792" stop-color="#784EF4"/>
<stop offset="1" stop-color="#AFF500"/>
</linearGradient>
</defs>
</svg>
