<svg width="64" height="64" viewBox="0 0 64 64" fill="none" xmlns="http://www.w3.org/2000/svg">
<path fill-rule="evenodd" clip-rule="evenodd" d="M63 6.3913H1V57.6087C1 60.5862 3.41377 63 6.3913 63H57.6087C60.5862 63 63 60.5862 63 57.6087V6.3913ZM26.6 27.455C23.6265 27.4504 21.2174 25.0946 21.2174 22.1891C21.2174 19.2808 23.6312 16.9232 26.6087 16.9232H32V27.455L26.6087 27.455L26.6 27.455ZM26.6 27.455C23.6265 27.4596 21.2174 29.8155 21.2174 32.7209C21.2174 35.6292 23.6312 37.9869 26.6087 37.9869H32V32.7254C32.0025 35.6316 34.4153 37.9869 37.3913 37.9869C40.3688 37.9869 42.7826 35.6292 42.7826 32.7209C42.7826 29.8164 40.375 27.461 37.4028 27.455C40.375 27.449 42.7826 25.0937 42.7826 22.1891C42.7826 19.2808 40.3688 16.9232 37.3913 16.9232H32L32 27.455H26.6087L26.6 27.455ZM32 27.455L37.3746 27.455C34.4063 27.4638 32.0025 29.8157 32 32.7165L32 27.455ZM26.6087 37.9869C23.6312 37.9869 21.2174 40.3445 21.2174 43.2528C21.2174 46.1611 23.6312 48.5187 26.6087 48.5187C29.5862 48.5187 32 46.1611 32 43.2528V37.9869H26.6087Z" fill="#A259FF"/>
<path d="M32 15.8261H33V14.8261H32V15.8261ZM32 26.6087V27.6087H33V26.6087H32ZM32 15.8261V14.8261H31V15.8261H32ZM26.6087 26.6087L26.6087 27.6087L26.6087 27.6087L26.6087 26.6087ZM32 32.0046L33 32.0038L31 32.0046H32ZM32 31.9954L31 31.9954L33 31.9963L32 31.9954ZM2 6.3913C2 3.96605 3.96605 2 6.3913 2V0C2.86148 0 0 2.86148 0 6.3913H2ZM2 57.6087V6.3913H0V57.6087H2ZM6.3913 62C3.96605 62 2 60.0339 2 57.6087H0C0 61.1385 2.86148 64 6.3913 64V62ZM57.6087 62H6.3913V64H57.6087V62ZM62 57.6087C62 60.0339 60.0339 62 57.6087 62V64C61.1385 64 64 61.1385 64 57.6087H62ZM62 6.3913V57.6087H64V6.3913H62ZM57.6087 2C60.0339 2 62 3.96605 62 6.3913H64C64 2.86148 61.1385 0 57.6087 0V2ZM6.3913 2H57.6087V0H6.3913V2ZM20.2174 21.2174C20.2174 24.7472 23.0789 27.6087 26.6087 27.6087V25.6087C24.1834 25.6087 22.2174 23.6426 22.2174 21.2174H20.2174ZM26.6087 14.8261C23.0789 14.8261 20.2174 17.6876 20.2174 21.2174H22.2174C22.2174 18.7921 24.1834 16.8261 26.6087 16.8261V14.8261ZM32 14.8261H26.6087V16.8261H32V14.8261ZM33 26.6087V15.8261H31V26.6087H33ZM26.6087 27.6087H32V25.6087H26.6087V27.6087ZM32 16.8261H37.3913V14.8261H32V16.8261ZM33 26.6087V15.8261H31V26.6087H33ZM26.6087 27.6087L32 27.6087L32 25.6087L26.6087 25.6087L26.6087 27.6087ZM22.2174 32C22.2174 29.5748 24.1835 27.6087 26.6087 27.6087V25.6087C23.0789 25.6087 20.2174 28.4702 20.2174 32H22.2174ZM26.6087 36.3913C24.1835 36.3913 22.2174 34.4253 22.2174 32H20.2174C20.2174 35.5298 23.0789 38.3913 26.6087 38.3913V36.3913ZM22.2174 42.7826C22.2174 40.3574 24.1835 38.3913 26.6087 38.3913V36.3913C23.0789 36.3913 20.2174 39.2528 20.2174 42.7826H22.2174ZM26.6087 47.1739C24.1835 47.1739 22.2174 45.2079 22.2174 42.7826H20.2174C20.2174 46.3124 23.0789 49.1739 26.6087 49.1739V47.1739ZM31 42.7826C31 45.2079 29.034 47.1739 26.6087 47.1739V49.1739C30.1385 49.1739 33 46.3124 33 42.7826H31ZM31 37.3913V42.7826H33V37.3913H31ZM31 32.0046V37.3913H33V32.0046H31ZM37.3913 36.3913C34.9673 36.3913 33.002 34.4273 33 32.0038L31 32.0054C31.0029 35.5328 33.8633 38.3913 37.3913 38.3913V36.3913ZM41.7826 32C41.7826 34.4253 39.8166 36.3913 37.3913 36.3913V38.3913C40.9211 38.3913 43.7826 35.5298 43.7826 32H41.7826ZM37.3913 27.6087C39.8166 27.6087 41.7826 29.5748 41.7826 32H43.7826C43.7826 28.4702 40.9211 25.6087 37.3913 25.6087L37.3913 27.6087ZM41.7826 21.2174C41.7826 23.6426 39.8166 25.6087 37.3913 25.6087V27.6087C40.9211 27.6087 43.7826 24.7472 43.7826 21.2174H41.7826ZM37.3913 16.8261C39.8166 16.8261 41.7826 18.7921 41.7826 21.2174H43.7826C43.7826 17.6876 40.9211 14.8261 37.3913 14.8261V16.8261ZM33 31.9963C33.002 29.5727 34.9673 27.6087 37.3913 27.6087V25.6087C33.8633 25.6087 31.0029 28.4673 31 31.9946L33 31.9963ZM31 26.6087L31 31.9954L33 31.9954L33 26.6087L31 26.6087ZM37.3913 25.6087H32V27.6087H37.3913V25.6087Z" fill="white"/>
</svg>
