<svg width="41" height="40" viewBox="0 0 41 40" fill="none" xmlns="http://www.w3.org/2000/svg">
<path d="M20.2278 0.5C9.18706 0.5 0.234131 9.45127 0.234131 20.4937C0.234131 29.3274 5.96293 36.8219 13.907 39.4656C14.9063 39.6507 15.2731 39.0319 15.2731 38.5038C15.2731 38.0271 15.2546 36.4521 15.246 34.7814C9.68369 35.9909 8.50998 32.4224 8.50998 32.4224C7.60049 30.1114 6.29005 29.4969 6.29005 29.4969C4.47602 28.256 6.42678 28.2815 6.42678 28.2815C8.4345 28.4226 9.49166 30.3419 9.49166 30.3419C11.2749 33.3985 14.1689 32.5148 15.3099 32.0039C15.4893 30.7117 16.0075 29.8297 16.5792 29.3304C12.1384 28.8248 7.47004 27.1105 7.47004 19.4494C7.47004 17.2666 8.25107 15.483 9.53006 14.0828C9.32247 13.5793 8.63811 11.5457 9.72375 8.79174C9.72375 8.79174 11.4027 8.25439 15.2234 10.8412C16.8183 10.3982 18.5287 10.176 20.2278 10.1684C21.927 10.176 23.6387 10.3982 25.2365 10.8412C29.0526 8.25439 30.7292 8.79174 30.7292 8.79174C31.8175 11.5457 31.1328 13.5793 30.9252 14.0828C32.2072 15.483 32.983 17.2666 32.983 19.4494C32.983 27.1287 28.3057 28.8195 23.8536 29.3145C24.5707 29.935 25.2097 31.1517 25.2097 33.0171C25.2097 35.6922 25.1865 37.8453 25.1865 38.5038C25.1865 39.0359 25.5464 39.6593 26.5599 39.463C34.4997 36.8163 40.2212 29.3244 40.2212 20.4937C40.2212 9.45127 31.2696 0.5 20.2278 0.5ZM7.72242 28.9814C7.67838 29.0808 7.52211 29.1106 7.37974 29.0423C7.23473 28.9771 7.15328 28.8417 7.20029 28.7421C7.24333 28.6397 7.39994 28.6113 7.54462 28.6798C7.68997 28.745 7.77274 28.8818 7.72242 28.9814ZM8.70588 29.859C8.61053 29.9474 8.42413 29.9063 8.29765 29.7666C8.16687 29.6272 8.14237 29.4408 8.23905 29.3511C8.33739 29.2627 8.51816 29.3041 8.64927 29.4434C8.78005 29.5845 8.80554 29.7696 8.70588 29.859ZM9.38058 30.9817C9.25808 31.0668 9.05777 30.987 8.93394 30.8092C8.81144 30.6314 8.81144 30.4182 8.93659 30.3328C9.06075 30.2474 9.25808 30.3242 9.38356 30.5007C9.50573 30.6814 9.50573 30.8947 9.38058 30.9817ZM10.5216 32.2821C10.412 32.4029 10.1786 32.3705 10.0078 32.2056C9.83297 32.0444 9.7843 31.8156 9.89423 31.6947C10.0051 31.5735 10.2399 31.6076 10.412 31.7712C10.5855 31.9321 10.6385 32.1625 10.5216 32.2821ZM11.9963 32.7211C11.948 32.8777 11.7232 32.9488 11.4967 32.8823C11.2706 32.8138 11.1226 32.6303 11.1683 32.4721C11.2153 32.3145 11.4411 32.2403 11.6692 32.3115C11.895 32.3797 12.0434 32.5618 11.9963 32.7211ZM13.6746 32.9073C13.6802 33.0721 13.4882 33.2089 13.2505 33.2119C13.0114 33.2172 12.8181 33.0837 12.8154 32.9215C12.8154 32.755 13.0032 32.6195 13.2422 32.6156C13.4799 32.6109 13.6746 32.7434 13.6746 32.9073ZM15.3233 32.8441C15.3518 33.005 15.1866 33.1702 14.9505 33.2142C14.7184 33.2566 14.5036 33.1573 14.4741 32.9977C14.4453 32.8328 14.6135 32.6676 14.8452 32.6249C15.0816 32.5838 15.2932 32.6805 15.3233 32.8441Z" fill="#F5F5F5"/>
</svg>
