<svg width="47" height="36" viewBox="0 0 47 36" fill="none" xmlns="http://www.w3.org/2000/svg">
<path d="M44.452 0.307678H1.99042C1.52119 0.307678 1.07118 0.494079 0.739387 0.825874C0.407592 1.15767 0.221191 1.60768 0.221191 2.07691V32.1538C0.221191 33.0923 0.593992 33.9923 1.25758 34.6559C1.92117 35.3195 2.82119 35.6923 3.75965 35.6923H42.6827C43.6212 35.6923 44.5212 35.3195 45.1848 34.6559C45.8484 33.9923 46.2212 33.0923 46.2212 32.1538V2.07691C46.2212 1.60768 46.0348 1.15767 45.703 0.825874C45.3712 0.494079 44.9212 0.307678 44.452 0.307678ZM39.9028 3.84614L23.2212 19.1389L6.53956 3.84614H39.9028ZM42.6827 32.1538H3.75965V6.0997L22.0247 22.8433C22.3512 23.1429 22.7781 23.3091 23.2212 23.3091C23.6643 23.3091 24.0912 23.1429 24.4176 22.8433L42.6827 6.0997V32.1538Z" fill="#F5F5F5"/>
</svg>
