<svg width="64" height="64" viewBox="0 0 64 64" fill="none" xmlns="http://www.w3.org/2000/svg">
<path fill-rule="evenodd" clip-rule="evenodd" d="M15.85 14L15.8261 13.7085H48.1739L48.15 14H15.85ZM15.85 14H1V57.6087C1 60.5862 3.41377 63 6.3913 63H57.6087C60.5862 63 63 60.5862 63 57.6087V14H48.15L45.4783 46.6205L32 50.57L18.5217 46.6205L15.85 14ZM23.2391 33.2567L21.8913 20.7502H42.7826L42.1087 24.6996H25.9348L26.6087 29.3073H41.4348L40.087 41.8139L32 44.4468L23.913 41.8139L23.2391 35.2314H27.2826L27.9565 38.5227L32 39.8391L36.0435 38.5227L36.7174 33.2567H23.2391Z" fill="#E44D26"/>
<path d="M15.8261 13.1304V12.1304H14.7429L14.8293 13.2102L15.8261 13.1304ZM18.5217 46.8261L17.5249 46.9058L17.5794 47.5874L18.2344 47.7839L18.5217 46.8261ZM48.1739 13.1304L49.1707 13.2102L49.2571 12.1304H48.1739V13.1304ZM45.4783 46.8261L45.7656 47.7839L46.4205 47.5874L46.4751 46.9058L45.4783 46.8261ZM32 50.8696L31.7126 51.8274L32 51.9136L32.2873 51.8274L32 50.8696ZM21.8913 19.8696V18.8696H20.7805L20.8968 19.9743L21.8913 19.8696ZM23.2391 32.6739L22.2446 32.7786L22.3388 33.6739H23.2391V32.6739ZM42.7826 19.8696L43.769 20.034L43.963 18.8696H42.7826V19.8696ZM42.1087 23.913V24.913H42.9558L43.0951 24.0774L42.1087 23.913ZM25.9347 23.913V22.913H24.7817L24.9448 24.0545L25.9347 23.913ZM26.6087 28.6304L25.6187 28.7719L25.7414 29.6304H26.6087V28.6304ZM41.4347 28.6304L42.4293 28.7351L42.5455 27.6304H41.4347V28.6304ZM40.0869 41.4348L40.4031 42.3835L41.014 42.1798L41.0814 41.5395L40.0869 41.4348ZM32 44.1304L31.6837 45.0791L32 45.1845L32.3162 45.0791L32 44.1304ZM23.913 41.4348L22.918 41.5343L22.9824 42.1787L23.5968 42.3835L23.913 41.4348ZM23.2391 34.6957V33.6957H22.1341L22.2441 34.7952L23.2391 34.6957ZM27.2826 34.6957L28.2632 34.4995L28.1024 33.6957H27.2826V34.6957ZM27.9565 38.0652L26.9759 38.2613L27.0897 38.8304L27.6403 39.0139L27.9565 38.0652ZM32 39.413L31.6837 40.3617L32 40.4671L32.3162 40.3617L32 39.413ZM36.0434 38.0652L36.3597 39.0139L36.9575 38.8146L37.0357 38.1893L36.0434 38.0652ZM36.7174 32.6739L37.7096 32.798L37.8501 31.6739H36.7174V32.6739ZM2 6.3913C2 3.96605 3.96605 2 6.3913 2V0C2.86148 0 0 2.86148 0 6.3913H2ZM2 57.6087V6.3913H0V57.6087H2ZM6.3913 62C3.96605 62 2 60.0339 2 57.6087H0C0 61.1385 2.86148 64 6.3913 64V62ZM57.6087 62H6.3913V64H57.6087V62ZM62 57.6087C62 60.0339 60.0339 62 57.6087 62V64C61.1385 64 64 61.1385 64 57.6087H62ZM62 6.3913V57.6087H64V6.3913H62ZM57.6087 2C60.0339 2 62 3.96605 62 6.3913H64C64 2.86148 61.1385 0 57.6087 0V2ZM6.3913 2H57.6087V0H6.3913V2ZM14.8293 13.2102L17.5249 46.9058L19.5185 46.7463L16.8229 13.0507L14.8293 13.2102ZM48.1739 12.1304H15.8261V14.1304H48.1739V12.1304ZM46.4751 46.9058L49.1707 13.2102L47.1771 13.0507L44.4814 46.7463L46.4751 46.9058ZM32.2873 51.8274L45.7656 47.7839L45.1909 45.8683L31.7126 49.9117L32.2873 51.8274ZM18.2344 47.7839L31.7126 51.8274L32.2873 49.9117L18.8091 45.8683L18.2344 47.7839ZM20.8968 19.9743L22.2446 32.7786L24.2336 32.5692L22.8858 19.7649L20.8968 19.9743ZM42.7826 18.8696H21.8913V20.8696H42.7826V18.8696ZM43.0951 24.0774L43.769 20.034L41.7962 19.7052L41.1223 23.7486L43.0951 24.0774ZM25.9347 24.913H42.1087V22.913H25.9347V24.913ZM27.5986 28.489L26.9247 23.7716L24.9448 24.0545L25.6187 28.7719L27.5986 28.489ZM41.4347 27.6304H26.6087V29.6304H41.4347V27.6304ZM41.0814 41.5395L42.4293 28.7351L40.4402 28.5258L39.0924 41.3301L41.0814 41.5395ZM32.3162 45.0791L40.4031 42.3835L39.7707 40.4861L31.6837 43.1818L32.3162 45.0791ZM23.5968 42.3835L31.6837 45.0791L32.3162 43.1818L24.2292 40.4861L23.5968 42.3835ZM22.2441 34.7952L22.918 41.5343L24.908 41.3353L24.2341 34.5962L22.2441 34.7952ZM27.2826 33.6957H23.2391V35.6957H27.2826V33.6957ZM28.9371 37.8691L28.2632 34.4995L26.302 34.8918L26.9759 38.2613L28.9371 37.8691ZM32.3162 38.4644L28.2727 37.1165L27.6403 39.0139L31.6837 40.3617L32.3162 38.4644ZM35.7272 37.1165L31.6837 38.4644L32.3162 40.3617L36.3597 39.0139L35.7272 37.1165ZM35.7251 32.5499L35.0512 37.9412L37.0357 38.1893L37.7096 32.798L35.7251 32.5499ZM23.2391 33.6739H36.7174V31.6739H23.2391V33.6739Z" fill="white"/>
</svg>
