<svg width="1440" height="1024" viewBox="0 0 1440 1024" fill="none" xmlns="http://www.w3.org/2000/svg">
<rect width="1440" height="1024" fill="#1E1E1E"/>
<rect x="2.5" y="2.5" width="1435" height="1019" stroke="#D9D9D9" stroke-opacity="0.56" stroke-width="5"/>
<path d="M226.576 422C224.144 422 222.416 421.531 221.392 420.592C220.411 419.611 219.92 418.181 219.92 416.304C219.92 415.749 219.942 414.875 219.984 413.68C220.07 412.443 220.176 410.992 220.304 409.328C220.432 407.664 220.56 405.851 220.688 403.888C220.859 401.925 221.03 399.92 221.2 397.872C221.414 395.355 221.584 393.2 221.712 391.408C221.883 389.573 222.011 388.016 222.096 386.736C222.182 385.413 222.246 384.325 222.288 383.472C222.374 382.576 222.416 381.808 222.416 381.168C222.459 380.485 222.48 379.867 222.48 379.312C222.523 378.757 222.544 378.16 222.544 377.52C222.544 377.179 222.651 376.944 222.864 376.816C223.078 376.645 223.291 376.56 223.504 376.56C224.614 376.56 225.83 376.539 227.152 376.496C228.475 376.411 229.798 376.325 231.12 376.24C232.443 376.155 233.723 376.091 234.96 376.048C236.198 375.963 237.286 375.92 238.224 375.92C240.955 375.92 243.302 376.261 245.264 376.944C247.227 377.584 248.806 378.544 250 379.824C251.238 381.061 252.134 382.576 252.688 384.368C253.286 386.16 253.584 388.208 253.584 390.512C253.584 393.029 253.243 395.461 252.56 397.808C251.92 400.112 250.896 402.16 249.488 403.952C248.08 405.744 246.267 407.173 244.048 408.24C241.83 409.307 239.184 409.84 236.112 409.84C234.278 409.84 232.72 409.648 231.44 409.264L230.544 421.04C230.502 421.381 230.416 421.637 230.288 421.808C230.16 421.936 229.904 422 229.52 422H226.576ZM236.944 385.52C236.39 385.52 235.771 385.563 235.088 385.648C234.406 385.691 233.68 385.755 232.912 385.84C232.827 387.632 232.72 389.808 232.592 392.368C232.464 394.928 232.294 397.616 232.08 400.432C232.72 400.603 233.339 400.731 233.936 400.816C234.576 400.859 235.152 400.88 235.664 400.88C237.158 400.88 238.352 400.539 239.248 399.856C240.187 399.131 240.912 398.256 241.424 397.232C241.936 396.208 242.278 395.141 242.448 394.032C242.619 392.923 242.704 391.963 242.704 391.152C242.704 389.317 242.278 387.931 241.424 386.992C240.614 386.011 239.12 385.52 236.944 385.52ZM254.61 414.128C254.61 410.288 256.338 407.28 259.794 405.104C263.25 402.928 268.349 401.755 275.09 401.584C275.133 401.115 275.154 400.731 275.154 400.432C275.197 400.091 275.218 399.685 275.218 399.216C275.218 397.851 274.962 396.763 274.45 395.952C273.938 395.141 272.872 394.736 271.25 394.736C270.354 394.736 269.629 394.864 269.074 395.12C268.52 395.376 268.072 395.739 267.73 396.208C267.389 396.635 267.112 397.168 266.898 397.808C266.685 398.448 266.493 399.152 266.322 399.92C266.237 400.304 266.045 400.56 265.746 400.688C265.448 400.773 264.978 400.816 264.338 400.816C259.986 400.816 257.81 399.173 257.81 395.888C257.81 394.565 258.109 393.307 258.706 392.112C259.346 390.917 260.264 389.893 261.458 389.04C262.696 388.144 264.232 387.44 266.066 386.928C267.901 386.416 270.034 386.16 272.466 386.16C277.202 386.16 280.637 387.141 282.77 389.104C284.904 391.067 285.97 393.84 285.97 397.424C285.97 397.893 285.906 398.747 285.778 399.984C285.693 401.179 285.565 402.459 285.394 403.824C285.266 405.147 285.138 406.405 285.01 407.6C284.925 408.795 284.882 409.627 284.882 410.096C284.882 411.163 285.074 411.931 285.458 412.4C285.842 412.827 286.269 413.125 286.738 413.296C287.25 413.467 287.698 413.595 288.082 413.68C288.466 413.765 288.658 413.979 288.658 414.32C288.658 415.259 288.53 416.219 288.274 417.2C288.018 418.181 287.592 419.077 286.994 419.888C286.44 420.699 285.65 421.36 284.626 421.872C283.645 422.384 282.429 422.64 280.978 422.64C278.93 422.64 277.394 422.149 276.37 421.168C275.346 420.187 274.664 418.821 274.322 417.072C273.298 418.565 271.954 419.867 270.29 420.976C268.669 422.085 266.536 422.64 263.89 422.64C262.61 422.64 261.394 422.491 260.242 422.192C259.133 421.893 258.152 421.403 257.298 420.72C256.488 420.037 255.826 419.163 255.314 418.096C254.845 416.987 254.61 415.664 254.61 414.128ZM274.514 406.832C273.405 406.832 272.317 406.917 271.25 407.088C270.184 407.259 269.224 407.536 268.37 407.92C267.56 408.261 266.898 408.731 266.386 409.328C265.874 409.925 265.618 410.651 265.618 411.504C265.618 412.485 265.917 413.168 266.514 413.552C267.154 413.936 267.837 414.128 268.562 414.128C269.245 414.128 269.928 413.979 270.61 413.68C271.293 413.381 271.89 412.933 272.402 412.336C272.957 411.696 273.426 410.928 273.81 410.032C274.194 409.136 274.429 408.069 274.514 406.832ZM307.505 386.16C311.131 386.16 313.798 386.885 315.505 388.336C317.211 389.744 318.065 391.557 318.065 393.776C318.065 395.653 317.467 397.083 316.273 398.064C315.121 399.045 313.435 399.536 311.217 399.536C310.619 399.536 310.214 399.472 310.001 399.344C309.787 399.216 309.681 398.981 309.681 398.64C309.681 398.256 309.638 397.829 309.553 397.36C309.51 396.848 309.361 396.379 309.105 395.952C308.891 395.483 308.529 395.099 308.017 394.8C307.547 394.501 306.865 394.352 305.969 394.352C304.774 394.352 303.814 394.651 303.089 395.248C302.363 395.803 302.001 396.507 302.001 397.36C302.001 398.256 302.363 398.981 303.089 399.536C303.857 400.048 304.795 400.539 305.905 401.008C307.057 401.477 308.294 401.968 309.617 402.48C310.939 402.949 312.155 403.589 313.265 404.4C314.417 405.211 315.355 406.235 316.081 407.472C316.849 408.667 317.233 410.224 317.233 412.144C317.233 415.216 316.145 417.733 313.969 419.696C311.793 421.659 308.529 422.64 304.177 422.64C302.982 422.64 301.595 422.533 300.017 422.32C298.481 422.149 297.009 421.872 295.601 421.488C294.193 421.061 292.998 420.507 292.017 419.824C291.078 419.141 290.609 418.288 290.609 417.264C290.609 416.88 290.673 416.411 290.801 415.856C290.971 415.301 291.206 414.768 291.505 414.256C291.846 413.744 292.23 413.317 292.657 412.976C293.126 412.592 293.681 412.4 294.321 412.4C294.833 412.4 295.302 412.528 295.729 412.784C296.155 413.04 296.646 413.317 297.201 413.616C297.798 413.872 298.523 414.128 299.377 414.384C300.23 414.64 301.361 414.768 302.769 414.768C303.835 414.768 304.774 414.64 305.585 414.384C306.438 414.128 306.865 413.552 306.865 412.656C306.865 411.845 306.523 411.205 305.841 410.736C305.158 410.224 304.283 409.755 303.217 409.328C302.193 408.901 301.062 408.453 299.825 407.984C298.63 407.472 297.499 406.811 296.433 406C295.409 405.189 294.555 404.165 293.873 402.928C293.19 401.648 292.849 400.005 292.849 398C292.849 395.824 293.275 393.989 294.129 392.496C295.025 390.96 296.155 389.723 297.521 388.784C298.929 387.845 300.507 387.184 302.257 386.8C304.006 386.373 305.755 386.16 307.505 386.16ZM337.567 386.16C341.194 386.16 343.861 386.885 345.567 388.336C347.274 389.744 348.127 391.557 348.127 393.776C348.127 395.653 347.53 397.083 346.335 398.064C345.183 399.045 343.498 399.536 341.279 399.536C340.682 399.536 340.277 399.472 340.063 399.344C339.85 399.216 339.743 398.981 339.743 398.64C339.743 398.256 339.701 397.829 339.615 397.36C339.573 396.848 339.423 396.379 339.167 395.952C338.954 395.483 338.591 395.099 338.079 394.8C337.61 394.501 336.927 394.352 336.031 394.352C334.837 394.352 333.877 394.651 333.151 395.248C332.426 395.803 332.063 396.507 332.063 397.36C332.063 398.256 332.426 398.981 333.151 399.536C333.919 400.048 334.858 400.539 335.967 401.008C337.119 401.477 338.357 401.968 339.679 402.48C341.002 402.949 342.218 403.589 343.327 404.4C344.479 405.211 345.418 406.235 346.143 407.472C346.911 408.667 347.295 410.224 347.295 412.144C347.295 415.216 346.207 417.733 344.031 419.696C341.855 421.659 338.591 422.64 334.239 422.64C333.045 422.64 331.658 422.533 330.079 422.32C328.543 422.149 327.071 421.872 325.663 421.488C324.255 421.061 323.061 420.507 322.079 419.824C321.141 419.141 320.671 418.288 320.671 417.264C320.671 416.88 320.735 416.411 320.863 415.856C321.034 415.301 321.269 414.768 321.567 414.256C321.909 413.744 322.293 413.317 322.719 412.976C323.189 412.592 323.743 412.4 324.383 412.4C324.895 412.4 325.365 412.528 325.791 412.784C326.218 413.04 326.709 413.317 327.263 413.616C327.861 413.872 328.586 414.128 329.439 414.384C330.293 414.64 331.423 414.768 332.831 414.768C333.898 414.768 334.837 414.64 335.647 414.384C336.501 414.128 336.927 413.552 336.927 412.656C336.927 411.845 336.586 411.205 335.903 410.736C335.221 410.224 334.346 409.755 333.279 409.328C332.255 408.901 331.125 408.453 329.887 407.984C328.693 407.472 327.562 406.811 326.495 406C325.471 405.189 324.618 404.165 323.935 402.928C323.253 401.648 322.911 400.005 322.911 398C322.911 395.824 323.338 393.989 324.191 392.496C325.087 390.96 326.218 389.723 327.583 388.784C328.991 387.845 330.57 387.184 332.319 386.8C334.069 386.373 335.818 386.16 337.567 386.16ZM367.502 422.64C365.624 422.64 363.747 422.405 361.87 421.936C360.035 421.467 358.371 420.656 356.878 419.504C355.427 418.352 354.232 416.816 353.294 414.896C352.355 412.976 351.886 410.565 351.886 407.664C351.886 406.597 351.971 405.317 352.142 403.824C352.312 402.331 352.632 400.795 353.102 399.216C353.614 397.637 354.296 396.08 355.15 394.544C356.046 392.965 357.198 391.557 358.606 390.32C360.014 389.083 361.72 388.08 363.726 387.312C365.731 386.544 368.12 386.16 370.894 386.16C373.112 386.16 374.99 386.416 376.526 386.928C378.062 387.44 379.299 388.144 380.238 389.04C381.176 389.893 381.859 390.896 382.286 392.048C382.712 393.2 382.926 394.437 382.926 395.76C382.926 397.723 382.52 399.387 381.71 400.752C380.942 402.117 379.918 403.269 378.638 404.208C377.4 405.104 376.014 405.808 374.478 406.32C372.942 406.832 371.427 407.237 369.934 407.536C368.44 407.792 367.054 407.963 365.774 408.048C364.536 408.091 363.576 408.112 362.894 408.112C362.894 408.923 363 409.733 363.214 410.544C363.47 411.312 363.832 411.995 364.302 412.592C364.771 413.189 365.39 413.68 366.158 414.064C366.926 414.448 367.864 414.64 368.974 414.64C370.083 414.64 370.936 414.469 371.534 414.128C372.174 413.744 372.686 413.339 373.07 412.912C373.454 412.443 373.774 412.037 374.03 411.696C374.328 411.312 374.712 411.12 375.182 411.12C375.395 411.12 375.758 411.184 376.27 411.312C376.824 411.397 377.379 411.611 377.934 411.952C378.488 412.293 378.979 412.763 379.406 413.36C379.832 413.957 380.046 414.725 380.046 415.664C380.046 416.901 379.662 417.968 378.894 418.864C378.126 419.76 377.123 420.485 375.886 421.04C374.691 421.595 373.347 422 371.854 422.256C370.36 422.512 368.91 422.64 367.502 422.64ZM368.718 394.672C367.779 394.672 366.968 394.949 366.286 395.504C365.646 396.016 365.091 396.677 364.622 397.488C364.195 398.299 363.854 399.195 363.598 400.176C363.384 401.157 363.214 402.096 363.086 402.992C365.731 402.949 367.864 402.501 369.486 401.648C371.15 400.795 371.982 399.579 371.982 398C371.982 397.147 371.704 396.379 371.15 395.696C370.638 395.013 369.827 394.672 368.718 394.672ZM414.866 422.64C411.922 422.64 409.469 422.235 407.506 421.424C405.586 420.571 404.05 419.419 402.898 417.968C401.746 416.517 400.936 414.832 400.466 412.912C399.997 410.949 399.762 408.859 399.762 406.64C399.762 404.08 400.061 401.584 400.658 399.152C401.298 396.677 402.365 394.48 403.858 392.56C405.352 390.64 407.314 389.104 409.746 387.952C412.221 386.757 415.293 386.16 418.962 386.16C424.338 386.16 428.178 387.483 430.482 390.128C432.829 392.731 434.002 396.4 434.002 401.136C434.002 402.459 433.896 403.931 433.682 405.552C433.512 407.131 433.149 408.709 432.594 410.288C432.082 411.867 431.357 413.403 430.418 414.896C429.522 416.389 428.37 417.712 426.962 418.864C425.554 420.016 423.848 420.933 421.842 421.616C419.88 422.299 417.554 422.64 414.866 422.64ZM417.874 394.672C416.253 394.672 414.952 395.099 413.97 395.952C413.032 396.763 412.306 397.765 411.794 398.96C411.325 400.112 411.005 401.349 410.834 402.672C410.706 403.952 410.642 405.04 410.642 405.936C410.642 408.752 411.09 410.821 411.986 412.144C412.882 413.467 414.162 414.128 415.826 414.128C417.32 414.128 418.536 413.659 419.474 412.72C420.456 411.781 421.202 410.651 421.714 409.328C422.269 408.005 422.632 406.619 422.802 405.168C423.016 403.717 423.122 402.501 423.122 401.52C423.122 399.387 422.717 397.723 421.906 396.528C421.138 395.291 419.794 394.672 417.874 394.672ZM463.602 410.48C463.474 412.443 463.325 414.32 463.154 416.112C462.984 417.861 462.856 419.397 462.77 420.72C462.728 421.232 462.621 421.573 462.45 421.744C462.28 421.915 461.917 422 461.362 422H459.058C457.736 422 456.648 421.872 455.794 421.616C454.984 421.317 454.322 420.912 453.81 420.4C453.341 419.888 453 419.269 452.786 418.544C452.616 417.776 452.53 416.901 452.53 415.92C452.53 415.28 452.552 414.384 452.594 413.232C452.68 412.037 452.808 410.416 452.978 408.368C453.149 406.277 453.341 403.653 453.554 400.496C453.81 397.296 454.109 393.349 454.45 388.656C454.493 387.717 454.6 387.163 454.77 386.992C454.898 386.864 455.24 386.8 455.794 386.8H458.29C459.57 386.8 460.616 386.949 461.426 387.248C462.237 387.547 462.898 387.931 463.41 388.4C463.922 388.869 464.285 389.424 464.498 390.064C464.712 390.704 464.84 391.365 464.882 392.048C466.12 389.744 467.528 388.187 469.106 387.376C470.685 386.565 472.541 386.16 474.674 386.16C475.826 386.16 476.936 386.267 478.002 386.48C479.069 386.693 480.029 387.056 480.882 387.568C481.736 388.08 482.461 388.763 483.058 389.616C483.656 390.427 484.082 391.472 484.338 392.752C485.661 390.277 487.112 388.571 488.69 387.632C490.269 386.651 492.253 386.16 494.642 386.16C495.965 386.16 497.224 386.309 498.418 386.608C499.656 386.864 500.722 387.333 501.618 388.016C502.514 388.699 503.218 389.637 503.73 390.832C504.285 391.984 504.562 393.435 504.562 395.184C504.562 396.507 504.498 398.128 504.37 400.048C504.242 401.968 504.093 404.059 503.922 406.32C503.752 408.539 503.56 410.843 503.346 413.232C503.133 415.579 502.962 417.84 502.834 420.016C502.792 420.485 502.749 420.848 502.706 421.104C502.664 421.36 502.578 421.552 502.45 421.68C502.365 421.808 502.216 421.893 502.002 421.936C501.789 421.979 501.49 422 501.106 422H499.058C497.693 422 496.584 421.872 495.73 421.616C494.877 421.36 494.216 420.997 493.746 420.528C493.277 420.059 492.936 419.483 492.722 418.8C492.552 418.075 492.466 417.264 492.466 416.368C492.466 415.813 492.488 415.024 492.53 414C492.616 412.976 492.701 411.867 492.786 410.672C492.914 409.477 493.021 408.24 493.106 406.96C493.234 405.68 493.341 404.507 493.426 403.44C493.554 402.331 493.64 401.371 493.682 400.56C493.768 399.749 493.81 399.216 493.81 398.96C493.81 397.851 493.576 396.869 493.106 396.016C492.68 395.163 491.826 394.736 490.546 394.736C489.437 394.736 488.477 395.099 487.666 395.824C486.856 396.549 486.173 397.552 485.618 398.832C485.064 400.112 484.616 401.627 484.274 403.376C483.933 405.125 483.698 407.024 483.57 409.072C483.485 410.395 483.378 411.909 483.25 413.616C483.122 415.323 482.973 417.456 482.802 420.016C482.76 420.485 482.717 420.848 482.674 421.104C482.632 421.36 482.546 421.552 482.418 421.68C482.333 421.808 482.184 421.893 481.97 421.936C481.757 421.979 481.458 422 481.074 422H479.026C477.661 422 476.552 421.872 475.698 421.616C474.845 421.36 474.184 420.997 473.714 420.528C473.245 420.059 472.904 419.483 472.69 418.8C472.52 418.075 472.434 417.264 472.434 416.368C472.434 415.515 472.498 414.277 472.626 412.656C472.797 410.992 472.946 409.285 473.074 407.536C473.245 405.744 473.394 404.059 473.522 402.48C473.693 400.859 473.778 399.685 473.778 398.96C473.778 397.851 473.544 396.869 473.074 396.016C472.648 395.163 471.794 394.736 470.514 394.736C469.362 394.736 468.381 395.163 467.57 396.016C466.76 396.869 466.077 398.021 465.522 399.472C465.01 400.88 464.584 402.544 464.242 404.464C463.944 406.384 463.73 408.389 463.602 410.48ZM524.616 422.64C521.672 422.64 519.219 422.235 517.256 421.424C515.336 420.571 513.8 419.419 512.648 417.968C511.496 416.517 510.686 414.832 510.216 412.912C509.747 410.949 509.512 408.859 509.512 406.64C509.512 404.08 509.811 401.584 510.408 399.152C511.048 396.677 512.115 394.48 513.608 392.56C515.102 390.64 517.064 389.104 519.496 387.952C521.971 386.757 525.043 386.16 528.712 386.16C534.088 386.16 537.928 387.483 540.232 390.128C542.579 392.731 543.752 396.4 543.752 401.136C543.752 402.459 543.646 403.931 543.432 405.552C543.262 407.131 542.899 408.709 542.344 410.288C541.832 411.867 541.107 413.403 540.168 414.896C539.272 416.389 538.12 417.712 536.712 418.864C535.304 420.016 533.598 420.933 531.592 421.616C529.63 422.299 527.304 422.64 524.616 422.64ZM527.624 394.672C526.003 394.672 524.702 395.099 523.72 395.952C522.782 396.763 522.056 397.765 521.544 398.96C521.075 400.112 520.755 401.349 520.584 402.672C520.456 403.952 520.392 405.04 520.392 405.936C520.392 408.752 520.84 410.821 521.736 412.144C522.632 413.467 523.912 414.128 525.576 414.128C527.07 414.128 528.286 413.659 529.224 412.72C530.206 411.781 530.952 410.651 531.464 409.328C532.019 408.005 532.382 406.619 532.552 405.168C532.766 403.717 532.872 402.501 532.872 401.52C532.872 399.387 532.467 397.723 531.656 396.528C530.888 395.291 529.544 394.672 527.624 394.672ZM560.754 392.24C560.754 393.136 560.669 394.395 560.498 396.016C560.37 397.637 560.221 399.323 560.05 401.072C559.922 402.821 559.773 404.464 559.602 406C559.474 407.536 559.41 408.645 559.41 409.328C559.41 410.821 559.773 411.995 560.498 412.848C561.266 413.659 562.312 414.064 563.634 414.064C564.786 414.064 565.746 413.616 566.514 412.72C567.325 411.781 567.965 410.587 568.434 409.136C568.946 407.643 569.352 405.957 569.65 404.08C569.949 402.203 570.162 400.304 570.29 398.384C570.461 396.464 570.589 394.608 570.674 392.816C570.802 390.981 570.93 389.403 571.058 388.08C571.101 387.739 571.229 387.44 571.442 387.184C571.656 386.928 571.997 386.8 572.466 386.8H574.77C576.093 386.8 577.16 386.949 577.97 387.248C578.824 387.504 579.485 387.888 579.954 388.4C580.466 388.912 580.808 389.552 580.978 390.32C581.192 391.045 581.298 391.899 581.298 392.88C581.298 393.52 581.256 394.437 581.17 395.632C581.128 396.784 581.021 398.405 580.85 400.496C580.68 402.544 580.466 405.168 580.21 408.368C579.997 411.525 579.72 415.451 579.378 420.144C579.293 421.04 579.186 421.573 579.058 421.744C578.973 421.915 578.632 422 578.034 422H575.538C574.258 422 573.192 421.851 572.338 421.552C571.528 421.253 570.866 420.869 570.354 420.4C569.842 419.931 569.48 419.376 569.266 418.736C569.053 418.096 568.925 417.435 568.882 416.752C568.242 417.861 567.517 418.8 566.706 419.568C565.938 420.336 565.128 420.955 564.274 421.424C563.421 421.851 562.546 422.149 561.65 422.32C560.754 422.533 559.88 422.64 559.026 422.64C557.405 422.64 555.954 422.384 554.674 421.872C553.394 421.317 552.306 420.592 551.41 419.696C550.557 418.8 549.896 417.733 549.426 416.496C548.957 415.259 548.722 413.936 548.722 412.528C548.722 411.973 548.744 411.077 548.786 409.84C548.872 408.56 548.957 407.131 549.042 405.552C549.17 403.973 549.298 402.309 549.426 400.56C549.554 398.768 549.661 397.083 549.746 395.504C549.874 393.925 549.981 392.539 550.066 391.344C550.194 390.149 550.28 389.296 550.322 388.784C550.408 388.016 550.578 387.504 550.834 387.248C551.09 386.949 551.517 386.8 552.114 386.8H554.162C555.485 386.8 556.573 386.928 557.426 387.184C558.28 387.44 558.941 387.803 559.41 388.272C559.922 388.741 560.264 389.317 560.434 390C560.648 390.64 560.754 391.387 560.754 392.24ZM601.817 386.16C605.444 386.16 608.111 386.885 609.817 388.336C611.524 389.744 612.377 391.557 612.377 393.776C612.377 395.653 611.78 397.083 610.585 398.064C609.433 399.045 607.748 399.536 605.529 399.536C604.932 399.536 604.527 399.472 604.313 399.344C604.1 399.216 603.993 398.981 603.993 398.64C603.993 398.256 603.951 397.829 603.865 397.36C603.823 396.848 603.673 396.379 603.417 395.952C603.204 395.483 602.841 395.099 602.329 394.8C601.86 394.501 601.177 394.352 600.281 394.352C599.087 394.352 598.127 394.651 597.401 395.248C596.676 395.803 596.313 396.507 596.313 397.36C596.313 398.256 596.676 398.981 597.401 399.536C598.169 400.048 599.108 400.539 600.217 401.008C601.369 401.477 602.607 401.968 603.929 402.48C605.252 402.949 606.468 403.589 607.577 404.4C608.729 405.211 609.668 406.235 610.393 407.472C611.161 408.667 611.545 410.224 611.545 412.144C611.545 415.216 610.457 417.733 608.281 419.696C606.105 421.659 602.841 422.64 598.489 422.64C597.295 422.64 595.908 422.533 594.329 422.32C592.793 422.149 591.321 421.872 589.913 421.488C588.505 421.061 587.311 420.507 586.329 419.824C585.391 419.141 584.921 418.288 584.921 417.264C584.921 416.88 584.985 416.411 585.113 415.856C585.284 415.301 585.519 414.768 585.817 414.256C586.159 413.744 586.543 413.317 586.969 412.976C587.439 412.592 587.993 412.4 588.633 412.4C589.145 412.4 589.615 412.528 590.041 412.784C590.468 413.04 590.959 413.317 591.513 413.616C592.111 413.872 592.836 414.128 593.689 414.384C594.543 414.64 595.673 414.768 597.081 414.768C598.148 414.768 599.087 414.64 599.897 414.384C600.751 414.128 601.177 413.552 601.177 412.656C601.177 411.845 600.836 411.205 600.153 410.736C599.471 410.224 598.596 409.755 597.529 409.328C596.505 408.901 595.375 408.453 594.137 407.984C592.943 407.472 591.812 406.811 590.745 406C589.721 405.189 588.868 404.165 588.185 402.928C587.503 401.648 587.161 400.005 587.161 398C587.161 395.824 587.588 393.989 588.441 392.496C589.337 390.96 590.468 389.723 591.833 388.784C593.241 387.845 594.82 387.184 596.569 386.8C598.319 386.373 600.068 386.16 601.817 386.16ZM631.752 422.64C629.874 422.64 627.997 422.405 626.12 421.936C624.285 421.467 622.621 420.656 621.128 419.504C619.677 418.352 618.482 416.816 617.544 414.896C616.605 412.976 616.136 410.565 616.136 407.664C616.136 406.597 616.221 405.317 616.392 403.824C616.562 402.331 616.882 400.795 617.352 399.216C617.864 397.637 618.546 396.08 619.4 394.544C620.296 392.965 621.448 391.557 622.856 390.32C624.264 389.083 625.97 388.08 627.976 387.312C629.981 386.544 632.37 386.16 635.144 386.16C637.362 386.16 639.24 386.416 640.776 386.928C642.312 387.44 643.549 388.144 644.488 389.04C645.426 389.893 646.109 390.896 646.536 392.048C646.962 393.2 647.176 394.437 647.176 395.76C647.176 397.723 646.77 399.387 645.96 400.752C645.192 402.117 644.168 403.269 642.888 404.208C641.65 405.104 640.264 405.808 638.728 406.32C637.192 406.832 635.677 407.237 634.184 407.536C632.69 407.792 631.304 407.963 630.024 408.048C628.786 408.091 627.826 408.112 627.144 408.112C627.144 408.923 627.25 409.733 627.464 410.544C627.72 411.312 628.082 411.995 628.552 412.592C629.021 413.189 629.64 413.68 630.408 414.064C631.176 414.448 632.114 414.64 633.224 414.64C634.333 414.64 635.186 414.469 635.784 414.128C636.424 413.744 636.936 413.339 637.32 412.912C637.704 412.443 638.024 412.037 638.28 411.696C638.578 411.312 638.962 411.12 639.432 411.12C639.645 411.12 640.008 411.184 640.52 411.312C641.074 411.397 641.629 411.611 642.184 411.952C642.738 412.293 643.229 412.763 643.656 413.36C644.082 413.957 644.296 414.725 644.296 415.664C644.296 416.901 643.912 417.968 643.144 418.864C642.376 419.76 641.373 420.485 640.136 421.04C638.941 421.595 637.597 422 636.104 422.256C634.61 422.512 633.16 422.64 631.752 422.64ZM632.968 394.672C632.029 394.672 631.218 394.949 630.536 395.504C629.896 396.016 629.341 396.677 628.872 397.488C628.445 398.299 628.104 399.195 627.848 400.176C627.634 401.157 627.464 402.096 627.336 402.992C629.981 402.949 632.114 402.501 633.736 401.648C635.4 400.795 636.232 399.579 636.232 398C636.232 397.147 635.954 396.379 635.4 395.696C634.888 395.013 634.077 394.672 632.968 394.672ZM679.692 386.16C683.319 386.16 685.986 386.885 687.692 388.336C689.399 389.744 690.252 391.557 690.252 393.776C690.252 395.653 689.655 397.083 688.46 398.064C687.308 399.045 685.623 399.536 683.404 399.536C682.807 399.536 682.402 399.472 682.188 399.344C681.975 399.216 681.868 398.981 681.868 398.64C681.868 398.256 681.826 397.829 681.74 397.36C681.698 396.848 681.548 396.379 681.292 395.952C681.079 395.483 680.716 395.099 680.204 394.8C679.735 394.501 679.052 394.352 678.156 394.352C676.962 394.352 676.002 394.651 675.276 395.248C674.551 395.803 674.188 396.507 674.188 397.36C674.188 398.256 674.551 398.981 675.276 399.536C676.044 400.048 676.983 400.539 678.092 401.008C679.244 401.477 680.482 401.968 681.804 402.48C683.127 402.949 684.343 403.589 685.452 404.4C686.604 405.211 687.543 406.235 688.268 407.472C689.036 408.667 689.42 410.224 689.42 412.144C689.42 415.216 688.332 417.733 686.156 419.696C683.98 421.659 680.716 422.64 676.364 422.64C675.17 422.64 673.783 422.533 672.204 422.32C670.668 422.149 669.196 421.872 667.788 421.488C666.38 421.061 665.186 420.507 664.204 419.824C663.266 419.141 662.796 418.288 662.796 417.264C662.796 416.88 662.86 416.411 662.988 415.856C663.159 415.301 663.394 414.768 663.692 414.256C664.034 413.744 664.418 413.317 664.844 412.976C665.314 412.592 665.868 412.4 666.508 412.4C667.02 412.4 667.49 412.528 667.916 412.784C668.343 413.04 668.834 413.317 669.388 413.616C669.986 413.872 670.711 414.128 671.564 414.384C672.418 414.64 673.548 414.768 674.956 414.768C676.023 414.768 676.962 414.64 677.772 414.384C678.626 414.128 679.052 413.552 679.052 412.656C679.052 411.845 678.711 411.205 678.028 410.736C677.346 410.224 676.471 409.755 675.404 409.328C674.38 408.901 673.25 408.453 672.012 407.984C670.818 407.472 669.687 406.811 668.62 406C667.596 405.189 666.743 404.165 666.06 402.928C665.378 401.648 665.036 400.005 665.036 398C665.036 395.824 665.463 393.989 666.316 392.496C667.212 390.96 668.343 389.723 669.708 388.784C671.116 387.845 672.695 387.184 674.444 386.8C676.194 386.373 677.943 386.16 679.692 386.16ZM709.179 422.64C706.235 422.64 703.781 422.235 701.819 421.424C699.899 420.571 698.363 419.419 697.211 417.968C696.059 416.517 695.248 414.832 694.779 412.912C694.309 410.949 694.075 408.859 694.075 406.64C694.075 404.08 694.373 401.584 694.971 399.152C695.611 396.677 696.677 394.48 698.171 392.56C699.664 390.64 701.627 389.104 704.059 387.952C706.533 386.757 709.605 386.16 713.275 386.16C718.651 386.16 722.491 387.483 724.795 390.128C727.141 392.731 728.315 396.4 728.315 401.136C728.315 402.459 728.208 403.931 727.995 405.552C727.824 407.131 727.461 408.709 726.907 410.288C726.395 411.867 725.669 413.403 724.731 414.896C723.835 416.389 722.683 417.712 721.275 418.864C719.867 420.016 718.16 420.933 716.155 421.616C714.192 422.299 711.867 422.64 709.179 422.64ZM712.187 394.672C710.565 394.672 709.264 395.099 708.283 395.952C707.344 396.763 706.619 397.765 706.107 398.96C705.637 400.112 705.317 401.349 705.147 402.672C705.019 403.952 704.955 405.04 704.955 405.936C704.955 408.752 705.403 410.821 706.299 412.144C707.195 413.467 708.475 414.128 710.139 414.128C711.632 414.128 712.848 413.659 713.787 412.72C714.768 411.781 715.515 410.651 716.027 409.328C716.581 408.005 716.944 406.619 717.115 405.168C717.328 403.717 717.435 402.501 717.435 401.52C717.435 399.387 717.029 397.723 716.219 396.528C715.451 395.291 714.107 394.672 712.187 394.672ZM747.749 422.64C744.463 422.64 741.861 422.171 739.941 421.232C738.021 420.251 736.57 419.035 735.589 417.584C734.607 416.133 733.989 414.576 733.733 412.912C733.477 411.205 733.349 409.648 733.349 408.24C733.349 407.685 733.391 406.597 733.477 404.976C733.605 403.355 733.754 401.477 733.925 399.344C734.095 397.211 734.266 394.949 734.437 392.56C734.607 390.128 734.778 387.845 734.949 385.712C735.119 383.536 735.247 381.616 735.333 379.952C735.461 378.288 735.525 377.136 735.525 376.496C735.525 375.557 735.589 375.024 735.717 374.896C735.845 374.725 736.229 374.64 736.869 374.64H739.365C740.645 374.64 741.711 374.789 742.565 375.088C743.418 375.387 744.101 375.792 744.613 376.304C745.125 376.816 745.487 377.413 745.701 378.096C745.914 378.736 746.021 379.44 746.021 380.208C746.021 380.933 745.935 382.341 745.765 384.432C745.637 386.523 745.466 388.976 745.253 391.792C746.362 389.872 747.621 388.464 749.029 387.568C750.437 386.629 752.293 386.16 754.597 386.16C758.479 386.16 761.445 387.44 763.493 390C765.583 392.56 766.629 396.379 766.629 401.456C766.629 402.779 766.522 404.229 766.309 405.808C766.138 407.387 765.797 408.965 765.285 410.544C764.815 412.08 764.133 413.595 763.237 415.088C762.383 416.539 761.253 417.819 759.845 418.928C758.437 420.037 756.73 420.933 754.725 421.616C752.762 422.299 750.437 422.64 747.749 422.64ZM750.629 394.672C749.093 394.672 747.877 395.077 746.981 395.888C746.127 396.699 745.466 397.68 744.997 398.832C744.527 399.984 744.229 401.221 744.101 402.544C743.973 403.824 743.909 404.955 743.909 405.936C743.909 408.88 744.314 410.992 745.125 412.272C745.935 413.509 747.151 414.128 748.773 414.128C750.309 414.128 751.503 413.659 752.357 412.72C753.253 411.739 753.914 410.587 754.341 409.264C754.81 407.941 755.109 406.597 755.237 405.232C755.365 403.867 755.429 402.8 755.429 402.032C755.429 399.643 755.066 397.829 754.341 396.592C753.615 395.312 752.378 394.672 750.629 394.672ZM792.14 402.096C791.884 402.096 791.585 402.096 791.244 402.096C790.945 402.053 790.646 402.011 790.348 401.968C790.049 401.883 789.793 401.797 789.58 401.712C789.366 401.584 789.26 401.435 789.26 401.264C789.26 400.709 789.281 400.197 789.324 399.728C789.366 399.259 789.388 398.768 789.388 398.256C789.388 397.317 789.26 396.549 789.004 395.952C788.748 395.355 788.236 395.056 787.468 395.056C786.273 395.056 785.27 395.845 784.46 397.424C783.692 398.96 783.201 401.285 782.988 404.4C782.902 405.765 782.774 407.323 782.604 409.072C782.476 410.779 782.348 412.443 782.22 414.064C782.092 415.643 781.985 417.051 781.9 418.288C781.814 419.525 781.772 420.336 781.772 420.72C781.772 421.147 781.622 421.467 781.324 421.68C781.025 421.893 780.705 422 780.364 422H778.06C776.737 422 775.649 421.872 774.796 421.616C773.985 421.317 773.324 420.912 772.812 420.4C772.342 419.888 772.001 419.269 771.788 418.544C771.617 417.776 771.532 416.901 771.532 415.92C771.532 415.28 771.553 414.384 771.596 413.232C771.681 412.037 771.809 410.416 771.98 408.368C772.15 406.277 772.342 403.653 772.556 400.496C772.812 397.296 773.11 393.349 773.452 388.656C773.537 387.419 773.985 386.8 774.796 386.8H777.292C778.486 386.8 779.489 386.928 780.3 387.184C781.11 387.44 781.772 387.803 782.284 388.272C782.796 388.699 783.158 389.211 783.372 389.808C783.628 390.405 783.798 391.024 783.884 391.664C784.396 390.683 784.993 389.851 785.676 389.168C786.401 388.443 787.148 387.867 787.916 387.44C788.684 386.971 789.473 386.651 790.284 386.48C791.094 386.267 791.841 386.16 792.524 386.16C793.334 386.16 794.145 386.309 794.956 386.608C795.809 386.907 796.577 387.355 797.26 387.952C797.942 388.549 798.476 389.317 798.86 390.256C799.286 391.195 799.5 392.304 799.5 393.584C799.5 394.736 799.329 395.824 798.988 396.848C798.646 397.872 798.156 398.789 797.516 399.6C796.876 400.368 796.086 400.987 795.148 401.456C794.252 401.883 793.249 402.096 792.14 402.096ZM816.877 422.64C814.999 422.64 813.122 422.405 811.245 421.936C809.41 421.467 807.746 420.656 806.253 419.504C804.802 418.352 803.607 416.816 802.669 414.896C801.73 412.976 801.261 410.565 801.261 407.664C801.261 406.597 801.346 405.317 801.517 403.824C801.687 402.331 802.007 400.795 802.477 399.216C802.989 397.637 803.671 396.08 804.525 394.544C805.421 392.965 806.573 391.557 807.981 390.32C809.389 389.083 811.095 388.08 813.101 387.312C815.106 386.544 817.495 386.16 820.269 386.16C822.487 386.16 824.365 386.416 825.901 386.928C827.437 387.44 828.674 388.144 829.613 389.04C830.551 389.893 831.234 390.896 831.661 392.048C832.087 393.2 832.301 394.437 832.301 395.76C832.301 397.723 831.895 399.387 831.085 400.752C830.317 402.117 829.293 403.269 828.013 404.208C826.775 405.104 825.389 405.808 823.853 406.32C822.317 406.832 820.802 407.237 819.309 407.536C817.815 407.792 816.429 407.963 815.149 408.048C813.911 408.091 812.951 408.112 812.269 408.112C812.269 408.923 812.375 409.733 812.589 410.544C812.845 411.312 813.207 411.995 813.677 412.592C814.146 413.189 814.765 413.68 815.533 414.064C816.301 414.448 817.239 414.64 818.349 414.64C819.458 414.64 820.311 414.469 820.909 414.128C821.549 413.744 822.061 413.339 822.445 412.912C822.829 412.443 823.149 412.037 823.405 411.696C823.703 411.312 824.087 411.12 824.557 411.12C824.77 411.12 825.133 411.184 825.645 411.312C826.199 411.397 826.754 411.611 827.309 411.952C827.863 412.293 828.354 412.763 828.781 413.36C829.207 413.957 829.421 414.725 829.421 415.664C829.421 416.901 829.037 417.968 828.269 418.864C827.501 419.76 826.498 420.485 825.261 421.04C824.066 421.595 822.722 422 821.229 422.256C819.735 422.512 818.285 422.64 816.877 422.64ZM818.093 394.672C817.154 394.672 816.343 394.949 815.661 395.504C815.021 396.016 814.466 396.677 813.997 397.488C813.57 398.299 813.229 399.195 812.973 400.176C812.759 401.157 812.589 402.096 812.461 402.992C815.106 402.949 817.239 402.501 818.861 401.648C820.525 400.795 821.357 399.579 821.357 398C821.357 397.147 821.079 396.379 820.525 395.696C820.013 395.013 819.202 394.672 818.093 394.672ZM864.241 422.64C861.297 422.64 858.844 422.235 856.881 421.424C854.961 420.571 853.425 419.419 852.273 417.968C851.121 416.517 850.311 414.832 849.841 412.912C849.372 410.949 849.137 408.859 849.137 406.64C849.137 404.08 849.436 401.584 850.033 399.152C850.673 396.677 851.74 394.48 853.233 392.56C854.727 390.64 856.689 389.104 859.121 387.952C861.596 386.757 864.668 386.16 868.337 386.16C873.713 386.16 877.553 387.483 879.857 390.128C882.204 392.731 883.377 396.4 883.377 401.136C883.377 402.459 883.271 403.931 883.057 405.552C882.887 407.131 882.524 408.709 881.969 410.288C881.457 411.867 880.732 413.403 879.793 414.896C878.897 416.389 877.745 417.712 876.337 418.864C874.929 420.016 873.223 420.933 871.217 421.616C869.255 422.299 866.929 422.64 864.241 422.64ZM867.249 394.672C865.628 394.672 864.327 395.099 863.345 395.952C862.407 396.763 861.681 397.765 861.169 398.96C860.7 400.112 860.38 401.349 860.209 402.672C860.081 403.952 860.017 405.04 860.017 405.936C860.017 408.752 860.465 410.821 861.361 412.144C862.257 413.467 863.537 414.128 865.201 414.128C866.695 414.128 867.911 413.659 868.849 412.72C869.831 411.781 870.577 410.651 871.089 409.328C871.644 408.005 872.007 406.619 872.177 405.168C872.391 403.717 872.497 402.501 872.497 401.52C872.497 399.387 872.092 397.723 871.281 396.528C870.513 395.291 869.169 394.672 867.249 394.672ZM923.729 416.368C923.729 415.429 923.793 414.213 923.921 412.72C924.092 411.184 924.241 409.584 924.369 407.92C924.54 406.213 924.689 404.571 924.817 402.992C924.988 401.413 925.073 400.091 925.073 399.024C925.073 397.915 924.796 396.933 924.241 396.08C923.729 395.184 922.705 394.736 921.169 394.736C919.676 394.736 918.439 395.099 917.457 395.824C916.476 396.549 915.644 397.872 914.961 399.792C914.321 401.712 913.788 404.357 913.361 407.728C912.935 411.099 912.529 415.429 912.145 420.72C912.103 421.232 911.996 421.573 911.825 421.744C911.655 421.915 911.292 422 910.737 422H908.433C907.111 422 906.023 421.872 905.169 421.616C904.359 421.317 903.697 420.912 903.185 420.4C902.716 419.888 902.375 419.269 902.161 418.544C901.991 417.776 901.905 416.901 901.905 415.92C901.905 415.28 901.927 414.384 901.969 413.232C902.055 412.037 902.183 410.416 902.353 408.368C902.524 406.277 902.716 403.653 902.929 400.496C903.185 397.296 903.484 393.349 903.825 388.656C903.868 387.717 903.975 387.163 904.145 386.992C904.273 386.864 904.615 386.8 905.169 386.8H907.665C908.945 386.8 909.991 386.949 910.801 387.248C911.655 387.547 912.337 387.952 912.849 388.464C913.361 388.933 913.724 389.509 913.937 390.192C914.151 390.832 914.279 391.493 914.321 392.176C915.644 389.915 917.159 388.357 918.865 387.504C920.572 386.608 922.705 386.16 925.265 386.16C927.057 386.16 928.615 386.352 929.937 386.736C931.26 387.12 932.348 387.781 933.201 388.72C934.097 389.616 934.759 390.811 935.185 392.304C935.612 393.755 935.825 395.568 935.825 397.744C935.825 398.427 935.783 399.408 935.697 400.688C935.612 401.968 935.505 403.376 935.377 404.912C935.249 406.405 935.1 407.984 934.929 409.648C934.801 411.269 934.673 412.784 934.545 414.192C934.417 415.6 934.311 416.837 934.225 417.904C934.14 418.971 934.097 419.675 934.097 420.016C934.097 420.955 933.991 421.531 933.777 421.744C933.564 421.915 933.095 422 932.369 422H930.321C928.956 422 927.847 421.872 926.993 421.616C926.14 421.36 925.479 420.997 925.009 420.528C924.54 420.059 924.199 419.483 923.985 418.8C923.815 418.075 923.729 417.264 923.729 416.368ZM955.866 422.64C952.922 422.64 950.469 422.235 948.506 421.424C946.586 420.571 945.05 419.419 943.898 417.968C942.746 416.517 941.936 414.832 941.466 412.912C940.997 410.949 940.762 408.859 940.762 406.64C940.762 404.08 941.061 401.584 941.658 399.152C942.298 396.677 943.365 394.48 944.858 392.56C946.352 390.64 948.314 389.104 950.746 387.952C953.221 386.757 956.293 386.16 959.962 386.16C965.338 386.16 969.178 387.483 971.482 390.128C973.829 392.731 975.002 396.4 975.002 401.136C975.002 402.459 974.896 403.931 974.682 405.552C974.512 407.131 974.149 408.709 973.594 410.288C973.082 411.867 972.357 413.403 971.418 414.896C970.522 416.389 969.37 417.712 967.962 418.864C966.554 420.016 964.848 420.933 962.842 421.616C960.88 422.299 958.554 422.64 955.866 422.64ZM958.874 394.672C957.253 394.672 955.952 395.099 954.97 395.952C954.032 396.763 953.306 397.765 952.794 398.96C952.325 400.112 952.005 401.349 951.834 402.672C951.706 403.952 951.642 405.04 951.642 405.936C951.642 408.752 952.09 410.821 952.986 412.144C953.882 413.467 955.162 414.128 956.826 414.128C958.32 414.128 959.536 413.659 960.474 412.72C961.456 411.781 962.202 410.651 962.714 409.328C963.269 408.005 963.632 406.619 963.802 405.168C964.016 403.717 964.122 402.501 964.122 401.52C964.122 399.387 963.717 397.723 962.906 396.528C962.138 395.291 960.794 394.672 958.874 394.672ZM990.852 410.48C990.724 412.443 990.575 414.32 990.404 416.112C990.234 417.861 990.106 419.397 990.02 420.72C989.978 421.232 989.871 421.573 989.7 421.744C989.53 421.915 989.167 422 988.612 422H986.308C984.986 422 983.898 421.872 983.044 421.616C982.234 421.317 981.572 420.912 981.06 420.4C980.591 419.888 980.25 419.269 980.036 418.544C979.866 417.776 979.78 416.901 979.78 415.92C979.78 415.28 979.802 414.384 979.844 413.232C979.93 412.037 980.058 410.416 980.228 408.368C980.399 406.277 980.591 403.653 980.804 400.496C981.06 397.296 981.359 393.349 981.7 388.656C981.743 387.717 981.85 387.163 982.02 386.992C982.148 386.864 982.49 386.8 983.044 386.8H985.54C986.82 386.8 987.866 386.949 988.676 387.248C989.487 387.547 990.148 387.931 990.66 388.4C991.172 388.869 991.535 389.424 991.748 390.064C991.962 390.704 992.09 391.365 992.132 392.048C993.37 389.744 994.778 388.187 996.356 387.376C997.935 386.565 999.791 386.16 1001.92 386.16C1003.08 386.16 1004.19 386.267 1005.25 386.48C1006.32 386.693 1007.28 387.056 1008.13 387.568C1008.99 388.08 1009.71 388.763 1010.31 389.616C1010.91 390.427 1011.33 391.472 1011.59 392.752C1012.91 390.277 1014.36 388.571 1015.94 387.632C1017.52 386.651 1019.5 386.16 1021.89 386.16C1023.21 386.16 1024.47 386.309 1025.67 386.608C1026.91 386.864 1027.97 387.333 1028.87 388.016C1029.76 388.699 1030.47 389.637 1030.98 390.832C1031.53 391.984 1031.81 393.435 1031.81 395.184C1031.81 396.507 1031.75 398.128 1031.62 400.048C1031.49 401.968 1031.34 404.059 1031.17 406.32C1031 408.539 1030.81 410.843 1030.6 413.232C1030.38 415.579 1030.21 417.84 1030.08 420.016C1030.04 420.485 1030 420.848 1029.96 421.104C1029.91 421.36 1029.83 421.552 1029.7 421.68C1029.61 421.808 1029.47 421.893 1029.25 421.936C1029.04 421.979 1028.74 422 1028.36 422H1026.31C1024.94 422 1023.83 421.872 1022.98 421.616C1022.13 421.36 1021.47 420.997 1021 420.528C1020.53 420.059 1020.19 419.483 1019.97 418.8C1019.8 418.075 1019.72 417.264 1019.72 416.368C1019.72 415.813 1019.74 415.024 1019.78 414C1019.87 412.976 1019.95 411.867 1020.04 410.672C1020.16 409.477 1020.27 408.24 1020.36 406.96C1020.48 405.68 1020.59 404.507 1020.68 403.44C1020.8 402.331 1020.89 401.371 1020.93 400.56C1021.02 399.749 1021.06 399.216 1021.06 398.96C1021.06 397.851 1020.83 396.869 1020.36 396.016C1019.93 395.163 1019.08 394.736 1017.8 394.736C1016.69 394.736 1015.73 395.099 1014.92 395.824C1014.11 396.549 1013.42 397.552 1012.87 398.832C1012.31 400.112 1011.87 401.627 1011.52 403.376C1011.18 405.125 1010.95 407.024 1010.82 409.072C1010.73 410.395 1010.63 411.909 1010.5 413.616C1010.37 415.323 1010.22 417.456 1010.05 420.016C1010.01 420.485 1009.97 420.848 1009.92 421.104C1009.88 421.36 1009.8 421.552 1009.67 421.68C1009.58 421.808 1009.43 421.893 1009.22 421.936C1009.01 421.979 1008.71 422 1008.32 422H1006.28C1004.91 422 1003.8 421.872 1002.95 421.616C1002.09 421.36 1001.43 420.997 1000.96 420.528C1000.49 420.059 1000.15 419.483 999.94 418.8C999.77 418.075 999.684 417.264 999.684 416.368C999.684 415.515 999.748 414.277 999.876 412.656C1000.05 410.992 1000.2 409.285 1000.32 407.536C1000.49 405.744 1000.64 404.059 1000.77 402.48C1000.94 400.859 1001.03 399.685 1001.03 398.96C1001.03 397.851 1000.79 396.869 1000.32 396.016C999.898 395.163 999.044 394.736 997.764 394.736C996.612 394.736 995.631 395.163 994.82 396.016C994.01 396.869 993.327 398.021 992.772 399.472C992.26 400.88 991.834 402.544 991.492 404.464C991.194 406.384 990.98 408.389 990.852 410.48ZM1052.31 422.64C1050.44 422.64 1048.56 422.405 1046.68 421.936C1044.85 421.467 1043.18 420.656 1041.69 419.504C1040.24 418.352 1039.04 416.816 1038.11 414.896C1037.17 412.976 1036.7 410.565 1036.7 407.664C1036.7 406.597 1036.78 405.317 1036.95 403.824C1037.12 402.331 1037.44 400.795 1037.91 399.216C1038.43 397.637 1039.11 396.08 1039.96 394.544C1040.86 392.965 1042.01 391.557 1043.42 390.32C1044.83 389.083 1046.53 388.08 1048.54 387.312C1050.54 386.544 1052.93 386.16 1055.71 386.16C1057.92 386.16 1059.8 386.416 1061.34 386.928C1062.87 387.44 1064.11 388.144 1065.05 389.04C1065.99 389.893 1066.67 390.896 1067.1 392.048C1067.52 393.2 1067.74 394.437 1067.74 395.76C1067.74 397.723 1067.33 399.387 1066.52 400.752C1065.75 402.117 1064.73 403.269 1063.45 404.208C1062.21 405.104 1060.83 405.808 1059.29 406.32C1057.75 406.832 1056.24 407.237 1054.75 407.536C1053.25 407.792 1051.87 407.963 1050.59 408.048C1049.35 408.091 1048.39 408.112 1047.71 408.112C1047.71 408.923 1047.81 409.733 1048.03 410.544C1048.28 411.312 1048.64 411.995 1049.11 412.592C1049.58 413.189 1050.2 413.68 1050.97 414.064C1051.74 414.448 1052.68 414.64 1053.79 414.64C1054.9 414.64 1055.75 414.469 1056.35 414.128C1056.99 413.744 1057.5 413.339 1057.88 412.912C1058.27 412.443 1058.59 412.037 1058.84 411.696C1059.14 411.312 1059.52 411.12 1059.99 411.12C1060.21 411.12 1060.57 411.184 1061.08 411.312C1061.64 411.397 1062.19 411.611 1062.75 411.952C1063.3 412.293 1063.79 412.763 1064.22 413.36C1064.64 413.957 1064.86 414.725 1064.86 415.664C1064.86 416.901 1064.47 417.968 1063.71 418.864C1062.94 419.76 1061.94 420.485 1060.7 421.04C1059.5 421.595 1058.16 422 1056.67 422.256C1055.17 422.512 1053.72 422.64 1052.31 422.64ZM1053.53 394.672C1052.59 394.672 1051.78 394.949 1051.1 395.504C1050.46 396.016 1049.9 396.677 1049.43 397.488C1049.01 398.299 1048.67 399.195 1048.41 400.176C1048.2 401.157 1048.03 402.096 1047.9 402.992C1050.54 402.949 1052.68 402.501 1054.3 401.648C1055.96 400.795 1056.79 399.579 1056.79 398C1056.79 397.147 1056.52 396.379 1055.96 395.696C1055.45 395.013 1054.64 394.672 1053.53 394.672ZM1107.49 386.16C1111.5 386.16 1114.51 387.397 1116.51 389.872C1118.56 392.347 1119.58 396.251 1119.58 401.584C1119.58 404.912 1119.2 407.877 1118.43 410.48C1117.66 413.083 1116.6 415.301 1115.23 417.136C1113.87 418.928 1112.27 420.293 1110.43 421.232C1108.6 422.171 1106.61 422.64 1104.48 422.64C1102.22 422.64 1100.45 422.149 1099.17 421.168C1097.89 420.187 1096.88 418.8 1096.16 417.008C1096.03 418.544 1095.92 419.717 1095.84 420.528C1095.75 421.339 1095.69 421.979 1095.65 422.448C1095.6 422.96 1095.56 423.408 1095.52 423.792C1095.52 424.176 1095.48 424.688 1095.39 425.328C1095.35 425.968 1095.28 426.843 1095.2 427.952C1095.11 429.061 1094.99 430.597 1094.81 432.56C1094.77 433.072 1094.67 433.413 1094.49 433.584C1094.32 433.755 1093.96 433.84 1093.41 433.84H1091.1C1089.78 433.84 1088.69 433.691 1087.84 433.392C1087.03 433.136 1086.37 432.752 1085.85 432.24C1085.39 431.728 1085.04 431.088 1084.83 430.32C1084.66 429.595 1084.57 428.741 1084.57 427.76C1084.57 427.333 1084.64 426.181 1084.77 424.304C1084.89 422.427 1085.04 420.187 1085.21 417.584C1085.43 414.939 1085.64 412.101 1085.85 409.072C1086.11 406.043 1086.35 403.163 1086.56 400.432C1086.77 397.659 1086.94 395.205 1087.07 393.072C1087.24 390.939 1087.37 389.467 1087.45 388.656C1087.5 387.717 1087.6 387.163 1087.77 386.992C1087.9 386.864 1088.24 386.8 1088.8 386.8H1091.29C1093.6 386.8 1095.26 387.291 1096.29 388.272C1097.35 389.211 1097.89 390.341 1097.89 391.664C1098.87 389.701 1100.13 388.293 1101.66 387.44C1103.24 386.587 1105.18 386.16 1107.49 386.16ZM1102.81 394.672C1100.64 394.672 1099.04 395.611 1098.01 397.488C1096.99 399.365 1096.48 401.925 1096.48 405.168C1096.48 406.277 1096.54 407.365 1096.67 408.432C1096.84 409.499 1097.12 410.459 1097.5 411.312C1097.89 412.165 1098.4 412.848 1099.04 413.36C1099.72 413.872 1100.57 414.128 1101.6 414.128C1103.43 414.128 1104.97 413.232 1106.21 411.44C1107.44 409.648 1108.06 406.832 1108.06 402.992C1108.06 401.925 1107.98 400.901 1107.81 399.92C1107.68 398.896 1107.42 398 1107.04 397.232C1106.65 396.464 1106.12 395.845 1105.44 395.376C1104.76 394.907 1103.88 394.672 1102.81 394.672ZM1122.61 414.128C1122.61 410.288 1124.34 407.28 1127.79 405.104C1131.25 402.928 1136.35 401.755 1143.09 401.584C1143.13 401.115 1143.15 400.731 1143.15 400.432C1143.2 400.091 1143.22 399.685 1143.22 399.216C1143.22 397.851 1142.96 396.763 1142.45 395.952C1141.94 395.141 1140.87 394.736 1139.25 394.736C1138.35 394.736 1137.63 394.864 1137.07 395.12C1136.52 395.376 1136.07 395.739 1135.73 396.208C1135.39 396.635 1135.11 397.168 1134.9 397.808C1134.68 398.448 1134.49 399.152 1134.32 399.92C1134.24 400.304 1134.04 400.56 1133.75 400.688C1133.45 400.773 1132.98 400.816 1132.34 400.816C1127.99 400.816 1125.81 399.173 1125.81 395.888C1125.81 394.565 1126.11 393.307 1126.71 392.112C1127.35 390.917 1128.26 389.893 1129.46 389.04C1130.7 388.144 1132.23 387.44 1134.07 386.928C1135.9 386.416 1138.03 386.16 1140.47 386.16C1145.2 386.16 1148.64 387.141 1150.77 389.104C1152.9 391.067 1153.97 393.84 1153.97 397.424C1153.97 397.893 1153.91 398.747 1153.78 399.984C1153.69 401.179 1153.56 402.459 1153.39 403.824C1153.27 405.147 1153.14 406.405 1153.01 407.6C1152.92 408.795 1152.88 409.627 1152.88 410.096C1152.88 411.163 1153.07 411.931 1153.46 412.4C1153.84 412.827 1154.27 413.125 1154.74 413.296C1155.25 413.467 1155.7 413.595 1156.08 413.68C1156.47 413.765 1156.66 413.979 1156.66 414.32C1156.66 415.259 1156.53 416.219 1156.27 417.2C1156.02 418.181 1155.59 419.077 1154.99 419.888C1154.44 420.699 1153.65 421.36 1152.63 421.872C1151.64 422.384 1150.43 422.64 1148.98 422.64C1146.93 422.64 1145.39 422.149 1144.37 421.168C1143.35 420.187 1142.66 418.821 1142.32 417.072C1141.3 418.565 1139.95 419.867 1138.29 420.976C1136.67 422.085 1134.54 422.64 1131.89 422.64C1130.61 422.64 1129.39 422.491 1128.24 422.192C1127.13 421.893 1126.15 421.403 1125.3 420.72C1124.49 420.037 1123.83 419.163 1123.31 418.096C1122.84 416.987 1122.61 415.664 1122.61 414.128ZM1142.51 406.832C1141.4 406.832 1140.32 406.917 1139.25 407.088C1138.18 407.259 1137.22 407.536 1136.37 407.92C1135.56 408.261 1134.9 408.731 1134.39 409.328C1133.87 409.925 1133.62 410.651 1133.62 411.504C1133.62 412.485 1133.92 413.168 1134.51 413.552C1135.15 413.936 1135.84 414.128 1136.56 414.128C1137.24 414.128 1137.93 413.979 1138.61 413.68C1139.29 413.381 1139.89 412.933 1140.4 412.336C1140.96 411.696 1141.43 410.928 1141.81 410.032C1142.19 409.136 1142.43 408.069 1142.51 406.832ZM1181.26 402.096C1181.01 402.096 1180.71 402.096 1180.37 402.096C1180.07 402.053 1179.77 402.011 1179.47 401.968C1179.17 401.883 1178.92 401.797 1178.7 401.712C1178.49 401.584 1178.38 401.435 1178.38 401.264C1178.38 400.709 1178.41 400.197 1178.45 399.728C1178.49 399.259 1178.51 398.768 1178.51 398.256C1178.51 397.317 1178.38 396.549 1178.13 395.952C1177.87 395.355 1177.36 395.056 1176.59 395.056C1175.4 395.056 1174.4 395.845 1173.58 397.424C1172.82 398.96 1172.33 401.285 1172.11 404.4C1172.03 405.765 1171.9 407.323 1171.73 409.072C1171.6 410.779 1171.47 412.443 1171.34 414.064C1171.22 415.643 1171.11 417.051 1171.02 418.288C1170.94 419.525 1170.9 420.336 1170.9 420.72C1170.9 421.147 1170.75 421.467 1170.45 421.68C1170.15 421.893 1169.83 422 1169.49 422H1167.18C1165.86 422 1164.77 421.872 1163.92 421.616C1163.11 421.317 1162.45 420.912 1161.94 420.4C1161.47 419.888 1161.13 419.269 1160.91 418.544C1160.74 417.776 1160.66 416.901 1160.66 415.92C1160.66 415.28 1160.68 414.384 1160.72 413.232C1160.81 412.037 1160.93 410.416 1161.1 408.368C1161.28 406.277 1161.47 403.653 1161.68 400.496C1161.94 397.296 1162.24 393.349 1162.58 388.656C1162.66 387.419 1163.11 386.8 1163.92 386.8H1166.42C1167.61 386.8 1168.61 386.928 1169.42 387.184C1170.24 387.44 1170.9 387.803 1171.41 388.272C1171.92 388.699 1172.28 389.211 1172.5 389.808C1172.75 390.405 1172.92 391.024 1173.01 391.664C1173.52 390.683 1174.12 389.851 1174.8 389.168C1175.53 388.443 1176.27 387.867 1177.04 387.44C1177.81 386.971 1178.6 386.651 1179.41 386.48C1180.22 386.267 1180.97 386.16 1181.65 386.16C1182.46 386.16 1183.27 386.309 1184.08 386.608C1184.93 386.907 1185.7 387.355 1186.38 387.952C1187.07 388.549 1187.6 389.317 1187.98 390.256C1188.41 391.195 1188.62 392.304 1188.62 393.584C1188.62 394.736 1188.45 395.824 1188.11 396.848C1187.77 397.872 1187.28 398.789 1186.64 399.6C1186 400.368 1185.21 400.987 1184.27 401.456C1183.38 401.883 1182.37 402.096 1181.26 402.096ZM1189.05 414.128C1189.05 410.288 1190.78 407.28 1194.23 405.104C1197.69 402.928 1202.79 401.755 1209.53 401.584C1209.57 401.115 1209.59 400.731 1209.59 400.432C1209.63 400.091 1209.66 399.685 1209.66 399.216C1209.66 397.851 1209.4 396.763 1208.89 395.952C1208.38 395.141 1207.31 394.736 1205.69 394.736C1204.79 394.736 1204.07 394.864 1203.51 395.12C1202.96 395.376 1202.51 395.739 1202.17 396.208C1201.83 396.635 1201.55 397.168 1201.34 397.808C1201.12 398.448 1200.93 399.152 1200.76 399.92C1200.67 400.304 1200.48 400.56 1200.18 400.688C1199.89 400.773 1199.42 400.816 1198.78 400.816C1194.42 400.816 1192.25 399.173 1192.25 395.888C1192.25 394.565 1192.55 393.307 1193.14 392.112C1193.78 390.917 1194.7 389.893 1195.9 389.04C1197.13 388.144 1198.67 387.44 1200.5 386.928C1202.34 386.416 1204.47 386.16 1206.9 386.16C1211.64 386.16 1215.07 387.141 1217.21 389.104C1219.34 391.067 1220.41 393.84 1220.41 397.424C1220.41 397.893 1220.34 398.747 1220.22 399.984C1220.13 401.179 1220 402.459 1219.83 403.824C1219.7 405.147 1219.58 406.405 1219.45 407.6C1219.36 408.795 1219.32 409.627 1219.32 410.096C1219.32 411.163 1219.51 411.931 1219.9 412.4C1220.28 412.827 1220.71 413.125 1221.18 413.296C1221.69 413.467 1222.14 413.595 1222.52 413.68C1222.9 413.765 1223.1 413.979 1223.1 414.32C1223.1 415.259 1222.97 416.219 1222.71 417.2C1222.46 418.181 1222.03 419.077 1221.43 419.888C1220.88 420.699 1220.09 421.36 1219.06 421.872C1218.08 422.384 1216.87 422.64 1215.42 422.64C1213.37 422.64 1211.83 422.149 1210.81 421.168C1209.78 420.187 1209.1 418.821 1208.76 417.072C1207.74 418.565 1206.39 419.867 1204.73 420.976C1203.11 422.085 1200.97 422.64 1198.33 422.64C1197.05 422.64 1195.83 422.491 1194.68 422.192C1193.57 421.893 1192.59 421.403 1191.74 420.72C1190.93 420.037 1190.26 419.163 1189.75 418.096C1189.28 416.987 1189.05 415.664 1189.05 414.128ZM1208.95 406.832C1207.84 406.832 1206.75 406.917 1205.69 407.088C1204.62 407.259 1203.66 407.536 1202.81 407.92C1202 408.261 1201.34 408.731 1200.82 409.328C1200.31 409.925 1200.06 410.651 1200.06 411.504C1200.06 412.485 1200.35 413.168 1200.95 413.552C1201.59 413.936 1202.27 414.128 1203 414.128C1203.68 414.128 1204.37 413.979 1205.05 413.68C1205.73 413.381 1206.33 412.933 1206.84 412.336C1207.39 411.696 1207.86 410.928 1208.25 410.032C1208.63 409.136 1208.87 408.069 1208.95 406.832ZM437.749 490.872C438.261 489.08 438.73 487.309 439.157 485.56C439.626 483.811 440.074 481.955 440.501 479.992C440.97 477.987 441.461 475.811 441.973 473.464C442.527 471.075 443.167 468.365 443.893 465.336C444.021 464.739 444.213 464.355 444.469 464.184C444.725 463.971 445.279 463.864 446.133 463.864C446.773 463.864 447.626 463.885 448.693 463.928C449.759 463.971 450.805 464.12 451.829 464.376C452.853 464.632 453.727 465.016 454.453 465.528C455.221 466.04 455.605 466.744 455.605 467.64C455.605 468.365 455.349 469.539 454.837 471.16C454.325 472.781 453.663 474.637 452.853 476.728C452.042 478.776 451.125 480.931 450.101 483.192C449.119 485.453 448.159 487.587 447.221 489.592C446.282 491.597 445.407 493.368 444.597 494.904C443.786 496.397 443.189 497.443 442.805 498.04C442.463 498.509 442.165 498.787 441.909 498.872C441.653 498.957 441.226 499 440.629 499H434.933C434.037 499 433.29 498.851 432.693 498.552C432.138 498.211 431.669 497.784 431.285 497.272C430.901 496.76 430.581 496.184 430.325 495.544C430.069 494.861 429.834 494.157 429.621 493.432C428.383 489.165 427.295 485.517 426.357 482.488C425.461 479.416 424.693 476.856 424.053 474.808C423.413 472.76 422.901 471.139 422.517 469.944C422.133 468.707 421.834 467.768 421.621 467.128C421.407 466.445 421.258 465.997 421.173 465.784C421.087 465.528 421.045 465.357 421.045 465.272C421.087 464.973 421.301 464.653 421.685 464.312C422.069 463.971 422.559 463.8 423.157 463.8C425.119 463.8 426.783 463.885 428.149 464.056C429.557 464.184 430.709 464.44 431.605 464.824C432.543 465.208 433.247 465.741 433.717 466.424C434.229 467.107 434.591 468.003 434.805 469.112C434.847 469.411 434.933 470.008 435.061 470.904C435.189 471.8 435.317 472.888 435.445 474.168C435.615 475.405 435.807 476.792 436.021 478.328C436.234 479.821 436.426 481.336 436.597 482.872C436.81 484.365 437.002 485.816 437.173 487.224C437.386 488.632 437.578 489.848 437.749 490.872ZM465.497 499C464.175 499 463.087 498.872 462.233 498.616C461.423 498.317 460.761 497.912 460.249 497.4C459.78 496.888 459.439 496.269 459.225 495.544C459.055 494.776 458.969 493.901 458.969 492.92C458.969 492.28 458.991 491.384 459.033 490.232C459.119 489.037 459.247 487.416 459.417 485.368C459.588 483.277 459.78 480.653 459.993 477.496C460.249 474.296 460.548 470.349 460.889 465.656C460.932 464.717 461.039 464.163 461.209 463.992C461.337 463.864 461.679 463.8 462.233 463.8H464.729C466.052 463.8 467.119 463.928 467.929 464.184C468.783 464.44 469.444 464.824 469.913 465.336C470.425 465.848 470.767 466.467 470.937 467.192C471.151 467.917 471.257 468.728 471.257 469.624C471.257 470.264 471.215 471.224 471.129 472.504C471.044 473.784 470.916 475.533 470.745 477.752C470.617 479.928 470.425 482.659 470.169 485.944C469.913 489.187 469.593 493.112 469.209 497.72C469.167 498.232 469.06 498.573 468.889 498.744C468.719 498.915 468.356 499 467.801 499H465.497ZM460.953 456.248C460.953 454.541 461.572 453.197 462.809 452.216C464.047 451.235 465.711 450.744 467.801 450.744C469.636 450.744 470.959 451.128 471.769 451.896C472.623 452.621 473.049 453.603 473.049 454.84C473.049 456.419 472.452 457.741 471.257 458.808C470.105 459.832 468.399 460.344 466.137 460.344C462.681 460.344 460.953 458.979 460.953 456.248ZM491.817 463.16C495.444 463.16 498.111 463.885 499.817 465.336C501.524 466.744 502.377 468.557 502.377 470.776C502.377 472.653 501.78 474.083 500.585 475.064C499.433 476.045 497.748 476.536 495.529 476.536C494.932 476.536 494.527 476.472 494.313 476.344C494.1 476.216 493.993 475.981 493.993 475.64C493.993 475.256 493.951 474.829 493.865 474.36C493.823 473.848 493.673 473.379 493.417 472.952C493.204 472.483 492.841 472.099 492.329 471.8C491.86 471.501 491.177 471.352 490.281 471.352C489.087 471.352 488.127 471.651 487.401 472.248C486.676 472.803 486.313 473.507 486.313 474.36C486.313 475.256 486.676 475.981 487.401 476.536C488.169 477.048 489.108 477.539 490.217 478.008C491.369 478.477 492.607 478.968 493.929 479.48C495.252 479.949 496.468 480.589 497.577 481.4C498.729 482.211 499.668 483.235 500.393 484.472C501.161 485.667 501.545 487.224 501.545 489.144C501.545 492.216 500.457 494.733 498.281 496.696C496.105 498.659 492.841 499.64 488.489 499.64C487.295 499.64 485.908 499.533 484.329 499.32C482.793 499.149 481.321 498.872 479.913 498.488C478.505 498.061 477.311 497.507 476.329 496.824C475.391 496.141 474.921 495.288 474.921 494.264C474.921 493.88 474.985 493.411 475.113 492.856C475.284 492.301 475.519 491.768 475.817 491.256C476.159 490.744 476.543 490.317 476.969 489.976C477.439 489.592 477.993 489.4 478.633 489.4C479.145 489.4 479.615 489.528 480.041 489.784C480.468 490.04 480.959 490.317 481.513 490.616C482.111 490.872 482.836 491.128 483.689 491.384C484.543 491.64 485.673 491.768 487.081 491.768C488.148 491.768 489.087 491.64 489.897 491.384C490.751 491.128 491.177 490.552 491.177 489.656C491.177 488.845 490.836 488.205 490.153 487.736C489.471 487.224 488.596 486.755 487.529 486.328C486.505 485.901 485.375 485.453 484.137 484.984C482.943 484.472 481.812 483.811 480.745 483C479.721 482.189 478.868 481.165 478.185 479.928C477.503 478.648 477.161 477.005 477.161 475C477.161 472.824 477.588 470.989 478.441 469.496C479.337 467.96 480.468 466.723 481.833 465.784C483.241 464.845 484.82 464.184 486.569 463.8C488.319 463.373 490.068 463.16 491.817 463.16ZM519.192 469.24C519.192 470.136 519.106 471.395 518.936 473.016C518.808 474.637 518.658 476.323 518.488 478.072C518.36 479.821 518.21 481.464 518.04 483C517.912 484.536 517.848 485.645 517.848 486.328C517.848 487.821 518.21 488.995 518.936 489.848C519.704 490.659 520.749 491.064 522.072 491.064C523.224 491.064 524.184 490.616 524.952 489.72C525.762 488.781 526.402 487.587 526.872 486.136C527.384 484.643 527.789 482.957 528.088 481.08C528.386 479.203 528.6 477.304 528.728 475.384C528.898 473.464 529.026 471.608 529.112 469.816C529.24 467.981 529.368 466.403 529.496 465.08C529.538 464.739 529.666 464.44 529.88 464.184C530.093 463.928 530.434 463.8 530.904 463.8H533.208C534.53 463.8 535.597 463.949 536.408 464.248C537.261 464.504 537.922 464.888 538.392 465.4C538.904 465.912 539.245 466.552 539.416 467.32C539.629 468.045 539.736 468.899 539.736 469.88C539.736 470.52 539.693 471.437 539.608 472.632C539.565 473.784 539.458 475.405 539.288 477.496C539.117 479.544 538.904 482.168 538.648 485.368C538.434 488.525 538.157 492.451 537.816 497.144C537.73 498.04 537.624 498.573 537.496 498.744C537.41 498.915 537.069 499 536.472 499H533.976C532.696 499 531.629 498.851 530.776 498.552C529.965 498.253 529.304 497.869 528.792 497.4C528.28 496.931 527.917 496.376 527.704 495.736C527.49 495.096 527.362 494.435 527.32 493.752C526.68 494.861 525.954 495.8 525.144 496.568C524.376 497.336 523.565 497.955 522.712 498.424C521.858 498.851 520.984 499.149 520.088 499.32C519.192 499.533 518.317 499.64 517.464 499.64C515.842 499.64 514.392 499.384 513.112 498.872C511.832 498.317 510.744 497.592 509.848 496.696C508.994 495.8 508.333 494.733 507.864 493.496C507.394 492.259 507.16 490.936 507.16 489.528C507.16 488.973 507.181 488.077 507.224 486.84C507.309 485.56 507.394 484.131 507.48 482.552C507.608 480.973 507.736 479.309 507.864 477.56C507.992 475.768 508.098 474.083 508.184 472.504C508.312 470.925 508.418 469.539 508.504 468.344C508.632 467.149 508.717 466.296 508.76 465.784C508.845 465.016 509.016 464.504 509.272 464.248C509.528 463.949 509.954 463.8 510.552 463.8H512.6C513.922 463.8 515.01 463.928 515.864 464.184C516.717 464.44 517.378 464.803 517.848 465.272C518.36 465.741 518.701 466.317 518.872 467C519.085 467.64 519.192 468.387 519.192 469.24ZM543.423 491.128C543.423 487.288 545.151 484.28 548.607 482.104C552.063 479.928 557.161 478.755 563.903 478.584C563.945 478.115 563.967 477.731 563.967 477.432C564.009 477.091 564.031 476.685 564.031 476.216C564.031 474.851 563.775 473.763 563.263 472.952C562.751 472.141 561.684 471.736 560.063 471.736C559.167 471.736 558.441 471.864 557.887 472.12C557.332 472.376 556.884 472.739 556.543 473.208C556.201 473.635 555.924 474.168 555.711 474.808C555.497 475.448 555.305 476.152 555.135 476.92C555.049 477.304 554.857 477.56 554.559 477.688C554.26 477.773 553.791 477.816 553.151 477.816C548.799 477.816 546.623 476.173 546.623 472.888C546.623 471.565 546.921 470.307 547.519 469.112C548.159 467.917 549.076 466.893 550.271 466.04C551.508 465.144 553.044 464.44 554.879 463.928C556.713 463.416 558.847 463.16 561.279 463.16C566.015 463.16 569.449 464.141 571.583 466.104C573.716 468.067 574.783 470.84 574.783 474.424C574.783 474.893 574.719 475.747 574.591 476.984C574.505 478.179 574.377 479.459 574.207 480.824C574.079 482.147 573.951 483.405 573.823 484.6C573.737 485.795 573.695 486.627 573.695 487.096C573.695 488.163 573.887 488.931 574.271 489.4C574.655 489.827 575.081 490.125 575.551 490.296C576.063 490.467 576.511 490.595 576.895 490.68C577.279 490.765 577.471 490.979 577.471 491.32C577.471 492.259 577.343 493.219 577.087 494.2C576.831 495.181 576.404 496.077 575.807 496.888C575.252 497.699 574.463 498.36 573.439 498.872C572.457 499.384 571.241 499.64 569.791 499.64C567.743 499.64 566.207 499.149 565.183 498.168C564.159 497.187 563.476 495.821 563.135 494.072C562.111 495.565 560.767 496.867 559.103 497.976C557.481 499.085 555.348 499.64 552.703 499.64C551.423 499.64 550.207 499.491 549.055 499.192C547.945 498.893 546.964 498.403 546.111 497.72C545.3 497.037 544.639 496.163 544.127 495.096C543.657 493.987 543.423 492.664 543.423 491.128ZM563.327 483.832C562.217 483.832 561.129 483.917 560.063 484.088C558.996 484.259 558.036 484.536 557.183 484.92C556.372 485.261 555.711 485.731 555.199 486.328C554.687 486.925 554.431 487.651 554.431 488.504C554.431 489.485 554.729 490.168 555.327 490.552C555.967 490.936 556.649 491.128 557.375 491.128C558.057 491.128 558.74 490.979 559.423 490.68C560.105 490.381 560.703 489.933 561.215 489.336C561.769 488.696 562.239 487.928 562.623 487.032C563.007 486.136 563.241 485.069 563.327 483.832ZM588.829 499.576C586.184 499.576 584.285 498.872 583.133 497.464C581.981 496.056 581.405 493.731 581.405 490.488C581.405 489.976 581.427 489.336 581.469 488.568C581.555 487.8 581.64 486.819 581.725 485.624C581.853 484.387 582.003 482.872 582.173 481.08C582.344 479.288 582.515 477.112 582.685 474.552C582.899 471.992 583.112 468.984 583.325 465.528C583.581 462.072 583.837 458.061 584.093 453.496C584.136 452.557 584.243 452.003 584.413 451.832C584.541 451.704 584.883 451.64 585.437 451.64H587.933C589.213 451.64 590.28 451.789 591.133 452.088C591.987 452.387 592.669 452.792 593.181 453.304C593.693 453.816 594.056 454.413 594.269 455.096C594.483 455.736 594.589 456.419 594.589 457.144C594.589 457.997 594.525 459.235 594.397 460.856C594.312 462.435 594.184 464.227 594.013 466.232C593.843 468.237 593.672 470.328 593.501 472.504C593.331 474.68 593.16 476.771 592.989 478.776C592.819 480.739 592.669 482.509 592.541 484.088C592.456 485.667 592.413 486.861 592.413 487.672C592.413 488.781 592.605 489.571 592.989 490.04C593.416 490.509 593.864 490.851 594.333 491.064C594.803 491.235 595.229 491.363 595.613 491.448C596.04 491.491 596.253 491.619 596.253 491.832C596.253 492.771 596.147 493.709 595.933 494.648C595.72 495.544 595.336 496.376 594.781 497.144C594.227 497.869 593.459 498.467 592.477 498.936C591.539 499.363 590.323 499.576 588.829 499.576ZM607.31 499C605.987 499 604.899 498.872 604.046 498.616C603.235 498.317 602.574 497.912 602.062 497.4C601.592 496.888 601.251 496.269 601.038 495.544C600.867 494.776 600.782 493.901 600.782 492.92C600.782 492.28 600.803 491.384 600.846 490.232C600.931 489.037 601.059 487.416 601.23 485.368C601.4 483.277 601.592 480.653 601.806 477.496C602.062 474.296 602.36 470.349 602.702 465.656C602.744 464.717 602.851 464.163 603.022 463.992C603.15 463.864 603.491 463.8 604.046 463.8H606.542C607.864 463.8 608.931 463.928 609.742 464.184C610.595 464.44 611.256 464.824 611.726 465.336C612.238 465.848 612.579 466.467 612.75 467.192C612.963 467.917 613.07 468.728 613.07 469.624C613.07 470.264 613.027 471.224 612.942 472.504C612.856 473.784 612.728 475.533 612.558 477.752C612.43 479.928 612.238 482.659 611.982 485.944C611.726 489.187 611.406 493.112 611.022 497.72C610.979 498.232 610.872 498.573 610.702 498.744C610.531 498.915 610.168 499 609.614 499H607.31ZM602.766 456.248C602.766 454.541 603.384 453.197 604.622 452.216C605.859 451.235 607.523 450.744 609.614 450.744C611.448 450.744 612.771 451.128 613.582 451.896C614.435 452.621 614.862 453.603 614.862 454.84C614.862 456.419 614.264 457.741 613.07 458.808C611.918 459.832 610.211 460.344 607.95 460.344C604.494 460.344 602.766 458.979 602.766 456.248ZM616.926 499C616.456 499 616.222 498.765 616.222 498.296L616.414 494.84C616.456 493.688 616.84 492.579 617.566 491.512C618.334 490.445 619.4 489.123 620.766 487.544C622.131 485.965 623.816 483.981 625.822 481.592C627.827 479.16 630.152 476.003 632.798 472.12H620.766C620.424 472.12 620.211 472.056 620.126 471.928C620.083 471.757 620.062 471.523 620.062 471.224L620.254 468.28C620.296 467.725 620.36 467.192 620.446 466.68C620.574 466.125 620.787 465.635 621.086 465.208C621.427 464.781 621.896 464.44 622.494 464.184C623.091 463.928 623.88 463.8 624.862 463.8H646.75C647.006 463.8 647.24 463.864 647.454 463.992C647.667 464.12 647.774 464.355 647.774 464.696L647.518 468.152C647.475 469.219 647.048 470.349 646.238 471.544C646.11 471.757 645.555 472.44 644.574 473.592C643.592 474.744 642.376 476.216 640.926 478.008C639.518 479.757 637.939 481.741 636.19 483.96C634.483 486.136 632.798 488.376 631.134 490.68H644.83C645.086 490.68 645.32 490.744 645.534 490.872C645.747 491 645.854 491.235 645.854 491.576L645.598 494.712C645.512 495.992 645.15 497.037 644.51 497.848C643.912 498.616 642.654 499 640.734 499H616.926ZM649.61 491.128C649.61 487.288 651.338 484.28 654.794 482.104C658.25 479.928 663.349 478.755 670.09 478.584C670.133 478.115 670.154 477.731 670.154 477.432C670.197 477.091 670.218 476.685 670.218 476.216C670.218 474.851 669.962 473.763 669.45 472.952C668.938 472.141 667.872 471.736 666.25 471.736C665.354 471.736 664.629 471.864 664.074 472.12C663.52 472.376 663.072 472.739 662.73 473.208C662.389 473.635 662.112 474.168 661.898 474.808C661.685 475.448 661.493 476.152 661.322 476.92C661.237 477.304 661.045 477.56 660.746 477.688C660.448 477.773 659.978 477.816 659.338 477.816C654.986 477.816 652.81 476.173 652.81 472.888C652.81 471.565 653.109 470.307 653.706 469.112C654.346 467.917 655.264 466.893 656.458 466.04C657.696 465.144 659.232 464.44 661.066 463.928C662.901 463.416 665.034 463.16 667.466 463.16C672.202 463.16 675.637 464.141 677.77 466.104C679.904 468.067 680.97 470.84 680.97 474.424C680.97 474.893 680.906 475.747 680.778 476.984C680.693 478.179 680.565 479.459 680.394 480.824C680.266 482.147 680.138 483.405 680.01 484.6C679.925 485.795 679.882 486.627 679.882 487.096C679.882 488.163 680.074 488.931 680.458 489.4C680.842 489.827 681.269 490.125 681.738 490.296C682.25 490.467 682.698 490.595 683.082 490.68C683.466 490.765 683.658 490.979 683.658 491.32C683.658 492.259 683.53 493.219 683.274 494.2C683.018 495.181 682.592 496.077 681.994 496.888C681.44 497.699 680.65 498.36 679.626 498.872C678.645 499.384 677.429 499.64 675.978 499.64C673.93 499.64 672.394 499.149 671.37 498.168C670.346 497.187 669.664 495.821 669.322 494.072C668.298 495.565 666.954 496.867 665.29 497.976C663.669 499.085 661.536 499.64 658.89 499.64C657.61 499.64 656.394 499.491 655.242 499.192C654.133 498.893 653.152 498.403 652.298 497.72C651.488 497.037 650.826 496.163 650.314 495.096C649.845 493.987 649.61 492.664 649.61 491.128ZM669.514 483.832C668.405 483.832 667.317 483.917 666.25 484.088C665.184 484.259 664.224 484.536 663.37 484.92C662.56 485.261 661.898 485.731 661.386 486.328C660.874 486.925 660.618 487.651 660.618 488.504C660.618 489.485 660.917 490.168 661.514 490.552C662.154 490.936 662.837 491.128 663.562 491.128C664.245 491.128 664.928 490.979 665.61 490.68C666.293 490.381 666.89 489.933 667.402 489.336C667.957 488.696 668.426 487.928 668.81 487.032C669.194 486.136 669.429 485.069 669.514 483.832ZM708.265 479.096C708.009 479.096 707.71 479.096 707.369 479.096C707.07 479.053 706.771 479.011 706.473 478.968C706.174 478.883 705.918 478.797 705.705 478.712C705.491 478.584 705.385 478.435 705.385 478.264C705.385 477.709 705.406 477.197 705.449 476.728C705.491 476.259 705.513 475.768 705.513 475.256C705.513 474.317 705.385 473.549 705.129 472.952C704.873 472.355 704.361 472.056 703.593 472.056C702.398 472.056 701.395 472.845 700.585 474.424C699.817 475.96 699.326 478.285 699.113 481.4C699.027 482.765 698.899 484.323 698.729 486.072C698.601 487.779 698.473 489.443 698.345 491.064C698.217 492.643 698.11 494.051 698.025 495.288C697.939 496.525 697.897 497.336 697.897 497.72C697.897 498.147 697.747 498.467 697.449 498.68C697.15 498.893 696.83 499 696.489 499H694.185C692.862 499 691.774 498.872 690.921 498.616C690.11 498.317 689.449 497.912 688.937 497.4C688.467 496.888 688.126 496.269 687.913 495.544C687.742 494.776 687.657 493.901 687.657 492.92C687.657 492.28 687.678 491.384 687.721 490.232C687.806 489.037 687.934 487.416 688.105 485.368C688.275 483.277 688.467 480.653 688.681 477.496C688.937 474.296 689.235 470.349 689.577 465.656C689.662 464.419 690.11 463.8 690.921 463.8H693.417C694.611 463.8 695.614 463.928 696.425 464.184C697.235 464.44 697.897 464.803 698.409 465.272C698.921 465.699 699.283 466.211 699.497 466.808C699.753 467.405 699.923 468.024 700.009 468.664C700.521 467.683 701.118 466.851 701.801 466.168C702.526 465.443 703.273 464.867 704.041 464.44C704.809 463.971 705.598 463.651 706.409 463.48C707.219 463.267 707.966 463.16 708.649 463.16C709.459 463.16 710.27 463.309 711.081 463.608C711.934 463.907 712.702 464.355 713.385 464.952C714.067 465.549 714.601 466.317 714.985 467.256C715.411 468.195 715.625 469.304 715.625 470.584C715.625 471.736 715.454 472.824 715.113 473.848C714.771 474.872 714.281 475.789 713.641 476.6C713.001 477.368 712.211 477.987 711.273 478.456C710.377 478.883 709.374 479.096 708.265 479.096ZM745.054 499.64C742.11 499.64 739.656 499.235 737.694 498.424C735.774 497.571 734.238 496.419 733.086 494.968C731.934 493.517 731.123 491.832 730.654 489.912C730.184 487.949 729.95 485.859 729.95 483.64C729.95 481.08 730.248 478.584 730.846 476.152C731.486 473.677 732.552 471.48 734.046 469.56C735.539 467.64 737.502 466.104 739.934 464.952C742.408 463.757 745.48 463.16 749.15 463.16C754.526 463.16 758.366 464.483 760.67 467.128C763.016 469.731 764.19 473.4 764.19 478.136C764.19 479.459 764.083 480.931 763.87 482.552C763.699 484.131 763.336 485.709 762.782 487.288C762.27 488.867 761.544 490.403 760.606 491.896C759.71 493.389 758.558 494.712 757.15 495.864C755.742 497.016 754.035 497.933 752.03 498.616C750.067 499.299 747.742 499.64 745.054 499.64ZM748.062 471.672C746.44 471.672 745.139 472.099 744.158 472.952C743.219 473.763 742.494 474.765 741.982 475.96C741.512 477.112 741.192 478.349 741.022 479.672C740.894 480.952 740.83 482.04 740.83 482.936C740.83 485.752 741.278 487.821 742.174 489.144C743.07 490.467 744.35 491.128 746.014 491.128C747.507 491.128 748.723 490.659 749.662 489.72C750.643 488.781 751.39 487.651 751.902 486.328C752.456 485.005 752.819 483.619 752.99 482.168C753.203 480.717 753.31 479.501 753.31 478.52C753.31 476.387 752.904 474.723 752.094 473.528C751.326 472.291 749.982 471.672 748.062 471.672ZM804.862 463.16C808.872 463.16 811.88 464.397 813.886 466.872C815.934 469.347 816.958 473.251 816.958 478.584C816.958 481.912 816.574 484.877 815.806 487.48C815.038 490.083 813.971 492.301 812.606 494.136C811.24 495.928 809.64 497.293 807.806 498.232C805.971 499.171 803.987 499.64 801.854 499.64C799.592 499.64 797.822 499.149 796.542 498.168C795.262 497.187 794.259 495.8 793.534 494.008C793.406 495.544 793.299 496.717 793.214 497.528C793.128 498.339 793.064 498.979 793.022 499.448C792.979 499.96 792.936 500.408 792.894 500.792C792.894 501.176 792.851 501.688 792.766 502.328C792.723 502.968 792.659 503.843 792.574 504.952C792.488 506.061 792.36 507.597 792.19 509.56C792.147 510.072 792.04 510.413 791.87 510.584C791.699 510.755 791.336 510.84 790.782 510.84H788.478C787.155 510.84 786.067 510.691 785.214 510.392C784.403 510.136 783.742 509.752 783.23 509.24C782.76 508.728 782.419 508.088 782.206 507.32C782.035 506.595 781.95 505.741 781.95 504.76C781.95 504.333 782.014 503.181 782.142 501.304C782.27 499.427 782.419 497.187 782.59 494.584C782.803 491.939 783.016 489.101 783.23 486.072C783.486 483.043 783.72 480.163 783.934 477.432C784.147 474.659 784.318 472.205 784.446 470.072C784.616 467.939 784.744 466.467 784.83 465.656C784.872 464.717 784.979 464.163 785.15 463.992C785.278 463.864 785.619 463.8 786.174 463.8H788.67C790.974 463.8 792.638 464.291 793.662 465.272C794.728 466.211 795.262 467.341 795.262 468.664C796.243 466.701 797.502 465.293 799.038 464.44C800.616 463.587 802.558 463.16 804.862 463.16ZM800.19 471.672C798.014 471.672 796.414 472.611 795.39 474.488C794.366 476.365 793.854 478.925 793.854 482.168C793.854 483.277 793.918 484.365 794.046 485.432C794.216 486.499 794.494 487.459 794.878 488.312C795.262 489.165 795.774 489.848 796.414 490.36C797.096 490.872 797.95 491.128 798.974 491.128C800.808 491.128 802.344 490.232 803.582 488.44C804.819 486.648 805.438 483.832 805.438 479.992C805.438 478.925 805.352 477.901 805.182 476.92C805.054 475.896 804.798 475 804.414 474.232C804.03 473.464 803.496 472.845 802.814 472.376C802.131 471.907 801.256 471.672 800.19 471.672ZM842.577 479.096C842.321 479.096 842.023 479.096 841.681 479.096C841.383 479.053 841.084 479.011 840.785 478.968C840.487 478.883 840.231 478.797 840.017 478.712C839.804 478.584 839.697 478.435 839.697 478.264C839.697 477.709 839.719 477.197 839.761 476.728C839.804 476.259 839.825 475.768 839.825 475.256C839.825 474.317 839.697 473.549 839.441 472.952C839.185 472.355 838.673 472.056 837.905 472.056C836.711 472.056 835.708 472.845 834.897 474.424C834.129 475.96 833.639 478.285 833.425 481.4C833.34 482.765 833.212 484.323 833.041 486.072C832.913 487.779 832.785 489.443 832.657 491.064C832.529 492.643 832.423 494.051 832.337 495.288C832.252 496.525 832.209 497.336 832.209 497.72C832.209 498.147 832.06 498.467 831.761 498.68C831.463 498.893 831.143 499 830.801 499H828.497C827.175 499 826.087 498.872 825.233 498.616C824.423 498.317 823.761 497.912 823.249 497.4C822.78 496.888 822.439 496.269 822.225 495.544C822.055 494.776 821.969 493.901 821.969 492.92C821.969 492.28 821.991 491.384 822.033 490.232C822.119 489.037 822.247 487.416 822.417 485.368C822.588 483.277 822.78 480.653 822.993 477.496C823.249 474.296 823.548 470.349 823.889 465.656C823.975 464.419 824.423 463.8 825.233 463.8H827.729C828.924 463.8 829.927 463.928 830.737 464.184C831.548 464.44 832.209 464.803 832.721 465.272C833.233 465.699 833.596 466.211 833.809 466.808C834.065 467.405 834.236 468.024 834.321 468.664C834.833 467.683 835.431 466.851 836.113 466.168C836.839 465.443 837.585 464.867 838.353 464.44C839.121 463.971 839.911 463.651 840.721 463.48C841.532 463.267 842.279 463.16 842.961 463.16C843.772 463.16 844.583 463.309 845.393 463.608C846.247 463.907 847.015 464.355 847.697 464.952C848.38 465.549 848.913 466.317 849.297 467.256C849.724 468.195 849.937 469.304 849.937 470.584C849.937 471.736 849.767 472.824 849.425 473.848C849.084 474.872 848.593 475.789 847.953 476.6C847.313 477.368 846.524 477.987 845.585 478.456C844.689 478.883 843.687 479.096 842.577 479.096ZM866.866 499.64C863.922 499.64 861.469 499.235 859.506 498.424C857.586 497.571 856.05 496.419 854.898 494.968C853.746 493.517 852.936 491.832 852.466 489.912C851.997 487.949 851.762 485.859 851.762 483.64C851.762 481.08 852.061 478.584 852.658 476.152C853.298 473.677 854.365 471.48 855.858 469.56C857.352 467.64 859.314 466.104 861.746 464.952C864.221 463.757 867.293 463.16 870.962 463.16C876.338 463.16 880.178 464.483 882.482 467.128C884.829 469.731 886.002 473.4 886.002 478.136C886.002 479.459 885.896 480.931 885.682 482.552C885.512 484.131 885.149 485.709 884.594 487.288C884.082 488.867 883.357 490.403 882.418 491.896C881.522 493.389 880.37 494.712 878.962 495.864C877.554 497.016 875.848 497.933 873.842 498.616C871.88 499.299 869.554 499.64 866.866 499.64ZM869.874 471.672C868.253 471.672 866.952 472.099 865.97 472.952C865.032 473.763 864.306 474.765 863.794 475.96C863.325 477.112 863.005 478.349 862.834 479.672C862.706 480.952 862.642 482.04 862.642 482.936C862.642 485.752 863.09 487.821 863.986 489.144C864.882 490.467 866.162 491.128 867.826 491.128C869.32 491.128 870.536 490.659 871.474 489.72C872.456 488.781 873.202 487.651 873.714 486.328C874.269 485.005 874.632 483.619 874.802 482.168C875.016 480.717 875.122 479.501 875.122 478.52C875.122 476.387 874.717 474.723 873.906 473.528C873.138 472.291 871.794 471.672 869.874 471.672ZM892.7 464.76C892.7 464.376 892.764 464.12 892.892 463.992C893.02 463.864 893.426 463.8 894.108 463.8H896.412C897.479 463.8 898.418 463.949 899.228 464.248C900.082 464.504 900.786 464.845 901.34 465.272C901.938 465.656 902.386 466.104 902.684 466.616C902.983 467.128 903.132 467.64 903.132 468.152C903.132 468.408 903.09 469.112 903.004 470.264C902.962 471.373 902.876 472.781 902.748 474.488C902.62 476.152 902.471 478.008 902.3 480.056C902.172 482.061 902.023 484.109 901.852 486.2C901.724 488.248 901.575 490.232 901.404 492.152C901.276 494.072 901.17 495.736 901.084 497.144C900.871 500.173 900.38 502.605 899.612 504.44C898.887 506.317 897.991 507.768 896.924 508.792C895.858 509.859 894.663 510.563 893.34 510.904C892.018 511.288 890.652 511.48 889.244 511.48C888.007 511.48 886.77 511.352 885.532 511.096C884.252 510.883 883.1 510.541 882.076 510.072C881.052 509.603 880.22 509.005 879.58 508.28C878.94 507.555 878.62 506.701 878.62 505.72C878.62 504.696 878.94 503.885 879.58 503.288C880.178 502.691 880.903 502.243 881.756 501.944C882.567 501.645 883.378 501.453 884.188 501.368C884.956 501.283 885.532 501.24 885.916 501.24C886.044 501.24 886.172 501.347 886.3 501.56C886.386 501.816 886.514 502.072 886.684 502.328C886.812 502.627 887.004 502.883 887.26 503.096C887.516 503.352 887.879 503.48 888.348 503.48C888.86 503.48 889.244 503.267 889.5 502.84C889.799 502.456 890.034 501.795 890.204 500.856C890.375 499.917 890.524 498.68 890.652 497.144C890.78 495.565 890.908 493.603 891.036 491.256L892.7 464.76ZM892.06 456.248C892.06 454.541 892.679 453.197 893.916 452.216C895.154 451.235 896.818 450.744 898.908 450.744C900.743 450.744 902.066 451.128 902.876 451.896C903.73 452.621 904.156 453.603 904.156 454.84C904.156 456.419 903.559 457.741 902.364 458.808C901.212 459.832 899.506 460.344 897.244 460.344C893.788 460.344 892.06 458.979 892.06 456.248ZM923.439 499.64C921.562 499.64 919.685 499.405 917.807 498.936C915.973 498.467 914.309 497.656 912.815 496.504C911.365 495.352 910.17 493.816 909.231 491.896C908.293 489.976 907.823 487.565 907.823 484.664C907.823 483.597 907.909 482.317 908.079 480.824C908.25 479.331 908.57 477.795 909.039 476.216C909.551 474.637 910.234 473.08 911.087 471.544C911.983 469.965 913.135 468.557 914.543 467.32C915.951 466.083 917.658 465.08 919.663 464.312C921.669 463.544 924.058 463.16 926.831 463.16C929.05 463.16 930.927 463.416 932.463 463.928C933.999 464.44 935.237 465.144 936.175 466.04C937.114 466.893 937.797 467.896 938.223 469.048C938.65 470.2 938.863 471.437 938.863 472.76C938.863 474.723 938.458 476.387 937.647 477.752C936.879 479.117 935.855 480.269 934.575 481.208C933.338 482.104 931.951 482.808 930.415 483.32C928.879 483.832 927.365 484.237 925.871 484.536C924.378 484.792 922.991 484.963 921.711 485.048C920.474 485.091 919.514 485.112 918.831 485.112C918.831 485.923 918.938 486.733 919.151 487.544C919.407 488.312 919.77 488.995 920.239 489.592C920.709 490.189 921.327 490.68 922.095 491.064C922.863 491.448 923.802 491.64 924.911 491.64C926.021 491.64 926.874 491.469 927.471 491.128C928.111 490.744 928.623 490.339 929.007 489.912C929.391 489.443 929.711 489.037 929.967 488.696C930.266 488.312 930.65 488.12 931.119 488.12C931.333 488.12 931.695 488.184 932.207 488.312C932.762 488.397 933.317 488.611 933.871 488.952C934.426 489.293 934.917 489.763 935.343 490.36C935.77 490.957 935.983 491.725 935.983 492.664C935.983 493.901 935.599 494.968 934.831 495.864C934.063 496.76 933.061 497.485 931.823 498.04C930.629 498.595 929.285 499 927.791 499.256C926.298 499.512 924.847 499.64 923.439 499.64ZM924.655 471.672C923.717 471.672 922.906 471.949 922.223 472.504C921.583 473.016 921.029 473.677 920.559 474.488C920.133 475.299 919.791 476.195 919.535 477.176C919.322 478.157 919.151 479.096 919.023 479.992C921.669 479.949 923.802 479.501 925.423 478.648C927.087 477.795 927.919 476.579 927.919 475C927.919 474.147 927.642 473.379 927.087 472.696C926.575 472.013 925.765 471.672 924.655 471.672ZM956.478 472.44C956.35 474.061 956.2 475.661 956.03 477.24C955.902 478.819 955.774 480.312 955.646 481.72C955.518 483.128 955.411 484.387 955.326 485.496C955.283 486.605 955.262 487.459 955.262 488.056C955.262 489.165 955.39 489.912 955.646 490.296C955.902 490.637 956.328 490.808 956.926 490.808C957.395 490.808 957.8 490.723 958.142 490.552C958.483 490.381 958.803 490.189 959.102 489.976C959.4 489.763 959.656 489.571 959.87 489.4C960.126 489.229 960.403 489.144 960.702 489.144C961 489.144 961.278 489.315 961.534 489.656C961.79 489.997 961.918 490.787 961.918 492.024C961.918 494.371 961.278 496.227 959.998 497.592C958.718 498.957 956.52 499.64 953.406 499.64C950.334 499.64 948.051 498.936 946.558 497.528C945.107 496.077 944.382 493.88 944.382 490.936C944.382 490.296 944.403 489.549 944.446 488.696C944.531 487.8 944.638 486.648 944.766 485.24C944.894 483.832 945.043 482.104 945.214 480.056C945.427 478.008 945.64 475.469 945.854 472.44H942.462C942.12 472.44 941.907 472.376 941.822 472.248C941.779 472.077 941.758 471.843 941.758 471.544L941.95 468.28C941.992 467.725 942.056 467.192 942.142 466.68C942.27 466.125 942.483 465.635 942.782 465.208C943.123 464.781 943.592 464.44 944.19 464.184C944.787 463.928 945.576 463.8 946.558 463.8C946.856 463.032 947.198 462.115 947.582 461.048C947.966 459.981 948.35 458.957 948.734 457.976C949.118 456.952 949.48 456.099 949.822 455.416C950.206 454.733 950.547 454.392 950.846 454.392H952.702C954.494 454.392 955.731 454.947 956.414 456.056C957.096 457.165 957.438 458.488 957.438 460.024C957.438 460.877 957.374 462.136 957.246 463.8H963.966C964.648 463.8 964.99 464.099 964.99 464.696L964.734 468.152C964.648 469.432 964.286 470.477 963.646 471.288C963.048 472.056 961.79 472.44 959.87 472.44H956.478ZM982.179 499.64C979.235 499.64 976.781 499.235 974.819 498.424C972.899 497.571 971.363 496.419 970.211 494.968C969.059 493.517 968.248 491.832 967.779 489.912C967.309 487.949 967.075 485.859 967.075 483.64C967.075 481.08 967.373 478.584 967.971 476.152C968.611 473.677 969.677 471.48 971.171 469.56C972.664 467.64 974.627 466.104 977.059 464.952C979.533 463.757 982.605 463.16 986.275 463.16C991.651 463.16 995.491 464.483 997.795 467.128C1000.14 469.731 1001.31 473.4 1001.31 478.136C1001.31 479.459 1001.21 480.931 1000.99 482.552C1000.82 484.131 1000.46 485.709 999.907 487.288C999.395 488.867 998.669 490.403 997.731 491.896C996.835 493.389 995.683 494.712 994.275 495.864C992.867 497.016 991.16 497.933 989.155 498.616C987.192 499.299 984.867 499.64 982.179 499.64ZM985.187 471.672C983.565 471.672 982.264 472.099 981.283 472.952C980.344 473.763 979.619 474.765 979.107 475.96C978.637 477.112 978.317 478.349 978.147 479.672C978.019 480.952 977.955 482.04 977.955 482.936C977.955 485.752 978.403 487.821 979.299 489.144C980.195 490.467 981.475 491.128 983.139 491.128C984.632 491.128 985.848 490.659 986.787 489.72C987.768 488.781 988.515 487.651 989.027 486.328C989.581 485.005 989.944 483.619 990.115 482.168C990.328 480.717 990.435 479.501 990.435 478.52C990.435 476.387 990.029 474.723 989.219 473.528C988.451 472.291 987.107 471.672 985.187 471.672ZM1011.15 487.608C1012.94 487.608 1014.22 488.056 1014.99 488.952C1015.76 489.805 1016.14 491.021 1016.14 492.6C1016.14 493.24 1016.06 493.987 1015.88 494.84C1015.71 495.651 1015.39 496.419 1014.92 497.144C1014.5 497.827 1013.88 498.424 1013.07 498.936C1012.26 499.405 1011.19 499.64 1009.87 499.64C1007.91 499.64 1006.58 499.149 1005.9 498.168C1005.22 497.144 1004.88 495.885 1004.88 494.392C1004.88 493.539 1004.98 492.707 1005.2 491.896C1005.41 491.085 1005.75 490.36 1006.22 489.72C1006.69 489.08 1007.33 488.568 1008.14 488.184C1008.95 487.8 1009.95 487.608 1011.15 487.608Z" fill="white" fill-opacity="0.56"/>
<g clip-path="url(#clip0_503_90)">
<path d="M775.688 542.375H664.312C661.517 542.375 659.25 544.642 659.25 547.438V638.562C659.25 641.358 661.517 643.625 664.312 643.625H775.688C778.483 643.625 780.75 641.358 780.75 638.562V547.438C780.75 544.642 778.483 542.375 775.688 542.375Z" stroke="white" stroke-opacity="0.63" stroke-width="7" stroke-linecap="round" stroke-linejoin="round"/>
<path d="M737.719 582.875C741.913 582.875 745.312 579.475 745.312 575.281C745.312 571.087 741.913 567.688 737.719 567.688C733.525 567.688 730.125 571.087 730.125 575.281C730.125 579.475 733.525 582.875 737.719 582.875Z" fill="white" fill-opacity="0.63"/>
<path d="M732.22 615.781L748.477 599.543C749.426 598.595 750.713 598.062 752.055 598.062C753.397 598.062 754.684 598.595 755.634 599.543L780.75 624.679" stroke="white" stroke-opacity="0.63" stroke-width="7" stroke-linecap="round" stroke-linejoin="round"/>
<path d="M659.25 618.749L693.637 584.356C694.107 583.885 694.666 583.512 695.28 583.257C695.895 583.002 696.553 582.871 697.219 582.871C697.884 582.871 698.543 583.002 699.157 583.257C699.772 583.512 700.33 583.885 700.8 584.356L760.063 643.625" stroke="white" stroke-opacity="0.63" stroke-width="7" stroke-linecap="round" stroke-linejoin="round"/>
</g>
<defs>
<clipPath id="clip0_503_90">
<rect width="162" height="162" fill="white" transform="translate(639 512)"/>
</clipPath>
</defs>
</svg>
