<svg width="62" height="62" viewBox="0 0 62 62" fill="none" xmlns="http://www.w3.org/2000/svg">
<path d="M0 40H62V56.6087C62 59.5862 59.5862 62 56.6087 62H5.3913C2.41377 62 0 59.5862 0 56.6087V40Z" fill="#FFCA28"/>
<mask id="path-2-inside-1_262_199" fill="white">
<path fill-rule="evenodd" clip-rule="evenodd" d="M5.3913 0C2.41377 0 0 2.41377 0 5.3913V56.6087C0 59.5862 2.41377 62 5.3913 62H56.6087C59.5862 62 62 59.5862 62 56.6087V5.3913C62 2.41377 59.5862 0 56.6087 0H5.3913ZM12.1304 12.1304H49.8696V49.8696H12.1304V12.1304ZM35.0435 43.5182L37.8221 41.6796C38.0398 42.3637 39.4187 43.9885 41.1605 43.9885C42.9023 43.9885 43.711 43.0371 43.711 42.4065C43.711 40.6877 41.9325 40.0817 41.0782 39.7907C40.9389 39.7432 40.8242 39.7042 40.7458 39.67C40.7057 39.6525 40.645 39.6293 40.5672 39.5996L40.5671 39.5996L40.5668 39.5995L40.5667 39.5994C39.6166 39.2364 36.1114 37.8972 36.1114 34.0153C36.1114 29.7395 40.2378 29.2478 41.1709 29.2478C41.7814 29.2478 44.7167 29.3227 46.1786 32.0698L43.4829 33.9512C42.892 32.754 41.9101 32.3585 41.3057 32.3585C39.8127 32.3585 39.5017 33.453 39.5017 33.9512C39.5017 35.3492 41.1237 35.9757 42.4934 36.5048C42.8517 36.6432 43.1927 36.775 43.4829 36.9121C44.9759 37.6176 47.1739 38.7721 47.1739 42.4065C47.1739 44.2268 45.6471 47.1739 41.8033 47.1739C36.6401 47.1739 35.2716 44.074 35.0435 43.5182ZM21.5652 43.8833L24.4613 42.0456C24.6882 42.7294 25.57 43.9901 26.8494 43.9901C28.1289 43.9901 28.7837 42.676 28.7837 42.0456V29.6522H32.3454V42.0456C32.403 43.7551 31.455 47.1739 27.2708 47.1739C23.4239 47.1739 21.8246 44.8876 21.5652 43.8833Z"/>
</mask>
<path d="M49.8696 12.1304H51.8696V10.1304H49.8696V12.1304ZM12.1304 12.1304V10.1304H10.1304V12.1304H12.1304ZM49.8696 49.8696V51.8696H51.8696V49.8696H49.8696ZM12.1304 49.8696H10.1304V51.8696H12.1304V49.8696ZM37.8221 41.6796L39.7279 41.073L38.9253 38.5514L36.7184 40.0117L37.8221 41.6796ZM35.0435 43.5182L33.9398 41.8502L32.5693 42.7571L33.1932 44.2774L35.0435 43.5182ZM41.0782 39.7907L41.7232 37.8975H41.7232L41.0782 39.7907ZM40.7458 39.67L39.947 41.5035L39.947 41.5035L40.7458 39.67ZM40.5672 39.5996L41.281 37.7313L41.2406 37.7159L41.1996 37.7022L40.5672 39.5996ZM40.5671 39.5996L39.8383 41.462L39.886 41.4807L39.9347 41.4969L40.5671 39.5996ZM40.5668 39.5995L39.7976 41.4456L39.8177 41.454L39.8381 41.4619L40.5668 39.5995ZM40.5667 39.5994L41.3359 37.7533L41.3084 37.7418L41.2805 37.7311L40.5667 39.5994ZM46.1786 32.0698L47.3232 33.7099L48.777 32.6953L47.9442 31.1303L46.1786 32.0698ZM43.4829 33.9512L41.6895 34.8364L42.7195 36.9229L44.6276 35.5912L43.4829 33.9512ZM42.4934 36.5048L41.7727 38.3705L41.7727 38.3705L42.4934 36.5048ZM43.4829 36.9121L44.3375 35.1039H44.3375L43.4829 36.9121ZM24.4613 42.0456L26.3595 41.4157L25.5526 38.9845L23.3897 40.3569L24.4613 42.0456ZM21.5652 43.8833L20.4937 42.1946L19.2649 42.9743L19.6287 44.3833L21.5652 43.8833ZM28.7837 29.6522V27.6522H26.7837V29.6522H28.7837ZM32.3454 29.6522H34.3454V27.6522H32.3454V29.6522ZM32.3454 42.0456H30.3454V42.0793L30.3465 42.113L32.3454 42.0456ZM2 5.3913C2 3.51834 3.51834 2 5.3913 2V-2C1.3092 -2 -2 1.3092 -2 5.3913H2ZM2 56.6087V5.3913H-2V56.6087H2ZM5.3913 60C3.51834 60 2 58.4817 2 56.6087H-2C-2 60.6908 1.3092 64 5.3913 64V60ZM56.6087 60H5.3913V64H56.6087V60ZM60 56.6087C60 58.4817 58.4817 60 56.6087 60V64C60.6908 64 64 60.6908 64 56.6087H60ZM60 5.3913V56.6087H64V5.3913H60ZM56.6087 2C58.4817 2 60 3.51834 60 5.3913H64C64 1.3092 60.6908 -2 56.6087 -2V2ZM5.3913 2H56.6087V-2H5.3913V2ZM49.8696 10.1304H12.1304V14.1304H49.8696V10.1304ZM51.8696 49.8696V12.1304H47.8696V49.8696H51.8696ZM12.1304 51.8696H49.8696V47.8696H12.1304V51.8696ZM10.1304 12.1304V49.8696H14.1304V12.1304H10.1304ZM36.7184 40.0117L33.9398 41.8502L36.1471 45.1861L38.9257 43.3475L36.7184 40.0117ZM41.1605 41.9885C40.9137 41.9885 40.5722 41.8644 40.2006 41.5545C40.0266 41.4094 39.8852 41.2545 39.7884 41.126C39.6711 40.9701 39.6872 40.9453 39.7279 41.073L35.9163 42.2861C36.1815 43.1196 36.881 43.9946 37.6389 44.6266C38.4467 45.3002 39.6656 45.9885 41.1605 45.9885V41.9885ZM41.711 42.4065C41.711 42.147 41.7892 41.9822 41.8268 41.9173C41.8694 41.8437 41.9007 41.8251 41.8847 41.8372C41.8629 41.8537 41.6655 41.9885 41.1605 41.9885V45.9885C43.447 45.9885 45.711 44.6286 45.711 42.4065H41.711ZM40.4332 41.6838C40.8881 41.8388 41.2642 41.9803 41.5354 42.1783C41.6525 42.2638 41.6916 42.3204 41.7004 42.3353C41.7041 42.3414 41.7048 42.3438 41.7055 42.3463C41.7062 42.3488 41.711 42.3664 41.711 42.4065H45.711C45.711 40.7237 44.7914 39.6031 43.8945 38.9481C43.0628 38.3406 42.1225 38.0336 41.7232 37.8975L40.4332 41.6838ZM39.947 41.5035C40.1198 41.5788 40.3299 41.6486 40.4332 41.6838L41.7232 37.8975C41.6496 37.8725 41.6013 37.856 41.5622 37.842C41.5441 37.8355 41.5337 37.8316 41.5289 37.8298C41.5235 37.8277 41.53 37.8301 41.5446 37.8364L39.947 41.5035ZM39.8533 41.4679C39.8945 41.4836 39.9212 41.4938 39.9423 41.502C39.9521 41.5059 39.9573 41.508 39.9593 41.5088C39.9617 41.5098 39.9568 41.5078 39.947 41.5035L41.5446 37.8364C41.4516 37.7959 41.3372 37.7528 41.281 37.7313L39.8533 41.4679ZM39.9347 41.4969L39.9347 41.497L41.1996 37.7022L41.1996 37.7022L39.9347 41.4969ZM39.8381 41.4619L39.8383 41.462L41.2959 37.7371L41.2956 37.737L39.8381 41.4619ZM39.7975 41.4456L39.7976 41.4456L41.3361 37.7533L41.3359 37.7533L39.7975 41.4456ZM34.1114 34.0153C34.1114 39.3852 39.0213 41.15 39.8529 41.4677L41.2805 37.7311C40.2119 37.3229 38.1114 36.4092 38.1114 34.0153H34.1114ZM41.1709 27.2478C40.4917 27.2478 38.8477 27.405 37.2975 28.2925C35.6083 29.2596 34.1114 31.0713 34.1114 34.0153H38.1114C38.1114 32.6836 38.6777 32.1115 39.2849 31.7638C40.0312 31.3366 40.917 31.2478 41.1709 31.2478V27.2478ZM47.9442 31.1303C45.9017 27.292 41.8353 27.2478 41.1709 27.2478V31.2478C41.7275 31.2478 43.5318 31.3533 44.413 33.0094L47.9442 31.1303ZM44.6276 35.5912L47.3232 33.7099L45.034 30.4298L42.3383 32.3111L44.6276 35.5912ZM41.3057 34.3585C41.2034 34.3585 41.2341 34.3356 41.3341 34.3985C41.4122 34.4477 41.5554 34.5646 41.6895 34.8364L45.2764 33.0659C44.3562 31.2019 42.6888 30.3585 41.3057 30.3585V34.3585ZM41.5017 33.9512C41.5017 34.0198 41.4931 34.0542 41.4871 34.0738C41.4798 34.098 41.4613 34.1466 41.4154 34.205C41.3633 34.2711 41.2956 34.3238 41.2323 34.3531C41.1729 34.3805 41.1798 34.3585 41.3057 34.3585V30.3585C40.0049 30.3585 38.9508 30.8689 38.2722 31.731C37.6672 32.4997 37.5017 33.3674 37.5017 33.9512H41.5017ZM43.2141 34.6392C42.4738 34.3532 41.9641 34.145 41.619 33.9071C41.4666 33.8021 41.4358 33.7488 41.4472 33.7661C41.4744 33.8074 41.5017 33.8849 41.5017 33.9512H37.5017C37.5017 35.576 38.497 36.6134 39.3489 37.2005C40.1572 37.7577 41.1434 38.1274 41.7727 38.3705L43.2141 34.6392ZM44.3375 35.1039C43.9682 34.9294 43.5537 34.7704 43.214 34.6392L41.7727 38.3705C42.1497 38.5161 42.4173 38.6206 42.6284 38.7204L44.3375 35.1039ZM49.1739 42.4065C49.1739 40.1396 48.4705 38.4599 47.3855 37.2349C46.3563 36.0729 45.1009 35.4646 44.3375 35.1039L42.6284 38.7204C43.358 39.0651 43.9481 39.3868 44.3911 39.887C44.7784 40.3242 45.1739 41.0389 45.1739 42.4065H49.1739ZM41.8033 49.1739C46.9563 49.1739 49.1739 45.1149 49.1739 42.4065H45.1739C45.1739 43.3387 44.3378 45.1739 41.8033 45.1739V49.1739ZM33.1932 44.2774C33.3684 44.7043 33.9245 45.954 35.2944 47.0926C36.6933 48.2553 38.7866 49.1739 41.8033 49.1739V45.1739C39.6569 45.1739 38.4843 44.5426 37.8511 44.0164C37.1889 43.466 36.9467 42.8879 36.8938 42.7589L33.1932 44.2774ZM23.3897 40.3569L20.4937 42.1946L22.6368 45.572L25.5328 43.7343L23.3897 40.3569ZM26.8494 41.9901C26.9012 41.9901 26.8357 42.0176 26.6606 41.846C26.5803 41.7673 26.5049 41.6713 26.4441 41.5745C26.3799 41.4722 26.3576 41.41 26.3595 41.4157L22.5631 42.6756C22.7791 43.3264 23.23 44.0844 23.8606 44.7026C24.5031 45.3323 25.5182 45.9901 26.8494 45.9901V41.9901ZM26.7837 42.0456C26.7837 41.9996 26.7866 41.9646 26.7892 41.942C26.7919 41.9189 26.7949 41.9034 26.7965 41.8954C26.7997 41.8807 26.8004 41.8826 26.7944 41.8982C26.7888 41.9129 26.7798 41.9327 26.7675 41.9545C26.7553 41.9762 26.7424 41.995 26.7305 42.0101C26.7045 42.0428 26.6981 42.0387 26.7258 42.0235C26.7408 42.0152 26.762 42.0059 26.7879 41.999C26.8144 41.992 26.8363 41.9901 26.8494 41.9901V45.9901C28.2504 45.9901 29.2645 45.2507 29.8622 44.4984C30.41 43.8091 30.7837 42.8965 30.7837 42.0456H26.7837ZM26.7837 29.6522V42.0456H30.7837V29.6522H26.7837ZM32.3454 27.6522H28.7837V31.6522H32.3454V27.6522ZM34.3454 42.0456V29.6522H30.3454V42.0456H34.3454ZM27.2708 49.1739C30.0007 49.1739 31.899 48.0132 33.0337 46.4028C34.0913 44.9018 34.3842 43.1642 34.3443 41.9782L30.3465 42.113C30.3642 42.6365 30.2119 43.463 29.7639 44.0988C29.3929 44.6253 28.7251 45.1739 27.2708 45.1739V49.1739ZM19.6287 44.3833C20.122 46.2933 22.5355 49.1739 27.2708 49.1739V45.1739C25.7678 45.1739 24.8367 44.7357 24.2863 44.3155C24.0006 44.0974 23.7999 43.8708 23.6688 43.6816C23.5283 43.479 23.4961 43.3615 23.5017 43.3832L19.6287 44.3833Z" fill="white" mask="url(#path-2-inside-1_262_199)"/>
</svg>
