<svg width="41" height="40" viewBox="0 0 41 40" fill="none" xmlns="http://www.w3.org/2000/svg">
<path d="M34.4009 33.7306H28.5592V24.6808C28.5592 22.5228 28.5203 19.7448 25.5209 19.7448C22.4784 19.7448 22.0129 22.096 22.0129 24.5237V33.73H16.1711V15.12H21.7792V17.6632H21.8577C22.4189 16.714 23.2299 15.9331 24.2043 15.4037C25.1787 14.8743 26.28 14.6163 27.3909 14.6571C33.3117 14.6571 34.4034 18.5096 34.4034 23.5215L34.4009 33.7306ZM9.57973 12.5761C8.90925 12.5762 8.25377 12.3796 7.69622 12.0113C7.13867 11.6429 6.7041 11.1192 6.4474 10.5065C6.19071 9.89375 6.12344 9.21948 6.25412 8.56895C6.38481 7.91841 6.70758 7.32082 7.1816 6.85174C7.65562 6.38266 8.25961 6.06316 8.91718 5.93365C9.57476 5.80414 10.2564 5.87043 10.8759 6.12413C11.4954 6.37784 12.0249 6.80757 12.3975 7.35899C12.7701 7.9104 12.969 8.55873 12.9692 9.22199C12.9692 9.66238 12.8816 10.0985 12.7113 10.5054C12.541 10.9123 12.2914 11.282 11.9767 11.5934C11.6619 11.9049 11.2882 12.152 10.877 12.3206C10.4657 12.4892 10.0249 12.576 9.57973 12.5761ZM12.5006 33.7306H6.65279V15.12H12.5006V33.7306ZM37.3133 0.502657H3.71734C2.95481 0.494145 2.22002 0.785453 1.6745 1.31257C1.12898 1.83968 0.817351 2.55948 0.808044 3.31379V36.6856C0.817032 37.4403 1.12847 38.1606 1.67398 38.6883C2.21948 39.2159 2.95443 39.5078 3.71734 39.4998H37.3133C38.0777 39.5093 38.8147 39.2182 39.3624 38.6906C39.91 38.1629 40.2235 37.4418 40.2341 36.6856V3.31138C40.2232 2.55558 39.9095 1.83496 39.3618 1.30786C38.8141 0.780756 38.0773 0.49028 37.3133 0.500248" fill="#F5F5F5"/>
</svg>
