<svg width="558" height="761" viewBox="0 0 558 761" fill="none" xmlns="http://www.w3.org/2000/svg">
<path d="M245.359 493.605C245.359 493.605 325.386 496.215 368.921 471.304C395.154 456.293 433.113 420.673 433.113 420.673" stroke="#784EF4" stroke-width="1.80823" stroke-linecap="round"/>
<path d="M250.181 494.811C250.181 494.811 330.208 497.421 373.743 472.509C399.976 457.499 437.935 421.879 437.935 421.879" stroke="#AFF500" stroke-width="1.80823" stroke-linecap="round"/>
<path d="M13.9053 371.353C13.9053 371.353 66.5427 310.012 94.6729 280.037C131.44 240.859 175.849 242.615 214.619 248.393C277.304 257.736 295.48 266.732 348.428 286.667C397.834 305.269 469.881 345.133 469.881 345.133" stroke="#784EF4" stroke-width="1.80823" stroke-linecap="round"/>
<path d="M9.08337 491.194C9.08337 491.194 46.8697 464.109 75.0838 459.852C103.298 455.594 115.293 468.391 180.263 491.194" stroke="#784EF4" stroke-width="1.80823" stroke-linecap="round"/>
<path d="M454.501 386.293L469.151 341.324L430.867 369.093L407.206 386.256L368.921 414.025L416.216 414.062L430.796 459.054L445.447 414.085L492.742 414.122L454.501 386.293Z" fill="#784EF4"/>
<path d="M370.287 314.883L323.323 320.469L364.601 343.555L390.112 357.823L431.39 380.909L411.565 337.969L446.277 305.845L399.313 311.431L379.488 268.491L370.287 314.883Z" fill="#AFF500"/>
<path d="M65.4399 356.783C43.7412 383.605 9.0834 415.851 9.08337 422.783C9.08336 426.399 11.2067 430.243 14.7068 433.331C20.093 438.083 23.1452 437.249 31.885 437.249C46.7625 437.249 70.8646 412.838 112.755 422.783C150.105 431.65 178.951 439.168 216.729 445.989C238.126 449.852 292.625 442.255 339.989 422.783C367.113 411.632 390.921 398.673 418.346 374.865C377.031 348.073 339.99 329.056 289.058 310.371C231.478 289.247 170.92 278.253 132.646 296.207C100.657 311.212 87.6627 329.313 65.4399 356.783Z" stroke="#AFF500" stroke-width="1.80823"/>
<path d="M70.2618 364.295C48.5631 391.118 13.9053 423.364 13.9053 430.296C13.9053 433.912 16.0286 437.755 19.5287 440.844C24.9149 445.596 27.9671 444.762 36.7069 444.762C51.5844 444.762 75.6865 420.351 117.577 430.296C154.927 439.163 183.773 446.681 221.55 453.501C242.948 457.365 297.447 449.768 344.811 430.296C371.935 419.145 395.743 406.186 423.168 382.378C381.853 355.585 344.811 336.569 293.88 317.884C236.3 296.76 175.742 285.766 137.468 303.72C105.479 318.725 92.4846 336.826 70.2618 364.295Z" stroke="#784EF4" stroke-width="1.80823"/>
<path d="M198.646 398.673C104.579 398.673 104.618 313.988 104.618 313.988C104.618 313.988 126.317 294.339 164.893 288.673C218.235 280.837 308.044 318.207 308.044 318.207C308.044 318.207 282.126 398.673 198.646 398.673Z" stroke="#AFF500" stroke-width="1.80823"/>
<path d="M201.961 405.781C107.894 405.781 107.933 321.095 107.933 321.095C107.933 321.095 129.632 301.447 168.208 295.78C221.551 287.944 311.359 325.314 311.359 325.314C311.359 325.314 285.441 405.781 201.961 405.781Z" stroke="#784EF4" stroke-width="1.80823"/>
<path d="M9.08337 371.55C9.08337 371.55 61.7208 310.209 89.851 280.234C126.618 241.056 171.027 242.812 209.797 248.591C272.482 257.933 290.659 266.93 343.606 286.865C393.012 305.466 465.059 345.331 465.059 345.331" stroke="#AFF500" stroke-width="1.80823" stroke-linecap="round"/>
<path d="M19.0287 490.8C19.0287 490.8 56.8151 463.715 85.0291 459.458C113.243 455.2 125.238 467.997 190.208 490.8" stroke="#AFF500" stroke-width="1.80823" stroke-linecap="round"/>
<path d="M65.7414 371.851C65.7414 371.851 66.0901 383.002 47.9604 383.002C36.5083 383.002 25.3575 371.851 25.3575 371.851" stroke="#784EF4" stroke-width="1.80823" stroke-linecap="round"/>
<path d="M107.029 421.577C104.015 421.577 96.7824 425.797 93.7687 430.92C90.7127 436.115 87.7413 449.002 87.1385 454.126" stroke="#784EF4" stroke-width="1.80823" stroke-linecap="round"/>
<path d="M117.879 423.989C110.947 422.18 101.605 427.304 95.5771 434.838C90.9962 440.564 86.8374 447.797 86.8374 453.824" stroke="#AFF500" stroke-width="1.80823" stroke-linecap="round"/>
<path d="M141.084 429.715C144.198 430.719 151.693 435.501 155.55 445.386C159.408 455.271 159.769 462.765 159.468 465.276" stroke="#AFF500" stroke-width="1.80823" stroke-linecap="round"/>
<path d="M367.414 410.126C374.346 406.509 379.845 406.714 383.086 407.413C398.456 410.728 406.392 416.354 410.511 420.674" stroke="#AFF500" stroke-width="1.80823" stroke-linecap="round"/>
<path d="M332.455 425.495C336.675 420.673 343.003 420.372 347.223 421.879C354.034 424.312 361.387 428.509 363.195 450.509" stroke="#784EF4" stroke-width="1.80823" stroke-linecap="round"/>
<path d="M332.757 425.797C335.871 424.189 340.291 423.747 348.428 427.002C361.387 432.186 361.688 448.4 364.099 454.126" stroke="#AFF500" stroke-width="1.80823" stroke-linecap="round"/>
<path d="M157.66 433.633C162.582 434.135 173.21 437.912 175.139 446.592C177.068 455.271 175.943 463.067 175.139 465.88" stroke="#AFF500" stroke-width="1.80823" stroke-linecap="round"/>
<path d="M171.523 436.646C175.742 440.262 177.852 440.564 178.756 447.495C179.85 455.884 176.646 464.272 175.441 467.085" stroke="#784EF4" stroke-width="1.80823" stroke-linecap="round"/>
<path d="M195.03 441.769C197.139 441.669 206.06 444.843 211.605 457.139C217.15 469.435 215.824 475.423 215.824 477.03" stroke="#AFF500" stroke-width="1.80823" stroke-linecap="round"/>
<path d="M247.167 445.386C242.647 445.386 239.934 448.098 237.222 452.016C231.309 460.556 233.605 472.108 234.208 476.126" stroke="#784EF4" stroke-width="1.80823" stroke-linecap="round"/>
<path d="M247.506 445.687C246.502 445.185 245.095 446.591 240.575 453.222C236.578 459.084 234.007 474.217 234.811 476.126" stroke="#AFF500" stroke-width="1.80823" stroke-linecap="round"/>
<path d="M367.716 409.824C370.127 408.016 372.185 405.075 380.976 404.098C389.113 403.194 405.086 411.934 413.223 424.29" stroke="#784EF4" stroke-width="1.80823" stroke-linecap="round"/>
<path d="M66.1186 371.55C61.8994 377.075 54.2891 382.492 38.3164 377.577C29.2752 374.795 25.056 371.55 22.9464 368.837" stroke="#AFF500" stroke-width="1.80823" stroke-linecap="round"/>
<path d="M79.0015 358.893C71.7686 367.03 61.9717 371.652 53.0835 367.03C45.5492 363.112 39.7227 352.363 38.6177 350.153" stroke="#AFF500" stroke-width="1.80823" stroke-linecap="round"/>
<path d="M82.6181 351.358C83.1204 357.788 71.7687 368.838 55.796 364.619C43.6537 361.411 34.9009 345.331 35.9055 342.317" stroke="#784EF4" stroke-width="1.80823" stroke-linecap="round"/>
<path d="M101.303 317.002C103.111 320.015 104.679 325.922 96.4813 325.44C88.284 324.958 72.7734 309.166 66.0427 301.33" stroke="#784EF4" stroke-width="1.80823" stroke-linecap="round"/>
<path d="M88.3442 331.769C88.3442 333.276 88.3442 338.399 85.0291 341.112C68.7852 354.402 55.1933 338.098 46.4535 329.057" stroke="#AFF500" stroke-width="1.80823" stroke-linecap="round"/>
<path d="M88.0428 331.769C87.1387 335.385 82.9195 338.399 79.303 340.207C74.2673 342.725 61.5221 343.824 53.6864 336.591" stroke="#784EF4" stroke-width="1.80823" stroke-linecap="round"/>
<path d="M365.908 351.057C365.908 354.974 370.552 361.666 374.647 363.714C378.867 365.824 396.165 367.692 408.702 355.879C419.853 345.371 428.794 333.477 431.004 329.659" stroke="#784EF4" stroke-width="1.80823" stroke-linecap="round"/>
<path d="M367.414 348.344C368.118 352.563 374.114 359.557 379.168 360.399C384.593 361.303 398.456 363.111 415.332 346.234C428.834 332.733 430.502 330.965 429.798 331.769" stroke="#AFF500" stroke-width="1.80823" stroke-linecap="round"/>
<path d="M393.634 359.796C393.634 363.815 394.316 368.566 399.661 372.454C405.007 376.342 449.689 380.29 472.292 346.235" stroke="#784EF4" stroke-width="1.80823" stroke-linecap="round"/>
<path d="M352.647 339.906C352.748 342.92 354.757 348.043 357.469 351.057C360.182 354.07 377.711 358.454 396.648 344.427C404.785 338.399 415.634 321.623 415.634 320.618" stroke="#784EF4" stroke-width="1.80823" stroke-linecap="round"/>
<path d="M338.249 332.974C338.249 334.782 337.344 339.002 342.166 343.221C349.332 348.645 364.099 343.221 377.36 335.385C393.318 325.955 402.574 305.851 401.771 305.549" stroke="#AFF500" stroke-width="1.80823" stroke-linecap="round"/>
<path d="M315.88 323.33C316.583 326.645 320.099 332.673 324.318 334.18C330.339 336.33 350.236 340.508 366.209 319.714C378.987 303.078 383.387 290.481 383.99 286.261" stroke="#AFF500" stroke-width="1.80823" stroke-linecap="round"/>
<path d="M315.88 320.618C315.378 323.732 317.085 330.141 327.935 330.865C338.784 331.588 364.099 323.632 382.483 292.289" stroke="#784EF4" stroke-width="1.80823" stroke-linecap="round"/>
<path d="M280.619 308.865C281.423 313.787 284.838 319.112 294.181 320.016C301.749 320.748 323.715 313.687 342.4 276.015" stroke="#784EF4" stroke-width="1.80823" stroke-linecap="round"/>
<path d="M251.989 299.522C252.893 303.842 256.357 310.823 266.153 312.782C276.701 314.892 290.263 308.865 302.017 294.7C312.362 282.232 317.688 267.376 319.195 261.248" stroke="#AFF500" stroke-width="1.80823" stroke-linecap="round"/>
<path d="M252.291 300.426C255.003 304.846 266.154 310.371 275.496 307.358C284.839 304.344 303.825 290.782 315.277 273.001" stroke="#784EF4" stroke-width="1.80823" stroke-linecap="round"/>
<path d="M221.551 290.18C219.039 295.303 211.304 300.023 201.66 297.111C188.882 293.254 175.742 257.632 171.221 237.741" stroke="#784EF4" stroke-width="1.80823" stroke-linecap="round"/>
<path d="M221.249 290.179C215.523 292.59 209.496 294.942 201.961 290.782C192.317 285.458 180.142 270.711 176.043 254.316" stroke="#AFF500" stroke-width="1.80823" stroke-linecap="round"/>
<path d="M182.071 291.084C180.966 292.892 177.068 295.966 170.317 293.796C163.567 291.626 156.052 276.819 153.139 269.686" stroke="#AFF500" stroke-width="1.80823" stroke-linecap="round"/>
<path d="M157.358 291.084C156.756 295.604 154.317 301.029 145.906 301.029C138.071 301.029 129.632 295.303 122.399 285.056C112.469 270.988 110.646 264.262 110.646 258.837" stroke="#AFF500" stroke-width="1.80823" stroke-linecap="round"/>
<path d="M157.358 291.385C154.345 294.7 151.934 295.586 148.016 296.508C142.892 297.714 137.769 295.604 131.139 290.782C127.624 288.226 114.865 273.905 113.057 269.385" stroke="#784EF4" stroke-width="1.80823" stroke-linecap="round"/>
<path d="M127.221 304.043C128.728 307.559 124.509 315.977 116.07 313.084C107.632 310.191 96.6822 302.837 92.2621 299.522" stroke="#784EF4" stroke-width="1.80823" stroke-linecap="round"/>
<path d="M247.468 298.015C245.057 303.138 237.825 304.645 232.701 301.632C222.398 295.571 229.386 252.508 232.701 233.521" stroke="#AFF500" stroke-width="1.80823" stroke-linecap="round"/>
<path d="M125.112 426.098C127.723 426.299 139.879 429.715 148.92 441.167C152.749 446.017 158.262 453.222 159.468 464.674" stroke="#784EF4" stroke-width="1.80823" stroke-linecap="round"/>
<path d="M126.317 425.797C124.911 425.495 121.495 426.279 119.084 431.824C116.673 437.369 118.08 449.002 119.084 454.126" stroke="#AFF500" stroke-width="1.80823" stroke-linecap="round"/>
<path d="M196.838 442.071C201.66 443.276 210.429 446.677 213.715 452.92C216.728 458.646 216.528 470.601 215.824 475.222" stroke="#784EF4" stroke-width="1.80823" stroke-linecap="round"/>
<path d="M253.754 445.341C261.138 442.773 266.549 443.777 269.653 444.94C284.376 450.458 291.408 457.179 294.854 462.053" stroke="#AFF500" stroke-width="1.80823" stroke-linecap="round"/>
<path d="M254.096 445.087C256.744 443.649 259.209 441.039 268.048 441.353C276.23 441.643 290.76 452.616 297.011 466.026" stroke="#784EF4" stroke-width="1.80823" stroke-linecap="round"/>
<path d="M289.661 439.66C290.665 438.354 300.751 435.923 306.537 439.057C312.324 442.191 319.496 456.436 322.51 463.167" stroke="#784EF4" stroke-width="1.80823" stroke-linecap="round"/>
<path d="M289.359 439.057C296.291 436.043 304.948 433.902 311.058 438.153C317.989 442.975 318.592 452.619 321.907 461.961" stroke="#AFF500" stroke-width="1.80823" stroke-linecap="round"/>
<path d="M39.8232 385.413C37.3118 392.445 36.5576 407.442 45.248 415.852C54.5905 424.893 72.5723 421.879 79.303 421.879" stroke="#784EF4" stroke-width="1.80823" stroke-linecap="round"/>
<path d="M196.838 307.96L200.928 334.31L227.277 338.399L200.928 342.488L196.838 368.838L192.749 342.488L166.4 338.399L192.749 334.31L196.838 307.96Z" fill="#AFF500"/>
<path d="M234.811 344.728L236.876 358.033L250.181 360.098L236.876 362.163L234.811 375.468L232.746 362.163L219.441 360.098L232.746 358.033L234.811 344.728Z" fill="#784EF4"/>
<path d="M144.399 333.276L145.816 342.407L154.947 343.824L145.816 345.241L144.399 354.372L142.982 345.241L133.851 343.824L142.982 342.407L144.399 333.276Z" fill="#784EF4"/>
<path d="M167.546 19.8586C184.201 39.3689 201.808 -1.55519 175.16 2.25178M175.16 2.25178C137.091 9.86546 144.229 41.2724 197.525 71.7277M175.16 2.25178C175.16 2.25178 162.786 3.67628 156.125 17.0034C144.347 40.5693 197.525 71.7277 197.525 71.7277M197.525 71.7277C197.525 71.7277 215.934 83.1484 217.036 94.0933C218.138 105.038 203.712 113.604 203.712 113.604M197.525 71.7277C231.532 91.1602 220.843 104.581 203.712 113.604M248.443 476.112C248.443 476.112 200.758 495.372 195.146 513.329C188.008 536.17 217.036 551.574 217.036 551.574M248.443 476.112C170.384 469.859 174.534 534.229 217.036 551.574M248.443 476.112C217.194 466.277 151.842 462.031 125.194 473.833C117.263 479.643 108.444 486.35 136.615 510.474M248.443 476.112C286.526 479.163 322.416 486.29 349.29 476.112M308.402 545.212C270.996 561.893 238.758 560.438 217.036 551.574M308.402 545.212C308.402 545.212 316.491 540.23 336.002 545.212C361.698 551.772 349.29 599.46 349.29 599.46M308.402 545.212C356.464 528.556 362.174 566.15 349.29 599.46M203.712 113.604C194.908 118.241 184.116 121.991 175.16 125.612M175.16 125.612C162.909 130.564 147.56 141.68 147.56 151.197C147.56 164.521 175.554 170.897 188.066 175.466M175.16 125.612C175.16 125.612 151.233 142.45 155.649 151.197C163.263 166.279 188.066 175.466 188.066 175.466M188.066 175.466C220.98 184.313 219.564 226.375 254.153 245.621M330.291 600.888C343.14 583.756 311.257 582.329 315.064 599.46C320.774 612.308 341.236 615.639 349.29 599.46M254.153 245.621C254.153 245.621 197.468 176.44 165.585 219.744M254.153 245.621C266.899 250.891 280.007 256.441 293.174 262.113M48.5801 151.197C60.4767 165.949 42.3938 189.266 55.2421 203.542C65.2776 214.693 74.9721 199.263 85.2215 186.102M48.5801 151.197C36.6834 136.445 -4.5698 150.467 2.89713 177.845M48.5801 151.197C48.5801 151.197 20.5041 139.776 6.70403 164.521C3.78479 169.756 2.89713 177.845 2.89713 177.845M2.89713 177.845C7.1799 193.549 21.4558 192.597 27.1662 183.08C32.8765 173.563 20.5041 165.949 20.5041 165.949M119.008 183.08C106.556 161.767 95.6039 172.771 85.2215 186.102M119.008 183.08C119.008 183.08 110.305 175.913 104.732 175.466C96.1426 174.777 85.2215 186.102 85.2215 186.102M119.008 183.08C125.536 194.253 130.857 208.65 136.615 219.459M165.585 219.744C165.585 219.744 160.127 229.925 153.27 229.715C145.57 229.478 136.615 219.459 136.615 219.459M165.585 219.744C150.093 240.785 145.055 235.304 136.615 219.459M136.615 510.474C136.615 510.474 142.702 517.063 141.849 521.895C140.696 528.43 127.098 530.331 127.098 530.331M136.615 510.474C154.28 525.601 143.995 529.406 127.098 530.331M78.0836 532.84C87.0005 529.327 110.312 531.25 127.098 530.331M78.0836 532.84C78.0836 532.84 70.6911 538.468 70.4698 543.309C70.2568 547.967 76.656 554.04 76.656 554.04M78.0836 532.84C67.6137 536.964 62.7282 546.673 76.656 554.04M113.298 562.343C95.2812 560.821 83.6181 557.723 76.656 554.04M113.298 562.343C113.298 562.343 132.916 565.674 133.76 568.054C134.819 571.041 114.725 580.042 114.725 580.042M113.298 562.343C155.018 565.869 134.699 571.209 114.725 580.042M92.8354 600.888C90.1045 592.331 102.349 585.516 114.725 580.042M92.8354 600.888C92.8354 600.888 96.8035 608.429 100.449 609.93C104.256 611.496 109.958 608.026 109.958 608.026M92.8354 600.888C97.3304 614.972 106.436 613.867 109.958 608.026M111.394 602.792C111.394 604.73 111.394 605.171 109.958 608.026M349.29 476.112C443.976 440.251 474.002 344.398 474.002 344.398C474.002 344.398 382.257 300.485 293.174 262.113M349.29 476.112C378.735 474.009 426.923 477.723 462.106 485.419M217.036 620.398C270.333 620.398 347.898 672.553 418.326 687.019C449.347 693.391 476.397 688.057 498.34 677.978M217.036 620.398C193.243 620.398 136.615 628.298 100.449 659.895C64.2835 691.493 97.7526 730.799 119.008 746.502C120.913 747.91 122.985 749.206 125.194 750.386M217.036 620.398C217.036 620.398 126.084 633.739 105.208 670.364C78.0836 717.951 125.194 750.386 125.194 750.386M174.684 740.792C174.684 740.792 170.401 720.806 184.677 717.951C207.542 713.378 210.172 738.659 204.187 744.123C184.26 762.318 147.636 762.371 125.194 750.386M472.099 590.275C449.66 587.467 428.751 582.388 418.326 568.054C409.202 555.508 435.466 547.923 463.426 536.171M472.099 590.275C515.211 595.67 563.975 592.685 554.899 630.868C545.846 644.713 526.215 665.174 498.34 677.978M472.099 590.275C472.099 590.275 536.19 595.654 543.954 616.592C553.558 642.492 498.34 677.978 498.34 677.978M462.106 485.419C492.705 492.113 513.467 501.819 503.506 513.329C492.8 522.9 477.886 530.093 463.426 536.171M462.106 485.419C462.106 485.419 497.32 491.44 498.747 508.095C499.574 517.747 463.426 536.171 463.426 536.171M293.174 262.113C262.196 225.141 230.05 151.197 349.29 151.197M293.174 262.113C293.174 262.113 265.465 214.414 277.946 187.363C291.033 158.999 349.29 151.197 349.29 151.197M349.29 151.197C468.53 151.197 428.818 103.611 394.057 79.8175M394.057 79.8175C366.616 56.5003 349.29 17.0034 455.444 40.7967M394.057 79.8175C394.057 79.8175 374.547 64.5899 382.636 46.0312C390.726 27.4725 455.444 40.7967 455.444 40.7967M455.444 40.7967C504.625 51.8204 532.016 73.9491 544.077 95.521M363.126 219.459C349.802 239.426 368.678 256.214 379.781 262.113C407.663 270.824 465.541 279.721 474.002 245.621C484.578 202.997 432.126 219.459 418.326 183.08C409.446 159.672 458.257 152.323 498.747 151.124M363.126 219.459C376.45 199.492 406.905 209.252 406.905 229.715M363.126 219.459C363.126 219.459 378.103 210.958 389.298 214.011C405.002 218.294 406.905 229.715 406.905 229.715M406.905 229.715C406.905 250.177 389.298 244.253 389.298 244.253M498.747 151.124C508.598 150.832 517.956 150.904 525.871 151.197C548.984 152.053 560.156 124.282 544.077 95.521M498.747 151.124C498.747 151.124 524.806 147.416 538.244 138.349C550.939 129.783 544.077 95.521 544.077 95.521" stroke="url(#paint0_linear_207_114)" stroke-width="2.85518"/>
<defs>
<linearGradient id="paint0_linear_207_114" x1="-42.3099" y1="283.487" x2="496.368" y2="228.287" gradientUnits="userSpaceOnUse">
<stop stop-color="#AFF500"/>
<stop offset="0.0001" stop-color="#AFF500"/>
<stop offset="0.506944" stop-color="#00D8F5"/>
<stop offset="1" stop-color="#784EF4"/>
</linearGradient>
</defs>
</svg>
