<svg width="731" height="928" viewBox="0 0 731 928" fill="none" xmlns="http://www.w3.org/2000/svg">
<path d="M347.891 602.092C347.891 602.092 445.578 605.277 498.721 574.869C530.742 556.546 577.079 513.065 577.079 513.065" stroke="#784EF4" stroke-width="4" stroke-linecap="round"/>
<path d="M353.775 603.563C353.775 603.563 451.462 606.749 504.605 576.34C536.627 558.018 582.963 514.537 582.963 514.537" stroke="#AFF500" stroke-width="4" stroke-linecap="round"/>
<path d="M16.5332 452.861C16.5332 452.861 80.7865 377.983 115.124 341.394C160.006 293.57 214.214 295.713 261.54 302.766C338.058 314.171 360.246 325.153 424.878 349.487C485.187 372.193 573.132 420.855 573.132 420.855" stroke="#784EF4" stroke-width="4" stroke-linecap="round"/>
<path d="M10.6465 599.149C10.6465 599.149 56.7715 566.087 91.2118 560.89C125.652 555.693 140.294 571.313 219.601 599.149" stroke="#784EF4" stroke-width="4" stroke-linecap="round"/>
<path d="M652.012 471.098L669.896 416.205L623.163 450.103L594.28 471.053L547.547 504.95L605.279 504.996L623.077 559.916L640.96 505.024L698.692 505.069L652.012 471.098Z" fill="#784EF4"/>
<path d="M549.215 383.929L491.887 390.748L542.274 418.928L573.415 436.345L623.802 464.525L599.602 412.11L641.974 372.897L584.646 379.715L560.446 327.3L549.215 383.929Z" fill="#AFF500"/>
<path d="M10.6465 515.641L12.6465 515.641L10.6465 515.641ZM79.4396 435.075L80.9945 436.333L79.4396 435.075ZM161.476 361.132L160.627 359.321L161.476 361.132ZM352.405 378.422L351.716 380.3L352.405 378.422ZM510.225 457.148L511.536 458.658C512.01 458.246 512.264 457.635 512.22 457.008C512.176 456.382 511.84 455.812 511.313 455.47L510.225 457.148ZM414.576 515.641L413.816 513.791L414.576 515.641ZM264.114 543.967L264.47 541.999L264.114 543.967ZM137.196 515.641L137.658 513.695L137.196 515.641ZM17.5109 528.516L18.8341 527.017L17.5109 528.516ZM10.6465 515.641L12.6465 515.641C12.6465 515.49 12.7037 515.121 12.9749 514.469C13.2358 513.841 13.6447 513.068 14.2161 512.146C15.3589 510.302 17.0537 508.018 19.223 505.348C23.5568 500.013 29.631 493.321 36.5776 485.822C50.4296 470.869 67.6961 452.771 80.9945 436.333L79.4396 435.075L77.8848 433.817C64.696 450.12 47.5659 468.075 33.6432 483.104C26.7023 490.596 20.5447 497.377 16.1183 502.826C13.9076 505.547 12.0903 507.983 10.8161 510.039C10.1789 511.067 9.65297 512.039 9.28124 512.933C8.91974 513.803 8.64649 514.734 8.64648 515.641H10.6465ZM79.4396 435.075L80.9945 436.333C108.168 402.743 123.76 381.033 162.326 362.943L161.476 361.132L160.627 359.321C121.097 377.864 104.965 400.343 77.8848 433.817L79.4396 435.075ZM161.476 361.132L162.326 362.943C185.206 352.21 214.938 350.057 247.873 353.876C280.774 357.691 316.667 367.441 351.716 380.3L352.405 378.422L353.094 376.544C317.857 363.617 281.645 353.765 248.334 349.902C215.056 346.044 184.467 348.138 160.627 359.321L161.476 361.132ZM352.405 378.422L351.716 380.3C413.743 403.055 458.825 426.2 509.136 458.826L510.225 457.148L511.313 455.47C460.759 422.687 415.41 399.406 353.094 376.544L352.405 378.422ZM510.225 457.148L508.913 455.638C475.63 484.532 446.764 500.245 413.816 513.791L414.576 515.641L415.337 517.49C448.607 503.812 477.866 487.888 511.536 458.658L510.225 457.148ZM414.576 515.641L413.816 513.791C385.061 525.612 354.118 533.836 327.117 538.515C300.048 543.206 277.172 544.292 264.47 541.999L264.114 543.967L263.759 545.935C277.176 548.358 300.622 547.166 327.8 542.456C355.046 537.735 386.275 529.438 415.337 517.49L414.576 515.641ZM264.114 543.967L264.47 541.999C218.426 533.685 183.293 524.529 137.658 513.695L137.196 515.641L136.734 517.586C182.284 528.4 217.575 537.596 263.759 545.935L264.114 543.967ZM137.196 515.641L137.658 513.695C111.594 507.507 91.0393 512.019 74.7782 518.042C66.7136 521.028 59.5951 524.434 53.591 526.992C47.455 529.607 42.5607 531.299 38.4799 531.299V533.299V535.299C43.4794 535.299 49.0729 533.266 55.159 530.672C61.377 528.023 68.2148 524.738 76.1674 521.793C91.9406 515.951 111.664 511.634 136.734 517.586L137.196 515.641ZM38.4799 533.299V531.299C32.9302 531.299 29.6488 531.546 26.7616 531.106C24.1238 530.704 21.8915 529.714 18.8341 527.017L17.5109 528.516L16.1876 530.016C19.705 533.119 22.6231 534.521 26.1589 535.06C29.4454 535.561 33.3611 535.299 38.4799 535.299V533.299ZM17.5109 528.516L18.8341 527.017C14.8268 523.481 12.6465 519.293 12.6465 515.641L10.6465 515.641H8.64648C8.64646 520.817 11.65 526.012 16.1876 530.016L17.5109 528.516Z" fill="#AFF500"/>
<path d="M16.5332 524.811L18.5332 524.811L16.5332 524.811ZM85.3264 444.246L86.8813 445.504L85.3264 444.246ZM167.363 370.303L166.514 368.492L167.363 370.303ZM358.292 387.593L357.603 389.471L358.292 387.593ZM516.111 466.319L517.422 467.829C517.897 467.417 518.15 466.806 518.106 466.179C518.063 465.552 517.727 464.983 517.2 464.641L516.111 466.319ZM420.463 524.811L419.702 522.962L420.463 524.811ZM270.001 553.138L270.356 551.17L270.001 553.138ZM143.083 524.811L143.545 522.865L143.083 524.811ZM44.3666 542.469L44.5669 544.459L44.3666 542.469ZM23.3976 537.687L24.7209 536.187L23.3976 537.687ZM16.5332 524.811L18.5332 524.811C18.5332 524.661 18.5905 524.292 18.8616 523.639C19.1225 523.012 19.5314 522.239 20.1028 521.317C21.2456 519.473 22.9404 517.189 25.1097 514.519C29.4435 509.184 35.5178 502.491 42.4643 494.993C56.3164 480.04 73.5828 461.942 86.8813 445.504L85.3264 444.246L83.7715 442.988C70.5827 459.291 53.4526 477.245 39.5299 492.275C32.5891 499.767 26.4314 506.548 22.0051 511.997C19.7943 514.718 17.977 517.154 16.7028 519.21C16.0656 520.238 15.5397 521.21 15.168 522.104C14.8065 522.974 14.5332 523.905 14.5332 524.811H16.5332ZM85.3264 444.246L86.8813 445.504C114.055 411.914 129.647 390.204 168.212 372.113L167.363 370.303L166.514 368.492C126.983 387.035 110.851 409.514 83.7715 442.988L85.3264 444.246ZM167.363 370.303L168.212 372.113C191.093 361.381 220.825 359.228 253.76 363.047C286.661 366.862 322.553 376.612 357.603 389.471L358.292 387.593L358.981 385.715C323.743 372.788 287.532 362.936 254.22 359.073C220.943 355.215 190.354 357.309 166.514 368.492L167.363 370.303ZM358.292 387.593L357.603 389.471C419.63 412.226 464.712 435.371 515.023 467.997L516.111 466.319L517.2 464.641C466.646 431.857 421.297 408.577 358.981 385.715L358.292 387.593ZM516.111 466.319L514.8 464.808C481.517 493.703 452.65 509.416 419.702 522.962L420.463 524.811L421.223 526.661C454.494 512.983 483.752 497.059 517.422 467.829L516.111 466.319ZM420.463 524.811L419.702 522.962C390.948 534.783 360.005 543.007 333.004 547.686C305.935 552.376 283.059 553.463 270.356 551.17L270.001 553.138L269.646 555.106C283.063 557.529 306.509 556.337 333.687 551.627C360.933 546.906 392.162 538.609 421.223 526.661L420.463 524.811ZM270.001 553.138L270.356 551.17C224.312 542.856 189.18 533.7 143.545 522.865L143.083 524.811L142.621 526.757C188.171 537.571 223.462 546.767 269.646 555.106L270.001 553.138ZM143.083 524.811L143.545 522.865C117.499 516.682 94.8297 520.942 77.5179 526.831C68.8683 529.773 61.5415 533.127 55.8229 535.78C52.9471 537.114 50.5212 538.25 48.5083 539.088C46.4459 539.947 45.0446 540.391 44.1663 540.48L44.3666 542.469L44.5669 544.459C46.097 544.305 47.9891 543.637 50.0456 542.781C52.1517 541.904 54.6706 540.724 57.5061 539.408C63.2102 536.763 70.3726 533.486 78.806 530.618C95.6603 524.885 117.532 520.801 142.621 526.757L143.083 524.811ZM44.3666 542.469L44.1663 540.48C38.804 541.019 35.5046 541.229 32.7503 540.691C30.1283 540.179 27.8542 538.952 24.7209 536.187L23.3976 537.687L22.0744 539.187C25.5158 542.223 28.4188 543.921 31.9839 544.617C35.4167 545.287 39.3144 544.988 44.5669 544.459L44.3666 542.469ZM23.3976 537.687L24.7209 536.187C20.7135 532.651 18.5332 528.463 18.5332 524.811L16.5332 524.811H14.5332C14.5332 529.988 17.5367 535.183 22.0744 539.187L23.3976 537.687Z" fill="#784EF4"/>
<path d="M242.042 486.211C127.216 486.211 127.264 382.837 127.264 382.837C127.264 382.837 153.751 358.852 200.839 351.935C265.954 342.37 375.581 387.987 375.581 387.987C375.581 387.987 343.944 486.211 242.042 486.211Z" stroke="#AFF500" stroke-width="4"/>
<path d="M246.088 494.886C131.263 494.886 131.311 391.512 131.311 391.512C131.311 391.512 157.798 367.528 204.886 360.611C270.001 351.046 379.628 396.663 379.628 396.663C379.628 396.663 347.991 494.886 246.088 494.886Z" stroke="#784EF4" stroke-width="4"/>
<path d="M10.6465 453.102C10.6465 453.102 74.8998 378.224 109.238 341.635C154.119 293.811 208.328 295.954 255.653 303.008C332.172 314.412 354.359 325.394 418.991 349.728C479.3 372.435 567.246 421.096 567.246 421.096" stroke="#AFF500" stroke-width="4" stroke-linecap="round"/>
<path d="M22.7871 598.668C22.7871 598.668 68.9121 565.606 103.352 560.409C137.793 555.212 152.435 570.832 231.742 598.668" stroke="#AFF500" stroke-width="4" stroke-linecap="round"/>
<path d="M79.8074 453.469C79.8074 453.469 80.2331 467.081 58.1026 467.081C44.1232 467.081 30.5117 453.469 30.5117 453.469" stroke="#784EF4" stroke-width="4" stroke-linecap="round"/>
<path d="M130.208 514.169C126.529 514.169 117.7 519.319 114.021 525.573C110.291 531.915 106.663 547.646 105.928 553.9" stroke="#784EF4" stroke-width="4" stroke-linecap="round"/>
<path d="M143.45 517.112C134.989 514.905 123.585 521.159 116.227 530.356C110.635 537.345 105.559 546.174 105.559 553.532" stroke="#AFF500" stroke-width="4" stroke-linecap="round"/>
<path d="M171.777 524.102C175.579 525.328 184.727 531.165 189.435 543.231C194.144 555.298 194.586 564.446 194.218 567.511" stroke="#AFF500" stroke-width="4" stroke-linecap="round"/>
<path d="M545.707 500.19C554.168 495.775 560.881 496.026 564.837 496.879C583.598 500.926 593.286 507.793 598.314 513.066" stroke="#AFF500" stroke-width="4" stroke-linecap="round"/>
<path d="M503.033 518.952C508.183 513.065 515.909 512.698 521.059 514.537C529.374 517.506 538.349 522.63 540.557 549.485" stroke="#784EF4" stroke-width="4" stroke-linecap="round"/>
<path d="M503.402 519.319C507.204 517.357 512.599 516.818 522.532 520.791C538.351 527.118 538.719 546.91 541.662 553.9" stroke="#AFF500" stroke-width="4" stroke-linecap="round"/>
<path d="M192.01 528.885C198.018 529.498 210.992 534.108 213.347 544.703C215.701 555.298 214.328 564.814 213.347 568.247" stroke="#AFF500" stroke-width="4" stroke-linecap="round"/>
<path d="M208.932 532.563C214.082 536.977 216.657 537.345 217.761 545.806C219.096 556.046 215.186 566.285 213.714 569.719" stroke="#784EF4" stroke-width="4" stroke-linecap="round"/>
<path d="M237.627 538.817C240.202 538.694 251.091 542.569 257.86 557.579C264.629 572.588 263.011 579.897 263.011 581.859" stroke="#AFF500" stroke-width="4" stroke-linecap="round"/>
<path d="M350.098 543.231C344.58 543.231 341.269 546.542 337.958 551.325C330.741 561.749 333.543 575.85 334.279 580.755" stroke="#784EF4" stroke-width="4" stroke-linecap="round"/>
<path d="M350.512 543.599C349.286 542.986 347.569 544.703 342.051 552.796C337.172 559.952 334.034 578.425 335.015 580.755" stroke="#AFF500" stroke-width="4" stroke-linecap="round"/>
<path d="M546.076 499.822C549.019 497.615 551.532 494.025 562.263 492.832C572.196 491.729 591.693 502.397 601.626 517.48" stroke="#784EF4" stroke-width="4" stroke-linecap="round"/>
<path d="M80.2677 453.101C75.1175 459.846 65.8277 466.458 46.3302 460.459C35.2938 457.063 30.1435 453.101 27.5684 449.791" stroke="#AFF500" stroke-width="4" stroke-linecap="round"/>
<path d="M95.9949 437.651C87.1658 447.584 75.207 453.225 64.3574 447.584C55.1604 442.801 48.0481 429.68 46.6992 426.982" stroke="#AFF500" stroke-width="4" stroke-linecap="round"/>
<path d="M100.408 428.454C101.021 436.302 87.1643 449.791 67.6667 444.641C52.8449 440.725 42.1605 421.096 43.3868 417.418" stroke="#784EF4" stroke-width="4" stroke-linecap="round"/>
<path d="M123.217 386.516C125.425 390.194 127.338 397.405 117.331 396.816C107.325 396.228 88.3917 376.951 80.1758 367.386" stroke="#784EF4" stroke-width="4" stroke-linecap="round"/>
<path d="M107.399 404.542C107.399 406.381 107.399 412.635 103.352 415.946C83.5235 432.169 66.9321 412.267 56.2637 401.231" stroke="#AFF500" stroke-width="4" stroke-linecap="round"/>
<path d="M107.03 404.542C105.926 408.956 100.776 412.635 96.3614 414.842C90.2144 417.916 74.6566 419.257 65.0918 410.428" stroke="#784EF4" stroke-width="4" stroke-linecap="round"/>
<path d="M543.869 428.086C543.869 432.868 549.538 441.037 554.538 443.536C559.688 446.112 580.804 448.392 596.108 433.972C609.719 421.145 620.633 406.626 623.331 401.966" stroke="#784EF4" stroke-width="4" stroke-linecap="round"/>
<path d="M545.707 424.775C546.565 429.925 553.885 438.462 560.054 439.49C566.676 440.594 583.598 442.801 604.2 422.2C620.681 405.719 622.716 403.561 621.858 404.542" stroke="#AFF500" stroke-width="4" stroke-linecap="round"/>
<path d="M577.713 438.754C577.713 443.659 578.545 449.46 585.07 454.205C591.595 458.95 646.138 463.77 673.729 422.2" stroke="#784EF4" stroke-width="4" stroke-linecap="round"/>
<path d="M527.682 414.474C527.804 418.153 530.257 424.407 533.568 428.086C536.879 431.765 558.276 437.115 581.392 419.993C591.325 412.635 604.568 392.156 604.568 390.93" stroke="#784EF4" stroke-width="4" stroke-linecap="round"/>
<path d="M510.106 406.013C510.106 408.22 509.002 413.37 514.888 418.521C523.635 425.143 541.661 418.521 557.848 408.956C577.328 397.445 588.627 372.904 587.646 372.536" stroke="#AFF500" stroke-width="4" stroke-linecap="round"/>
<path d="M482.801 394.241C483.659 398.288 487.951 405.645 493.101 407.484C500.451 410.109 524.739 415.21 544.236 389.826C559.834 369.519 565.205 354.142 565.941 348.992" stroke="#AFF500" stroke-width="4" stroke-linecap="round"/>
<path d="M482.802 390.93C482.188 394.731 484.273 402.555 497.517 403.438C510.76 404.321 541.662 394.609 564.103 356.349" stroke="#784EF4" stroke-width="4" stroke-linecap="round"/>
<path d="M390.932 376.583C391.913 382.592 396.082 389.091 407.486 390.195C416.725 391.089 443.538 382.469 466.347 336.485" stroke="#784EF4" stroke-width="4" stroke-linecap="round"/>
<path d="M355.982 365.179C357.086 370.451 361.315 378.974 373.273 381.365C386.148 383.94 402.703 376.583 417.05 359.293C429.679 344.073 436.18 325.938 438.019 318.458" stroke="#AFF500" stroke-width="4" stroke-linecap="round"/>
<path d="M356.352 366.282C359.662 371.678 373.274 378.422 384.678 374.743C396.082 371.065 419.259 354.51 433.238 332.805" stroke="#784EF4" stroke-width="4" stroke-linecap="round"/>
<path d="M270 353.774C266.934 360.028 257.492 365.79 245.72 362.236C230.122 357.527 214.083 314.044 208.564 289.764" stroke="#784EF4" stroke-width="4" stroke-linecap="round"/>
<path d="M269.633 353.774C262.643 356.717 255.286 359.588 246.089 354.51C234.317 348.011 219.454 330.009 214.451 309.997" stroke="#AFF500" stroke-width="4" stroke-linecap="round"/>
<path d="M221.808 354.878C220.46 357.085 215.702 360.838 207.461 358.189C199.221 355.54 190.048 337.465 186.492 328.759" stroke="#AFF500" stroke-width="4" stroke-linecap="round"/>
<path d="M191.642 354.878C190.906 360.396 187.93 367.018 177.663 367.018C168.098 367.018 157.797 360.028 148.968 347.521C136.847 330.348 134.621 322.137 134.621 315.515" stroke="#AFF500" stroke-width="4" stroke-linecap="round"/>
<path d="M191.643 355.246C187.964 359.293 185.021 360.375 180.238 361.5C173.984 362.971 167.73 360.396 159.637 354.51C155.346 351.39 139.772 333.909 137.564 328.391" stroke="#784EF4" stroke-width="4" stroke-linecap="round"/>
<path d="M154.855 370.697C156.695 374.989 151.545 385.265 141.244 381.733C130.943 378.201 117.577 369.225 112.182 365.179" stroke="#784EF4" stroke-width="4" stroke-linecap="round"/>
<path d="M350.466 363.339C347.522 369.593 338.693 371.432 332.44 367.754C319.863 360.356 328.393 307.79 332.44 284.613" stroke="#AFF500" stroke-width="4" stroke-linecap="round"/>
<path d="M152.279 519.687C155.468 519.933 170.305 524.102 181.342 538.081C186.015 544.001 192.746 552.796 194.217 566.776" stroke="#784EF4" stroke-width="4" stroke-linecap="round"/>
<path d="M153.751 519.319C152.034 518.952 147.865 519.908 144.922 526.677C141.979 533.446 143.696 547.646 144.922 553.9" stroke="#AFF500" stroke-width="4" stroke-linecap="round"/>
<path d="M239.834 539.185C245.72 540.656 256.424 544.808 260.435 552.428C264.114 559.418 263.869 574.011 263.01 579.651" stroke="#784EF4" stroke-width="4" stroke-linecap="round"/>
<path d="M358.136 543.177C367.15 540.042 373.755 541.267 377.544 542.687C395.517 549.423 404.101 557.628 408.307 563.576" stroke="#AFF500" stroke-width="4" stroke-linecap="round"/>
<path d="M358.555 542.867C361.788 541.112 364.796 537.926 375.587 538.309C385.574 538.663 403.31 552.057 410.941 568.426" stroke="#784EF4" stroke-width="4" stroke-linecap="round"/>
<path d="M401.969 536.242C403.195 534.648 415.507 531.68 422.57 535.506C429.633 539.332 438.389 556.72 442.067 564.936" stroke="#784EF4" stroke-width="4" stroke-linecap="round"/>
<path d="M401.6 535.506C410.061 531.827 420.628 529.214 428.087 534.402C436.548 540.288 437.284 552.06 441.33 563.465" stroke="#AFF500" stroke-width="4" stroke-linecap="round"/>
<path d="M48.1707 470.024C45.105 478.608 44.1844 496.914 54.7925 507.18C66.1968 518.216 88.1468 514.537 96.3627 514.537" stroke="#784EF4" stroke-width="4" stroke-linecap="round"/>
<path d="M239.833 375.479L244.825 407.643L276.989 412.635L244.825 417.627L239.833 449.791L234.842 417.627L202.678 412.635L234.842 407.643L239.833 375.479Z" fill="#AFF500"/>
<path d="M335.014 420.36L337.534 436.601L353.775 439.122L337.534 441.643L335.014 457.884L332.493 441.643L316.252 439.122L332.493 436.601L335.014 420.36Z" fill="#784EF4"/>
<path d="M175.823 406.381L177.553 417.527L188.699 419.257L177.553 420.987L175.823 432.133L174.093 420.987L162.947 419.257L174.093 417.527L175.823 406.381Z" fill="#784EF4"/>
<path d="M179.682 184.122H177.682H179.682ZM578.163 419.957L580.071 420.555C580.368 419.606 579.923 418.583 579.026 418.153L578.163 419.957ZM384.15 731.306L382.198 731.74L382.241 731.936L382.322 732.119L384.15 731.306ZM190.137 20.3143L188.348 19.4202L190.137 20.3143ZM248.225 138.232L249.157 140.002L248.225 138.232ZM213.372 152.89L212.623 151.036L213.372 152.89ZM189.556 184.122L191.342 183.22L189.556 184.122ZM229.126 213.746L228.44 215.625L228.523 215.655L228.607 215.678L229.126 213.746ZM237.769 626.168L235.86 625.571L237.769 626.168ZM409.708 665.086L410.203 663.149L409.708 665.086ZM425.929 731.306L427.72 732.198L427.761 732.115L427.795 732.028L425.929 731.306ZM309.798 299.383L308.825 301.131L308.927 301.187L309.034 301.231L309.798 299.383ZM66.9915 248.018L68.4781 246.68L66.9915 248.018ZM3.09511 216.651L1.16558 217.177L3.09511 216.651ZM7.74211 200.386L5.99538 199.412L7.74211 200.386ZM201.684 267.795L200.074 266.609L201.684 267.795ZM127.403 213.746L127.243 215.74L127.403 213.746ZM186.652 279.966L186.713 277.967L186.652 279.966ZM152.38 577.956L151.57 576.127L151.373 576.215L151.198 576.342L152.38 577.956ZM137.858 685.999L138.027 684.006L137.858 685.999ZM112.881 733.049L110.975 733.657L112.881 733.049ZM172.711 636.624L174.681 636.972L172.711 636.624ZM154.704 646.922L154.813 648.919L154.704 646.922ZM85.5795 662.764L87.5774 662.855L85.5795 662.764ZM162.836 692.969L160.951 693.638L162.836 692.969ZM139.601 707.604L140.41 709.433L139.601 707.604ZM122.175 744.086L121.414 745.936L122.175 744.086ZM133.782 741.763L135.495 742.796L135.534 742.73L135.569 742.661L133.782 741.763ZM614.177 626.168L615.51 627.659L615.605 627.574L615.689 627.477L614.177 626.168ZM510.2 692.969L511.818 691.793L510.2 692.969ZM676.912 769.645L678.586 770.739L678.777 770.447L678.857 770.107L676.912 769.645ZM510.2 838.188L509.798 840.147L510.2 838.188ZM144.829 910.798L143.64 912.406L144.829 910.798ZM248.806 907.893L250.154 909.37L248.806 907.893ZM224.99 875.945L224.598 873.984L224.99 875.945ZM127.984 817.858L126.246 816.867L127.984 817.858ZM663.552 752.219L665.427 751.523L663.552 752.219ZM563.641 592.099L563.213 594.053L563.641 592.099ZM608.368 619.779L610.361 619.608L608.368 619.779ZM357.43 319.514L356.638 321.351L357.43 319.514ZM480.575 96.9901L479.345 98.5668L479.394 98.6052L479.446 98.6406L480.575 96.9901ZM641.478 184.122L641.552 182.123L641.478 184.122ZM510.2 223.04L512.07 222.331L510.2 223.04ZM578.163 299.383L580.104 299.865L578.163 299.383ZM463.149 319.514L462.211 321.28L462.375 321.368L462.553 321.423L463.149 319.514ZM338.842 228.268L340.658 229.106L338.842 228.268ZM656.581 168.438L657.7 170.096L656.581 168.438ZM663.701 116.159L665.447 115.183L663.701 116.159ZM474.767 260.797L475.293 258.868L474.767 260.797ZM204.078 23.7996L202.557 25.0981C208.007 31.482 213.926 33.2913 219.237 31.7566C224.345 30.2806 228.303 25.8647 230.384 21.0332C232.458 16.2206 232.91 10.4184 230.208 6.009C227.393 1.41749 221.668 -0.898069 213.089 0.327448L213.372 2.30735L213.655 4.28724C221.341 3.18922 225.128 5.3754 226.797 8.09926C228.578 11.0052 228.486 15.332 226.711 19.4503C224.945 23.5497 221.75 26.8668 218.127 27.9139C214.706 28.9023 210.315 28.025 205.599 22.501L204.078 23.7996ZM213.372 2.30735L212.98 0.346184C201.144 2.71337 192.478 6.99012 187.367 12.9495C182.166 19.0138 180.867 26.5635 183.28 34.8168C185.666 42.9742 191.664 51.8293 201.033 60.9224C210.424 70.0364 223.314 79.4987 239.681 88.8516L240.673 87.1151L241.666 85.3786C225.504 76.1434 212.908 66.8725 203.819 58.052C194.709 49.2105 189.236 40.9298 187.119 33.694C185.031 26.5541 186.201 20.4532 190.403 15.5535C194.695 10.5489 202.366 6.54825 213.765 4.26851L213.372 2.30735ZM213.372 2.30735C213.144 0.320469 213.143 0.320588 213.141 0.320714C213.141 0.320765 213.14 0.320899 213.139 0.321002C213.137 0.321209 213.135 0.321444 213.133 0.321709C213.129 0.322239 213.123 0.322888 213.117 0.323663C213.104 0.325212 213.088 0.327263 213.068 0.329865C213.029 0.335069 212.975 0.34248 212.907 0.352501C212.772 0.372539 212.582 0.403028 212.344 0.447188C211.866 0.535471 211.191 0.678614 210.363 0.902556C208.708 1.35001 206.43 2.12288 203.888 3.43225C198.79 6.05777 192.637 10.8396 188.348 19.4202L190.137 20.3143L191.926 21.2085C195.768 13.521 201.232 9.29927 205.72 6.98833C207.97 5.82947 209.976 5.15087 211.407 4.76391C212.122 4.57064 212.691 4.45084 213.071 4.38049C213.261 4.34532 213.404 4.32257 213.494 4.30919C213.539 4.3025 213.571 4.29817 213.589 4.2958C213.598 4.29461 213.604 4.29392 213.606 4.29367C213.607 4.29355 213.607 4.29354 213.606 4.29363C213.606 4.29368 213.605 4.29375 213.604 4.29385C213.604 4.2939 213.603 4.29399 213.603 4.29402C213.602 4.29412 213.601 4.29422 213.372 2.30735ZM190.137 20.3143L188.348 19.4202C184.352 27.4149 185.975 35.9098 190.203 43.8298C194.425 51.7358 201.385 59.368 208.669 65.9827C215.975 72.617 223.719 78.327 229.625 82.3727C232.581 84.3976 235.083 86.0105 236.849 87.1187C237.732 87.6729 238.432 88.1012 238.912 88.392C239.153 88.5374 239.338 88.6485 239.465 88.7237C239.528 88.7613 239.576 88.79 239.61 88.8096C239.626 88.8194 239.639 88.8269 239.648 88.832C239.652 88.8346 239.656 88.8367 239.658 88.8381C239.659 88.8388 239.66 88.8395 239.661 88.8398C239.662 88.8403 239.662 88.8407 240.673 87.1151C241.685 85.3895 241.685 85.3895 241.684 85.3895C241.684 85.3892 241.684 85.389 241.683 85.3886C241.682 85.3877 241.679 85.3862 241.676 85.3842C241.669 85.3802 241.658 85.3738 241.643 85.3652C241.614 85.348 241.57 85.3217 241.511 85.2865C241.392 85.216 241.215 85.11 240.983 84.9698C240.52 84.6894 239.839 84.2725 238.975 83.7305C237.248 82.6464 234.791 81.063 231.886 79.0728C226.069 75.088 218.483 69.4916 211.358 63.0215C204.211 56.5318 197.638 49.2617 193.732 41.9458C189.833 34.6438 188.733 27.5969 191.926 21.2085L190.137 20.3143ZM240.673 87.1151C239.619 88.8146 239.619 88.8144 239.619 88.8143C239.619 88.8144 239.619 88.8143 239.619 88.8144C239.619 88.8145 239.62 88.8149 239.62 88.8155C239.622 88.8166 239.625 88.8186 239.63 88.8214C239.639 88.827 239.653 88.8359 239.673 88.8481C239.711 88.8726 239.771 88.9101 239.849 88.9603C240.006 89.0606 240.24 89.2115 240.54 89.4094C241.14 89.8053 242.003 90.3886 243.045 91.1311C245.133 92.6181 247.923 94.7328 250.747 97.2489C253.577 99.771 256.398 102.658 258.578 105.683C260.773 108.73 262.213 111.769 262.5 114.617L264.489 114.416L266.479 114.216C266.094 110.383 264.22 106.67 261.823 103.345C259.412 99.9991 256.363 96.8955 253.408 94.2624C250.446 91.6232 247.534 89.4176 245.366 87.8732C244.281 87.0999 243.378 86.4897 242.743 86.071C242.426 85.8616 242.176 85.6999 242.003 85.5896C241.917 85.5344 241.85 85.492 241.803 85.4628C241.78 85.4482 241.762 85.437 241.75 85.4291C241.743 85.4252 241.738 85.4221 241.735 85.4198C241.733 85.4187 241.731 85.4177 241.73 85.417C241.73 85.4167 241.729 85.4163 241.729 85.4162C241.728 85.4158 241.728 85.4156 240.673 87.1151ZM240.673 87.1151L239.681 88.8516C249.959 94.7246 256.706 100.06 260.783 104.856C264.842 109.631 266.152 113.741 265.864 117.276C265.574 120.845 263.622 124.245 260.303 127.508C256.984 130.77 252.438 133.753 247.293 136.463L248.225 138.232L249.157 140.002C254.468 137.204 259.395 134.009 263.107 130.361C266.818 126.713 269.455 122.47 269.851 117.601C270.25 112.699 268.346 107.578 263.83 102.265C259.332 96.9734 252.144 91.3659 241.666 85.3786L240.673 87.1151ZM264.489 114.416L262.5 114.617C263.079 120.37 259.568 125.751 255.439 129.928C253.418 131.973 251.347 133.628 249.777 134.774C248.994 135.345 248.34 135.786 247.887 136.081C247.661 136.229 247.485 136.34 247.368 136.412C247.309 136.448 247.266 136.475 247.238 136.492C247.224 136.5 247.214 136.506 247.208 136.51C247.206 136.511 247.204 136.513 247.203 136.513C247.203 136.513 247.202 136.513 247.203 136.513C247.203 136.513 247.203 136.513 247.203 136.513C247.203 136.513 247.204 136.513 248.225 138.232C249.246 139.952 249.247 139.952 249.247 139.951C249.247 139.951 249.248 139.951 249.249 139.95C249.25 139.95 249.251 139.949 249.253 139.948C249.257 139.946 249.261 139.943 249.267 139.939C249.278 139.933 249.293 139.923 249.313 139.912C249.352 139.888 249.407 139.854 249.477 139.811C249.617 139.724 249.818 139.597 250.071 139.433C250.575 139.104 251.287 138.623 252.134 138.006C253.824 136.773 256.071 134.979 258.284 132.74C262.624 128.35 267.245 121.823 266.479 114.216L264.489 114.416ZM248.225 138.232L247.293 136.463C236.665 142.06 223.696 146.559 212.623 151.036L213.372 152.89L214.122 154.744C224.914 150.381 238.292 145.724 249.157 140.002L248.225 138.232ZM213.372 152.89L212.623 151.036C204.965 154.132 196.353 159.143 189.62 164.896C186.252 167.774 183.3 170.883 181.176 174.085C179.06 177.274 177.682 180.685 177.682 184.122H179.682L181.682 184.122C181.682 181.749 182.645 179.107 184.51 176.296C186.366 173.497 189.033 170.659 192.219 167.937C198.593 162.49 206.826 157.694 214.122 154.744L213.372 152.89ZM213.372 152.89C212.221 151.254 212.221 151.255 212.22 151.255C212.22 151.255 212.22 151.256 212.219 151.256C212.218 151.257 212.216 151.258 212.214 151.26C212.21 151.263 212.204 151.267 212.196 151.272C212.18 151.283 212.158 151.299 212.129 151.32C212.071 151.361 211.986 151.422 211.877 151.501C211.658 151.658 211.34 151.889 210.939 152.186C210.136 152.779 209 153.637 207.654 154.698C204.968 156.818 201.427 159.768 198.046 163.071C194.684 166.355 191.387 170.074 189.272 173.737C187.209 177.308 185.945 181.406 187.771 185.023L189.556 184.122L191.342 183.22C190.473 181.499 190.838 179.023 192.736 175.737C194.58 172.543 197.575 169.122 200.84 165.932C204.087 162.762 207.511 159.907 210.132 157.839C211.44 156.806 212.543 155.974 213.317 155.402C213.704 155.116 214.008 154.895 214.215 154.746C214.318 154.672 214.396 154.616 214.448 154.579C214.475 154.56 214.494 154.546 214.507 154.537C214.513 154.533 214.517 154.53 214.52 154.528C214.522 154.527 214.523 154.526 214.523 154.526C214.523 154.525 214.523 154.525 214.524 154.525C214.524 154.525 214.523 154.525 213.372 152.89ZM179.682 184.122H177.682C177.682 188.961 180.241 192.995 183.92 196.313C187.59 199.622 192.558 202.395 197.86 204.767C208.365 209.467 221.082 212.938 228.44 215.625L229.126 213.746L229.812 211.868C221.898 208.977 209.893 205.768 199.493 201.116C194.343 198.812 189.814 196.241 186.599 193.342C183.394 190.452 181.682 187.414 181.682 184.122L179.682 184.122ZM189.556 184.122L187.771 185.023C192.692 194.77 203.02 202.42 211.817 207.564C216.259 210.161 220.401 212.171 223.432 213.531C224.948 214.212 226.19 214.731 227.057 215.082C227.49 215.258 227.829 215.391 228.063 215.481C228.179 215.526 228.27 215.561 228.332 215.584C228.363 215.596 228.387 215.605 228.403 215.611C228.412 215.614 228.418 215.617 228.423 215.618C228.425 215.619 228.427 215.62 228.429 215.621C228.429 215.621 228.43 215.621 228.431 215.621C228.431 215.622 228.432 215.622 229.126 213.746C229.821 211.871 229.821 211.871 229.822 211.871C229.821 211.871 229.822 211.871 229.821 211.871C229.821 211.871 229.82 211.87 229.819 211.87C229.816 211.869 229.812 211.867 229.806 211.865C229.793 211.86 229.774 211.853 229.747 211.843C229.694 211.823 229.613 211.792 229.506 211.75C229.291 211.667 228.971 211.542 228.558 211.375C227.732 211.04 226.536 210.54 225.07 209.882C222.133 208.564 218.125 206.619 213.836 204.111C205.172 199.045 195.715 191.883 191.342 183.22L189.556 184.122ZM384.15 731.306L386.102 730.872C385.089 726.311 386.452 723.25 388.63 721.309C390.914 719.274 394.3 718.299 397.462 718.49C400.677 718.685 403.076 720.02 404.003 721.899C404.884 723.684 404.867 726.877 401.138 731.849L402.738 733.049L404.338 734.249C408.451 728.765 409.45 723.899 407.59 720.129C405.776 716.453 401.676 714.738 397.704 714.498C393.677 714.254 389.185 715.457 385.969 718.323C382.647 721.283 380.888 725.846 382.198 731.74L384.15 731.306ZM302.827 580.738C302.078 578.884 302.078 578.884 302.077 578.884C302.077 578.884 302.076 578.885 302.075 578.885C302.072 578.886 302.069 578.887 302.066 578.889C302.058 578.892 302.047 578.896 302.032 578.902C302.003 578.914 301.959 578.932 301.903 578.955C301.789 579.001 301.623 579.07 301.406 579.16C300.971 579.34 300.336 579.606 299.527 579.952C297.909 580.643 295.592 581.654 292.793 582.935C287.197 585.497 279.656 589.145 271.891 593.488C264.136 597.825 256.103 602.885 249.553 608.278C243.067 613.619 237.754 619.51 235.86 625.571L237.769 626.168L239.678 626.765C241.209 621.866 245.741 616.599 252.096 611.366C258.386 606.186 266.19 601.259 273.843 596.979C281.486 592.704 288.925 589.105 294.458 586.573C297.222 585.307 299.507 584.31 301.098 583.63C301.894 583.29 302.516 583.03 302.938 582.855C303.149 582.767 303.31 582.701 303.418 582.657C303.471 582.635 303.512 582.619 303.538 582.608C303.552 582.603 303.561 582.599 303.568 582.596C303.571 582.595 303.573 582.594 303.575 582.593C303.575 582.593 303.576 582.593 303.576 582.593C303.576 582.592 303.576 582.592 302.827 580.738ZM302.827 580.738L302.987 578.744C278.919 576.816 260.946 580.31 248.384 587.179C235.776 594.072 228.708 604.328 226.509 615.611C222.131 638.066 237.092 663.832 263.734 674.704L264.489 672.852L265.245 671.001C240.006 660.701 226.494 636.593 230.435 616.376C232.394 606.323 238.683 597.042 250.303 590.688C261.968 584.309 279.093 580.843 302.668 582.732L302.827 580.738ZM264.489 672.852L263.734 674.704C290.816 685.756 330.738 687.469 376.832 666.913L376.018 665.086L375.203 663.26C329.976 683.429 291.194 681.59 265.245 671.001L264.489 672.852ZM237.769 626.168L235.86 625.571C231.184 640.534 238.437 652.941 246.411 661.343C250.419 665.565 254.692 668.875 257.953 671.125C259.587 672.252 260.974 673.119 261.958 673.707C262.451 674.001 262.842 674.226 263.114 674.378C263.25 674.455 263.357 674.513 263.43 674.553C263.467 674.574 263.496 674.589 263.516 674.6C263.526 674.606 263.535 674.61 263.54 674.613C263.543 674.615 263.546 674.616 263.548 674.617C263.549 674.617 263.55 674.618 263.55 674.618C263.551 674.619 263.552 674.619 264.489 672.852C265.427 671.086 265.427 671.086 265.428 671.086C265.428 671.086 265.428 671.086 265.428 671.086C265.427 671.086 265.427 671.086 265.425 671.085C265.423 671.084 265.418 671.081 265.411 671.077C265.398 671.07 265.376 671.058 265.346 671.042C265.286 671.009 265.194 670.959 265.073 670.891C264.83 670.754 264.469 670.548 264.009 670.273C263.09 669.724 261.777 668.904 260.225 667.833C257.114 665.686 253.074 662.552 249.312 658.589C241.748 650.619 235.641 639.684 239.678 626.765L237.769 626.168ZM376.018 665.086C377.066 666.79 377.065 666.79 377.064 666.791C377.064 666.791 377.062 666.792 377.062 666.792C377.06 666.793 377.059 666.794 377.058 666.795C377.056 666.796 377.054 666.797 377.053 666.798C377.051 666.799 377.051 666.799 377.054 666.797C377.06 666.794 377.075 666.785 377.099 666.771C377.149 666.744 377.237 666.697 377.365 666.635C377.621 666.51 378.037 666.323 378.62 666.11C379.786 665.683 381.627 665.147 384.209 664.787C389.368 664.067 397.528 664.041 409.214 667.024L409.708 665.086L410.203 663.149C398.073 660.052 389.387 660.025 383.656 660.825C380.792 661.225 378.675 661.83 377.245 662.353C376.531 662.615 375.989 662.856 375.612 663.04C375.423 663.131 375.276 663.209 375.169 663.268C375.116 663.297 375.072 663.322 375.039 663.342C375.022 663.351 375.008 663.36 374.997 663.367C374.991 663.37 374.986 663.373 374.981 663.376C374.979 663.378 374.976 663.379 374.974 663.38C374.973 663.381 374.972 663.382 374.972 663.382C374.97 663.383 374.969 663.383 376.018 665.086ZM376.018 665.086L376.672 666.976C391.141 661.962 402.163 661.127 410.312 663.083C418.374 665.019 423.786 669.721 427.088 676.229C430.427 682.809 431.647 691.329 431.02 700.815C430.394 710.281 427.936 720.574 424.064 730.585L425.929 731.306L427.795 732.028C431.786 721.709 434.354 711.017 435.011 701.078C435.667 691.16 434.427 681.853 430.655 674.419C426.847 666.914 420.499 661.415 411.246 659.194C402.078 656.993 390.228 658.045 375.363 663.197L376.018 665.086ZM425.929 731.306L424.139 730.415C419.599 739.535 411.672 743.06 404.088 742.598C396.405 742.13 389.127 737.58 385.978 730.494L384.15 731.306L382.322 732.119C386.143 740.716 394.84 746.042 403.845 746.59C412.95 747.145 422.428 742.827 427.72 732.198L425.929 731.306ZM409.708 665.086L409.214 667.024C416.353 668.847 420.862 673.49 423.655 679.639C426.481 685.859 427.516 693.568 427.582 701.217C427.647 708.839 426.752 716.242 425.833 721.757C425.374 724.51 424.912 726.781 424.565 728.361C424.392 729.15 424.248 729.766 424.147 730.182C424.097 730.39 424.058 730.548 424.032 730.652C424.019 730.705 424.009 730.744 424.002 730.769C423.999 730.781 423.997 730.791 423.995 730.796C423.995 730.799 423.994 730.801 423.994 730.802C423.994 730.803 423.994 730.803 423.994 730.803C423.994 730.803 423.994 730.803 425.929 731.306C427.865 731.81 427.865 731.809 427.865 731.808C427.865 731.808 427.866 731.807 427.866 731.805C427.867 731.803 427.868 731.799 427.869 731.795C427.871 731.787 427.874 731.775 427.878 731.76C427.886 731.729 427.897 731.684 427.912 731.626C427.941 731.51 427.983 731.34 428.036 731.12C428.142 730.679 428.293 730.036 428.472 729.218C428.831 727.583 429.307 725.244 429.779 722.414C430.72 716.764 431.65 709.114 431.582 701.182C431.513 693.277 430.453 684.932 427.297 677.985C424.108 670.967 418.747 665.33 410.203 663.149L409.708 665.086ZM229.126 213.746L228.607 215.678C247.804 220.837 257.059 235.619 266.963 252.803C276.78 269.838 287.152 289.071 308.825 301.131L309.798 299.383L310.77 297.635C290.222 286.202 280.347 268.016 270.428 250.806C260.596 233.744 250.626 217.454 229.646 211.815L229.126 213.746ZM66.9915 248.018L68.4781 246.68C61.3707 238.783 62.6927 228.343 64.4673 216.586C65.3306 210.867 66.2762 204.873 66.0493 199.172C65.82 193.413 64.394 187.799 60.4161 182.866L58.8592 184.122L57.3024 185.377C60.5854 189.448 61.846 194.144 62.0524 199.331C62.2612 204.576 61.3915 210.163 60.5121 215.989C58.8015 227.322 56.9287 239.827 65.5049 249.356L66.9915 248.018ZM58.8592 184.122L60.4161 182.866C56.3179 177.784 49.8287 175.338 42.8602 174.911C35.873 174.484 28.1699 176.059 21.266 179.289C7.50046 185.729 -3.7445 199.173 1.16558 217.177L3.09511 216.651L5.02464 216.124C0.819995 200.707 10.1961 188.884 22.9609 182.912C29.3221 179.936 36.3614 178.521 42.6156 178.904C48.8885 179.288 54.1397 181.455 57.3024 185.377L58.8592 184.122ZM3.09511 216.651L1.16558 217.177C3.93957 227.348 10.1441 232.613 17.0331 233.378C23.789 234.129 30.6001 230.46 34.4348 224.069L32.7198 223.04L31.0048 222.011C27.869 227.238 22.4817 229.959 17.4748 229.403C12.6011 228.861 7.47853 225.122 5.02464 216.124L3.09511 216.651ZM32.7198 223.04L34.4348 224.069C36.4247 220.753 36.8781 217.507 36.3602 214.529C35.8512 211.602 34.4272 209.055 32.8529 207.009C31.2739 204.956 29.4774 203.32 28.0931 202.205C27.3969 201.644 26.7951 201.207 26.3623 200.907C26.1456 200.757 25.9707 200.641 25.8466 200.56C25.7846 200.519 25.7353 200.488 25.6997 200.465C25.682 200.454 25.6677 200.445 25.657 200.439C25.6516 200.435 25.6471 200.432 25.6436 200.43C25.6418 200.429 25.6403 200.428 25.639 200.427C25.6383 200.427 25.6375 200.427 25.6372 200.426C25.6364 200.426 25.6357 200.425 24.5875 202.129C23.5393 203.832 23.5388 203.832 23.5382 203.831C23.5381 203.831 23.5377 203.831 23.5375 203.831C23.5371 203.831 23.5369 203.831 23.537 203.831C23.5371 203.831 23.5381 203.831 23.5399 203.832C23.5437 203.835 23.5509 203.839 23.5615 203.846C23.5828 203.859 23.6174 203.882 23.6642 203.912C23.758 203.973 23.9008 204.068 24.0835 204.194C24.4494 204.448 24.9729 204.828 25.5838 205.32C26.8134 206.311 28.3569 207.724 29.6824 209.447C31.0124 211.176 32.0571 213.131 32.4194 215.214C32.7729 217.247 32.5002 219.519 31.0048 222.011L32.7198 223.04ZM58.8592 184.122C59.6128 182.269 59.6119 182.269 59.6108 182.268C59.6102 182.268 59.609 182.267 59.6079 182.267C59.6057 182.266 59.603 182.265 59.5998 182.264C59.5934 182.261 59.5849 182.258 59.5743 182.253C59.5531 182.245 59.5237 182.233 59.4863 182.219C59.4114 182.19 59.3042 182.149 59.1664 182.097C58.8909 181.995 58.4926 181.852 57.9842 181.684C56.9679 181.346 55.5085 180.903 53.7082 180.471C50.1151 179.607 45.1234 178.776 39.5633 178.927C28.377 179.232 14.8464 183.541 5.99538 199.412L7.74211 200.386L9.48884 201.36C17.4832 187.025 29.5112 183.202 39.6721 182.926C44.7856 182.787 49.4147 183.553 52.7739 184.36C54.4498 184.762 55.7996 185.173 56.7233 185.48C57.1849 185.633 57.5393 185.76 57.7741 185.847C57.8914 185.891 57.9788 185.924 58.0346 185.946C58.0625 185.957 58.0825 185.965 58.0944 185.97C58.1003 185.972 58.1043 185.974 58.1062 185.974C58.1071 185.975 58.1075 185.975 58.1075 185.975C58.1074 185.975 58.107 185.975 58.1069 185.975C58.1064 185.974 58.1056 185.974 58.8592 184.122ZM7.74211 200.386L5.99538 199.412C4.06998 202.864 2.85834 207.158 2.12871 210.486C1.75961 212.17 1.50543 213.647 1.3432 214.705C1.26199 215.234 1.20359 215.661 1.16519 215.957C1.14599 216.105 1.13178 216.221 1.1222 216.301C1.11742 216.342 1.11379 216.373 1.11128 216.395C1.11002 216.406 1.10904 216.415 1.10834 216.421C1.10799 216.424 1.1077 216.427 1.10749 216.428C1.10738 216.429 1.10729 216.43 1.10721 216.431C1.10718 216.431 1.10713 216.432 1.10711 216.432C1.10708 216.432 1.10704 216.432 3.09511 216.651C5.08318 216.869 5.08315 216.869 5.08313 216.869C5.08313 216.869 5.08311 216.869 5.0831 216.869C5.0831 216.87 5.0831 216.869 5.08313 216.869C5.08318 216.869 5.08329 216.868 5.08348 216.866C5.08384 216.863 5.08447 216.857 5.08538 216.849C5.08718 216.834 5.09007 216.809 5.09409 216.775C5.10213 216.707 5.11468 216.605 5.13206 216.471C5.16684 216.202 5.22093 215.807 5.29699 215.311C5.44927 214.318 5.6887 212.927 6.03592 211.343C6.73892 208.136 7.85078 204.297 9.48884 201.36L7.74211 200.386ZM309.798 299.383C311.345 298.115 311.344 298.115 311.343 298.114C311.343 298.113 311.341 298.111 311.34 298.11C311.338 298.107 311.334 298.102 311.329 298.097C311.32 298.085 311.306 298.069 311.289 298.047C311.253 298.005 311.201 297.942 311.133 297.86C310.997 297.697 310.796 297.458 310.533 297.15C310.008 296.534 309.236 295.641 308.241 294.526C306.252 292.297 303.371 289.176 299.792 285.599C292.644 278.455 282.67 269.448 271.431 262.093C260.224 254.759 247.563 248.937 235.077 248.432C222.431 247.921 210.184 252.877 200.074 266.609L201.684 267.795L203.295 268.981C212.644 256.283 223.641 251.973 234.915 252.429C246.348 252.891 258.283 258.269 269.24 265.44C280.165 272.589 289.922 281.39 296.964 288.429C300.481 291.943 303.309 295.007 305.256 297.189C306.229 298.28 306.982 299.15 307.489 299.745C307.743 300.043 307.935 300.271 308.063 300.425C308.127 300.501 308.175 300.559 308.206 300.597C308.222 300.616 308.234 300.63 308.241 300.639C308.245 300.643 308.247 300.647 308.249 300.649C308.25 300.65 308.25 300.65 308.251 300.651C308.251 300.651 308.251 300.651 309.798 299.383ZM144.829 223.04L146.556 222.031C142.674 215.388 138.779 211.026 134.781 208.636C130.69 206.191 126.605 205.882 122.662 207.118C118.821 208.322 115.221 210.956 111.855 214.186C108.473 217.432 105.189 221.417 102.009 225.5L103.587 226.729L105.165 227.958C108.321 223.905 111.461 220.109 114.625 217.072C117.805 214.02 120.874 211.871 123.859 210.935C126.742 210.031 129.642 210.225 132.728 212.07C135.907 213.97 139.384 217.685 143.102 224.049L144.829 223.04ZM103.587 226.729L102.009 225.5C98.824 229.59 95.8132 233.684 92.7536 237.495C89.7136 241.282 86.7809 244.588 83.9152 246.962C81.0291 249.353 78.4317 250.613 76.0503 250.694C73.7768 250.771 71.2701 249.782 68.4781 246.68L66.9915 248.018L65.5049 249.356C68.838 253.059 72.4043 254.82 76.1859 254.692C79.8597 254.567 83.2997 252.667 86.4671 250.042C89.6551 247.401 92.7924 243.837 95.8729 239.999C98.9336 236.186 102.094 231.901 105.165 227.958L103.587 226.729ZM103.587 226.729C105.026 228.118 105.026 228.118 105.026 228.118C105.026 228.118 105.026 228.118 105.026 228.118C105.026 228.118 105.026 228.118 105.026 228.117C105.027 228.117 105.029 228.115 105.031 228.112C105.036 228.107 105.044 228.099 105.055 228.088C105.078 228.065 105.112 228.03 105.159 227.983C105.252 227.888 105.393 227.748 105.578 227.567C105.948 227.206 106.491 226.686 107.178 226.064C108.553 224.815 110.488 223.164 112.733 221.544C114.985 219.92 117.505 218.357 120.052 217.256C122.615 216.148 125.071 215.566 127.243 215.74L127.403 213.746L127.562 211.753C124.492 211.506 121.35 212.337 118.464 213.584C115.563 214.839 112.784 216.575 110.392 218.301C107.994 220.031 105.941 221.784 104.489 223.101C103.762 223.761 103.182 224.315 102.782 224.707C102.582 224.903 102.426 225.058 102.319 225.166C102.265 225.22 102.224 225.262 102.195 225.292C102.181 225.306 102.169 225.318 102.161 225.326C102.157 225.33 102.154 225.334 102.152 225.336C102.151 225.337 102.15 225.338 102.149 225.339C102.148 225.34 102.148 225.34 102.148 225.34C102.147 225.341 102.147 225.341 103.587 226.729ZM127.403 213.746L127.243 215.74C128.604 215.849 130.296 216.39 132.16 217.246C133.999 218.09 135.879 219.182 137.585 220.28C139.286 221.374 140.786 222.455 141.861 223.263C142.397 223.667 142.826 224.001 143.118 224.232C143.265 224.348 143.377 224.438 143.451 224.498C143.488 224.528 143.516 224.55 143.534 224.565C143.543 224.572 143.549 224.577 143.553 224.581C143.555 224.582 143.557 224.583 143.557 224.584C143.558 224.584 143.558 224.584 143.558 224.585C143.558 224.585 143.558 224.584 143.558 224.584C143.558 224.584 143.558 224.584 144.829 223.04C146.1 221.496 146.1 221.496 146.1 221.496C146.1 221.496 146.099 221.496 146.099 221.495C146.098 221.495 146.098 221.494 146.097 221.493C146.095 221.492 146.092 221.49 146.089 221.487C146.083 221.482 146.074 221.475 146.063 221.466C146.04 221.447 146.007 221.42 145.965 221.386C145.88 221.318 145.757 221.219 145.6 221.095C145.285 220.845 144.83 220.492 144.265 220.066C143.135 219.217 141.553 218.077 139.749 216.916C137.949 215.758 135.897 214.561 133.83 213.611C131.789 212.674 129.602 211.916 127.562 211.753L127.403 213.746ZM201.684 267.795C199.922 266.85 199.922 266.85 199.922 266.849C199.922 266.849 199.922 266.849 199.922 266.849C199.922 266.848 199.922 266.848 199.922 266.849C199.922 266.849 199.922 266.85 199.921 266.852C199.919 266.855 199.915 266.861 199.91 266.871C199.9 266.889 199.884 266.919 199.862 266.959C199.817 267.039 199.748 267.161 199.655 267.319C199.471 267.634 199.194 268.091 198.836 268.642C198.117 269.748 197.081 271.21 195.807 272.654C193.148 275.668 189.931 278.066 186.713 277.967L186.652 279.966L186.591 281.965C191.743 282.123 196.042 278.435 198.807 275.3C200.245 273.669 201.398 272.04 202.189 270.823C202.586 270.213 202.896 269.701 203.108 269.338C203.214 269.157 203.296 269.012 203.353 268.91C203.382 268.859 203.404 268.819 203.42 268.79C203.427 268.776 203.434 268.765 203.438 268.756C203.44 268.752 203.442 268.748 203.444 268.746C203.445 268.744 203.445 268.743 203.446 268.742C203.446 268.742 203.446 268.741 203.446 268.741C203.447 268.74 203.447 268.74 201.684 267.795ZM201.684 267.795L200.074 266.609C195.38 272.985 191.576 277.211 188.39 279.727C185.205 282.242 182.909 282.839 181.109 282.534C179.251 282.219 177.322 280.849 175.105 278.036C172.907 275.245 170.664 271.345 168.087 266.507L166.321 267.447L164.556 268.388C167.13 273.22 169.52 277.41 171.963 280.511C174.388 283.589 177.109 285.913 180.441 286.478C183.83 287.053 187.261 285.715 190.869 282.866C194.478 280.016 198.534 275.448 203.295 268.981L201.684 267.795ZM166.321 267.447L168.087 266.507C164.612 259.984 161.265 252.371 157.751 244.587C154.254 236.843 150.599 228.952 146.556 222.031L144.829 223.04L143.102 224.049C147.027 230.767 150.605 238.482 154.105 246.234C157.587 253.946 161.003 261.717 164.556 268.388L166.321 267.447ZM186.652 279.966L186.713 277.967C182.715 277.844 178.081 275.1 174.203 272.031C172.32 270.539 170.714 269.052 169.578 267.936C169.011 267.379 168.564 266.918 168.262 266.598C168.11 266.438 167.995 266.314 167.919 266.232C167.881 266.19 167.853 266.159 167.835 266.14C167.826 266.13 167.82 266.123 167.816 266.118C167.814 266.116 167.813 266.115 167.812 266.114C167.812 266.114 167.812 266.114 167.812 266.114C167.812 266.114 167.812 266.114 167.812 266.114C167.812 266.114 167.813 266.115 166.321 267.447C164.83 268.78 164.83 268.78 164.831 268.781C164.831 268.781 164.831 268.782 164.832 268.782C164.832 268.783 164.833 268.784 164.834 268.785C164.836 268.787 164.839 268.79 164.843 268.794C164.849 268.801 164.859 268.812 164.871 268.825C164.895 268.852 164.929 268.889 164.974 268.938C165.062 269.035 165.191 269.173 165.357 269.349C165.689 269.699 166.17 270.195 166.775 270.79C167.982 271.976 169.697 273.564 171.721 275.167C175.659 278.285 181.19 281.8 186.591 281.965L186.652 279.966ZM302.827 580.738L303.428 578.83C284.126 572.756 254.452 568.444 225.567 567.444C196.761 566.447 168.284 568.725 151.57 576.127L152.38 577.956L153.19 579.784C169.006 572.78 196.68 570.447 225.429 571.442C254.099 572.434 283.385 576.716 302.227 582.646L302.827 580.738ZM152.38 577.956L151.198 576.342C146.555 579.744 140.356 584.186 140.829 592.056C141.059 595.896 142.867 600.27 146.661 605.45C150.462 610.643 156.363 616.789 165.02 624.202L166.321 622.683L167.622 621.164C159.085 613.854 153.437 607.934 149.888 603.087C146.331 598.229 144.988 594.591 144.821 591.817C144.5 586.458 148.525 583.26 153.562 579.569L152.38 577.956ZM166.321 622.683C164.852 624.04 164.852 624.04 164.852 624.04C164.852 624.04 164.852 624.039 164.851 624.039C164.851 624.039 164.851 624.039 164.851 624.039C164.851 624.039 164.852 624.04 164.853 624.041C164.855 624.043 164.859 624.047 164.864 624.053C164.875 624.065 164.892 624.084 164.916 624.111C164.964 624.164 165.036 624.245 165.129 624.352C165.315 624.567 165.585 624.884 165.907 625.285C166.554 626.09 167.402 627.215 168.213 628.506C169.029 629.804 169.779 631.222 170.262 632.614C170.752 634.022 170.92 635.264 170.741 636.277L172.711 636.624L174.681 636.972C175.022 635.036 174.652 633.06 174.041 631.301C173.424 629.527 172.511 627.828 171.6 626.378C170.684 624.92 169.738 623.667 169.025 622.779C168.667 622.334 168.364 621.977 168.148 621.728C168.04 621.604 167.954 621.507 167.893 621.439C167.863 621.405 167.838 621.379 167.821 621.36C167.813 621.35 167.806 621.343 167.801 621.337C167.798 621.334 167.796 621.332 167.794 621.33C167.793 621.329 167.793 621.328 167.792 621.328C167.792 621.327 167.791 621.327 167.791 621.327C167.791 621.326 167.79 621.326 166.321 622.683ZM166.321 622.683L165.02 624.202C170.354 628.77 173.366 632.313 174.717 635C175.381 636.322 175.59 637.333 175.562 638.094C175.534 638.817 175.289 639.436 174.8 640.02C173.728 641.301 171.453 642.445 167.794 643.308C164.223 644.151 159.708 644.645 154.594 644.925L154.704 646.922L154.813 648.919C160.013 648.634 164.802 648.124 168.712 647.201C172.534 646.299 175.918 644.917 177.867 642.587C178.89 641.366 179.496 639.909 179.559 638.245C179.62 636.619 179.159 634.931 178.291 633.203C176.575 629.791 173.07 625.829 167.622 621.164L166.321 622.683ZM154.704 646.922L154.594 644.925C144.408 645.482 132.31 645.176 121.17 645.266C115.637 645.311 110.356 645.455 105.756 645.862C101.192 646.267 97.1379 646.943 94.1405 648.124L94.8736 649.984L95.6066 651.845C98.0515 650.882 101.636 650.243 106.109 649.847C110.546 649.454 115.7 649.31 121.203 649.266C132.135 649.177 144.509 649.483 154.813 648.919L154.704 646.922ZM172.711 636.624L170.741 636.277C170.509 637.593 169.624 638.838 168.09 640.009C166.56 641.177 164.562 642.132 162.495 642.886C160.443 643.634 158.418 644.15 156.896 644.48C156.138 644.644 155.512 644.761 155.079 644.836C154.863 644.873 154.695 644.9 154.584 644.918C154.528 644.926 154.486 644.932 154.46 644.936C154.447 644.938 154.437 644.94 154.432 644.94C154.429 644.941 154.427 644.941 154.426 644.941C154.426 644.941 154.426 644.941 154.426 644.941C154.426 644.941 154.426 644.941 154.426 644.941C154.427 644.941 154.427 644.941 154.704 646.922C154.981 648.903 154.981 648.903 154.982 648.902C154.982 648.902 154.983 648.902 154.983 648.902C154.984 648.902 154.986 648.902 154.987 648.902C154.99 648.901 154.995 648.901 155 648.9C155.01 648.898 155.025 648.896 155.043 648.894C155.079 648.888 155.131 648.88 155.198 648.87C155.33 648.85 155.521 648.819 155.761 648.777C156.241 648.694 156.923 648.567 157.743 648.389C159.378 648.035 161.59 647.473 163.865 646.644C166.123 645.82 168.539 644.699 170.517 643.188C172.492 641.681 174.209 639.644 174.681 636.972L172.711 636.624ZM94.8736 649.984C93.6621 648.393 93.6617 648.393 93.6613 648.394C93.6612 648.394 93.6608 648.394 93.6604 648.394C93.6597 648.395 93.6589 648.395 93.6579 648.396C93.656 648.398 93.6535 648.4 93.6505 648.402C93.6445 648.406 93.6363 648.413 93.626 648.421C93.6054 648.437 93.5765 648.459 93.5398 648.488C93.4663 648.545 93.3616 648.628 93.2299 648.734C92.9666 648.946 92.5949 649.253 92.15 649.638C91.2628 650.407 90.0714 651.5 88.865 652.794C87.6641 654.082 86.4112 655.609 85.4302 657.246C84.4611 658.863 83.6704 660.731 83.5816 662.672L85.5795 662.764L87.5774 662.855C87.6238 661.842 88.0623 660.635 88.8612 659.302C89.6482 657.989 90.7018 656.69 91.7908 655.522C92.874 654.36 93.9555 653.366 94.7688 652.662C95.1741 652.311 95.5094 652.034 95.7407 651.848C95.8563 651.755 95.9457 651.684 96.0045 651.638C96.034 651.615 96.0558 651.598 96.0694 651.588C96.0762 651.582 96.0809 651.579 96.0836 651.577C96.0849 651.576 96.0857 651.575 96.0859 651.575C96.086 651.575 96.086 651.575 96.0859 651.575C96.0858 651.575 96.0856 651.575 96.0856 651.575C96.0853 651.575 96.0851 651.576 94.8736 649.984ZM94.8736 649.984L94.1405 648.124C87.4935 650.742 82.0375 655.345 80.8746 661.039C79.6464 667.053 83.3785 672.967 92.1958 677.632L93.1309 675.864L94.0661 674.096C85.8821 669.767 84.0953 665.259 84.7937 661.84C85.5573 658.101 89.4733 654.261 95.6066 651.845L94.8736 649.984ZM93.1309 675.864L92.1958 677.632C101.044 682.312 115.594 686.124 137.69 687.992L137.858 685.999L138.027 684.006C116.138 682.156 102.215 678.406 94.0661 674.096L93.1309 675.864ZM85.5795 662.764L83.5816 662.672C83.496 664.544 84.0721 666.411 84.8366 668.053C85.6105 669.716 86.6479 671.297 87.6569 672.645C88.6707 673.998 89.6878 675.158 90.4492 675.978C90.8311 676.389 91.1516 676.717 91.3791 676.946C91.4929 677.06 91.5837 677.149 91.6475 677.211C91.6794 677.242 91.7045 677.267 91.7224 677.284C91.7314 677.293 91.7386 677.299 91.7439 677.305C91.7465 677.307 91.7487 677.309 91.7504 677.311C91.7513 677.312 91.752 677.312 91.7526 677.313C91.7529 677.313 91.7533 677.313 91.7534 677.314C91.7538 677.314 91.7541 677.314 93.1309 675.864C94.5078 674.413 94.508 674.413 94.5082 674.413C94.5083 674.413 94.5085 674.414 94.5085 674.414C94.5087 674.414 94.5087 674.414 94.5086 674.414C94.5084 674.414 94.5078 674.413 94.5067 674.412C94.5045 674.41 94.5004 674.406 94.4946 674.4C94.483 674.389 94.4643 674.371 94.4391 674.347C94.3885 674.297 94.3117 674.222 94.2125 674.122C94.0138 673.923 93.7261 673.628 93.3797 673.255C92.6847 672.507 91.7652 671.458 90.8586 670.247C89.9473 669.03 89.0805 667.692 88.463 666.365C87.836 665.018 87.5331 663.826 87.5774 662.855L85.5795 662.764ZM137.858 685.999C137.524 687.97 137.524 687.97 137.524 687.97C137.524 687.971 137.524 687.971 137.524 687.971C137.525 687.971 137.526 687.971 137.527 687.971C137.53 687.971 137.534 687.972 137.539 687.973C137.55 687.975 137.567 687.978 137.589 687.982C137.633 687.989 137.699 688.001 137.786 688.016C137.959 688.046 138.214 688.09 138.539 688.148C139.19 688.264 140.123 688.433 141.246 688.645C143.493 689.069 146.494 689.663 149.521 690.346C152.56 691.031 155.575 691.795 157.871 692.554C159.027 692.936 159.933 693.294 160.549 693.613C160.859 693.773 161.037 693.893 161.121 693.962C161.236 694.056 161.065 693.959 160.951 693.638L162.836 692.969L164.721 692.301C164.478 691.616 163.999 691.148 163.65 690.863C163.271 690.553 162.829 690.288 162.385 690.059C161.495 689.599 160.36 689.163 159.126 688.756C156.643 687.935 153.478 687.138 150.401 686.444C147.312 685.747 144.262 685.143 141.987 684.714C140.849 684.499 139.902 684.328 139.24 684.21C138.908 684.151 138.648 684.105 138.47 684.075C138.381 684.059 138.312 684.047 138.265 684.039C138.242 684.035 138.224 684.032 138.212 684.03C138.206 684.029 138.202 684.028 138.198 684.028C138.197 684.028 138.196 684.027 138.195 684.027C138.194 684.027 138.194 684.027 138.194 684.027C138.193 684.027 138.193 684.027 137.858 685.999ZM137.858 685.999L137.69 687.992C150.429 689.068 158.227 690.271 162.451 691.584C164.655 692.269 165.446 692.859 165.637 693.107C165.663 693.141 165.585 693.033 165.605 692.863C165.617 692.76 165.645 692.834 165.424 693.103C164.955 693.675 163.929 694.454 162.212 695.421C160.547 696.358 158.428 697.366 155.967 698.455C153.511 699.542 150.762 700.69 147.843 701.911C144.932 703.129 141.861 704.417 138.792 705.775L139.601 707.604L140.41 709.433C143.437 708.094 146.474 706.82 149.387 705.601C152.293 704.385 155.084 703.22 157.586 702.113C160.083 701.008 162.341 699.938 164.173 698.907C165.953 697.905 167.545 696.825 168.517 695.64C169.018 695.03 169.472 694.25 169.579 693.318C169.693 692.319 169.379 691.406 168.801 690.659C167.783 689.343 165.89 688.464 163.638 687.764C158.951 686.307 150.752 685.081 138.027 684.006L137.858 685.999ZM139.601 707.604L138.792 705.775C131.23 709.119 123.499 712.959 118.066 717.361C112.697 721.713 108.912 727.193 110.975 733.657L112.881 733.049L114.786 732.441C113.516 728.46 115.538 724.559 120.585 720.469C125.568 716.431 132.865 712.77 140.41 709.433L139.601 707.604ZM162.836 692.969L160.951 693.638C160.826 693.285 160.916 693.03 160.923 693.013C160.924 693.011 160.875 693.124 160.679 693.357C160.287 693.822 159.588 694.439 158.573 695.178C156.57 696.638 153.723 698.301 150.758 699.891C147.811 701.473 144.816 702.945 142.552 704.025C141.422 704.564 140.477 705.003 139.816 705.308C139.486 705.46 139.226 705.578 139.05 705.658C138.962 705.698 138.894 705.728 138.849 705.749C138.827 705.759 138.81 705.766 138.799 705.771C138.794 705.774 138.789 705.776 138.787 705.777C138.786 705.777 138.785 705.778 138.784 705.778C138.784 705.778 138.784 705.778 138.783 705.778C138.783 705.778 138.783 705.778 139.601 707.604C140.419 709.429 140.419 709.429 140.419 709.429C140.419 709.429 140.42 709.428 140.42 709.428C140.421 709.428 140.423 709.427 140.424 709.426C140.427 709.425 140.432 709.423 140.439 709.42C140.451 709.414 140.469 709.406 140.493 709.395C140.541 709.374 140.611 709.342 140.703 709.301C140.885 709.218 141.151 709.097 141.489 708.941C142.164 708.63 143.125 708.183 144.274 707.635C146.57 706.54 149.626 705.038 152.649 703.416C155.655 701.804 158.697 700.037 160.929 698.411C162.032 697.607 163.037 696.767 163.739 695.933C164.089 695.517 164.435 695.02 164.654 694.456C164.877 693.877 165.008 693.109 164.721 692.301L162.836 692.969ZM112.881 733.049C111.111 733.98 111.111 733.981 111.111 733.981C111.111 733.981 111.111 733.981 111.112 733.982C111.112 733.982 111.112 733.983 111.113 733.984C111.114 733.986 111.115 733.988 111.117 733.991C111.12 733.997 111.124 734.005 111.129 734.015C111.14 734.036 111.156 734.064 111.175 734.101C111.215 734.175 111.273 734.281 111.347 734.416C111.496 734.684 111.711 735.066 111.983 735.529C112.524 736.452 113.297 737.706 114.219 739.026C115.137 740.34 116.226 741.754 117.405 742.977C118.558 744.173 119.924 745.323 121.414 745.936L122.175 744.086L122.936 742.237C122.201 741.934 121.293 741.246 120.285 740.201C119.304 739.183 118.348 737.952 117.499 736.736C116.653 735.525 115.937 734.364 115.432 733.503C115.18 733.074 114.982 732.722 114.848 732.48C114.781 732.359 114.73 732.266 114.697 732.204C114.68 732.173 114.668 732.15 114.66 732.136C114.656 732.128 114.654 732.123 114.652 732.12C114.651 732.119 114.651 732.118 114.65 732.117C114.65 732.117 114.65 732.117 114.65 732.117C114.65 732.117 114.65 732.117 114.65 732.117C114.651 732.117 114.651 732.118 112.881 733.049ZM112.881 733.049L110.975 733.657C113.816 742.557 118.33 747.326 123.328 748.476C128.358 749.633 133.005 746.925 135.495 742.796L133.782 741.763L132.069 740.73C130.26 743.73 127.2 745.262 124.225 744.578C121.22 743.886 117.433 740.733 114.786 732.441L112.881 733.049ZM133.782 741.763L135.569 742.661C136.443 740.924 136.976 739.741 137.255 738.639C137.545 737.492 137.535 736.516 137.535 735.373H135.535H133.535C133.535 736.596 133.525 737.072 133.377 737.658C133.218 738.287 132.874 739.117 131.995 740.864L133.782 741.763ZM122.175 744.086L121.414 745.936C124.464 747.191 127.987 746.376 130.387 745.528C131.65 745.081 132.746 744.574 133.525 744.179C133.917 743.981 134.232 743.809 134.454 743.684C134.565 743.622 134.652 743.571 134.714 743.535C134.745 743.517 134.77 743.502 134.788 743.492C134.797 743.486 134.804 743.482 134.81 743.478C134.813 743.477 134.815 743.475 134.817 743.474C134.818 743.473 134.819 743.473 134.82 743.472C134.82 743.472 134.821 743.472 134.821 743.472C134.821 743.471 134.822 743.471 133.782 741.763C132.742 740.054 132.743 740.054 132.743 740.054C132.743 740.054 132.743 740.054 132.744 740.054C132.744 740.053 132.744 740.053 132.744 740.053C132.745 740.053 132.744 740.053 132.744 740.053C132.743 740.054 132.74 740.056 132.736 740.058C132.727 740.063 132.712 740.072 132.691 740.085C132.649 740.109 132.582 740.148 132.494 740.198C132.316 740.297 132.052 740.441 131.718 740.611C131.047 740.95 130.113 741.382 129.055 741.756C126.814 742.548 124.532 742.894 122.936 742.237L122.175 744.086ZM578.163 419.957C576.254 419.359 576.254 419.359 576.254 419.359C576.254 419.36 576.254 419.36 576.253 419.362C576.253 419.364 576.251 419.369 576.249 419.375C576.245 419.387 576.239 419.406 576.231 419.432C576.214 419.485 576.188 419.565 576.153 419.672C576.083 419.887 575.976 420.21 575.83 420.635C575.539 421.486 575.096 422.746 574.489 424.37C573.274 427.618 571.407 432.319 568.806 438.103C563.601 449.672 555.462 465.56 543.735 482.808C520.274 517.311 482.511 557.17 425.221 578.868L425.929 580.738L426.638 582.608C484.928 560.532 523.282 520.001 547.043 485.057C558.926 467.581 567.174 451.482 572.454 439.744C575.094 433.874 576.994 429.092 578.235 425.771C578.856 424.11 579.313 422.814 579.615 421.929C579.766 421.487 579.879 421.147 579.955 420.916C579.993 420.801 580.021 420.712 580.04 420.652C580.05 420.622 580.057 420.599 580.063 420.582C580.065 420.574 580.067 420.568 580.069 420.563C580.069 420.561 580.07 420.559 580.07 420.558C580.071 420.556 580.071 420.555 578.163 419.957ZM425.929 580.738L425.221 578.868C409.214 584.93 390.397 585.88 369.613 584.796C348.739 583.708 326.434 580.623 302.987 578.744L302.827 580.738L302.668 582.732C325.708 584.577 348.552 587.704 369.405 588.791C390.35 589.883 409.84 588.97 426.638 582.608L425.929 580.738ZM510.2 838.188L510.603 836.229C467.863 827.45 422.923 807.225 380.287 789.065C337.841 770.986 297.507 754.865 264.489 754.865V756.865V758.865C296.53 758.865 336.067 774.578 378.719 792.745C421.182 810.831 466.567 831.268 509.798 840.147L510.2 838.188ZM264.489 756.865V754.865C249.79 754.865 225.071 757.3 198.468 764.579C171.873 771.856 143.241 784.017 120.859 803.572L122.175 805.078L123.491 806.584C145.255 787.569 173.258 775.624 199.523 768.437C225.78 761.253 250.145 758.865 264.489 758.865V756.865ZM122.175 805.078L120.859 803.572C109.538 813.463 103.547 824.072 101.478 834.794C99.413 845.493 101.291 856.109 105.369 865.977C113.497 885.649 130.505 902.702 143.64 912.406L144.829 910.798L146.017 909.189C133.207 899.725 116.814 883.203 109.066 864.45C105.204 855.105 103.525 845.296 105.405 835.552C107.281 825.831 112.738 815.979 123.491 806.584L122.175 805.078ZM248.806 907.893L250.154 909.37C252.528 907.203 253.779 903.414 254.085 899.457C254.399 895.411 253.766 890.776 251.941 886.534C250.109 882.278 247.044 878.349 242.461 875.883C237.865 873.41 231.941 872.515 224.598 873.984L224.99 875.945L225.382 877.906C231.993 876.584 236.938 877.453 240.565 879.405C244.206 881.364 246.719 884.52 248.266 888.115C249.819 891.724 250.364 895.706 250.097 899.148C249.824 902.679 248.736 905.249 247.457 906.416L248.806 907.893ZM224.99 875.945L224.598 873.984C219.728 874.958 216.347 877.433 214.098 880.619C211.886 883.753 210.834 887.477 210.373 890.929C209.911 894.394 210.029 897.713 210.255 900.146C210.369 901.368 210.511 902.38 210.626 903.091C210.684 903.447 210.735 903.729 210.772 903.925C210.791 904.023 210.806 904.1 210.817 904.154C210.822 904.181 210.827 904.202 210.83 904.218C210.831 904.225 210.833 904.232 210.834 904.236C210.834 904.239 210.835 904.241 210.835 904.242C210.835 904.243 210.835 904.244 210.835 904.245C210.836 904.246 210.836 904.246 212.791 903.827C214.747 903.408 214.747 903.409 214.747 903.409C214.747 903.409 214.747 903.41 214.747 903.41C214.747 903.41 214.747 903.41 214.747 903.409C214.747 903.408 214.746 903.406 214.746 903.402C214.744 903.394 214.741 903.38 214.737 903.361C214.729 903.322 214.717 903.261 214.702 903.18C214.671 903.017 214.627 902.771 214.575 902.453C214.472 901.817 214.342 900.895 214.238 899.776C214.029 897.526 213.929 894.528 214.338 891.458C214.749 888.375 215.657 885.346 217.366 882.925C219.038 880.557 221.539 878.675 225.382 877.906L224.99 875.945ZM264.489 756.865C264.199 754.887 264.198 754.887 264.197 754.887C264.196 754.887 264.195 754.887 264.193 754.888C264.189 754.888 264.183 754.889 264.176 754.89C264.162 754.892 264.141 754.895 264.113 754.899C264.058 754.908 263.976 754.92 263.868 754.936C263.654 754.969 263.336 755.018 262.923 755.084C262.095 755.216 260.881 755.414 259.329 755.682C256.225 756.217 251.767 757.032 246.341 758.15C235.491 760.384 220.749 763.832 205.197 768.687C189.655 773.539 173.245 779.815 159.088 787.72C144.965 795.607 132.88 805.228 126.246 816.867L127.984 817.858L129.721 818.848C135.828 808.133 147.177 798.953 161.038 791.213C174.865 783.491 190.99 777.313 206.389 772.505C221.778 767.701 236.384 764.284 247.147 762.067C252.527 760.96 256.942 760.153 260.009 759.623C261.543 759.359 262.739 759.163 263.55 759.035C263.956 758.97 264.265 758.922 264.472 758.891C264.575 758.875 264.653 758.863 264.705 758.855C264.731 758.852 264.75 758.849 264.762 758.847C264.769 758.846 264.773 758.845 264.776 758.845C264.777 758.845 264.778 758.845 264.779 758.844C264.78 758.844 264.78 758.844 264.489 756.865ZM144.829 910.798L143.64 912.406C146.051 914.187 148.663 915.821 151.438 917.303L152.38 915.539L153.322 913.774C150.704 912.376 148.258 910.844 146.017 909.189L144.829 910.798ZM152.38 915.539L151.438 917.303C165.501 924.813 183.899 928.509 201.853 927.528C219.801 926.548 237.552 920.877 250.154 909.37L248.806 907.893L247.457 906.416C235.734 917.12 218.97 922.587 201.635 923.534C184.306 924.481 166.654 920.894 153.322 913.774L152.38 915.539ZM127.984 817.858L126.246 816.867C109.258 846.67 115.527 871.871 126.048 889.506C131.287 898.286 137.572 905.191 142.536 909.896C145.022 912.252 147.184 914.063 148.731 915.291C149.505 915.905 150.126 916.373 150.557 916.69C150.772 916.849 150.941 916.97 151.057 917.053C151.115 917.094 151.16 917.126 151.192 917.148C151.208 917.16 151.22 917.168 151.23 917.174C151.234 917.178 151.238 917.18 151.24 917.182C151.242 917.183 151.243 917.184 151.244 917.185C151.245 917.185 151.246 917.186 152.38 915.539C153.515 913.891 153.515 913.892 153.515 913.892C153.515 913.892 153.515 913.892 153.515 913.892C153.514 913.891 153.513 913.89 153.51 913.888C153.505 913.885 153.497 913.879 153.485 913.871C153.462 913.855 153.425 913.829 153.376 913.794C153.277 913.723 153.126 913.615 152.928 913.469C152.533 913.178 151.951 912.739 151.217 912.157C149.749 910.992 147.677 909.257 145.288 906.993C140.505 902.459 134.482 895.835 129.483 887.456C119.529 870.772 113.599 847.133 129.721 818.848L127.984 817.858ZM510.2 692.969L508.583 694.146C515.261 703.328 525.222 709.442 536.834 713.686C548.441 717.93 561.846 720.359 575.591 722.079L575.839 720.094L576.088 718.11C562.441 716.402 549.389 714.017 538.207 709.93C527.028 705.843 517.865 700.108 511.818 691.793L510.2 692.969ZM575.839 720.094L575.591 722.079C588.768 723.728 602.465 724.746 615.188 726.05C627.984 727.362 639.861 728.967 649.715 731.784C659.599 734.609 667.15 738.573 671.607 744.383C675.987 750.093 677.639 757.938 674.966 769.182L676.912 769.645L678.857 770.107C681.724 758.048 680.09 748.87 674.781 741.949C669.548 735.128 661.006 730.851 650.815 727.938C640.595 725.017 628.415 723.385 615.595 722.071C602.702 720.75 589.224 719.754 576.088 718.11L575.839 720.094ZM575.839 720.094C575.672 722.087 575.672 722.087 575.672 722.087C575.673 722.087 575.673 722.087 575.674 722.087C575.676 722.088 575.679 722.088 575.684 722.088C575.692 722.089 575.706 722.09 575.724 722.092C575.76 722.095 575.814 722.099 575.887 722.106C576.031 722.119 576.248 722.138 576.532 722.165C577.1 722.219 577.937 722.301 579.008 722.415C581.149 722.643 584.223 722.997 587.943 723.501C595.386 724.511 605.396 726.12 615.687 728.52C625.995 730.923 636.5 734.099 644.974 738.216C653.542 742.377 659.59 747.286 661.676 752.914L663.552 752.219L665.427 751.523C662.775 744.371 655.489 738.875 646.722 734.618C637.862 730.314 627.031 727.057 616.595 724.624C606.143 722.187 596.002 720.558 588.48 719.538C584.717 719.027 581.605 718.669 579.431 718.437C578.344 718.322 577.491 718.238 576.908 718.183C576.617 718.156 576.393 718.135 576.241 718.122C576.165 718.115 576.107 718.11 576.068 718.107C576.048 718.105 576.033 718.104 576.023 718.103C576.018 718.102 576.014 718.102 576.011 718.102C576.01 718.102 576.009 718.101 576.008 718.101C576.007 718.101 576.006 718.101 575.839 720.094ZM676.912 769.645L675.238 768.55C664.371 785.171 640.685 809.878 607.036 825.334L607.871 827.152L608.706 828.969C643.11 813.166 667.351 787.922 678.586 770.739L676.912 769.645ZM607.871 827.152L607.036 825.334C580.587 837.483 548 843.911 510.603 836.229L510.2 838.188L509.798 840.147C548.133 848.022 581.586 841.426 608.706 828.969L607.871 827.152ZM663.552 752.219L661.676 752.914C664.318 760.038 662.585 768.031 658.044 776.302C653.514 784.554 646.35 792.77 638.722 800.099C631.11 807.412 623.122 813.759 617.028 818.283C613.983 820.544 611.417 822.344 609.615 823.578C608.714 824.195 608.004 824.67 607.521 824.99C607.28 825.15 607.095 825.271 606.972 825.351C606.91 825.391 606.864 825.421 606.833 825.441C606.818 825.451 606.807 825.458 606.799 825.463C606.796 825.465 606.793 825.467 606.792 825.468C606.791 825.469 606.79 825.469 606.79 825.469C606.79 825.469 606.79 825.469 607.871 827.152C608.952 828.834 608.953 828.834 608.954 828.833C608.955 828.833 608.956 828.832 608.957 828.831C608.959 828.83 608.963 828.827 608.967 828.824C608.977 828.819 608.99 828.81 609.007 828.799C609.041 828.777 609.091 828.744 609.157 828.702C609.288 828.616 609.48 828.49 609.729 828.325C610.228 827.995 610.955 827.508 611.874 826.879C613.713 825.62 616.321 823.79 619.412 821.495C625.589 816.909 633.72 810.452 641.493 802.983C649.25 795.531 656.74 786.99 661.55 778.227C666.351 769.484 668.647 760.207 665.427 751.523L663.552 752.219ZM425.929 580.738L426.072 582.733C461.801 580.181 520.43 584.694 563.213 594.053L563.641 592.099L564.068 590.146C520.958 580.715 461.943 576.161 425.787 578.743L425.929 580.738ZM563.641 592.099L563.213 594.053C581.855 598.131 597.254 603.081 606.44 608.64C611.064 611.438 613.792 614.201 614.799 616.791C615.715 619.148 615.349 621.757 612.665 624.859L614.177 626.168L615.689 627.477C619.084 623.554 620.11 619.413 618.527 615.342C617.034 611.503 613.372 608.159 608.511 605.218C598.727 599.298 582.779 594.239 564.068 590.146L563.641 592.099ZM563.641 592.099C563.304 594.071 563.304 594.071 563.303 594.071C563.304 594.071 563.304 594.071 563.304 594.071C563.305 594.071 563.306 594.071 563.308 594.072C563.312 594.072 563.319 594.073 563.328 594.075C563.346 594.078 563.375 594.083 563.413 594.09C563.489 594.104 563.605 594.125 563.757 594.153C564.062 594.21 564.514 594.297 565.091 594.415C566.247 594.65 567.905 595.011 569.903 595.507C573.905 596.499 579.239 598.028 584.609 600.172C589.998 602.325 595.319 605.056 599.367 608.416C603.417 611.777 606.003 615.601 606.376 619.95L608.368 619.779L610.361 619.608C609.862 613.791 606.422 609.073 601.922 605.338C597.42 601.601 591.668 598.684 586.093 596.458C580.499 594.224 574.978 592.645 570.866 591.624C568.807 591.113 567.093 590.741 565.891 590.495C565.29 590.373 564.816 590.282 564.491 590.221C564.328 590.19 564.202 590.168 564.116 590.152C564.072 590.145 564.039 590.139 564.016 590.135C564.005 590.133 563.996 590.131 563.989 590.13C563.986 590.13 563.983 590.129 563.982 590.129C563.981 590.129 563.98 590.128 563.979 590.128C563.978 590.128 563.978 590.128 563.641 592.099ZM614.177 626.168L612.844 624.677C600.045 636.119 582.114 644.794 564.477 652.207L565.252 654.05L566.027 655.894C583.694 648.469 602.172 639.582 615.51 627.659L614.177 626.168ZM565.252 654.05L564.477 652.207C547.592 659.304 530.795 665.306 519.783 671.396C514.293 674.432 509.857 677.684 507.595 681.406C506.431 683.321 505.817 685.402 505.973 687.628C506.128 689.839 507.03 692.01 508.583 694.146L510.2 692.969L511.818 691.793C510.586 690.1 510.053 688.631 509.963 687.348C509.874 686.081 510.204 684.814 511.013 683.483C512.696 680.714 516.319 677.883 521.719 674.897C532.485 668.943 548.783 663.143 566.027 655.894L565.252 654.05ZM608.368 619.779L606.376 619.95C606.448 620.792 606.124 621.982 605.119 623.56C604.132 625.108 602.621 626.825 600.686 628.649C596.82 632.292 591.515 636.132 586.098 639.656C580.697 643.17 575.256 646.326 571.159 648.605C569.112 649.743 567.405 650.661 566.21 651.294C565.613 651.61 565.145 651.855 564.826 652.02C564.667 652.102 564.546 652.165 564.464 652.207C564.424 652.228 564.393 652.244 564.373 652.254C564.363 652.259 564.356 652.263 564.351 652.265C564.348 652.267 564.347 652.267 564.345 652.268C564.345 652.268 564.345 652.268 564.344 652.269C564.344 652.269 564.344 652.269 565.252 654.05C566.161 655.832 566.161 655.832 566.162 655.832C566.162 655.832 566.163 655.831 566.163 655.831C566.165 655.83 566.167 655.829 566.17 655.828C566.176 655.825 566.185 655.82 566.196 655.814C566.218 655.803 566.251 655.786 566.294 655.764C566.379 655.72 566.505 655.655 566.669 655.57C566.997 655.4 567.475 655.15 568.083 654.829C569.297 654.185 571.029 653.254 573.104 652.1C577.249 649.794 582.776 646.59 588.28 643.009C593.768 639.438 599.305 635.446 603.429 631.56C605.489 629.618 607.259 627.645 608.492 625.708C609.707 623.801 610.541 621.711 610.361 619.608L608.368 619.779ZM309.798 299.383L309.034 301.231C324.581 307.66 340.574 314.431 356.638 321.351L357.43 319.514L358.221 317.677C342.141 310.751 326.131 303.972 310.562 297.535L309.798 299.383ZM357.43 319.514L356.638 321.351C410.987 344.761 466.152 369.864 507.734 389.116C528.524 398.741 545.917 406.903 558.111 412.659C564.209 415.536 569.006 417.812 572.279 419.369C573.916 420.147 575.171 420.745 576.017 421.149C576.44 421.351 576.761 421.504 576.976 421.607C577.083 421.658 577.164 421.697 577.218 421.722C577.245 421.735 577.265 421.745 577.279 421.752C577.286 421.755 577.291 421.757 577.294 421.759C577.296 421.76 577.297 421.76 577.298 421.761C577.299 421.761 577.299 421.761 578.163 419.957C579.026 418.153 579.026 418.153 579.025 418.153C579.024 418.152 579.023 418.152 579.021 418.151C579.017 418.149 579.012 418.147 579.005 418.143C578.992 418.137 578.971 418.127 578.944 418.114C578.89 418.088 578.808 418.049 578.7 417.997C578.485 417.895 578.163 417.741 577.74 417.539C576.892 417.134 575.635 416.535 573.997 415.756C570.721 414.198 565.92 411.921 559.819 409.041C547.617 403.282 530.215 395.116 509.415 385.486C467.816 366.226 412.615 341.107 358.221 317.677L357.43 319.514ZM357.43 319.514L358.963 318.23C349.6 307.055 340.165 293.104 333.533 278.493C326.888 263.856 323.138 248.737 324.9 235.151C326.646 221.688 333.822 209.536 349.488 200.671C365.259 191.746 389.701 186.122 425.929 186.122V184.122V182.122C389.38 182.122 364.145 187.78 347.518 197.19C330.786 206.658 322.845 219.893 320.933 234.637C319.037 249.257 323.09 265.166 329.89 280.146C336.702 295.153 346.353 309.408 355.897 320.799L357.43 319.514ZM425.929 184.122V186.122C462.397 186.122 486.954 182.491 502.561 176.457C518.209 170.408 525.312 161.724 525.745 151.532C526.165 141.658 520.234 131.169 511.92 121.549C503.536 111.85 492.405 102.663 481.705 95.3397L480.575 96.9901L479.446 98.6406C489.962 105.839 500.803 114.805 508.893 124.165C517.053 133.606 522.101 143.084 521.749 151.362C521.41 159.323 515.993 166.976 501.119 172.726C486.205 178.492 462.238 182.122 425.929 182.122V184.122ZM480.575 96.9901L481.871 95.466C473.604 88.4422 466.179 80.2617 461.661 72.454C457.08 64.5366 455.815 57.6086 458.632 52.5879C461.46 47.5484 468.96 43.4147 484.535 42.5421C499.981 41.6769 522.747 44.0648 555.071 51.3099L555.509 49.3583L555.946 47.4067C523.48 40.1298 500.298 37.6529 484.312 38.5484C468.455 39.4366 459.039 43.6894 455.144 50.6304C451.239 57.5903 453.443 66.2371 458.199 74.4572C463.019 82.7869 470.798 91.3066 479.28 98.5142L480.575 96.9901ZM510.2 223.04L508.33 223.75C517.122 246.925 538.374 253.297 554.556 260.193C562.816 263.713 569.648 267.29 573.741 272.924C577.73 278.416 579.362 286.246 576.221 298.901L578.163 299.383L580.104 299.865C583.419 286.504 581.889 277.335 576.977 270.573C572.169 263.954 564.362 260.024 556.124 256.513C539.308 249.347 520.124 243.563 512.07 222.331L510.2 223.04ZM578.163 299.383L576.221 298.901C571.403 318.323 552.487 325.897 529.446 327.048C506.555 328.191 480.632 322.881 463.746 317.605L463.149 319.514L462.553 321.423C479.701 326.781 506.121 332.218 529.646 331.043C553.02 329.876 574.595 322.068 580.104 299.865L578.163 299.383ZM463.149 319.514L464.087 317.748C457.515 314.257 448.695 307.554 443.519 298.894C440.945 294.589 439.305 289.858 439.227 284.822C439.149 279.804 440.619 274.346 444.482 268.557L442.818 267.447L441.155 266.337C436.885 272.735 435.136 278.979 435.228 284.884C435.319 290.77 437.237 296.181 440.085 300.947C445.752 310.427 455.229 317.572 462.211 321.28L463.149 319.514ZM442.818 267.447L444.482 268.557C452.07 257.187 464.494 254.267 475.117 257.131C485.802 260.012 494.259 268.6 494.259 279.966H496.259H498.259C498.259 266.355 488.128 256.497 476.159 253.269C464.128 250.025 449.832 253.335 441.155 266.337L442.818 267.447ZM496.259 279.966H494.259C494.259 285.937 492.974 289.721 491.271 292.118C489.586 294.488 487.352 295.697 485.038 296.263C482.687 296.839 480.278 296.74 478.408 296.473C477.482 296.34 476.713 296.171 476.182 296.036C475.916 295.969 475.712 295.911 475.579 295.871C475.512 295.851 475.463 295.836 475.434 295.827C475.419 295.822 475.409 295.819 475.404 295.817C475.402 295.816 475.401 295.816 475.401 295.816C475.401 295.816 475.401 295.816 475.402 295.816C475.402 295.816 475.403 295.817 475.403 295.817C475.404 295.817 475.404 295.817 474.767 297.713C474.129 299.608 474.13 299.609 474.131 299.609C474.132 299.609 474.133 299.61 474.134 299.61C474.136 299.611 474.138 299.612 474.141 299.612C474.146 299.614 474.152 299.616 474.16 299.619C474.176 299.624 474.197 299.631 474.223 299.639C474.275 299.655 474.347 299.678 474.437 299.705C474.619 299.759 474.876 299.832 475.199 299.913C475.843 300.077 476.753 300.277 477.842 300.432C480.001 300.741 482.966 300.888 485.988 300.149C489.047 299.401 492.186 297.734 494.531 294.435C496.857 291.163 498.259 286.484 498.259 279.966H496.259ZM425.929 184.122C425.664 182.139 425.663 182.139 425.662 182.139C425.661 182.14 425.66 182.14 425.659 182.14C425.656 182.14 425.652 182.141 425.647 182.141C425.638 182.143 425.623 182.145 425.605 182.147C425.569 182.152 425.515 182.16 425.445 182.17C425.305 182.189 425.099 182.219 424.832 182.259C424.297 182.339 423.514 182.46 422.515 182.625C420.516 182.957 417.65 183.469 414.162 184.192C407.192 185.637 397.72 187.929 387.733 191.317C377.756 194.702 367.203 199.202 358.102 205.084C349.015 210.958 341.237 218.302 337.026 227.43L338.842 228.268L340.658 229.106C344.433 220.923 351.534 214.093 360.274 208.444C369 202.803 379.22 198.429 389.018 195.105C398.807 191.785 408.112 189.532 414.974 188.109C418.403 187.398 421.217 186.896 423.17 186.571C424.146 186.409 424.907 186.292 425.422 186.215C425.679 186.177 425.874 186.149 426.005 186.13C426.07 186.121 426.118 186.114 426.15 186.11C426.166 186.108 426.178 186.106 426.185 186.105C426.189 186.105 426.192 186.104 426.193 186.104C426.194 186.104 426.194 186.104 426.195 186.104C426.195 186.104 426.195 186.104 425.929 184.122ZM338.842 228.268L337.026 227.43C333.011 236.132 332.281 246.362 333.329 256.658C334.379 266.971 337.229 277.507 340.535 286.936C343.844 296.373 347.631 304.759 350.588 310.782C352.067 313.795 353.341 316.222 354.247 317.899C354.7 318.737 355.061 319.388 355.31 319.832C355.434 320.053 355.531 320.223 355.597 320.339C355.63 320.396 355.655 320.44 355.672 320.47C355.681 320.486 355.688 320.497 355.692 320.505C355.695 320.509 355.697 320.512 355.698 320.515C355.699 320.516 355.699 320.517 355.699 320.517C355.7 320.518 355.7 320.519 357.43 319.514C359.159 318.51 359.159 318.51 359.159 318.51C359.159 318.509 359.159 318.509 359.158 318.508C359.158 318.507 359.156 318.505 359.155 318.502C359.151 318.496 359.146 318.486 359.138 318.473C359.123 318.447 359.1 318.407 359.07 318.354C359.008 318.247 358.917 318.086 358.797 317.873C358.558 317.447 358.208 316.815 357.766 315.997C356.881 314.361 355.632 311.98 354.178 309.019C351.269 303.093 347.552 294.859 344.31 285.612C341.065 276.357 338.315 266.145 337.308 256.253C336.3 246.345 337.055 236.915 340.658 229.106L338.842 228.268ZM480.575 96.9901C481.806 95.4135 481.807 95.4139 481.807 95.4143C481.807 95.4143 481.807 95.4145 481.807 95.4146C481.807 95.4146 481.807 95.4144 481.807 95.414C481.805 95.413 481.803 95.4109 481.799 95.4077C481.791 95.4013 481.777 95.3905 481.758 95.3753C481.72 95.3449 481.661 95.297 481.582 95.232C481.424 95.1021 481.188 94.9041 480.888 94.6415C480.287 94.1162 479.43 93.3341 478.429 92.3237C476.421 90.2984 473.854 87.3802 471.593 83.797C467.063 76.6186 463.898 67.031 468.468 56.5471L466.634 55.7479L464.801 54.9488C459.496 67.119 463.301 78.1525 468.211 85.9317C470.669 89.8273 473.439 92.972 475.588 95.1398C476.665 96.2261 477.592 97.0732 478.255 97.6528C478.587 97.9428 478.853 98.1663 479.039 98.3197C479.132 98.3964 479.205 98.4556 479.257 98.497C479.283 98.5176 479.303 98.5338 479.318 98.5455C479.325 98.5513 479.331 98.556 479.336 98.5595C479.338 98.5613 479.34 98.5628 479.341 98.564C479.342 98.5646 479.343 98.5653 479.343 98.5656C479.344 98.5662 479.345 98.5668 480.575 96.9901ZM466.634 55.7479L468.468 56.5471C470.504 51.8763 476.345 48.8031 485.058 47.1576C493.615 45.5416 504.225 45.4407 514.657 46.0543C525.065 46.6666 535.181 47.9823 542.705 49.1474C546.464 49.7295 549.57 50.2731 551.733 50.6707C552.815 50.8695 553.661 51.0318 554.235 51.144C554.522 51.2001 554.741 51.2437 554.888 51.2732C554.961 51.2879 555.016 51.299 555.053 51.3065C555.071 51.3102 555.084 51.3129 555.093 51.3147C555.098 51.3156 555.101 51.3163 555.103 51.3167C555.104 51.3169 555.104 51.317 555.105 51.3171C555.105 51.3172 555.105 51.3172 555.509 49.3583C555.912 47.3994 555.911 47.3993 555.91 47.3991C555.91 47.3989 555.909 47.3987 555.907 47.3984C555.904 47.3978 555.9 47.397 555.895 47.396C555.885 47.3938 555.87 47.3907 555.85 47.3867C555.81 47.3787 555.752 47.3669 555.675 47.3515C555.522 47.3207 555.297 47.2758 555.003 47.2183C554.415 47.1034 553.554 46.9383 552.456 46.7366C550.261 46.3332 547.118 45.7832 543.317 45.1945C535.719 44.0179 525.469 42.6834 514.892 42.0612C504.34 41.4405 493.349 41.5211 484.316 43.2271C475.44 44.9034 467.703 48.2924 464.801 54.9488L466.634 55.7479ZM641.478 184.122L641.552 182.123C631.847 181.763 620.379 181.675 608.309 182.033L608.368 184.032L608.427 186.031C620.407 185.676 631.786 185.764 641.404 186.12L641.478 184.122ZM608.368 184.032L608.309 182.033C583.551 182.766 556.083 185.38 536.103 191.457C526.145 194.485 517.782 198.45 512.595 203.689C509.974 206.336 508.119 209.354 507.33 212.771C506.54 216.196 506.857 219.867 508.33 223.75L510.2 223.04L512.07 222.331C510.833 219.071 510.642 216.21 511.228 213.67C511.816 211.122 513.224 208.739 515.437 206.504C519.917 201.979 527.507 198.252 537.267 195.284C556.725 189.366 583.761 186.762 608.427 186.031L608.368 184.032ZM608.368 184.032C608.65 186.012 608.65 186.012 608.651 186.012C608.651 186.012 608.652 186.012 608.652 186.012C608.654 186.011 608.656 186.011 608.658 186.011C608.662 186.01 608.669 186.009 608.677 186.008C608.694 186.006 608.718 186.002 608.75 185.997C608.814 185.988 608.907 185.974 609.029 185.956C609.272 185.919 609.628 185.864 610.085 185.79C611 185.643 612.322 185.42 613.957 185.119C617.227 184.516 621.759 183.595 626.811 182.325C636.849 179.801 649.191 175.837 657.7 170.096L656.581 168.438L655.462 166.78C647.567 172.107 635.803 175.94 625.836 178.446C620.885 179.691 616.439 180.593 613.232 181.185C611.629 181.481 610.337 181.698 609.449 181.841C609.005 181.913 608.661 181.966 608.43 182.001C608.315 182.018 608.228 182.031 608.17 182.04C608.141 182.044 608.119 182.047 608.105 182.049C608.098 182.05 608.093 182.051 608.09 182.051C608.089 182.052 608.088 182.052 608.087 182.052C608.087 182.052 608.086 182.052 608.086 182.052C608.086 182.052 608.086 182.052 608.368 184.032ZM555.509 49.3583L555.071 51.3099C614.72 64.6796 647.586 91.4322 661.955 117.135L663.701 116.159L665.447 115.183C650.373 88.2211 616.368 60.9496 555.946 47.4067L555.509 49.3583ZM663.701 116.159L661.955 117.135C671.552 134.301 672.896 150.953 668.644 163.034C664.419 175.034 654.688 182.61 641.552 182.123L641.478 184.122L641.404 186.12C656.482 186.679 667.676 177.827 672.417 164.362C677.129 150.977 675.478 133.126 665.447 115.183L663.701 116.159ZM656.581 168.438L657.7 170.096C662.158 167.087 664.719 161.959 666.167 156.359C667.624 150.726 668.032 144.319 667.952 138.351C667.872 132.366 667.3 126.728 666.75 122.594C666.475 120.524 666.204 118.825 666.002 117.64C665.901 117.047 665.817 116.583 665.758 116.265C665.728 116.106 665.704 115.983 665.688 115.899C665.68 115.857 665.674 115.825 665.669 115.803C665.667 115.792 665.665 115.783 665.664 115.777C665.664 115.774 665.663 115.772 665.663 115.77C665.663 115.769 665.662 115.768 665.662 115.768C665.662 115.767 665.662 115.766 663.701 116.159C661.74 116.552 661.74 116.552 661.74 116.552C661.74 116.552 661.74 116.552 661.74 116.552C661.74 116.553 661.74 116.554 661.741 116.556C661.742 116.56 661.743 116.567 661.745 116.576C661.748 116.594 661.754 116.622 661.761 116.659C661.776 116.734 661.797 116.848 661.825 116.998C661.881 117.297 661.962 117.742 662.059 118.313C662.254 119.456 662.517 121.106 662.785 123.121C663.322 127.155 663.875 132.626 663.952 138.404C664.03 144.198 663.626 150.209 662.295 155.358C660.955 160.54 658.752 164.56 655.462 166.78L656.581 168.438ZM442.818 267.447C443.806 269.187 443.805 269.187 443.805 269.187L443.805 269.187C443.805 269.187 443.805 269.187 443.806 269.187C443.807 269.186 443.809 269.185 443.813 269.183C443.819 269.179 443.83 269.173 443.845 269.164C443.876 269.147 443.923 269.121 443.987 269.086C444.115 269.016 444.308 268.912 444.56 268.779C445.066 268.514 445.809 268.136 446.746 267.691C448.622 266.801 451.261 265.652 454.31 264.619C460.492 262.523 468.002 261.025 474.24 262.727L474.767 260.797L475.293 258.868C467.865 256.842 459.401 258.669 453.026 260.83C449.795 261.925 447.01 263.138 445.031 264.077C444.04 264.547 443.249 264.95 442.701 265.238C442.427 265.382 442.214 265.497 442.067 265.577C441.994 265.617 441.937 265.649 441.897 265.671C441.878 265.682 441.862 265.691 441.851 265.697C441.846 265.7 441.841 265.702 441.838 265.704C441.836 265.705 441.835 265.706 441.834 265.707C441.833 265.707 441.832 265.707 441.832 265.707C441.832 265.708 441.831 265.708 442.818 267.447ZM474.767 260.797L474.24 262.727C483.37 265.217 488.361 269.733 491.078 273.51C492.447 275.413 493.257 277.156 493.722 278.404C493.955 279.028 494.1 279.526 494.185 279.857C494.228 280.021 494.255 280.144 494.271 280.219C494.279 280.257 494.284 280.282 494.286 280.295C494.287 280.301 494.288 280.305 494.288 280.305C494.288 280.305 494.288 280.304 494.288 280.302C494.287 280.301 494.287 280.3 494.287 280.299C494.287 280.299 494.287 280.298 494.287 280.297C494.287 280.296 494.286 280.295 496.259 279.966C498.232 279.637 498.232 279.636 498.231 279.635C498.231 279.634 498.231 279.633 498.231 279.632C498.231 279.63 498.23 279.627 498.23 279.625C498.229 279.62 498.228 279.614 498.227 279.607C498.224 279.594 498.221 279.577 498.218 279.557C498.21 279.517 498.2 279.463 498.186 279.398C498.158 279.266 498.117 279.084 498.058 278.857C497.942 278.405 497.756 277.773 497.471 277.008C496.901 275.479 495.933 273.41 494.325 271.174C491.088 266.674 485.332 261.606 475.293 258.868L474.767 260.797Z" fill="url(#paint0_linear_739_857)"/>
<defs>
<linearGradient id="paint0_linear_739_857" x1="-52.0882" y1="345.605" x2="605.464" y2="278.223" gradientUnits="userSpaceOnUse">
<stop stop-color="#AFF500"/>
<stop offset="0.0001" stop-color="#AFF500"/>
<stop offset="0.506944" stop-color="#00D8F5"/>
<stop offset="1" stop-color="#784EF4"/>
</linearGradient>
</defs>
</svg>
