<svg width="64" height="64" viewBox="0 0 64 64" fill="none" xmlns="http://www.w3.org/2000/svg">
<path d="M1 48.1739H63V57.6087C63 60.5862 60.5862 63 57.6087 63H6.3913C3.41377 63 1 60.5862 1 57.6087V48.1739Z" fill="#2371B2"/>
<path d="M22.6168 21.9163H21.6168V22.9163H22.6168V21.9163ZM31.8969 21.9163H32.8969V20.9163H31.8969V21.9163ZM31.8969 22.9146V23.9146H32.8969V22.9146H31.8969ZM13.1304 28.1063H12.1304H13.1304ZM13.1304 35.8937H14.1304H13.1304ZM21.5856 41.0853V42.0853H22.5856V41.0853H21.5856ZM41.3832 42.0838H42.3832V41.0838H41.3832V42.0838ZM32.1031 42.0837H31.1031V43.0837H32.1031V42.0837ZM32.1031 41.0854V40.0854H31.1031V41.0854H32.1031ZM45.5077 41.0854V42.0854V41.0854ZM42.4144 22.9147V21.9147H41.4144V22.9147H42.4144ZM22.6168 36.8921H21.6168H22.6168ZM35.4027 46.277L36.4027 46.277V46.277H35.4027ZM2 6.3913C2 3.96605 3.96605 2 6.3913 2V0C2.86148 0 0 2.86148 0 6.3913H2ZM2 57.6087V6.3913H0V57.6087H2ZM6.3913 62C3.96605 62 2 60.0339 2 57.6087H0C0 61.1385 2.86148 64 6.3913 64V62ZM57.6087 62H6.3913V64H57.6087V62ZM62 57.6087C62 60.0339 60.0339 62 57.6087 62V64C61.1385 64 64 61.1385 64 57.6087H62ZM62 6.3913V57.6087H64V6.3913H62ZM57.6087 2C60.0339 2 62 3.96605 62 6.3913H64C64 2.86148 61.1385 0 57.6087 0V2ZM6.3913 2H57.6087V0H6.3913V2ZM23.6168 18.3221C23.6168 16.0373 25.539 14.1304 27.9786 14.1304V12.1304C24.4957 12.1304 21.6168 14.8724 21.6168 18.3221H23.6168ZM23.6168 21.9163V18.3221H21.6168V21.9163H23.6168ZM31.8969 20.9163H22.6168V22.9163H31.8969V20.9163ZM32.8969 22.9146V21.9163H30.8969V22.9146H32.8969ZM18.4923 23.9146H31.8969V21.9146H18.4923V23.9146ZM14.1304 28.1063C14.1304 25.8215 16.0526 23.9146 18.4923 23.9146V21.9146C15.0094 21.9146 12.1304 24.6566 12.1304 28.1063H14.1304ZM14.1304 35.8937L14.1304 28.1063H12.1304L12.1304 35.8937H14.1304ZM18.4923 40.0853C16.0526 40.0853 14.1304 38.1785 14.1304 35.8937H12.1304C12.1304 39.3434 15.0094 42.0853 18.4923 42.0853V40.0853ZM21.5856 40.0853H18.4923V42.0853H21.5856V40.0853ZM20.5856 36.6924V41.0853H22.5856V36.6924H20.5856ZM26.9475 30.5008C23.4646 30.5008 20.5856 33.2427 20.5856 36.6924H22.5856C22.5856 34.4076 24.5079 32.5008 26.9475 32.5008V30.5008ZM36.8463 30.5008H26.9475V32.5008H36.8463V30.5008ZM40.3832 27.1079C40.3832 28.9516 38.8303 30.5008 36.8463 30.5008V32.5008C39.8736 32.5008 42.3832 30.1165 42.3832 27.1079H40.3832ZM40.3832 18.3221V27.1079H42.3832V18.3221H40.3832ZM36.0214 14.1304C38.461 14.1304 40.3832 16.0373 40.3832 18.3221H42.3832C42.3832 14.8724 39.5043 12.1304 36.0214 12.1304V14.1304ZM27.9786 14.1304H36.0214V12.1304H27.9786V14.1304ZM27.5973 17.723C27.5973 18.1331 27.2447 18.5201 26.7413 18.5201V20.5201C28.2879 20.5201 29.5973 19.298 29.5973 17.723H27.5973ZM26.7413 16.9259C27.2447 16.9259 27.5973 17.313 27.5973 17.723H29.5973C29.5973 16.1481 28.2879 14.9259 26.7413 14.9259V16.9259ZM25.8852 17.723C25.8852 17.313 26.2378 16.9259 26.7413 16.9259V14.9259C25.1946 14.9259 23.8852 16.1481 23.8852 17.723H25.8852ZM26.7413 18.5201C26.2378 18.5201 25.8852 18.1331 25.8852 17.723H23.8852C23.8852 19.298 25.1946 20.5201 26.7413 20.5201V18.5201ZM40.3832 45.678C40.3832 47.9628 38.461 49.8696 36.0214 49.8696V51.8696C39.5043 51.8696 42.3832 49.1277 42.3832 45.678H40.3832ZM40.3832 42.0838V45.678H42.3832V42.0838H40.3832ZM32.1031 43.0837L41.3832 43.0838V41.0838L32.1031 41.0837V43.0837ZM31.1031 41.0854V42.0837H33.1031V41.0854H31.1031ZM45.5077 40.0854L32.1031 40.0854V42.0854L45.5077 42.0854V40.0854ZM49.8696 35.8937C49.8696 38.1785 47.9474 40.0854 45.5077 40.0854V42.0854C48.9906 42.0854 51.8696 39.3434 51.8696 35.8937H49.8696ZM49.8696 28.1063V35.8937H51.8696V28.1063H49.8696ZM45.5077 23.9147C47.9474 23.9147 49.8696 25.8215 49.8696 28.1063H51.8696C51.8696 24.6566 48.9906 21.9147 45.5077 21.9147V23.9147ZM42.4144 23.9147H45.5077V21.9147H42.4144V23.9147ZM43.4144 27.3076V22.9147H41.4144V27.3076H43.4144ZM37.0525 33.4992C40.5354 33.4992 43.4144 30.7573 43.4144 27.3076H41.4144C41.4144 29.5924 39.4922 31.4992 37.0525 31.4992V33.4992ZM27.1537 33.4992H37.0525V31.4992H27.1537V33.4992ZM23.6168 36.8921C23.6168 35.0484 25.1697 33.4992 27.1537 33.4992V31.4992C24.1264 31.4992 21.6168 33.8835 21.6168 36.8921H23.6168ZM23.6168 45.6779V36.8921H21.6168V45.6779H23.6168ZM27.9786 49.8696C25.539 49.8696 23.6168 47.9628 23.6168 45.6779H21.6168C21.6168 49.1277 24.4957 51.8696 27.9786 51.8696V49.8696ZM36.0214 49.8696H27.9786V51.8696H36.0214V49.8696ZM36.4027 46.277C36.4027 45.8669 36.7553 45.4799 37.2588 45.4799V43.4799C35.7121 43.4799 34.4027 44.702 34.4027 46.277H36.4027ZM37.2588 47.0741C36.7553 47.0741 36.4027 46.687 36.4027 46.277L34.4027 46.277C34.4027 47.8519 35.7121 49.0741 37.2588 49.0741V47.0741ZM38.1148 46.277C38.1148 46.6871 37.7622 47.0741 37.2588 47.0741V49.0741C38.8054 49.0741 40.1148 47.8519 40.1148 46.277H38.1148ZM37.2588 45.4799C37.7622 45.4799 38.1148 45.8669 38.1148 46.277H40.1148C40.1148 44.702 38.8054 43.4799 37.2588 43.4799V45.4799Z" fill="white"/>
</svg>
