<svg width="62" height="62" viewBox="0 0 62 62" fill="none" xmlns="http://www.w3.org/2000/svg">
<path d="M0 40H62V56.6087C62 59.5862 59.5862 62 56.6087 62H5.3913C2.41377 62 0 59.5862 0 56.6087V40Z" fill="#53C1DE"/>
<mask id="path-2-inside-1_262_189" fill="white">
<path fill-rule="evenodd" clip-rule="evenodd" d="M5.3913 0C2.41377 0 0 2.41377 0 5.3913V56.6087C0 59.5862 2.41377 62 5.3913 62H56.6087C59.5862 62 62 59.5862 62 56.6087V5.3913C62 2.41377 59.5862 0 56.6087 0H5.3913ZM41.0688 14.0041C44.4476 15.8929 43.4891 21.4638 42.7266 24.468C45.813 25.3287 51.2174 27.2038 51.2174 30.9675C51.2174 34.7096 45.8359 36.6892 42.8141 37.5538C43.5935 40.5944 44.4724 46.0907 41.0981 47.9845C37.7346 49.8723 33.4003 46.3469 31.0746 44.1712C28.7424 46.3578 24.2572 49.8604 20.8688 47.966C17.5028 46.0834 18.4876 40.6831 19.2698 37.6433C16.1526 36.7806 10.7826 34.757 10.7826 30.9675C10.7826 27.1673 16.1582 25.3073 19.294 24.4437C18.5146 21.4207 17.4779 15.9421 20.8396 14.0553C24.2155 12.1606 28.7147 15.7486 31.0188 17.8899C33.3296 15.727 37.7059 12.1236 41.0688 14.0041ZM40.2961 30.9759C41.1411 32.7014 41.8318 34.3717 42.3436 35.9424C44.7271 35.2574 49.4902 33.79 49.4902 30.9675C49.4902 28.1713 44.5266 26.7176 42.264 26.0816C41.7665 27.6423 41.1026 29.2911 40.2961 30.9759ZM32.2775 42.9699C33.9951 44.5721 37.723 47.9435 40.2326 46.5351C42.7533 45.1202 41.6918 40.1294 41.1432 37.9787C39.4684 38.354 37.6217 38.629 35.6668 38.7971C34.5556 40.3569 33.4169 41.7616 32.2775 42.9699ZM20.9446 38.0536C20.3691 40.2928 19.2219 45.1118 21.7318 46.5149C24.2535 47.9247 28.4058 44.3445 29.8646 42.9763C28.6839 41.7477 27.5123 40.3448 26.3937 38.8184C24.4342 38.6644 22.6008 38.4088 20.9446 38.0536ZM19.7578 26.057C17.4437 26.6914 12.5098 28.1345 12.5098 30.9675C12.5098 33.8023 17.5267 35.4177 19.7333 36.03C20.244 34.4156 20.9173 32.7206 21.7286 31.0083C20.9276 29.3211 20.2639 27.6527 19.7578 26.057ZM29.8084 19.0854C28.1355 17.535 24.2252 14.0904 21.705 15.5048C19.1875 16.9176 20.3404 21.5931 20.9683 24.0313C22.6418 23.6637 24.4622 23.3892 26.3639 23.2183C27.4729 21.7008 28.6337 20.3084 29.8084 19.0854ZM40.5894 25.6635C39.4287 25.4065 38.1927 25.1966 36.9025 25.0387C37.7578 26.3387 38.5537 27.6753 39.2952 29.0394C39.8067 27.8786 40.241 26.7463 40.5894 25.6635ZM33.3988 23.0673C32.6139 22.0535 31.816 21.119 31.0193 20.2822C30.2101 21.1288 29.4054 22.0619 28.6198 23.0663C30.2119 22.994 31.8067 22.9944 33.3988 23.0673ZM21.4348 25.6458C21.7862 26.7441 22.2166 27.8814 22.7196 29.0381C23.4483 27.6688 24.2428 26.3327 25.1006 25.0356C23.8187 25.1909 22.5885 25.3954 21.4348 25.6458ZM21.411 36.4381C22.5643 36.6816 23.8132 36.8757 25.1374 37.019C24.2669 35.7096 23.4603 34.3605 22.7216 32.9771C22.2078 34.1586 21.768 35.3204 21.411 36.4381ZM28.6343 38.9482C29.4319 39.9672 30.2484 40.9146 31.0671 41.7711C31.8584 40.9264 32.6535 39.9776 33.4409 38.9401C31.8399 39.0094 30.2356 39.0092 28.6343 38.9482ZM40.6695 36.3656C40.3077 35.2668 39.8521 34.1113 39.3117 32.9169C38.5678 34.307 37.7594 35.6645 36.8976 36.989C38.2314 36.8339 39.4971 36.625 40.6695 36.3656ZM27.339 37.2059C29.7891 37.3599 32.2537 37.3617 34.7028 37.192C36.0672 35.2049 37.3039 33.1312 38.3802 30.984C37.291 28.8551 36.0625 26.7909 34.6889 24.8223C32.2371 24.6412 29.7702 24.6416 27.3183 24.8213C25.9327 26.79 24.7024 28.8595 23.6378 31.0078C24.7076 33.1605 25.9468 35.2341 27.339 37.2059ZM41.0541 24.0487C41.6048 21.8715 42.7269 16.8647 40.2061 15.455C37.7096 14.059 33.9241 17.5007 32.2297 19.0845C33.3854 20.2918 34.5366 21.6866 35.6477 23.2205C37.5549 23.394 39.3766 23.6734 41.0541 24.0487ZM31 27.4667C32.9942 27.4667 34.6107 29.0342 34.6107 30.9675C34.6107 32.9011 32.9942 34.4685 31 34.4685C29.006 34.4685 27.3893 32.9011 27.3893 30.9675C27.3893 29.0342 29.006 27.4667 31 27.4667Z"/>
</mask>
<path d="M42.7266 24.468L40.7881 23.976L40.3074 25.8697L42.1894 26.3945L42.7266 24.468ZM41.0688 14.0041L40.0927 15.7497L40.0929 15.7499L41.0688 14.0041ZM42.8141 37.5538L42.2639 35.6309L40.3937 36.166L40.8767 38.0504L42.8141 37.5538ZM41.0981 47.9845L42.077 49.7286L42.077 49.7286L41.0981 47.9845ZM31.0746 44.1712L32.4409 42.7107L31.0731 41.4311L29.7067 42.7122L31.0746 44.1712ZM20.8688 47.966L19.8925 49.7115L19.8928 49.7117L20.8688 47.966ZM19.2698 37.6433L21.2067 38.1418L21.6962 36.2396L19.8033 35.7158L19.2698 37.6433ZM19.294 24.4437L19.825 26.372L21.7218 25.8496L21.2307 23.9444L19.294 24.4437ZM20.8396 14.0553L19.8607 12.3112L19.8607 12.3112L20.8396 14.0553ZM31.0188 17.8899L29.6573 19.3549L31.0236 20.6248L32.3855 19.3501L31.0188 17.8899ZM42.3436 35.9424L40.442 36.562L41.0402 38.398L42.8961 37.8646L42.3436 35.9424ZM40.2961 30.9759L38.4921 30.1123L38.074 30.9857L38.4999 31.8555L40.2961 30.9759ZM42.264 26.0816L42.8052 24.1562L40.9452 23.6334L40.3585 25.4742L42.264 26.0816ZM40.2326 46.5351L41.2114 48.2792L41.2115 48.2791L40.2326 46.5351ZM32.2775 42.9699L30.8224 41.5978L29.4429 43.0607L30.9132 44.4323L32.2775 42.9699ZM41.1432 37.9787L43.0812 37.4844L42.6011 35.6024L40.7059 36.0271L41.1432 37.9787ZM35.6668 38.7971L35.4955 36.8045L34.5744 36.8837L34.0379 37.6366L35.6668 38.7971ZM21.7318 46.5149L20.7559 48.2607L20.7559 48.2607L21.7318 46.5149ZM20.9446 38.0536L21.364 36.0981L19.4858 35.6953L19.0076 37.5558L20.9446 38.0536ZM29.8646 42.9763L31.2328 44.4351L32.7094 43.0502L31.3066 41.5905L29.8646 42.9763ZM26.3937 38.8184L28.0068 37.6362L27.4647 36.8965L26.5504 36.8246L26.3937 38.8184ZM19.7578 26.057L21.6643 25.4524L21.0831 23.6199L19.229 24.1282L19.7578 26.057ZM19.7333 36.03L19.1985 37.9572L21.0581 38.4733L21.6402 36.6333L19.7333 36.03ZM21.7286 31.0083L23.536 31.8647L23.9422 31.0075L23.5353 30.1506L21.7286 31.0083ZM21.705 15.5048L20.7262 13.7607V13.7607L21.705 15.5048ZM29.8084 19.0854L31.2508 20.4708L32.6611 19.0024L31.1679 17.6185L29.8084 19.0854ZM20.9683 24.0313L19.0314 24.5301L19.5127 26.3988L21.3974 25.9847L20.9683 24.0313ZM26.3639 23.2183L26.543 25.2102L27.4446 25.1292L27.9787 24.3983L26.3639 23.2183ZM36.9025 25.0387L37.1454 23.0535L32.8569 22.5287L35.2317 26.138L36.9025 25.0387ZM40.5894 25.6635L42.4933 26.2761L43.1659 24.1855L41.0217 23.7108L40.5894 25.6635ZM39.2952 29.0394L37.538 29.9945L39.4832 33.573L41.1254 29.8458L39.2952 29.0394ZM31.0193 20.2822L32.4678 18.9032L31.0223 17.3848L29.5736 18.9002L31.0193 20.2822ZM33.3988 23.0673L33.3073 25.0652L37.6282 25.2632L34.9803 21.843L33.3988 23.0673ZM28.6198 23.0663L27.0444 21.8341L24.3638 25.2615L28.7105 25.0642L28.6198 23.0663ZM22.7196 29.0381L20.8855 29.8357L22.5383 33.6365L24.4852 29.9776L22.7196 29.0381ZM21.4348 25.6458L21.0106 23.6913L18.8588 24.1582L19.5299 26.2553L21.4348 25.6458ZM25.1006 25.0356L26.7688 26.1387L29.1553 22.5297L24.86 23.0501L25.1006 25.0356ZM25.1374 37.019L24.9222 39.0074L29.1663 39.4667L26.8029 35.9118L25.1374 37.019ZM21.411 36.4381L19.5058 35.8296L18.8324 37.9379L20.9979 38.395L21.411 36.4381ZM22.7216 32.9771L24.4859 32.035L22.5372 28.3855L20.8875 32.1796L22.7216 32.9771ZM31.0671 41.7711L29.6213 43.153L31.0817 44.6811L32.5268 43.1384L31.0671 41.7711ZM28.6343 38.9482L28.7104 36.9497L24.4017 36.7855L27.0594 40.1809L28.6343 38.9482ZM33.4409 38.9401L35.0341 40.1491L37.6076 36.7579L33.3544 36.9419L33.4409 38.9401ZM39.3117 32.9169L41.1338 32.0924L39.4618 28.397L37.5482 31.9733L39.3117 32.9169ZM40.6695 36.3656L41.1016 38.3184L43.2609 37.8407L42.5692 35.7401L40.6695 36.3656ZM36.8976 36.989L35.2212 35.8983L32.8992 39.4675L37.1287 38.9756L36.8976 36.989ZM34.7028 37.192L34.841 39.1872L35.8048 39.1205L36.3516 38.3241L34.7028 37.192ZM27.339 37.2059L25.7053 38.3595L26.2577 39.1419L27.2136 39.202L27.339 37.2059ZM38.3802 30.984L40.1682 31.8802L40.6221 30.9748L40.1607 30.073L38.3802 30.984ZM34.6889 24.8223L36.329 23.6778L35.7848 22.8979L34.8363 22.8278L34.6889 24.8223ZM27.3183 24.8213L27.1721 22.8266L26.2278 22.8959L25.6828 23.6702L27.3183 24.8213ZM23.6378 31.0078L21.8458 30.1198L21.4051 31.009L21.8468 31.8978L23.6378 31.0078ZM40.2061 15.455L41.1823 13.7094L41.1822 13.7093L40.2061 15.455ZM41.0541 24.0487L40.6175 26.0004L42.516 26.4252L42.993 24.5391L41.0541 24.0487ZM32.2297 19.0845L30.864 17.6234L29.3854 19.0055L30.785 20.4675L32.2297 19.0845ZM35.6477 23.2205L34.028 24.3938L34.5612 25.13L35.4665 25.2123L35.6477 23.2205ZM2 5.3913C2 3.51834 3.51834 2 5.3913 2V-2C1.3092 -2 -2 1.3092 -2 5.3913H2ZM2 56.6087V5.3913H-2V56.6087H2ZM5.3913 60C3.51834 60 2 58.4817 2 56.6087H-2C-2 60.6908 1.3092 64 5.3913 64V60ZM56.6087 60H5.3913V64H56.6087V60ZM60 56.6087C60 58.4817 58.4817 60 56.6087 60V64C60.6908 64 64 60.6908 64 56.6087H60ZM60 5.3913V56.6087H64V5.3913H60ZM56.6087 2C58.4817 2 60 3.51834 60 5.3913H64C64 1.3092 60.6908 -2 56.6087 -2V2ZM5.3913 2H56.6087V-2H5.3913V2ZM44.6651 24.9601C45.0604 23.4028 45.5491 21.0317 45.4488 18.7306C45.3507 16.4818 44.648 13.7136 42.0447 12.2584L40.0929 15.7499C40.8684 16.1834 41.3758 17.1451 41.4526 18.9049C41.5271 20.6126 41.1553 22.5291 40.7881 23.976L44.6651 24.9601ZM53.2174 30.9675C53.2174 28.0025 51.0766 26.0703 49.1618 24.9162C47.1826 23.7233 44.8425 22.9818 43.2638 22.5415L42.1894 26.3945C43.6971 26.815 45.6024 27.4413 47.097 28.3421C48.656 29.2817 49.2174 30.1688 49.2174 30.9675H53.2174ZM43.3642 39.4766C44.9263 39.0297 47.2417 38.2581 49.2045 37.0385C51.0983 35.8617 53.2174 33.9086 53.2174 30.9675H49.2174C49.2174 31.7686 48.6457 32.6763 47.0933 33.641C45.61 34.5627 43.7237 35.2133 42.2639 35.6309L43.3642 39.4766ZM42.077 49.7286C44.6581 48.28 45.3928 45.5531 45.511 43.3041C45.6315 41.0112 45.1586 38.6455 44.7514 37.0571L40.8767 38.0504C41.249 39.5026 41.6053 41.4053 41.5165 43.0942C41.4254 44.827 40.9125 45.7953 40.1192 46.2405L42.077 49.7286ZM29.7083 45.6318C30.904 46.7504 32.7348 48.3336 34.7869 49.3825C36.7954 50.4092 39.5164 51.1657 42.077 49.7286L40.1193 46.2405C39.3162 46.6911 38.1883 46.6289 36.6074 45.8208C35.07 45.035 33.5709 43.7677 32.4409 42.7107L29.7083 45.6318ZM19.8928 49.7117C22.4564 51.1449 25.2131 50.4057 27.2575 49.3902C29.353 48.3493 31.2248 46.772 32.4425 45.6303L29.7067 42.7122C28.5923 43.7571 27.0553 45.0243 25.4781 45.8078C23.8497 46.6166 22.6695 46.6814 21.8447 46.2203L19.8928 49.7117ZM17.3329 37.1448C16.9307 38.7078 16.4267 41.0494 16.5152 43.3167C16.6024 45.5485 17.3029 48.2632 19.8925 49.7115L21.845 46.2204C21.0687 45.7862 20.5786 44.8594 20.5122 43.1605C20.4472 41.497 20.8267 39.6186 21.2067 38.1418L17.3329 37.1448ZM8.78261 30.9675C8.78261 33.9182 10.8798 35.8952 12.7939 37.0968C14.7704 38.3376 17.1112 39.121 18.7364 39.5708L19.8033 35.7158C18.3112 35.3028 16.4084 34.643 14.9206 33.709C13.3704 32.7358 12.7826 31.8062 12.7826 30.9675H8.78261ZM18.763 22.5155C17.159 22.9573 14.8103 23.6959 12.8287 24.8922C10.9029 26.0549 8.78261 27.9936 8.78261 30.9675H12.7826C12.7826 30.1412 13.3501 29.2499 14.896 28.3166C16.3861 27.417 18.2932 26.7938 19.825 26.372L18.763 22.5155ZM19.8607 12.3112C17.2602 13.7708 16.5866 16.5235 16.5149 18.7593C16.4418 21.0398 16.9578 23.3933 17.3573 24.9431L21.2307 23.9444C20.8508 22.4711 20.4588 20.5738 20.5129 18.8876C20.5684 17.1566 21.0573 16.2266 21.8185 15.7994L19.8607 12.3112ZM32.3803 16.4249C31.1866 15.3155 29.3218 13.7303 27.2336 12.6743C25.2032 11.6475 22.4338 10.8671 19.8607 12.3112L21.8184 15.7994C22.6213 15.3488 23.7894 15.415 25.4286 16.2439C27.01 17.0436 28.5469 18.323 29.6573 19.3549L32.3803 16.4249ZM42.0449 12.2585C39.4717 10.8196 36.7324 11.615 34.7278 12.6557C32.6719 13.7229 30.837 15.3206 29.6521 16.4298L32.3855 19.3501C33.5114 18.2963 35.02 17.0108 36.5708 16.2058C38.1726 15.3742 39.303 15.3082 40.0927 15.7497L42.0449 12.2585ZM44.2452 35.3228C43.6996 33.6482 42.9709 31.8905 42.0923 30.0962L38.4999 31.8555C39.3112 33.5122 39.9641 35.0952 40.442 36.562L44.2452 35.3228ZM47.4902 30.9675C47.4902 31.1553 47.2941 31.7212 45.8591 32.4974C44.5829 33.1877 42.9887 33.676 41.7912 34.0202L42.8961 37.8646C44.082 37.5238 46.0611 36.9358 47.7623 36.0156C49.3047 35.1812 51.4902 33.6022 51.4902 30.9675H47.4902ZM41.7228 28.007C42.8658 28.3283 44.4852 28.8036 45.8028 29.4889C46.4607 29.8311 46.9301 30.1693 47.2134 30.4745C47.4792 30.7608 47.4902 30.9127 47.4902 30.9675H51.4902C51.4902 29.6243 50.8807 28.5458 50.1451 27.7533C49.4271 26.9796 48.5141 26.3904 47.6484 25.9401C45.9185 25.0405 43.9248 24.471 42.8052 24.1562L41.7228 28.007ZM42.1 31.8394C42.9404 30.084 43.6403 28.3494 44.1695 26.689L40.3585 25.4742C39.8927 26.9352 39.2648 28.4983 38.4921 30.1123L42.1 31.8394ZM39.2537 44.791C39.0304 44.9163 38.3783 44.9925 36.9791 44.1618C35.7255 43.4175 34.5052 42.3129 33.6418 41.5074L30.9132 44.4323C31.7674 45.2291 33.2699 46.6114 34.937 47.6012C36.4585 48.5046 38.9252 49.5623 41.2114 48.2792L39.2537 44.791ZM39.2053 38.473C39.4721 39.5192 39.823 41.1123 39.839 42.5551C39.8571 44.1802 39.4554 44.6778 39.2536 44.791L41.2115 48.2791C43.5305 46.9775 43.8584 44.2722 43.8388 42.5105C43.8171 40.5665 43.3629 38.5888 43.0812 37.4844L39.2053 38.473ZM35.8382 40.7897C37.869 40.6151 39.8058 40.328 41.5805 39.9303L40.7059 36.0271C39.1311 36.38 37.3744 36.6429 35.4955 36.8045L35.8382 40.7897ZM33.7326 44.342C34.9446 43.0567 36.1405 41.5791 37.2957 39.9576L34.0379 37.6366C32.9706 39.1347 31.8892 40.4665 30.8224 41.5978L33.7326 44.342ZM22.7078 44.7692C22.5244 44.6667 22.1378 44.2263 22.1805 42.652C22.2187 41.2426 22.5926 39.6762 22.8817 38.5515L19.0076 37.5558C18.7212 38.6702 18.2337 40.6329 18.1819 42.5436C18.1346 44.2893 18.4294 46.96 20.7559 48.2607L22.7078 44.7692ZM28.4964 41.5175C27.8005 42.1702 26.5299 43.2828 25.194 44.0569C24.525 44.4446 23.9327 44.6919 23.4557 44.7907C22.989 44.8874 22.7874 44.8138 22.7078 44.7692L20.7559 48.2607C21.9371 48.921 23.2001 48.9285 24.2668 48.7076C25.3232 48.4888 26.3329 48.02 27.1995 47.5178C28.9349 46.5122 30.4699 45.1506 31.2328 44.4351L28.4964 41.5175ZM24.7805 40.0007C25.9461 41.5912 27.1743 43.0633 28.4225 44.3621L31.3066 41.5905C30.1934 40.4322 29.0784 39.0983 28.0068 37.6362L24.7805 40.0007ZM20.5253 40.0092C22.2822 40.3859 24.2048 40.6525 26.2369 40.8123L26.5504 36.8246C24.6635 36.6762 22.9195 36.4317 21.364 36.0981L20.5253 40.0092ZM14.5098 30.9675C14.5098 30.892 14.5291 30.7315 14.7907 30.4463C15.0711 30.1406 15.5363 29.8025 16.1909 29.4611C17.5024 28.777 19.1242 28.3045 20.2866 27.9858L19.229 24.1282C18.0772 24.4439 16.0751 25.0101 14.3411 25.9145C13.473 26.3673 12.5601 26.9608 11.8431 27.7422C11.1073 28.5443 10.5098 29.6265 10.5098 30.9675H14.5098ZM20.2681 34.1029C19.1954 33.8052 17.5724 33.2969 16.2519 32.5765C15.5911 32.2159 15.1091 31.8567 14.8133 31.5288C14.5311 31.2159 14.5098 31.0399 14.5098 30.9675H10.5098C10.5098 32.3126 11.1157 33.4015 11.8431 34.2079C12.5569 34.9993 13.4671 35.6137 14.3363 36.0879C16.0759 37.037 18.0646 37.6425 19.1985 37.9572L20.2681 34.1029ZM19.9212 30.1519C19.0754 31.937 18.3675 33.7166 17.8265 35.4268L21.6402 36.6333C22.1206 35.1146 22.7591 33.5042 23.536 31.8647L19.9212 30.1519ZM17.8514 26.6616C18.3877 28.3528 19.0862 30.1057 19.9219 31.866L23.5353 30.1506C22.7691 28.5365 22.1401 26.9527 21.6643 25.4524L17.8514 26.6616ZM22.6838 17.2489C22.7836 17.1929 22.9825 17.1265 23.4098 17.2113C23.8563 17.2999 24.4172 17.5311 25.0648 17.9098C26.3622 18.6684 27.6207 19.7848 28.4489 20.5523L31.1679 17.6185C30.3231 16.8356 28.7901 15.4545 27.084 14.4568C26.2299 13.9574 25.2362 13.4957 24.1884 13.2878C23.1215 13.0761 21.8865 13.1095 20.7262 13.7607L22.6838 17.2489ZM22.9051 23.5326C22.5856 22.2919 22.2002 20.7181 22.1561 19.3205C22.1077 17.7846 22.4853 17.3603 22.6838 17.2489L20.7262 13.7607C18.4072 15.0621 18.1025 17.6819 18.1581 19.4466C18.2181 21.3495 18.7231 23.3325 19.0314 24.5301L22.9051 23.5326ZM26.1849 21.2263C24.2083 21.4039 22.3037 21.6903 20.5391 22.0779L21.3974 25.9847C22.9799 25.6371 24.7162 25.3744 26.543 25.2102L26.1849 21.2263ZM28.3659 17.7C27.1233 18.9938 25.9055 20.4559 24.7492 22.0382L27.9787 24.3983C29.0403 22.9457 30.1442 21.6231 31.2508 20.4708L28.3659 17.7ZM36.6595 27.0239C37.8912 27.1746 39.0637 27.3741 40.1571 27.6162L41.0217 23.7108C39.7937 23.4389 38.4942 23.2186 37.1454 23.0535L36.6595 27.0239ZM41.0524 28.0842C40.286 26.6742 39.4614 25.2892 38.5732 23.9394L35.2317 26.138C36.0542 27.3881 36.8215 28.6763 37.538 29.9945L41.0524 28.0842ZM38.6855 25.0509C38.3606 26.0606 37.9518 27.128 37.465 28.233L41.1254 29.8458C41.6615 28.6292 42.1213 27.4321 42.4933 26.2761L38.6855 25.0509ZM29.5708 21.6613C30.3154 22.4434 31.0693 23.3255 31.8174 24.2917L34.9803 21.843C34.1586 20.7816 33.3166 19.7947 32.4678 18.9032L29.5708 21.6613ZM30.1952 24.2984C30.9432 23.3421 31.7049 22.4594 32.465 21.6642L29.5736 18.9002C28.7153 19.7981 27.8676 20.7817 27.0444 21.8341L30.1952 24.2984ZM33.4904 21.0694C31.8375 20.9937 30.182 20.9933 28.5291 21.0683L28.7105 25.0642C30.2419 24.9947 31.7759 24.9951 33.3073 25.0652L33.4904 21.0694ZM24.5537 28.2406C24.0752 27.1402 23.669 26.0656 23.3396 25.0362L19.5299 26.2553C19.9034 27.4225 20.358 28.6226 20.8855 29.8357L24.5537 28.2406ZM23.4323 23.9324C22.5395 25.2826 21.7125 26.6733 20.954 28.0987L24.4852 29.9776C25.1841 28.6643 25.9462 27.3828 26.7688 26.1387L23.4323 23.9324ZM21.8589 27.6003C22.9463 27.3643 24.1149 27.1696 25.3411 27.0211L24.86 23.0501C23.5226 23.2121 22.2307 23.4265 21.0106 23.6913L21.8589 27.6003ZM25.3526 35.0306C24.0856 34.8935 22.9034 34.7091 21.824 34.4812L20.9979 38.395C22.2252 38.654 23.5408 38.8579 24.9222 39.0074L25.3526 35.0306ZM20.9573 33.9191C21.7265 35.3596 22.5661 36.7638 23.4719 38.1263L26.8029 35.9118C25.9677 34.6554 25.1941 33.3614 24.4859 32.035L20.9573 33.9191ZM23.3161 37.0467C23.6508 35.9988 24.0663 34.9002 24.5557 33.7746L20.8875 32.1796C20.3494 33.4171 19.8851 34.642 19.5058 35.8296L23.3161 37.0467ZM32.5129 40.3893C31.7435 39.5842 30.9698 38.6872 30.2092 37.7155L27.0594 40.1809C27.8939 41.2472 28.7533 42.2449 29.6213 43.153L32.5129 40.3893ZM31.8477 37.731C31.0967 38.7207 30.3458 39.6156 29.6074 40.4039L32.5268 43.1384C33.371 42.2371 34.2103 41.2346 35.0341 40.1491L31.8477 37.731ZM28.5581 40.9468C30.21 41.0097 31.8687 41.01 33.5273 40.9382L33.3544 36.9419C31.8111 37.0087 30.2611 37.0088 28.7104 36.9497L28.5581 40.9468ZM37.4895 33.7413C38.0048 34.8802 38.4333 35.969 38.7699 36.9912L42.5692 35.7401C42.1821 34.5646 41.6994 33.3424 41.1338 32.0924L37.4895 33.7413ZM38.5741 38.0797C39.4645 36.711 40.3024 35.3045 41.0751 33.8604L37.5482 31.9733C36.8333 33.3096 36.0542 34.6179 35.2212 35.8983L38.5741 38.0797ZM40.2375 34.4128C39.1391 34.6558 37.941 34.8542 36.6666 35.0024L37.1287 38.9756C38.5217 38.8136 39.8551 38.5942 41.1016 38.3184L40.2375 34.4128ZM34.5646 35.1968C32.2084 35.36 29.832 35.3586 27.4645 35.2098L27.2136 39.202C29.7461 39.3611 32.2989 39.3633 34.841 39.1872L34.5646 35.1968ZM36.5923 30.0878C35.5597 32.1478 34.3703 34.1429 33.0541 36.0599L36.3516 38.3241C37.7641 36.2669 39.0481 34.1147 40.1682 31.8802L36.5923 30.0878ZM33.0487 25.9668C34.3672 27.8564 35.5494 29.842 36.5998 31.895L40.1607 30.073C39.0326 27.8681 37.7578 25.7254 36.329 23.6778L33.0487 25.9668ZM27.4645 26.8159C29.8193 26.6433 32.188 26.643 34.5415 26.8169L34.8363 22.8278C32.2861 22.6393 29.7211 22.6398 27.1721 22.8266L27.4645 26.8159ZM25.4299 31.8958C26.4491 29.8389 27.6271 27.8573 28.9538 25.9724L25.6828 23.6702C24.2382 25.7226 22.9556 27.8801 21.8458 30.1198L25.4299 31.8958ZM28.9728 36.0523C27.6391 34.1633 26.4526 32.1777 25.4289 30.1177L21.8468 31.8978C22.9626 34.1433 24.2546 36.3049 25.7053 38.3595L28.9728 36.0523ZM39.2299 17.2006C39.4144 17.3038 39.8154 17.7822 39.7823 19.4238C39.753 20.877 39.3876 22.4813 39.1152 23.5582L42.993 24.5391C43.2713 23.4389 43.7423 21.4512 43.7815 19.5043C43.8169 17.7458 43.5185 15.0159 41.1823 13.7094L39.2299 17.2006ZM33.5955 20.5456C34.4476 19.7491 35.6794 18.6289 36.9476 17.8664C38.3761 17.0076 39.0285 17.0879 39.23 17.2006L41.1822 13.7093C38.8872 12.4261 36.3986 13.5293 34.8866 14.4383C33.2145 15.4436 31.7062 16.8362 30.864 17.6234L33.5955 20.5456ZM37.2674 22.0473C36.1105 20.4502 34.9017 18.9835 33.6745 17.7015L30.785 20.4675C31.8691 21.6001 32.9626 22.923 34.028 24.3938L37.2674 22.0473ZM41.4908 22.0969C39.7205 21.7009 37.8128 21.4092 35.8289 21.2288L35.4665 25.2123C37.297 25.3788 39.0328 25.6459 40.6175 26.0004L41.4908 22.0969ZM36.6107 30.9675C36.6107 27.8718 34.0401 25.4667 31 25.4667V29.4667C31.9483 29.4667 32.6107 30.1965 32.6107 30.9675H36.6107ZM31 36.4685C34.0402 36.4685 36.6107 34.0633 36.6107 30.9675H32.6107C32.6107 31.7388 31.9482 32.4685 31 32.4685V36.4685ZM25.3893 30.9675C25.3893 34.0634 27.96 36.4685 31 36.4685V32.4685C30.0519 32.4685 29.3893 31.7388 29.3893 30.9675H25.3893ZM31 25.4667C27.9601 25.4667 25.3893 27.8718 25.3893 30.9675H29.3893C29.3893 30.1965 30.0518 29.4667 31 29.4667V25.4667Z" fill="white" mask="url(#path-2-inside-1_262_189)"/>
</svg>
