<svg width="40" height="40" viewBox="0 0 40 40" fill="none" xmlns="http://www.w3.org/2000/svg">
<path fill-rule="evenodd" clip-rule="evenodd" d="M34.0078 5.81258C30.2662 2.06615 25.2898 0.00190078 19.9876 0C9.06197 0 0.17012 8.8909 0.166318 19.8194C0.164417 23.313 1.07774 26.723 2.81221 29.7282L0 40L10.5075 37.2438C13.4024 38.8235 16.6622 39.655 19.9791 39.656H19.9876C30.9114 39.656 39.8043 30.7641 39.808 19.8356C39.8099 14.5391 37.7504 9.55998 34.0078 5.81353V5.81258ZM19.9876 36.3087H19.981C17.0252 36.3078 14.1257 35.5132 11.5957 34.0125L10.9941 33.6553L4.75861 35.2908L6.42274 29.2111L6.03117 28.5877C4.38225 25.9647 3.51074 22.9329 3.51264 19.8204C3.51644 10.7375 10.9067 3.34727 19.9944 3.34727C24.3946 3.34917 28.5307 5.06463 31.6413 8.17906C34.752 11.2925 36.4636 15.4325 36.4617 19.8337C36.4579 28.9176 29.0677 36.3078 19.9876 36.3078V36.3087ZM29.0239 23.9707C28.5288 23.7227 26.0939 22.5252 25.6396 22.3598C25.1853 22.1944 24.8556 22.1118 24.5257 22.6079C24.196 23.104 23.2466 24.2198 22.9576 24.5495C22.6687 24.8802 22.3797 24.9212 21.8846 24.673C21.3895 24.425 19.7938 23.9023 17.9016 22.2153C16.4294 20.9019 15.4352 19.2806 15.1464 18.7844C14.8575 18.2884 15.116 18.0203 15.363 17.7742C15.5854 17.5518 15.8582 17.1954 16.1062 16.9065C16.3544 16.6175 16.4361 16.4104 16.6014 16.0806C16.7668 15.7498 16.6841 15.461 16.5606 15.2129C16.437 14.9648 15.4467 12.527 15.0333 11.5358C14.6312 10.5702 14.2226 10.7014 13.9194 10.6852C13.6305 10.671 13.3007 10.6681 12.97 10.6681C12.6393 10.6681 12.1032 10.7917 11.6489 11.2878C11.1947 11.7838 9.91542 12.9823 9.91542 15.4191C9.91542 17.8559 11.6899 20.212 11.9379 20.5427C12.1859 20.8735 15.4305 25.8753 20.3982 28.0213C21.5796 28.5316 22.5024 28.8367 23.2218 29.0648C24.408 29.4421 25.4875 29.3889 26.341 29.2616C27.2924 29.119 29.2711 28.0631 29.6835 26.9065C30.096 25.7498 30.096 24.7576 29.9725 24.5514C29.849 24.3452 29.5182 24.2206 29.023 23.9726L29.0239 23.9707Z" fill="#F5F5F5"/>
</svg>
