<svg width="64" height="64" viewBox="0 0 64 64" fill="none" xmlns="http://www.w3.org/2000/svg">
<path d="M63 57.6091C62.9998 60.5864 60.5858 62.9997 57.6084 62.9997H6.3916C3.41419 62.9997 1.00021 60.5864 1 57.6091V6.3913H63V57.6091ZM15.8262 13.1306L18.5215 46.8259L32 50.8698L45.4785 46.8259L48.1738 13.1306H15.8262ZM42.7822 20.5436L42.1084 25.2604L33.3477 28.6306H41.4346L40.0869 41.4352L32 44.1306L23.9131 41.4352L23.2393 34.696H27.2822L27.9561 38.0651L32 39.4128L36.0439 38.0651L36.7178 32.6735H23.2393L22.5654 27.9567L33.3477 24.5866H22.5654L21.8916 20.5436H42.7822Z" fill="#1172B8"/>
<path d="M15.8261 13.1304V12.1304H14.7429L14.8293 13.2102L15.8261 13.1304ZM18.5217 46.8261L17.5249 46.9058L17.5794 47.5874L18.2344 47.7839L18.5217 46.8261ZM48.1739 13.1304L49.1707 13.2102L49.2571 12.1304H48.1739V13.1304ZM45.4783 46.8261L45.7656 47.7839L46.4205 47.5874L46.4751 46.9058L45.4783 46.8261ZM32 50.8696L31.7126 51.8274L32 51.9136L32.2873 51.8274L32 50.8696ZM23.2391 32.6739L22.2492 32.8153L22.3718 33.6739H23.2391V32.6739ZM36.7174 32.6739L37.7097 32.7979L37.8502 31.6739H36.7174V32.6739ZM22.5652 27.9565L22.2669 27.002L21.455 27.2558L21.5753 28.0979L22.5652 27.9565ZM33.3478 24.587L33.6461 25.5414L33.3478 23.587V24.587ZM22.5652 24.587L21.5788 24.7514L21.7181 25.587H22.5652V24.587ZM21.8913 20.5435V19.5435H20.7108L20.9049 20.7079L21.8913 20.5435ZM42.7826 20.5435L43.7726 20.6849L43.9356 19.5435H42.7826V20.5435ZM42.1087 25.2609L42.4677 26.1942L43.0156 25.9835L43.0986 25.4023L42.1087 25.2609ZM33.3478 28.6304L32.9888 27.6971L33.3478 29.6304V28.6304ZM41.4348 28.6304L42.4293 28.7351L42.5456 27.6304H41.4348V28.6304ZM40.087 41.4348L40.4032 42.3835L41.014 42.1798L41.0815 41.5395L40.087 41.4348ZM32 44.1304L31.6838 45.0791L32 45.1845L32.3162 45.0791L32 44.1304ZM23.913 41.4348L22.918 41.5343L22.9824 42.1787L23.5968 42.3835L23.913 41.4348ZM23.2391 34.6957V33.6957H22.1341L22.2441 34.7952L23.2391 34.6957ZM27.2826 34.6957L28.2632 34.4995L28.1024 33.6957H27.2826V34.6957ZM27.9565 38.0652L26.9759 38.2613L27.0898 38.8304L27.6403 39.0139L27.9565 38.0652ZM32 39.413L31.6838 40.3617L32 40.4671L32.3162 40.3617L32 39.413ZM36.0435 38.0652L36.3597 39.0139L36.9576 38.8146L37.0358 38.1893L36.0435 38.0652ZM1 6.3913H2C2 3.96605 3.96605 2 6.3913 2V1V0C2.86148 0 0 2.86148 0 6.3913H1ZM1 57.6087H2V6.3913H1H0V57.6087H1ZM6.3913 63V62C3.96605 62 2 60.0339 2 57.6087H1H0C0 61.1385 2.86148 64 6.3913 64V63ZM57.6087 63V62H6.3913V63V64H57.6087V63ZM63 57.6087H62C62 60.0339 60.0339 62 57.6087 62V63V64C61.1385 64 64 61.1385 64 57.6087H63ZM63 6.3913H62V57.6087H63H64V6.3913H63ZM57.6087 1V2C60.0339 2 62 3.96605 62 6.3913H63H64C64 2.86148 61.1385 0 57.6087 0V1ZM6.3913 1V2H57.6087V1V0H6.3913V1ZM15.8261 13.1304L14.8293 13.2102L17.5249 46.9058L18.5217 46.8261L19.5186 46.7463L16.8229 13.0507L15.8261 13.1304ZM48.1739 13.1304V12.1304H15.8261V13.1304V14.1304H48.1739V13.1304ZM45.4783 46.8261L46.4751 46.9058L49.1707 13.2102L48.1739 13.1304L47.1771 13.0507L44.4814 46.7463L45.4783 46.8261ZM32 50.8696L32.2873 51.8274L45.7656 47.7839L45.4783 46.8261L45.1909 45.8683L31.7126 49.9117L32 50.8696ZM18.5217 46.8261L18.2344 47.7839L31.7126 51.8274L32 50.8696L32.2873 49.9117L18.8091 45.8683L18.5217 46.8261ZM23.2391 32.6739V33.6739H36.7174V32.6739V31.6739H23.2391V32.6739ZM22.5652 27.9565L21.5753 28.0979L22.2492 32.8153L23.2391 32.6739L24.2291 32.5325L23.5552 27.8151L22.5652 27.9565ZM33.3478 24.587L33.0495 23.6325L22.2669 27.002L22.5652 27.9565L22.8635 28.911L33.6461 25.5414L33.3478 24.587ZM22.5652 24.587V25.587H33.3478V24.587V23.587H22.5652V24.587ZM21.8913 20.5435L20.9049 20.7079L21.5788 24.7514L22.5652 24.587L23.5516 24.4226L22.8777 20.3791L21.8913 20.5435ZM42.7826 20.5435V19.5435H21.8913V20.5435V21.5435H42.7826V20.5435ZM42.1087 25.2609L43.0986 25.4023L43.7726 20.6849L42.7826 20.5435L41.7927 20.4021L41.1187 25.1194L42.1087 25.2609ZM33.3478 28.6304L33.7068 29.5638L42.4677 26.1942L42.1087 25.2609L41.7497 24.3275L32.9888 27.6971L33.3478 28.6304ZM41.4348 28.6304V27.6304H33.3478V28.6304V29.6304H41.4348V28.6304ZM40.087 41.4348L41.0815 41.5395L42.4293 28.7351L41.4348 28.6304L40.4403 28.5257L39.0924 41.3301L40.087 41.4348ZM32 44.1304L32.3162 45.0791L40.4032 42.3835L40.087 41.4348L39.7707 40.4861L31.6838 43.1817L32 44.1304ZM23.913 41.4348L23.5968 42.3835L31.6838 45.0791L32 44.1304L32.3162 43.1817L24.2293 40.4861L23.913 41.4348ZM23.2391 34.6957L22.2441 34.7952L22.918 41.5343L23.913 41.4348L24.9081 41.3353L24.2342 34.5961L23.2391 34.6957ZM27.2826 34.6957V33.6957H23.2391V34.6957V35.6957H27.2826V34.6957ZM27.9565 38.0652L28.9371 37.8691L28.2632 34.4995L27.2826 34.6957L26.302 34.8918L26.9759 38.2613L27.9565 38.0652ZM32 39.413L32.3162 38.4644L28.2727 37.1165L27.9565 38.0652L27.6403 39.0139L31.6838 40.3617L32 39.413ZM36.0435 38.0652L35.7272 37.1165L31.6838 38.4644L32 39.413L32.3162 40.3617L36.3597 39.0139L36.0435 38.0652ZM36.7174 32.6739L35.7251 32.5499L35.0512 37.9412L36.0435 38.0652L37.0358 38.1893L37.7097 32.7979L36.7174 32.6739Z" fill="white"/>
</svg>
