<svg width="64" height="64" viewBox="0 0 64 64" fill="none" xmlns="http://www.w3.org/2000/svg">
<path d="M63 57.6084C63 60.5859 60.5859 63 57.6084 63H6.3916C3.41407 63 1 60.5859 1 57.6084V6H63V57.6084ZM26.6084 16.6045C23.631 16.6046 21.2178 18.9789 21.2178 21.9072C21.218 24.8354 23.6311 27.2089 26.6084 27.209L26.3311 27.2158C23.4825 27.3579 21.2178 29.6749 21.2178 32.5117C21.2179 35.4399 23.631 37.8134 26.6084 37.8135L26.3311 37.8203C23.4825 37.9624 21.2178 40.2794 21.2178 43.1162C21.2179 46.0445 23.631 48.4179 26.6084 48.418C29.5859 48.418 31.9999 46.0445 32 43.1162V27.209H37.3916C40.3689 27.2088 42.782 24.8354 42.7822 21.9072C42.7822 18.9789 40.369 16.6046 37.3916 16.6045H26.6084ZM37.3916 27.209C34.4141 27.209 32 29.5833 32 32.5117C32.0001 35.44 34.4142 37.8135 37.3916 37.8135C40.3689 37.8133 42.7821 35.4399 42.7822 32.5117C42.7822 29.5834 40.369 27.2091 37.3916 27.209Z" fill="#A259FF"/>
<path d="M63 57.6084L64 57.6084V57.6084H63ZM1 57.6084H0V57.6084L1 57.6084ZM26.6084 15.8262V14.8262H26.6084L26.6084 15.8262ZM21.2178 21.2178H20.2178V21.2179L21.2178 21.2178ZM26.6084 26.6084L26.633 27.6081L26.6084 25.6084L26.6084 26.6084ZM26.3311 26.6152L26.3064 25.6155L26.2934 25.6159L26.2804 25.6165L26.3311 26.6152ZM21.2178 32H20.2178V32L21.2178 32ZM26.6084 37.3916L26.633 38.3913L26.6084 36.3916L26.6084 37.3916ZM26.3311 37.3984L26.3064 36.3987L26.2934 36.3991L26.2804 36.3997L26.3311 37.3984ZM21.2178 42.7822L20.2178 42.7822V42.7822H21.2178ZM26.6084 48.1738L26.6084 49.1738H26.6084V48.1738ZM32 26.6084V25.6084H31V26.6084H32ZM42.7822 21.2178L43.7822 21.2179V21.2178H42.7822ZM37.3916 15.8262L37.3917 14.8262H37.3916V15.8262ZM32 32H31V32L32 32ZM37.3916 37.3916V38.3916H37.3917L37.3916 37.3916ZM42.7822 32L43.7822 32V32H42.7822ZM57.6084 1V2C60.0336 2 62 3.96635 62 6.3916H63H64C64 2.86178 61.1382 0 57.6084 0V1ZM63 6.3916H62V57.6084H63H64V6.3916H63ZM63 57.6084L62 57.6084C62 60.0336 60.0336 62 57.6084 62V63V64C61.1382 64 64 61.1382 64 57.6084L63 57.6084ZM57.6084 63V62H6.3916V63V64H57.6084V63ZM6.3916 63V62C3.96636 62 2.00001 60.0336 2 57.6084L1 57.6084L0 57.6084C1.23382e-05 61.1382 2.86178 64 6.3916 64V63ZM1 57.6084H2V6.3916H1H0V57.6084H1ZM1 6.3916H2C2 3.96635 3.96635 2 6.3916 2V1V0C2.86178 0 0 2.86178 0 6.3916H1ZM6.3916 1V2H57.6084V1V0H6.3916V1ZM26.6084 15.8262L26.6084 14.8262C23.0785 14.8263 20.2178 17.6882 20.2178 21.2178H21.2178H22.2178C22.2178 18.7924 24.1834 16.8263 26.6084 16.8262L26.6084 15.8262ZM21.2178 21.2178L20.2178 21.2179C20.2181 24.7473 23.0788 27.6083 26.6084 27.6084L26.6084 26.6084L26.6084 25.6084C24.1835 25.6083 22.218 23.6428 22.2178 21.2177L21.2178 21.2178ZM26.6084 26.6084L26.5838 25.6087L26.3064 25.6155L26.3311 26.6152L26.3557 27.6149L26.633 27.6081L26.6084 26.6084ZM26.3311 26.6152L26.2804 25.6165C22.9024 25.7878 20.2178 28.5805 20.2178 32H21.2178H22.2178C22.2178 29.6506 24.0626 27.7315 26.3817 27.614L26.3311 26.6152ZM21.2178 32L20.2178 32C20.2178 35.5295 23.0785 38.3915 26.6084 38.3916L26.6084 37.3916L26.6084 36.3916C24.1835 36.3915 22.2178 34.4253 22.2178 32L21.2178 32ZM26.6084 37.3916L26.5838 36.3919L26.3064 36.3987L26.3311 37.3984L26.3557 38.3981L26.633 38.3913L26.6084 37.3916ZM26.3311 37.3984L26.2804 36.3997C22.9027 36.571 20.2179 39.3626 20.2178 42.7822L21.2178 42.7822L22.2178 42.7823C22.2179 40.4332 24.0625 38.5148 26.3817 38.3972L26.3311 37.3984ZM21.2178 42.7822H20.2178C20.2178 46.3118 23.0785 49.1737 26.6084 49.1738L26.6084 48.1738L26.6084 47.1738C24.1834 47.1737 22.2178 45.2076 22.2178 42.7822H21.2178ZM26.6084 48.1738V49.1738C30.1382 49.1738 33 46.312 33 42.7822H32H31C31 45.2075 29.0336 47.1738 26.6084 47.1738V48.1738ZM32 42.7822H33V26.6084H32H31V42.7822H32ZM32 26.6084V27.6084H37.3916V26.6084V25.6084H32V26.6084ZM37.3916 26.6084L37.3917 27.6084C40.9212 27.6082 43.7819 24.7472 43.7822 21.2179L42.7822 21.2178L41.7822 21.2177C41.782 23.6427 39.8165 25.6083 37.3915 25.6084L37.3916 26.6084ZM42.7822 21.2178H43.7822C43.7822 17.6883 40.9215 14.8264 37.3917 14.8262L37.3916 15.8262L37.3915 16.8262C39.8165 16.8263 41.7822 18.7925 41.7822 21.2178H42.7822ZM37.3916 15.8262V14.8262H26.6084V15.8262V16.8262H37.3916V15.8262ZM37.3916 26.6084V25.6084C33.8618 25.6084 31 28.4702 31 32H32H33C33 29.5748 34.9664 27.6084 37.3916 27.6084V26.6084ZM32 32L31 32C31.0001 35.5297 33.8618 38.3916 37.3916 38.3916V37.3916V36.3916C34.9664 36.3916 33 34.4252 33 32L32 32ZM37.3916 37.3916L37.3917 38.3916C40.9215 38.3914 43.7822 35.5295 43.7822 32L42.7822 32L41.7822 32C41.7822 34.4253 39.8165 36.3915 37.3915 36.3916L37.3916 37.3916ZM42.7822 32H43.7822C43.7822 28.4705 40.9215 25.6086 37.3917 25.6084L37.3916 26.6084L37.3915 27.6084C39.8165 27.6085 41.7822 29.5747 41.7822 32H42.7822Z" fill="white"/>
</svg>
