<svg width="64" height="64" viewBox="0 0 64 64" fill="none" xmlns="http://www.w3.org/2000/svg">
<path d="M63 57.6084C63 60.5859 60.5859 63 57.6084 63H6.3916C3.41407 63 1 60.5859 1 57.6084V36H63V57.6084Z" fill="#EE513B"/>
<path d="M13.9194 33.9047L14.6265 33.1976L13.9194 33.9047ZM13.9194 30.0953L14.6265 30.8024L13.9194 30.0953ZM30.0953 50.0806L29.3882 50.7877L30.0953 50.0806ZM33.9047 50.0806L33.1976 49.3735L33.9047 50.0806ZM50.0806 33.9047L49.3735 33.1976L50.0806 33.9047ZM50.0806 30.0953L50.7877 29.3882L50.0806 30.0953ZM33.9047 13.9194L34.6118 13.2123V13.2123L33.9047 13.9194ZM30.0953 13.9194L29.3882 13.2123L30.0953 13.9194ZM25.2609 18.812L24.5538 18.1049L23.8467 18.812L24.5538 19.5191L25.2609 18.812ZM31.151 21.598L30.4439 22.3052L30.8706 22.7319L31.447 22.5532L31.151 21.598ZM34.7362 25.1833L33.781 24.8872L33.6024 25.4637L34.0291 25.8904L34.7362 25.1833ZM39.0796 29.5267L38.3725 30.2338L38.8049 30.6662L39.3869 30.4783L39.0796 29.5267ZM37.4389 30.99L38.35 31.4023L38.6352 30.7721L38.146 30.2829L37.4389 30.99ZM33.3947 26.9458L34.1018 26.2387L32.3947 24.5316V26.9458H33.3947ZM33.3057 27.0289L34.0128 26.3218L32.3057 24.6147V27.0289H33.3057ZM33.3057 37.495H32.3057V38.1058L32.8492 38.3847L33.3057 37.495ZM30.9891 37.3642L31.3421 38.2998L31.9891 38.0557V37.3642H30.9891ZM31.0497 37.292L30.6869 36.3602L30.6866 36.3603L31.0497 37.292ZM31.0781 37.2811L31.4312 38.2167L32.0781 37.9726V37.2811H31.0781ZM31.0781 26.9318H32.0781V26.2403L31.4311 25.9962L31.0781 26.9318ZM29.4916 23.0427L30.398 23.4651L30.6937 22.8306L30.1987 22.3356L29.4916 23.0427ZM33.3947 37.4119H32.3947V38.0227L32.9382 38.3016L33.3947 37.4119ZM37.3499 31.0731L38.2609 31.4854L38.5462 30.8552L38.057 30.366L37.3499 31.0731ZM39.1686 29.4436L38.4615 30.1507L38.8939 30.5831L39.4759 30.3952L39.1686 29.4436ZM34.8252 25.1002L33.87 24.8041L33.6914 25.3806L34.1181 25.8073L34.8252 25.1002ZM31.24 21.515L30.5329 22.2221L30.9596 22.6488L31.536 22.4701L31.24 21.515ZM26.8989 17.1739L27.606 16.4668L26.8989 15.7597L26.1918 16.4668L26.8989 17.1739ZM26.8099 17.257L27.517 16.5499L26.8099 15.8428L26.1028 16.5499L26.8099 17.257ZM25.1719 18.8951L24.4648 18.188L23.7576 18.8951L24.4648 19.6022L25.1719 18.8951ZM29.4026 23.1258L30.309 23.5482L30.6047 22.9137L30.1097 22.4187L29.4026 23.1258ZM30.9891 27.0149H31.9891V26.3234L31.3421 26.0793L30.9891 27.0149ZM1 6.3913H2C2 3.96605 3.96605 2 6.3913 2V1V0C2.86148 0 0 2.86148 0 6.3913H1ZM1 57.6087H2V6.3913H1H0V57.6087H1ZM6.3913 63V62C3.96605 62 2 60.0339 2 57.6087H1H0C0 61.1385 2.86148 64 6.3913 64V63ZM57.6087 63V62H6.3913V63V64H57.6087V63ZM63 57.6087H62C62 60.0339 60.0339 62 57.6087 62V63V64C61.1385 64 64 61.1385 64 57.6087H63ZM63 6.3913H62V57.6087H63H64V6.3913H63ZM57.6087 1V2C60.0339 2 62 3.96605 62 6.3913H63H64C64 2.86148 61.1385 0 57.6087 0V1ZM6.3913 1V2H57.6087V1V0H6.3913V1ZM13.9194 33.9047L14.6265 33.1976C13.9651 32.5362 13.9651 31.4638 14.6265 30.8024L13.9194 30.0953L13.2123 29.3882C11.7698 30.8306 11.7698 33.1694 13.2123 34.6118L13.9194 33.9047ZM30.0953 50.0806L30.8024 49.3735L14.6265 33.1976L13.9194 33.9047L13.2123 34.6118L29.3882 50.7877L30.0953 50.0806ZM33.9047 50.0806L33.1976 49.3735C32.5362 50.0349 31.4638 50.0349 30.8024 49.3735L30.0953 50.0806L29.3882 50.7877C30.8306 52.2302 33.1694 52.2302 34.6118 50.7877L33.9047 50.0806ZM50.0806 33.9047L49.3735 33.1976L33.1976 49.3735L33.9047 50.0806L34.6118 50.7877L50.7877 34.6118L50.0806 33.9047ZM50.0806 30.0953L49.3735 30.8024C50.0349 31.4638 50.0349 32.5362 49.3735 33.1976L50.0806 33.9047L50.7877 34.6118C52.2302 33.1694 52.2302 30.8306 50.7877 29.3882L50.0806 30.0953ZM33.9047 13.9194L33.1976 14.6265L49.3735 30.8024L50.0806 30.0953L50.7877 29.3882L34.6118 13.2123L33.9047 13.9194ZM30.0953 13.9194L30.8024 14.6265C31.4638 13.9651 32.5362 13.9651 33.1976 14.6265L33.9047 13.9194L34.6118 13.2123C33.1694 11.7698 30.8306 11.7698 29.3882 13.2123L30.0953 13.9194ZM13.9194 30.0953L14.6265 30.8024L30.8024 14.6265L30.0953 13.9194L29.3882 13.2123L13.2123 29.3882L13.9194 30.0953ZM26.8129 17.26L26.1058 16.5529L24.5538 18.1049L25.2609 18.812L25.968 19.5191L27.52 17.9671L26.8129 17.26ZM31.151 21.598L31.8581 20.8909L27.52 16.5529L26.8129 17.26L26.1058 17.9671L30.4439 22.3052L31.151 21.598ZM32 21.4701V20.4701C31.6029 20.4701 31.218 20.5303 30.8549 20.6429L31.151 21.598L31.447 22.5532C31.6205 22.4994 31.8059 22.4701 32 22.4701V21.4701ZM34.8641 24.3342H35.8641C35.8641 22.2001 34.1341 20.4701 32 20.4701V21.4701V22.4701C33.0295 22.4701 33.8641 23.3047 33.8641 24.3342H34.8641ZM34.7362 25.1833L35.6914 25.4793C35.8039 25.1163 35.8641 24.7314 35.8641 24.3342H34.8641H33.8641C33.8641 24.5283 33.8348 24.7137 33.781 24.8872L34.7362 25.1833ZM39.0796 29.5267L39.7867 28.8195L35.4433 24.4762L34.7362 25.1833L34.0291 25.8904L38.3725 30.2338L39.0796 29.5267ZM39.9606 29.3886V28.3886C39.5476 28.3886 39.1479 28.4537 38.7723 28.575L39.0796 29.5267L39.3869 30.4783C39.5664 30.4203 39.7588 30.3886 39.9606 30.3886V29.3886ZM42.8247 32.2527H43.8247C43.8247 30.1186 42.0947 28.3886 39.9606 28.3886V29.3886V30.3886C40.9901 30.3886 41.8247 31.2232 41.8247 32.2527H42.8247ZM41.9586 34.3049L42.6562 35.0213C43.3759 34.3205 43.8247 33.3382 43.8247 32.2527H42.8247H41.8247C41.8247 32.7766 41.6099 33.2486 41.2609 33.5884L41.9586 34.3049ZM40.0496 35.0338V36.0338C41.0384 36.0338 41.9425 35.6611 42.6254 35.0501L41.9586 34.3049L41.2918 33.5596C40.9614 33.8552 40.5276 34.0338 40.0496 34.0338V35.0338ZM37.1855 32.1696H36.1855C36.1855 34.3037 37.9155 36.0338 40.0496 36.0338V35.0338V34.0338C39.0201 34.0338 38.1855 33.1992 38.1855 32.1696H37.1855ZM37.4389 30.99L36.5279 30.5777C36.3076 31.0644 36.1855 31.6041 36.1855 32.1696H37.1855H38.1855C38.1855 31.8941 38.2446 31.6351 38.35 31.4023L37.4389 30.99ZM33.3947 26.9458L32.6876 27.6529L36.7318 31.6971L37.4389 30.99L38.146 30.2829L34.1018 26.2387L33.3947 26.9458ZM33.3947 27.1179H34.3947V26.9458H33.3947H32.3947V27.1179H33.3947ZM33.3057 27.0289L32.5986 27.736L32.6876 27.825L33.3947 27.1179L34.1018 26.4108L34.0128 26.3218L33.3057 27.0289ZM33.3057 37.495H34.3057V27.0289H33.3057H32.3057V37.495H33.3057ZM34.8641 40.0448H35.8641C35.8641 38.5438 35.0081 37.2445 33.7622 36.6053L33.3057 37.495L32.8492 38.3847C33.4539 38.695 33.8641 39.3229 33.8641 40.0448H34.8641ZM33.998 42.0969L34.6957 42.8134C35.4153 42.1126 35.8641 41.1303 35.8641 40.0448H34.8641H33.8641C33.8641 40.5687 33.6493 41.0407 33.3004 41.3805L33.998 42.0969ZM32.089 42.8259V43.8259C33.0778 43.8259 33.9819 43.4532 34.6648 42.8422L33.998 42.0969L33.3313 41.3517C33.0008 41.6473 32.567 41.8259 32.089 41.8259V42.8259ZM29.2249 39.9618H28.2249C28.2249 42.0959 29.9549 43.8259 32.089 43.8259V42.8259V41.8259C31.0595 41.8259 30.2249 40.9913 30.2249 39.9618H29.2249ZM30.091 37.9096L29.3934 37.1932C28.6737 37.8939 28.2249 38.8763 28.2249 39.9618H29.2249H30.2249C30.2249 39.4378 30.4397 38.9659 30.7887 38.626L30.091 37.9096ZM30.9891 37.3642L30.6361 36.4286C30.1853 36.5987 29.7755 36.8501 29.4243 37.1643L30.091 37.9096L30.7578 38.6549C30.9282 38.5024 31.126 38.3814 31.3421 38.2998L30.9891 37.3642ZM30.9891 37.3164H29.9891V37.3642H30.9891H31.9891V37.3164H30.9891ZM31.0497 37.292L30.6866 36.3603C30.6592 36.3709 30.6319 36.3819 30.6048 36.3932L30.9891 37.3164L31.3735 38.2396C31.3865 38.2342 31.3996 38.2289 31.4128 38.2238L31.0497 37.292ZM31.0781 37.2811L30.7251 36.3455C30.7124 36.3503 30.6997 36.3552 30.6869 36.3602L31.0497 37.292L31.4125 38.2239C31.4186 38.2215 31.4248 38.2191 31.4312 38.2167L31.0781 37.2811ZM31.0781 26.9318H30.0781V37.2811H31.0781H32.0781V26.9318H31.0781ZM29.2249 24.2512H28.2249C28.2249 25.9067 29.2656 27.3168 30.7251 27.8674L31.0781 26.9318L31.4311 25.9962C30.7247 25.7296 30.2249 25.0475 30.2249 24.2512H29.2249ZM29.4916 23.0427L28.5852 22.6203C28.3537 23.117 28.2249 23.6704 28.2249 24.2512H29.2249H30.2249C30.2249 23.9683 30.2872 23.7027 30.398 23.4651L29.4916 23.0427ZM25.2609 18.812L24.5538 19.5191L28.7845 23.7498L29.4916 23.0427L30.1987 22.3356L25.968 18.1049L25.2609 18.812ZM30.091 37.9096L30.7887 38.626C30.9568 38.4623 31.1551 38.3305 31.3734 38.2396L30.9891 37.3164L30.6048 36.3932C30.1499 36.5826 29.7397 36.8559 29.3934 37.1932L30.091 37.9096ZM29.1359 40.0448H30.1359C30.1359 39.4927 30.3747 38.9977 30.7578 38.6549L30.091 37.9096L29.4243 37.1643C28.635 37.8705 28.1359 38.9 28.1359 40.0448H29.1359ZM32 42.909V41.909C30.9705 41.909 30.1359 41.0744 30.1359 40.0448H29.1359H28.1359C28.1359 42.1789 29.8659 43.909 32 43.909V42.909ZM33.998 42.0969L33.3004 41.3805C32.9635 41.7085 32.5062 41.909 32 41.909V42.909V43.909C33.0481 43.909 34.0005 43.4903 34.6957 42.8134L33.998 42.0969ZM34.9531 39.9618H33.9531C33.9531 40.5139 33.7144 41.0089 33.3313 41.3517L33.998 42.0969L34.6648 42.8422C35.4541 42.1361 35.9531 41.1065 35.9531 39.9618H34.9531ZM33.3947 37.4119L32.9382 38.3016C33.5429 38.6119 33.9531 39.2398 33.9531 39.9618H34.9531H35.9531C35.9531 38.4608 35.0971 37.1614 33.8512 36.5222L33.3947 37.4119ZM33.3947 27.1179H32.3947V37.4119H33.3947H34.3947V27.1179H33.3947ZM37.3499 31.0731L38.057 30.366L34.1018 26.4108L33.3947 27.1179L32.6876 27.825L36.6428 31.7802L37.3499 31.0731ZM37.0965 32.2527H38.0965C38.0965 31.9772 38.1556 31.7182 38.2609 31.4854L37.3499 31.0731L36.4389 30.6608C36.2186 31.1475 36.0965 31.6872 36.0965 32.2527H37.0965ZM39.9606 35.1169V34.1169C38.9311 34.1169 38.0965 33.2823 38.0965 32.2527H37.0965H36.0965C36.0965 34.3868 37.8265 36.1169 39.9606 36.1169V35.1169ZM41.9586 34.3049L41.2609 33.5884C40.9241 33.9164 40.4668 34.1169 39.9606 34.1169V35.1169V36.1169C41.0087 36.1169 41.9611 35.6982 42.6562 35.0213L41.9586 34.3049ZM42.9137 32.1696H41.9137C41.9137 32.7218 41.675 33.2168 41.2918 33.5596L41.9586 34.3049L42.6254 35.0501C43.4146 34.344 43.9137 33.3144 43.9137 32.1696H42.9137ZM40.0496 29.3055V30.3055C41.0791 30.3055 41.9137 31.1401 41.9137 32.1696H42.9137H43.9137C43.9137 30.0355 42.1837 28.3055 40.0496 28.3055V29.3055ZM39.1686 29.4436L39.4759 30.3952C39.6554 30.3372 39.8478 30.3055 40.0496 30.3055V29.3055V28.3055C39.6366 28.3055 39.2369 28.3706 38.8613 28.492L39.1686 29.4436ZM34.8252 25.1002L34.1181 25.8073L38.4615 30.1507L39.1686 29.4436L39.8757 28.7365L35.5323 24.3931L34.8252 25.1002ZM34.9531 24.2512H33.9531C33.9531 24.4453 33.9238 24.6306 33.87 24.8041L34.8252 25.1002L35.7804 25.3962C35.8929 25.0332 35.9531 24.6483 35.9531 24.2512H34.9531ZM32.089 21.387V22.387C33.1185 22.387 33.9531 23.2216 33.9531 24.2512H34.9531H35.9531C35.9531 22.1171 34.2231 20.387 32.089 20.387V21.387ZM31.24 21.515L31.536 22.4701C31.7095 22.4164 31.8949 22.387 32.089 22.387V21.387V20.387C31.6919 20.387 31.307 20.4473 30.9439 20.5598L31.24 21.515ZM26.8989 17.1739L26.1918 17.881L30.5329 22.2221L31.24 21.515L31.9471 20.8079L27.606 16.4668L26.8989 17.1739ZM26.8129 17.26L27.52 17.9671L27.606 17.881L26.8989 17.1739L26.1918 16.4668L26.1058 16.5529L26.8129 17.26ZM26.8099 17.257L26.1028 17.9641L26.1058 17.9671L26.8129 17.26L27.52 16.5529L27.517 16.5499L26.8099 17.257ZM25.1719 18.8951L25.879 19.6022L27.517 17.9641L26.8099 17.257L26.1028 16.5499L24.4648 18.188L25.1719 18.8951ZM29.4026 23.1258L30.1097 22.4187L25.879 18.188L25.1719 18.8951L24.4648 19.6022L28.6954 23.8329L29.4026 23.1258ZM29.1359 24.3342H30.1359C30.1359 24.0514 30.1982 23.7858 30.309 23.5482L29.4026 23.1258L28.4962 22.7033C28.2647 23.2001 28.1359 23.7535 28.1359 24.3342H29.1359ZM30.9891 27.0149L31.3421 26.0793C30.6357 25.8127 30.1359 25.1306 30.1359 24.3342H29.1359H28.1359C28.1359 25.9898 29.1766 27.3998 30.6361 27.9505L30.9891 27.0149ZM30.9891 37.3164H31.9891V27.0149H30.9891H29.9891V37.3164H30.9891Z" fill="white"/>
</svg>
