<svg width="64" height="64" viewBox="0 0 64 64" fill="none" xmlns="http://www.w3.org/2000/svg">
<path d="M63 57.6091C62.9998 60.5864 60.5858 62.9997 57.6084 62.9997H6.3916C3.41419 62.9997 1.00021 60.5864 1 57.6091V6.3913H63V57.6091ZM15.8262 13.7087L18.5215 46.6208L32 50.57L45.4785 46.6208L48.1738 13.7087H15.8262ZM42.7822 20.7497L42.1084 24.6999H25.9346L26.6084 29.3073H41.4346L40.0869 41.8141L32 44.447L23.9131 41.8141L23.2393 35.2311H27.2822L27.9561 38.5231L32 39.8395L36.0439 38.5231L36.7178 33.2565H23.2393L21.8916 20.7497H42.7822Z" fill="#E44D26"/>
<path d="M15.8262 13.1309V12.1309H14.743L14.8294 13.2106L15.8262 13.1309ZM18.5215 46.8262L17.5247 46.9059L17.5792 47.5875L18.2342 47.784L18.5215 46.8262ZM32 50.8691L31.7127 51.827L32 51.9132L32.2873 51.827L32 50.8691ZM45.4785 46.8262L45.7658 47.784L46.4208 47.5875L46.4753 46.9059L45.4785 46.8262ZM48.1738 13.1309L49.1706 13.2106L49.257 12.1309H48.1738V13.1309ZM42.7822 19.8691L43.7686 20.0335L43.9626 18.8691H42.7822V19.8691ZM42.1084 23.9131V24.9131H42.9556L43.0948 24.0774L42.1084 23.9131ZM25.9346 23.9131V22.9131H24.7816L24.9446 24.0545L25.9346 23.9131ZM26.6084 28.6309L25.6184 28.7723L25.7411 29.6309H26.6084V28.6309ZM41.4346 28.6309L42.4291 28.7355L42.5453 27.6309H41.4346V28.6309ZM40.0869 41.4346L40.4032 42.3832L41.014 42.1796L41.0814 41.5392L40.0869 41.4346ZM32 44.1309L31.6837 45.0795L32 45.185L32.3163 45.0795L32 44.1309ZM23.9131 41.4346L22.918 41.5341L22.9825 42.1784L23.5968 42.3832L23.9131 41.4346ZM23.2393 34.6953V33.6953H22.1343L22.2442 34.7948L23.2393 34.6953ZM27.2822 34.6953L28.2628 34.4993L28.1021 33.6953H27.2822V34.6953ZM27.9561 38.0654L26.9755 38.2615L27.0893 38.8306L27.6399 39.0141L27.9561 38.0654ZM32 39.4131L31.6838 40.3618L32 40.4672L32.3162 40.3618L32 39.4131ZM36.043 38.0654L36.3592 39.0141L36.957 38.8149L37.0352 38.1896L36.043 38.0654ZM36.7178 32.6738L37.71 32.798L37.8507 31.6738H36.7178V32.6738ZM23.2393 32.6738L22.2448 32.7785L22.339 33.6738H23.2393V32.6738ZM21.8916 19.8691V18.8691H20.7808L20.8971 19.9738L21.8916 19.8691ZM57.6084 1V2C60.0336 2 62 3.96635 62 6.3916H63H64C64 2.86178 61.1382 0 57.6084 0V1ZM63 6.3916H62V57.6084H63H64V6.3916H63ZM63 57.6084H62C62 60.0336 60.0336 62 57.6084 62V63V64C61.1382 64 64 61.1382 64 57.6084H63ZM57.6084 63V62H6.3916V63V64H57.6084V63ZM6.3916 63V62C3.96635 62 2 60.0336 2 57.6084H1H0C0 61.1382 2.86178 64 6.3916 64V63ZM1 57.6084H2V6.3916H1H0V57.6084H1ZM1 6.3916H2C2 3.96635 3.96635 2 6.3916 2V1V0C2.86178 0 0 2.86178 0 6.3916H1ZM6.3916 1V2H57.6084V1V0H6.3916V1ZM15.8262 13.1309L14.8294 13.2106L17.5247 46.9059L18.5215 46.8262L19.5183 46.7464L16.823 13.0511L15.8262 13.1309ZM18.5215 46.8262L18.2342 47.784L31.7127 51.827L32 50.8691L32.2873 49.9113L18.8088 45.8683L18.5215 46.8262ZM32 50.8691L32.2873 51.827L45.7658 47.784L45.4785 46.8262L45.1912 45.8683L31.7127 49.9113L32 50.8691ZM45.4785 46.8262L46.4753 46.9059L49.1706 13.2106L48.1738 13.1309L47.177 13.0511L44.4817 46.7464L45.4785 46.8262ZM48.1738 13.1309V12.1309H15.8262V13.1309V14.1309H48.1738V13.1309ZM42.7822 19.8691L41.7958 19.7048L41.122 23.7487L42.1084 23.9131L43.0948 24.0774L43.7686 20.0335L42.7822 19.8691ZM42.1084 23.9131V22.9131H25.9346V23.9131V24.9131H42.1084V23.9131ZM25.9346 23.9131L24.9446 24.0545L25.6184 28.7723L26.6084 28.6309L27.5984 28.4895L26.9245 23.7717L25.9346 23.9131ZM26.6084 28.6309V29.6309H41.4346V28.6309V27.6309H26.6084V28.6309ZM41.4346 28.6309L40.4401 28.5262L39.0924 41.3299L40.0869 41.4346L41.0814 41.5392L42.4291 28.7355L41.4346 28.6309ZM40.0869 41.4346L39.7706 40.4859L31.6837 43.1822L32 44.1309L32.3163 45.0795L40.4032 42.3832L40.0869 41.4346ZM32 44.1309L32.3163 43.1822L24.2294 40.4859L23.9131 41.4346L23.5968 42.3832L31.6837 45.0795L32 44.1309ZM23.9131 41.4346L24.9081 41.3351L24.2343 34.5958L23.2393 34.6953L22.2442 34.7948L22.918 41.5341L23.9131 41.4346ZM23.2393 34.6953V35.6953H27.2822V34.6953V33.6953H23.2393V34.6953ZM27.2822 34.6953L26.3016 34.8914L26.9755 38.2615L27.9561 38.0654L28.9366 37.8694L28.2628 34.4993L27.2822 34.6953ZM27.9561 38.0654L27.6399 39.0141L31.6838 40.3618L32 39.4131L32.3162 38.4644L28.2722 37.1167L27.9561 38.0654ZM32 39.4131L32.3162 40.3618L36.3592 39.0141L36.043 38.0654L35.7267 37.1167L31.6838 38.4644L32 39.4131ZM36.043 38.0654L37.0352 38.1896L37.71 32.798L36.7178 32.6738L35.7255 32.5496L35.0507 37.9412L36.043 38.0654ZM36.7178 32.6738V31.6738H23.2393V32.6738V33.6738H36.7178V32.6738ZM23.2393 32.6738L24.2338 32.5692L22.8861 19.7645L21.8916 19.8691L20.8971 19.9738L22.2448 32.7785L23.2393 32.6738ZM21.8916 19.8691V20.8691H42.7822V19.8691V18.8691H21.8916V19.8691Z" fill="white"/>
</svg>
