<svg width="62" height="62" viewBox="0 0 62 62" fill="none" xmlns="http://www.w3.org/2000/svg">
<path d="M62 56.6084C62 59.5859 59.5859 62 56.6084 62H5.3916C2.41407 62 0 59.5859 0 56.6084V29H62V56.6084Z" fill="#FFCA28"/>
<mask id="path-2-inside-1_739_993" fill="white">
<path d="M56.6084 0C59.5859 0 62 2.41407 62 5.3916V56.6084C62 59.5859 59.5859 62 56.6084 62H5.3916C2.41407 62 0 59.5859 0 56.6084V5.3916C0 2.41407 2.41407 0 5.3916 0H56.6084ZM12.1309 12.1309V49.8691H49.8691V12.1309H12.1309ZM32.3457 29.6523V42.0459C32.4032 43.7554 31.4544 47.1738 27.2705 47.1738C23.4238 47.1737 21.8248 44.8871 21.5654 43.8828L24.4609 42.0459C24.6879 42.7297 25.5703 43.9902 26.8496 43.9902C28.1287 43.9901 28.784 42.6763 28.7842 42.0459V29.6523H32.3457ZM41.1709 29.248C41.7814 29.248 44.7168 29.3231 46.1787 32.0703L43.4834 33.9512C42.8924 32.754 41.9101 32.3584 41.3057 32.3584C39.8127 32.3584 39.502 33.453 39.502 33.9512C39.502 35.3491 41.1236 35.9758 42.4932 36.5049C42.8515 36.6433 43.1932 36.775 43.4834 36.9121C44.9763 37.6176 47.1737 38.7723 47.1738 42.4062C47.1738 44.2265 45.6472 47.1736 41.8037 47.1738C36.642 47.1738 35.2726 44.0757 35.0439 43.5186L37.8223 41.6797C38.0401 42.3638 39.4187 43.988 41.1602 43.9883C42.902 43.9883 43.7109 43.0369 43.7109 42.4062C43.7108 40.6877 41.9324 40.0821 41.0781 39.791C40.939 39.7436 40.8245 39.7041 40.7461 39.6699C40.7059 39.6524 40.6445 39.6294 40.5664 39.5996C39.616 39.2365 36.1115 37.897 36.1113 34.0156C36.1113 29.7399 40.2378 29.248 41.1709 29.248Z"/>
</mask>
<path d="M12.1309 12.1309V10.1309H10.1309V12.1309H12.1309ZM12.1309 49.8691H10.1309V51.8691H12.1309V49.8691ZM49.8691 49.8691V51.8691H51.8691V49.8691H49.8691ZM49.8691 12.1309H51.8691V10.1309H49.8691V12.1309ZM32.3457 29.6523H34.3457V27.6523H32.3457V29.6523ZM32.3457 42.0459H30.3457V42.0795L30.3468 42.1132L32.3457 42.0459ZM27.2705 47.1738L27.2704 49.1738H27.2705V47.1738ZM21.5654 43.8828L20.494 42.194L19.265 42.9737L19.629 44.3829L21.5654 43.8828ZM24.4609 42.0459L26.3591 41.4158L25.5522 38.9851L23.3895 40.3571L24.4609 42.0459ZM26.8496 43.9902V45.9902H26.8498L26.8496 43.9902ZM28.7842 42.0459L30.7842 42.0465V42.0459H28.7842ZM28.7842 29.6523V27.6523H26.7842V29.6523H28.7842ZM41.1709 29.248V27.248H41.1709L41.1709 29.248ZM46.1787 32.0703L47.3232 33.7104L48.7771 32.6959L47.9443 31.1308L46.1787 32.0703ZM43.4834 33.9512L41.69 34.8364L42.7199 36.9228L44.6279 35.5913L43.4834 33.9512ZM41.3057 32.3584V30.3584H41.3056L41.3057 32.3584ZM39.502 33.9512H37.502H39.502ZM42.4932 36.5049L41.7725 38.3705L42.4932 36.5049ZM43.4834 36.9121L44.3379 35.1039L44.3379 35.1038L43.4834 36.9121ZM47.1738 42.4062H49.1738V42.4062L47.1738 42.4062ZM41.8037 47.1738V49.1738H41.8038L41.8037 47.1738ZM35.0439 43.5186L33.9401 41.8508L32.5697 42.7577L33.1937 44.278L35.0439 43.5186ZM37.8223 41.6797L39.728 41.0728L38.9251 38.5514L36.7184 40.0119L37.8223 41.6797ZM41.1602 43.9883L41.1599 45.9883H41.1602V43.9883ZM43.7109 42.4062H45.7109V42.4061L43.7109 42.4062ZM41.0781 39.791L40.4331 41.6842L41.0781 39.791ZM40.7461 39.6699L39.9473 41.5035L39.9477 41.5036L40.7461 39.6699ZM40.5664 39.5996L39.8526 41.4679H39.8526L40.5664 39.5996ZM36.1113 34.0156H34.1113V34.0157L36.1113 34.0156ZM56.6084 0V2C58.4814 2 60 3.51864 60 5.3916H62H64C64 1.3095 60.6905 -2 56.6084 -2V0ZM62 5.3916H60V56.6084H62H64V5.3916H62ZM62 56.6084H60C60 58.4814 58.4814 60 56.6084 60V62V64C60.6905 64 64 60.6905 64 56.6084H62ZM56.6084 62V60H5.3916V62V64H56.6084V62ZM5.3916 62V60C3.51864 60 2 58.4814 2 56.6084H0H-2C-2 60.6905 1.3095 64 5.3916 64V62ZM0 56.6084H2V5.3916H0H-2V56.6084H0ZM0 5.3916H2C2 3.51864 3.51864 2 5.3916 2V0V-2C1.3095 -2 -2 1.3095 -2 5.3916H0ZM5.3916 0V2H56.6084V0V-2H5.3916V0ZM12.1309 12.1309H10.1309V49.8691H12.1309H14.1309V12.1309H12.1309ZM12.1309 49.8691V51.8691H49.8691V49.8691V47.8691H12.1309V49.8691ZM49.8691 49.8691H51.8691V12.1309H49.8691H47.8691V49.8691H49.8691ZM49.8691 12.1309V10.1309H12.1309V12.1309V14.1309H49.8691V12.1309ZM32.3457 29.6523H30.3457V42.0459H32.3457H34.3457V29.6523H32.3457ZM32.3457 42.0459L30.3468 42.1132C30.3644 42.6365 30.212 43.4629 29.7639 44.0987C29.3928 44.6252 28.7248 45.1738 27.2705 45.1738V47.1738V49.1738C30.0001 49.1738 31.8985 48.0133 33.0334 46.4032C34.0912 44.9024 34.3845 43.1648 34.3446 41.9786L32.3457 42.0459ZM27.2705 47.1738L27.2706 45.1738C25.7678 45.1738 24.8368 44.7355 24.2865 44.3153C24.0009 44.0972 23.8002 43.8705 23.669 43.6813C23.5286 43.4787 23.4963 43.3611 23.5019 43.3827L21.5654 43.8828L19.629 44.3829C20.1221 46.2925 22.5351 49.1737 27.2704 49.1738L27.2705 47.1738ZM21.5654 43.8828L22.6368 45.5716L25.5323 43.7347L24.4609 42.0459L23.3895 40.3571L20.494 42.194L21.5654 43.8828ZM24.4609 42.0459L22.5628 42.676C22.7789 43.3271 23.2302 44.0851 23.8609 44.7031C24.5035 45.3326 25.5186 45.9902 26.8496 45.9902V43.9902V41.9902C26.9013 41.9902 26.8355 42.0176 26.6603 41.8459C26.5799 41.7671 26.5045 41.6712 26.4436 41.5744C26.3794 41.4721 26.3572 41.41 26.3591 41.4158L24.4609 42.0459ZM26.8496 43.9902L26.8498 45.9902C28.2505 45.9901 29.2644 45.2508 29.8621 44.4989C30.4099 43.8098 30.7839 42.8974 30.7842 42.0465L28.7842 42.0459L26.7842 42.0453C26.7842 41.9993 26.7871 41.9643 26.7897 41.9417C26.7924 41.9186 26.7954 41.9031 26.7971 41.8951C26.8002 41.8804 26.8009 41.8824 26.7949 41.8979C26.7893 41.9126 26.7803 41.9324 26.768 41.9543C26.7557 41.976 26.7428 41.9949 26.7309 42.0099C26.7048 42.0427 26.6984 42.0387 26.7259 42.0236C26.7408 42.0153 26.7621 42.006 26.7879 41.9992C26.8143 41.9922 26.8362 41.9902 26.8494 41.9902L26.8496 43.9902ZM28.7842 42.0459H30.7842V29.6523H28.7842H26.7842V42.0459H28.7842ZM28.7842 29.6523V31.6523H32.3457V29.6523V27.6523H28.7842V29.6523ZM41.1709 29.248V31.248C41.7273 31.248 43.5318 31.3537 44.4131 33.0098L46.1787 32.0703L47.9443 31.1308C45.9018 27.2926 41.8354 27.248 41.1709 27.248V29.248ZM46.1787 32.0703L45.0342 30.4302L42.3389 32.311L43.4834 33.9512L44.6279 35.5913L47.3232 33.7104L46.1787 32.0703ZM43.4834 33.9512L45.2768 33.0659C44.3565 31.2016 42.6884 30.3584 41.3057 30.3584V32.3584V34.3584C41.2034 34.3584 41.2343 34.3356 41.3345 34.3986C41.4128 34.4479 41.5559 34.5648 41.69 34.8364L43.4834 33.9512ZM41.3057 32.3584L41.3056 30.3584C40.0048 30.3584 38.9506 30.8689 38.2722 31.7313C37.6672 32.5001 37.502 33.3678 37.502 33.9512H39.502H41.502C41.502 34.0197 41.4934 34.054 41.4875 34.0735C41.4801 34.0977 41.4617 34.1463 41.4157 34.2047C41.3636 34.2709 41.2959 34.3237 41.2325 34.353C41.173 34.3805 41.1798 34.3584 41.3057 34.3584L41.3057 32.3584ZM39.502 33.9512H37.502C37.502 35.5758 38.4969 36.6131 39.3487 37.2004C40.1569 37.7577 41.143 38.1274 41.7725 38.3705L42.4932 36.5049L43.2138 34.6392C42.4737 34.3533 41.9642 34.1451 41.6192 33.9073C41.467 33.8023 41.4362 33.749 41.4476 33.7663C41.4747 33.8076 41.502 33.885 41.502 33.9512H39.502ZM42.4932 36.5049L41.7725 38.3705C42.1512 38.5168 42.4182 38.6208 42.6289 38.7204L43.4834 36.9121L44.3379 35.1038C43.9682 34.9291 43.5518 34.7698 43.2138 34.6392L42.4932 36.5049ZM43.4834 36.9121L42.6289 38.7204C43.3582 39.065 43.9482 39.3868 44.3911 39.887C44.7783 40.3242 45.1738 41.0389 45.1738 42.4063L47.1738 42.4062L49.1738 42.4062C49.1738 40.1397 48.4705 38.4601 47.3857 37.2351C46.3567 36.0731 45.1015 35.4647 44.3379 35.1039L43.4834 36.9121ZM47.1738 42.4062H45.1738C45.1738 43.3386 44.3378 45.1737 41.8036 45.1738L41.8037 47.1738L41.8038 49.1738C46.9566 49.1736 49.1738 45.1145 49.1738 42.4062H47.1738ZM41.8037 47.1738V45.1738C39.6579 45.1738 38.4853 44.5429 37.852 44.0168C37.1897 43.4665 36.9472 42.8884 36.8942 42.7591L35.0439 43.5186L33.1937 44.278C33.3694 44.7059 33.9259 45.9554 35.2959 47.0935C36.6949 48.2557 38.7879 49.1738 41.8037 49.1738V47.1738ZM35.0439 43.5186L36.1478 45.1863L38.9261 43.3475L37.8223 41.6797L36.7184 40.0119L33.9401 41.8508L35.0439 43.5186ZM37.8223 41.6797L35.9166 42.2865C36.1819 43.1197 36.8811 43.9945 37.639 44.6265C38.4466 45.3 39.6653 45.9881 41.1599 45.9883L41.1602 43.9883L41.1604 41.9883C40.9135 41.9882 40.5721 41.8641 40.2007 41.5544C40.0267 41.4093 39.8853 41.2545 39.7886 41.126C39.6713 40.9702 39.6874 40.9453 39.728 41.0728L37.8223 41.6797ZM41.1602 43.9883V45.9883C43.4463 45.9883 45.7109 44.6287 45.7109 42.4062H43.7109H41.7109C41.7109 42.1466 41.7892 41.9818 41.8268 41.9169C41.8694 41.8433 41.9006 41.8248 41.8846 41.8369C41.8626 41.8534 41.6652 41.9883 41.1602 41.9883V43.9883ZM43.7109 42.4062L45.7109 42.4061C45.7108 40.7234 44.7911 39.6029 43.8942 38.9481C43.0625 38.3408 42.1222 38.0339 41.7231 37.8979L41.0781 39.791L40.4331 41.6842C40.8883 41.8392 41.2643 41.9806 41.5354 42.1786C41.6525 42.2641 41.6916 42.3206 41.7004 42.3354C41.704 42.3415 41.7047 42.3438 41.7054 42.3464C41.7061 42.3488 41.7109 42.3663 41.7109 42.4064L43.7109 42.4062ZM41.0781 39.791L41.7231 37.8979C41.6527 37.8739 41.6042 37.8572 41.5664 37.8436C41.5485 37.8371 41.5378 37.8331 41.5324 37.831C41.5266 37.8288 41.5317 37.8306 41.5445 37.8362L40.7461 39.6699L39.9477 41.5036C40.1182 41.5779 40.321 41.646 40.4331 41.6842L41.0781 39.791ZM40.7461 39.6699L41.5449 37.8364C41.4495 37.7948 41.3212 37.747 41.2802 37.7313L40.5664 39.5996L39.8526 41.4679C39.8727 41.4756 39.8941 41.4837 39.9092 41.4895C39.9259 41.4958 39.9384 41.5006 39.9488 41.5046C39.9592 41.5087 39.9641 41.5106 39.9654 41.5112C39.9673 41.5119 39.9601 41.5091 39.9473 41.5035L40.7461 39.6699ZM40.5664 39.5996L41.2802 37.7313C40.2117 37.3231 38.1114 36.4092 38.1113 34.0155L36.1113 34.0156L34.1113 34.0157C34.1116 39.3849 39.0204 41.1499 39.8526 41.4679L40.5664 39.5996ZM36.1113 34.0156H38.1113C38.1113 32.6839 38.6777 32.1118 39.2849 31.7641C40.0312 31.3368 40.9171 31.248 41.1709 31.248L41.1709 29.248L41.1709 27.248C40.4916 27.248 38.8476 27.4052 37.2975 28.2928C35.6082 29.2599 34.1113 31.0716 34.1113 34.0156H36.1113Z" fill="white" mask="url(#path-2-inside-1_739_993)"/>
</svg>
