<svg width="62" height="62" viewBox="0 0 62 62" fill="none" xmlns="http://www.w3.org/2000/svg">
<path d="M62 56.6084C62 59.5859 59.5859 62 56.6084 62H5.3916C2.41407 62 0 59.5859 0 56.6084V40H62V56.6084Z" fill="#53C1DE"/>
<mask id="path-2-inside-1_739_1011" fill="white">
<path d="M56.6084 0C59.5859 0 62 2.41407 62 5.3916V56.6084C62 59.5859 59.5859 62 56.6084 62H5.3916C2.41407 62 0 59.5859 0 56.6084V5.3916C0 2.41407 2.41407 0 5.3916 0H56.6084ZM41.0684 14.0039C37.7055 12.1239 33.3293 15.7268 31.0186 17.8896C28.7144 15.7482 24.2156 12.1611 20.8398 14.0557C17.4783 15.9424 18.5146 21.4203 19.2939 24.4434C16.1581 25.307 10.7822 27.1676 10.7822 30.9678C10.7825 34.757 16.1523 36.7808 19.2695 37.6436C18.4873 40.6834 17.5033 46.0834 20.8691 47.9658C24.2575 49.8599 28.7421 46.3574 31.0742 44.1709C33.3998 46.3465 37.7341 49.8718 41.0977 47.9844C44.4719 46.0905 43.5939 40.5943 42.8145 37.5537C45.8362 36.6891 51.2175 34.7096 51.2178 30.9678C51.2178 27.2041 45.813 25.3285 42.7266 24.4678C43.4891 21.4635 44.4471 15.8926 41.0684 14.0039ZM41.1436 37.9785C41.6921 40.1292 42.7532 45.1203 40.2324 46.5352C37.7229 47.9434 33.9949 44.5719 32.2773 42.9697C33.4167 41.7614 34.5557 40.3567 35.667 38.7969C37.6218 38.6287 39.4688 38.3538 41.1436 37.9785ZM20.9443 38.0537C22.6005 38.4089 24.4341 38.6643 26.3936 38.8184C27.5122 40.3447 28.6836 41.748 29.8643 42.9766C28.4052 44.345 24.2529 47.9243 21.7314 46.5146C19.2221 45.1112 20.3689 40.2928 20.9443 38.0537ZM33.4404 38.9404C32.6532 39.9778 31.8586 40.9268 31.0674 41.7715C30.2488 40.915 29.4323 39.9671 28.6348 38.9482C30.2357 39.0092 31.8398 39.0097 33.4404 38.9404ZM27.3184 24.8213C29.7701 24.6416 32.2368 24.6411 34.6885 24.8223C36.0621 26.7908 37.2906 28.8554 38.3799 30.9844C37.3036 33.1315 36.0674 35.2054 34.7031 37.1924C32.254 37.362 29.7889 37.36 27.3389 37.2061C25.9467 35.2343 24.7075 33.1605 23.6377 31.0078C24.7022 28.8595 25.9327 26.79 27.3184 24.8213ZM22.7217 32.9775C23.4603 34.3608 24.2673 35.7093 25.1377 37.0186C23.8136 36.8752 22.5644 36.6819 21.4111 36.4385C21.7681 35.3209 22.208 34.159 22.7217 32.9775ZM39.3115 32.917C39.8519 34.1113 40.3081 35.2665 40.6699 36.3652C39.4974 36.6246 38.2312 36.8341 36.8975 36.9893C37.7592 35.6648 38.5677 34.3071 39.3115 32.917ZM19.7578 26.0566C20.2638 27.6522 20.9276 29.3208 21.7285 31.0078C20.9172 32.7201 20.2441 34.4158 19.7334 36.0303C17.5269 35.4179 12.5101 33.8024 12.5098 30.9678C12.5098 28.1347 17.4436 26.6911 19.7578 26.0566ZM42.2637 26.082C44.5263 26.718 49.4902 28.1716 49.4902 30.9678C49.49 33.79 44.7272 35.2573 42.3438 35.9424C41.832 34.3716 41.1409 32.7011 40.2959 30.9756C41.1023 29.2911 41.7662 27.6425 42.2637 26.082ZM31 27.4668C29.006 27.4668 27.3896 29.0344 27.3896 30.9678C27.3898 32.9012 29.0061 34.4688 31 34.4688C32.9941 34.4688 34.6102 32.9012 34.6104 30.9678C34.6104 29.0344 32.9942 27.4668 31 27.4668ZM36.9023 25.0391C38.1926 25.197 39.4292 25.4061 40.5898 25.6631C40.2414 26.7459 39.8063 27.8784 39.2949 29.0391C38.5535 27.6752 37.7576 26.3389 36.9023 25.0391ZM25.1006 25.0352C24.2429 26.3323 23.4483 27.6688 22.7197 29.0381C22.2167 27.8813 21.786 26.7438 21.4346 25.6455C22.5883 25.3951 23.8188 25.1904 25.1006 25.0352ZM32.2295 19.085C33.9239 17.5012 37.7096 14.0591 40.2061 15.4551C42.7268 16.8648 41.6044 21.8717 41.0537 24.0488C39.3763 23.6736 37.5546 23.3942 35.6475 23.2207C34.5364 21.6868 33.3851 20.2922 32.2295 19.085ZM21.7051 15.5049C24.2252 14.0906 28.1357 17.5345 29.8086 19.085C28.634 20.308 27.4732 21.7013 26.3643 23.2188C24.4626 23.3897 22.6413 23.6636 20.9678 24.0312C20.3399 21.593 19.1877 16.9177 21.7051 15.5049ZM31.0195 20.2822C31.8161 21.119 32.6136 22.0537 33.3984 23.0674C31.8066 22.9945 30.212 22.9942 28.6201 23.0664C29.4057 22.062 30.2103 21.1287 31.0195 20.2822Z"/>
</mask>
<path d="M41.0684 14.0039L40.0924 15.7496L40.0925 15.7497L41.0684 14.0039ZM31.0186 17.8896L29.657 19.3547L31.0234 20.6245L32.3853 19.3498L31.0186 17.8896ZM20.8398 14.0557L19.861 12.3116L19.8609 12.3116L20.8398 14.0557ZM19.2939 24.4434L19.825 26.3716L21.7218 25.8492L21.2306 23.9441L19.2939 24.4434ZM10.7822 30.9678H8.78223V30.9679L10.7822 30.9678ZM19.2695 37.6436L21.2064 38.142L21.6959 36.2399L19.803 35.716L19.2695 37.6436ZM20.8691 47.9658L19.8929 49.7114L19.8933 49.7116L20.8691 47.9658ZM31.0742 44.1709L32.4405 42.7104L31.0727 41.4308L29.7063 42.7119L31.0742 44.1709ZM41.0977 47.9844L42.0764 49.7285L42.0765 49.7284L41.0977 47.9844ZM42.8145 37.5537L42.2643 35.6309L40.3941 36.166L40.8771 38.0503L42.8145 37.5537ZM51.2178 30.9678L53.2178 30.9679V30.9678H51.2178ZM42.7266 24.4678L40.788 23.9757L40.3074 25.8695L42.1893 26.3943L42.7266 24.4678ZM41.1436 37.9785L43.0815 37.4842L42.6015 35.6022L40.7062 36.0269L41.1436 37.9785ZM40.2324 46.5352L41.2112 48.2793L41.2113 48.2792L40.2324 46.5352ZM32.2773 42.9697L30.8222 41.5976L29.4427 43.0606L30.9131 44.4322L32.2773 42.9697ZM35.667 38.7969L35.4956 36.8042L34.5745 36.8835L34.0381 37.6364L35.667 38.7969ZM20.9443 38.0537L21.3637 36.0982L19.4855 35.6954L19.0073 37.5559L20.9443 38.0537ZM26.3936 38.8184L28.0067 37.6361L27.4646 36.8964L26.5503 36.8245L26.3936 38.8184ZM29.8643 42.9766L31.2324 44.4354L32.7091 43.0504L31.3063 41.5907L29.8643 42.9766ZM21.7314 46.5146L20.7552 48.2602L20.7555 48.2604L21.7314 46.5146ZM33.4404 38.9404L35.0336 40.1495L37.6072 36.7583L33.354 36.9423L33.4404 38.9404ZM31.0674 41.7715L29.6215 43.1534L31.082 44.6814L32.527 43.1387L31.0674 41.7715ZM28.6348 38.9482L28.7109 36.9497L24.4022 36.7856L27.0598 40.181L28.6348 38.9482ZM27.3184 24.8213L27.1722 22.8266L26.2278 22.8959L25.6828 23.6702L27.3184 24.8213ZM34.6885 24.8223L36.3286 23.6778L35.7844 22.8978L34.8358 22.8277L34.6885 24.8223ZM38.3799 30.9844L40.1678 31.8806L40.6217 30.9751L40.1604 30.0734L38.3799 30.9844ZM34.7031 37.1924L34.8413 39.1876L35.8051 39.1208L36.3519 38.3245L34.7031 37.1924ZM27.3389 37.2061L25.7051 38.3596L26.2575 39.142L27.2134 39.2021L27.3389 37.2061ZM23.6377 31.0078L21.8456 30.1198L21.405 31.0091L21.8467 31.8978L23.6377 31.0078ZM22.7217 32.9775L24.4859 32.0355L22.5372 28.386L20.8876 32.1801L22.7217 32.9775ZM25.1377 37.0186L24.9225 39.0069L29.1666 39.4663L26.8032 35.9113L25.1377 37.0186ZM21.4111 36.4385L19.506 35.83L18.8325 37.9383L20.9981 38.3954L21.4111 36.4385ZM39.3115 32.917L41.1337 32.0925L39.4616 28.3971L37.5481 31.9734L39.3115 32.917ZM40.6699 36.3652L41.1019 38.318L43.2613 37.8403L42.5696 35.7397L40.6699 36.3652ZM36.8975 36.9893L35.221 35.8986L32.899 39.4678L37.1285 38.9759L36.8975 36.9893ZM19.7578 26.0566L21.6642 25.452L21.0831 23.6195L19.229 24.1278L19.7578 26.0566ZM21.7285 31.0078L23.5359 31.8642L23.9421 31.007L23.5353 30.1501L21.7285 31.0078ZM19.7334 36.0303L19.1986 37.9574L21.0582 38.4735L21.6403 36.6335L19.7334 36.0303ZM12.5098 30.9678H10.5098V30.968L12.5098 30.9678ZM42.2637 26.082L42.8049 24.1567L40.9449 23.6338L40.3581 25.4746L42.2637 26.082ZM49.4902 30.9678L51.4902 30.968V30.9678H49.4902ZM42.3438 35.9424L40.4421 36.562L41.0404 38.398L42.8962 37.8646L42.3438 35.9424ZM40.2959 30.9756L38.492 30.112L38.0738 30.9855L38.4997 31.8552L40.2959 30.9756ZM31 27.4668V25.4668V27.4668ZM27.3896 30.9678H25.3896V30.9679L27.3896 30.9678ZM31 34.4688V36.4688V34.4688ZM34.6104 30.9678L36.6104 30.9679V30.9678H34.6104ZM36.9023 25.0391L37.1453 23.0539L32.8568 22.5291L35.2316 26.1384L36.9023 25.0391ZM40.5898 25.6631L42.4937 26.2757L43.1664 24.1851L41.0222 23.7104L40.5898 25.6631ZM39.2949 29.0391L37.5377 29.9942L39.4829 33.5727L41.1251 29.8455L39.2949 29.0391ZM25.1006 25.0352L26.7688 26.1383L29.1553 22.5293L24.8601 23.0497L25.1006 25.0352ZM22.7197 29.0381L20.8856 29.8357L22.5384 33.6364L24.4853 29.9776L22.7197 29.0381ZM21.4346 25.6455L21.0104 23.691L18.8586 24.158L19.5297 26.2551L21.4346 25.6455ZM32.2295 19.085L30.8638 17.6239L29.3852 19.0059L30.7847 20.468L32.2295 19.085ZM40.2061 15.4551L41.1823 13.7095L41.1822 13.7094L40.2061 15.4551ZM41.0537 24.0488L40.6171 26.0006L42.5156 26.4253L42.9926 24.5393L41.0537 24.0488ZM35.6475 23.2207L34.0277 24.3939L34.561 25.1301L35.4663 25.2125L35.6475 23.2207ZM21.7051 15.5049L20.7263 13.7608L20.7262 13.7608L21.7051 15.5049ZM29.8086 19.085L31.2511 20.4703L32.6613 19.002L31.1681 17.6181L29.8086 19.085ZM26.3643 23.2188L26.5433 25.2107L27.4449 25.1297L27.979 24.3988L26.3643 23.2188ZM20.9678 24.0312L19.031 24.53L19.5122 26.3987L21.3969 25.9847L20.9678 24.0312ZM31.0195 20.2822L32.4681 18.9032L31.0225 17.3848L29.5738 18.9002L31.0195 20.2822ZM33.3984 23.0674L33.3069 25.0653L37.6278 25.2632L34.9799 21.843L33.3984 23.0674ZM28.6201 23.0664L27.0447 21.8342L24.3641 25.2616L28.7108 25.0644L28.6201 23.0664ZM56.6084 0V2C58.4814 2 60 3.51864 60 5.3916H62H64C64 1.3095 60.6905 -2 56.6084 -2V0ZM62 5.3916H60V56.6084H62H64V5.3916H62ZM62 56.6084H60C60 58.4814 58.4814 60 56.6084 60V62V64C60.6905 64 64 60.6905 64 56.6084H62ZM56.6084 62V60H5.3916V62V64H56.6084V62ZM5.3916 62V60C3.51864 60 2 58.4814 2 56.6084H0H-2C-2 60.6905 1.3095 64 5.3916 64V62ZM0 56.6084H2V5.3916H0H-2V56.6084H0ZM0 5.3916H2C2 3.51864 3.51864 2 5.3916 2V0V-2C1.3095 -2 -2 1.3095 -2 5.3916H0ZM5.3916 0V2H56.6084V0V-2H5.3916V0ZM41.0684 14.0039L42.0443 12.2582C39.4712 10.8197 36.7321 11.615 34.7275 12.6556C32.6717 13.7228 30.8368 15.3203 29.6518 16.4295L31.0186 17.8896L32.3853 19.3498C33.511 18.2961 35.0197 17.0108 36.5704 16.2058C38.1723 15.3743 39.3027 15.3081 40.0924 15.7496L41.0684 14.0039ZM31.0186 17.8896L32.3801 16.4246C31.1862 15.3151 29.3216 13.7301 27.2335 12.6743C25.2031 11.6477 22.4339 10.8676 19.861 12.3116L20.8398 14.0557L21.8187 15.7998C22.6216 15.3492 23.7897 15.4153 25.4286 16.244C27.0099 17.0435 28.5467 18.3228 29.657 19.3547L31.0186 17.8896ZM20.8398 14.0557L19.8609 12.3116C17.2607 13.7711 16.5869 16.5235 16.5151 18.7592C16.4418 21.0395 16.9577 23.3929 17.3573 24.9427L19.2939 24.4434L21.2306 23.9441C20.8508 22.4708 20.4589 20.5737 20.513 18.8876C20.5686 17.1569 21.0575 16.227 21.8187 15.7997L20.8398 14.0557ZM19.2939 24.4434L18.7629 22.5151C17.1588 22.9569 14.8101 23.6957 12.8284 24.8922C10.9026 26.055 8.78223 27.9939 8.78223 30.9678H10.7822H12.7822C12.7822 30.1415 13.3498 29.25 14.8959 28.3165C16.3861 27.4167 18.2932 26.7934 19.825 26.3716L19.2939 24.4434ZM10.7822 30.9678L8.78223 30.9679C8.78241 33.9184 10.8796 35.8953 12.7936 37.0969C14.7701 38.3378 17.1108 39.1213 18.736 39.5711L19.2695 37.6436L19.803 35.716C18.311 35.3031 16.4082 34.6433 14.9204 33.7092C13.3701 32.7359 12.7823 31.8063 12.7822 30.9676L10.7822 30.9678ZM19.2695 37.6436L17.3326 37.1451C16.9304 38.7082 16.4266 41.0498 16.5153 43.317C16.6027 45.5488 17.3035 48.2631 19.8929 49.7114L20.8691 47.9658L21.8454 46.2203C21.069 45.786 20.5788 44.8592 20.5123 43.1604C20.4471 41.497 20.8264 39.6187 21.2064 38.142L19.2695 37.6436ZM20.8691 47.9658L19.8933 49.7116C22.4569 51.1446 25.2133 50.4053 27.2576 49.3898C29.3529 48.3489 31.2245 46.7716 32.4421 45.6299L31.0742 44.1709L29.7063 42.7119C28.5918 43.7567 27.0551 45.024 25.478 45.8074C23.8498 46.6163 22.6698 46.6811 21.845 46.2201L20.8691 47.9658ZM31.0742 44.1709L29.7079 45.6314C30.9036 46.75 32.7344 48.3332 34.7864 49.3821C36.7949 50.4087 39.5159 51.1654 42.0764 49.7285L41.0977 47.9844L40.1189 46.2402C39.3159 46.6908 38.1879 46.6285 36.607 45.8204C35.0696 45.0346 33.5704 43.7673 32.4405 42.7104L31.0742 44.1709ZM41.0977 47.9844L42.0765 49.7284C44.6574 48.2799 45.3925 45.5533 45.5109 43.3043C45.6317 41.0114 45.159 38.6456 44.7518 37.0571L42.8145 37.5537L40.8771 38.0503C41.2493 39.5024 41.6054 41.4051 41.5164 43.0939C41.4252 44.8266 40.9121 45.795 40.1188 46.2403L41.0977 47.9844ZM42.8145 37.5537L43.3646 39.4765C44.9267 39.0296 47.242 38.2581 49.2048 37.0384C51.0985 35.8617 53.2176 33.9088 53.2178 30.9679L51.2178 30.9678L49.2178 30.9676C49.2177 31.7686 48.646 32.6763 47.0936 33.6409C45.6103 34.5627 43.724 35.2132 42.2643 35.6309L42.8145 37.5537ZM51.2178 30.9678H53.2178C53.2178 28.0027 51.0769 26.0704 49.162 24.9162C47.1827 23.7232 44.8426 22.9815 43.2638 22.5413L42.7266 24.4678L42.1893 26.3943C43.697 26.8147 45.6025 27.4411 47.0972 28.3421C48.6563 29.2818 49.2178 30.1691 49.2178 30.9678H51.2178ZM42.7266 24.4678L44.6651 24.9598C45.0604 23.4024 45.549 21.0313 45.4485 18.7302C45.3503 16.4814 44.6475 13.7134 42.0442 12.2581L41.0684 14.0039L40.0925 15.7497C40.8679 16.1831 41.3755 17.1449 41.4523 18.9048C41.5269 20.6124 41.1553 22.5289 40.788 23.9757L42.7266 24.4678ZM41.1436 37.9785L39.2056 38.4728C39.4724 39.5189 39.8232 41.1121 39.8391 42.5549C39.8571 44.1801 39.4553 44.6778 39.2535 44.7911L40.2324 46.5352L41.2113 48.2792C43.5303 46.9776 43.8584 44.2723 43.8389 42.5106C43.8174 40.5665 43.3632 38.5888 43.0815 37.4842L41.1436 37.9785ZM40.2324 46.5352L39.2537 44.791C39.0304 44.9163 38.3783 44.9925 36.979 44.1617C35.7253 43.4173 34.505 42.3127 33.6416 41.5073L32.2773 42.9697L30.9131 44.4322C31.7672 45.229 33.2697 46.6112 34.9368 47.6011C36.4583 48.5045 38.925 49.5622 41.2112 48.2793L40.2324 46.5352ZM32.2773 42.9697L33.7324 44.3418C34.9443 43.0567 36.1406 41.579 37.2959 39.9574L35.667 38.7969L34.0381 37.6364C32.9709 39.1344 31.8891 40.4662 30.8222 41.5976L32.2773 42.9697ZM35.667 38.7969L35.8384 40.7895C37.869 40.6149 39.8061 40.3278 41.5809 39.9301L41.1436 37.9785L40.7062 36.0269C39.1315 36.3798 37.3745 36.6426 35.4956 36.8042L35.667 38.7969ZM20.9443 38.0537L20.525 40.0093C22.282 40.386 24.2049 40.6524 26.2368 40.8122L26.3936 38.8184L26.5503 36.8245C24.6633 36.6761 22.919 36.4317 21.3637 36.0982L20.9443 38.0537ZM26.3936 38.8184L24.7804 40.0006C25.9459 41.5909 27.1738 43.0633 28.4222 44.3624L29.8643 42.9766L31.3063 41.5907C30.1933 40.4326 29.0785 39.0985 28.0067 37.6361L26.3936 38.8184ZM29.8643 42.9766L28.4961 41.5178C27.8001 42.1705 26.5295 43.2829 25.1937 44.0568C24.5247 44.4444 23.9323 44.6917 23.4553 44.7905C22.9887 44.8871 22.7871 44.8135 22.7074 44.7689L21.7314 46.5146L20.7555 48.2604C21.9366 48.9206 23.1995 48.9282 24.2662 48.7074C25.3225 48.4887 26.3322 48.02 27.1989 47.5179C28.9343 46.5125 30.4693 45.151 31.2324 44.4354L29.8643 42.9766ZM21.7314 46.5146L22.7077 44.7691C22.5242 44.6665 22.1377 44.2259 22.1804 42.6517C22.2185 41.2424 22.5923 39.6762 22.8814 38.5516L20.9443 38.0537L19.0073 37.5559C18.7209 38.6703 18.2336 40.6329 18.1818 42.5434C18.1346 44.2891 18.4293 46.9594 20.7552 48.2602L21.7314 46.5146ZM33.4404 38.9404L31.8473 37.7314C31.0959 38.7214 30.3456 39.6165 29.6077 40.4042L31.0674 41.7715L32.527 43.1387C33.3716 42.2371 34.2104 41.2342 35.0336 40.1495L33.4404 38.9404ZM31.0674 41.7715L32.5132 40.3896C31.7441 39.5849 30.9705 38.6875 30.2097 37.7155L28.6348 38.9482L27.0598 40.181C27.8941 41.2468 28.7534 42.245 29.6215 43.1534L31.0674 41.7715ZM28.6348 38.9482L28.5586 40.9468C30.2099 41.0097 31.8683 41.0103 33.5269 40.9386L33.4404 38.9404L33.354 36.9423C31.8112 37.0091 30.2616 37.0088 28.7109 36.9497L28.6348 38.9482ZM27.3184 24.8213L27.4646 26.8159C29.8192 26.6434 32.1878 26.643 34.5411 26.8168L34.6885 24.8223L34.8358 22.8277C32.2858 22.6393 29.721 22.6398 27.1722 22.8266L27.3184 24.8213ZM34.6885 24.8223L33.0483 25.9668C34.3668 27.8562 35.549 29.8423 36.5994 31.8953L38.3799 30.9844L40.1604 30.0734C39.0323 27.8686 37.7575 25.7254 36.3286 23.6778L34.6885 24.8223ZM38.3799 30.9844L36.5919 30.0881C35.5592 32.1483 34.3703 34.1437 33.0544 36.0603L34.7031 37.1924L36.3519 38.3245C37.7645 36.2672 39.0479 34.1147 40.1678 31.8806L38.3799 30.9844ZM34.7031 37.1924L34.5649 35.1972C32.2088 35.3604 29.832 35.3588 27.4643 35.21L27.3389 37.2061L27.2134 39.2021C29.7458 39.3613 32.2991 39.3637 34.8413 39.1876L34.7031 37.1924ZM27.3389 37.2061L28.9727 36.0525C27.6389 34.1635 26.4524 32.1778 25.4287 30.1178L23.6377 31.0078L21.8467 31.8978C22.9625 34.1433 24.2544 36.305 25.7051 38.3596L27.3389 37.2061ZM23.6377 31.0078L25.4297 31.8958C26.449 29.839 27.6271 27.8574 28.9539 25.9724L27.3184 24.8213L25.6828 23.6702C24.2383 25.7225 22.9555 27.8801 21.8456 30.1198L23.6377 31.0078ZM22.7217 32.9775L20.9574 33.9196C21.7267 35.3603 22.5668 36.764 23.4722 38.1258L25.1377 37.0186L26.8032 35.9113C25.9678 34.6547 25.1938 33.3612 24.4859 32.0355L22.7217 32.9775ZM25.1377 37.0186L25.3529 35.0302C24.085 34.8929 22.9027 34.7092 21.8242 34.4816L21.4111 36.4385L20.9981 38.3954C22.2261 38.6545 23.5421 38.8576 24.9225 39.0069L25.1377 37.0186ZM21.4111 36.4385L23.3163 37.047C23.651 35.9993 24.0664 34.9005 24.5558 33.775L22.7217 32.9775L20.8876 32.1801C20.3495 33.4175 19.8852 34.6425 19.506 35.83L21.4111 36.4385ZM39.3115 32.917L37.4894 33.7415C38.0049 34.8809 38.4339 35.9694 38.7703 36.9908L40.6699 36.3652L42.5696 35.7397C42.1823 34.5636 41.6989 33.3417 41.1337 32.0925L39.3115 32.917ZM40.6699 36.3652L40.2379 34.4125C39.1389 34.6556 37.9403 34.8545 36.6664 35.0026L36.8975 36.9893L37.1285 38.9759C38.5221 38.8138 39.856 38.5937 41.1019 38.318L40.6699 36.3652ZM36.8975 36.9893L38.5739 38.0799C39.4643 36.7113 40.3023 35.3046 41.075 33.8605L39.3115 32.917L37.5481 31.9734C36.8331 33.3097 36.054 34.6183 35.221 35.8986L36.8975 36.9893ZM19.7578 26.0566L17.8514 26.6612C18.3877 28.3523 19.0862 30.1054 19.9218 31.8655L21.7285 31.0078L23.5353 30.1501C22.7691 28.5362 22.14 26.9522 21.6642 25.452L19.7578 26.0566ZM21.7285 31.0078L19.9211 30.1514C19.0752 31.9368 18.3675 33.7171 17.8265 35.4271L19.7334 36.0303L21.6403 36.6335C22.1208 35.1145 22.7592 33.5035 23.5359 31.8642L21.7285 31.0078ZM19.7334 36.0303L20.2682 34.1031C19.1956 33.8054 17.5725 33.2971 16.2521 32.5767C15.5912 32.2161 15.1092 31.8569 14.8133 31.5289C14.531 31.2159 14.5098 31.0399 14.5098 30.9676L12.5098 30.9678L10.5098 30.968C10.5099 32.313 11.1159 33.4019 11.8432 34.2082C12.5571 34.9995 13.4672 35.6139 14.3364 36.0881C16.076 37.0372 18.0647 37.6428 19.1986 37.9574L19.7334 36.0303ZM12.5098 30.9678H14.5098C14.5098 30.8922 14.529 30.7316 14.7907 30.4464C15.0712 30.1406 15.5364 29.8024 16.191 29.461C17.5025 28.7768 19.1244 28.3041 20.2866 27.9855L19.7578 26.0566L19.229 24.1278C18.0771 24.4436 16.0749 25.01 14.341 25.9145C13.4728 26.3674 12.5599 26.9609 11.843 27.7425C11.1072 28.5445 10.5098 29.6268 10.5098 30.9678H12.5098ZM42.2637 26.082L41.7225 28.0074C42.8655 28.3287 44.485 28.804 45.8027 29.4892C46.4607 29.8314 46.9301 30.1696 47.2134 30.4748C47.4793 30.7612 47.4902 30.913 47.4902 30.9678H49.4902H51.4902C51.4902 29.6245 50.8807 28.546 50.1451 27.7535C49.4269 26.9799 48.514 26.3906 47.6482 25.9404C45.9182 25.0408 43.9245 24.4714 42.8049 24.1567L42.2637 26.082ZM49.4902 30.9678L47.4902 30.9676C47.4902 31.1553 47.294 31.7212 45.8591 32.4974C44.5829 33.1877 42.9888 33.676 41.7913 34.0202L42.3438 35.9424L42.8962 37.8646C44.0821 37.5237 46.0611 36.9358 47.7622 36.0157C49.3046 35.1813 51.49 33.6024 51.4902 30.968L49.4902 30.9678ZM42.3438 35.9424L44.2454 35.3228C43.6997 33.648 42.9707 31.8901 42.0921 30.096L40.2959 30.9756L38.4997 31.8552C39.3111 33.5121 39.9643 35.0953 40.4421 36.562L42.3438 35.9424ZM40.2959 30.9756L42.0998 31.8392C42.9401 30.084 43.64 28.3497 44.1692 26.6895L42.2637 26.082L40.3581 25.4746C39.8925 26.9354 39.2645 28.4981 38.492 30.112L40.2959 30.9756ZM31 27.4668V25.4668C27.9597 25.4668 25.3896 27.8724 25.3896 30.9678H27.3896H29.3896C29.3896 30.1964 30.0522 29.4668 31 29.4668V27.4668ZM27.3896 30.9678L25.3896 30.9679C25.3899 34.0632 27.9597 36.4688 31 36.4688V34.4688V32.4688C30.0524 32.4688 29.3897 31.7392 29.3896 30.9676L27.3896 30.9678ZM31 34.4688V36.4688C34.0405 36.4688 36.6101 34.0631 36.6104 30.9679L34.6104 30.9678L32.6104 30.9676C32.6103 31.7393 31.9478 32.4688 31 32.4688V34.4688ZM34.6104 30.9678H36.6104C36.6104 27.8724 34.0405 25.4668 31 25.4668V27.4668V29.4668C31.9479 29.4668 32.6104 30.1964 32.6104 30.9678H34.6104ZM36.9023 25.0391L36.6594 27.0243C37.892 27.1751 39.065 27.3739 40.1575 27.6158L40.5898 25.6631L41.0222 23.7104C39.7933 23.4383 38.4931 23.2188 37.1453 23.0539L36.9023 25.0391ZM40.5898 25.6631L38.686 25.0505C38.3613 26.0595 37.9518 27.1271 37.4647 28.2327L39.2949 29.0391L41.1251 29.8455C41.6608 28.6297 42.1216 27.4323 42.4937 26.2757L40.5898 25.6631ZM39.2949 29.0391L41.0521 28.0839C40.2857 26.6739 39.4611 25.2893 38.5731 23.9397L36.9023 25.0391L35.2316 26.1384C36.0541 27.3885 36.8214 28.6764 37.5377 29.9942L39.2949 29.0391ZM25.1006 25.0352L23.4323 23.932C22.5394 25.2823 21.7124 26.6735 20.9541 28.0986L22.7197 29.0381L24.4853 29.9776C25.1842 28.6641 25.9463 27.3822 26.7688 26.1383L25.1006 25.0352ZM22.7197 29.0381L24.5538 28.2405C24.0752 27.1399 23.6688 26.0651 23.3394 25.0359L21.4346 25.6455L19.5297 26.2551C19.9033 27.4224 20.3582 28.6227 20.8856 29.8357L22.7197 29.0381ZM21.4346 25.6455L21.8587 27.6C22.9461 27.364 24.115 27.1692 25.3411 27.0206L25.1006 25.0352L24.8601 23.0497C23.5225 23.2117 22.2304 23.4263 21.0104 23.691L21.4346 25.6455ZM32.2295 19.085L33.5952 20.5461C34.4474 19.7495 35.6792 18.6292 36.9475 17.8667C38.3762 17.0077 39.0285 17.0881 39.2299 17.2007L40.2061 15.4551L41.1822 13.7094C38.8871 12.4261 36.3984 13.5295 34.8864 14.4386C33.2142 15.444 31.706 16.8366 30.8638 17.6239L32.2295 19.085ZM40.2061 15.4551L39.2298 17.2006C39.4143 17.3038 39.8153 17.7822 39.7821 19.4238C39.7527 20.8771 39.3872 22.4814 39.1148 23.5584L41.0537 24.0488L42.9926 24.5393C43.2709 23.4392 43.7419 21.4514 43.7813 19.5046C43.8168 17.7461 43.5186 15.0161 41.1823 13.7095L40.2061 15.4551ZM41.0537 24.0488L41.4903 22.0971C39.7202 21.7011 37.8125 21.4094 35.8287 21.2289L35.6475 23.2207L35.4663 25.2125C37.2966 25.379 39.0324 25.6461 40.6171 26.0006L41.0537 24.0488ZM35.6475 23.2207L37.2672 22.0475C36.1103 20.4502 34.9013 18.9838 33.6742 17.702L32.2295 19.085L30.7847 20.468C31.8689 21.6006 32.9625 22.9233 34.0277 24.3939L35.6475 23.2207ZM21.7051 15.5049L22.6839 17.249C22.7837 17.193 22.9826 17.1266 23.41 17.2113C23.8565 17.2999 24.4175 17.5311 25.0651 17.9097C26.3624 18.6682 27.6211 19.7844 28.4491 20.5519L29.8086 19.085L31.1681 17.6181C30.3232 16.835 28.7901 15.4541 27.084 14.4566C26.2298 13.9572 25.2361 13.4956 24.1883 13.2878C23.1214 13.0762 21.8865 13.1096 20.7263 13.7608L21.7051 15.5049ZM29.8086 19.085L28.3661 17.6996C27.1232 18.9937 25.9056 20.4568 24.7495 22.0387L26.3643 23.2188L27.979 24.3988C29.0409 22.9458 30.1447 21.6223 31.2511 20.4703L29.8086 19.085ZM26.3643 23.2188L26.1852 21.2268C24.2091 21.4044 22.3036 21.6901 20.5386 22.0778L20.9678 24.0312L21.3969 25.9847C22.979 25.6371 24.716 25.3749 26.5433 25.2107L26.3643 23.2188ZM20.9678 24.0312L22.9046 23.5325C22.5851 22.292 22.1999 20.7182 22.156 19.3207C22.1077 17.7849 22.4853 17.3604 22.6839 17.249L21.7051 15.5049L20.7262 13.7608C18.4075 15.0621 18.1025 17.6817 18.1579 19.4464C18.2177 21.3493 18.7225 23.3323 19.031 24.53L20.9678 24.0312ZM31.0195 20.2822L29.571 21.6613C30.3152 22.443 31.0687 23.3252 31.817 24.2917L33.3984 23.0674L34.9799 21.843C34.1586 20.7822 33.3171 19.795 32.4681 18.9032L31.0195 20.2822ZM33.3984 23.0674L33.49 21.0695C31.8373 20.9938 30.182 20.9935 28.5295 21.0685L28.6201 23.0664L28.7108 25.0644C30.242 24.9949 31.7758 24.9951 33.3069 25.0653L33.3984 23.0674ZM28.6201 23.0664L30.1955 24.2986C30.9436 23.3421 31.7053 22.4593 32.4653 21.6642L31.0195 20.2822L29.5738 18.9002C28.7154 19.7982 27.8678 20.782 27.0447 21.8342L28.6201 23.0664Z" fill="white" mask="url(#path-2-inside-1_739_1011)"/>
</svg>
